/* XPM */
static char *_adad1f34fd74591f120dc50acf257c2mFBiUx2elWnymfYl[] = {
/* columns rows colors chars-per-pixel */
"62 62 125 2 ",
"   c #060606",
".  c #080606",
"X  c #080807",
"o  c #0B0B0B",
"O  c #131313",
"+  c #1F1517",
"@  c #1B1B1A",
"#  c #1B211C",
"$  c #232323",
"%  c #262A27",
"&  c #272629",
"*  c #292A2A",
"=  c #2D2B30",
"-  c #333334",
";  c #393436",
":  c #3D3B3B",
">  c #43322D",
",  c #4E3D35",
"<  c #453E3C",
"1  c #424035",
"2  c #55433A",
"3  c #5A473D",
"4  c #403F43",
"5  c #434343",
"6  c #484442",
"7  c #4D4946",
"8  c #474749",
"9  c #4B4B4C",
"0  c #5E4C44",
"q  c #5F4649",
"w  c #534D4A",
"e  c #584A49",
"r  c #56524D",
"t  c #5A544E",
"y  c #4F4F50",
"u  c #535353",
"i  c #5A5653",
"p  c #585857",
"a  c #575758",
"s  c #5B5B5B",
"d  c #614D42",
"f  c #6C494B",
"g  c #675347",
"h  c #695447",
"j  c #64554B",
"k  c #6B594C",
"l  c #635951",
"z  c #6B5E55",
"x  c #605C5A",
"c  c #536452",
"v  c #5B7459",
"b  c #64615C",
"n  c #72665B",
"m  c #74685F",
"M  c #636462",
"N  c #6E6766",
"B  c #696967",
"V  c #6C6C6B",
"C  c #736B62",
"Z  c #6F706F",
"A  c #71716F",
"S  c #757674",
"D  c #777876",
"F  c #797976",
"G  c #7C7D7B",
"H  c #827E6D",
"J  c #837E74",
"K  c #7F807D",
"L  c #868071",
"P  c #8A8274",
"I  c #82827F",
"U  c #8A867B",
"Y  c #8D8A7F",
"T  c #938C7C",
"R  c #93917E",
"E  c #848583",
"W  c #878886",
"Q  c #8C8B84",
"!  c #8C8D89",
"~  c #9C8F88",
"^  c #889B82",
"/  c #8C9189",
"(  c #979285",
")  c #9B9483",
"_  c #9F9987",
"`  c #94938C",
"'  c #9A968B",
"]  c #9C988C",
"[  c #959692",
"{  c #9A9A94",
"}  c #9F9F99",
"|  c #A29C8C",
" . c #9FA19C",
".. c #A5A08F",
"X. c #A8A18E",
"o. c #A6A193",
"O. c #ABA594",
"+. c #AEA896",
"@. c #A2A39D",
"#. c #A9A79C",
"$. c #ADAA9B",
"%. c #B0AA96",
"&. c #B0AA98",
"*. c #B0AB9D",
"=. c #A7A8A1",
"-. c #A6A8A3",
";. c #AAAAA3",
":. c #ADAFA8",
">. c #B2AFA2",
",. c #B2B0A5",
"<. c #B4B2A6",
"1. c #B3B3A8",
"2. c #B0B1AB",
"3. c #B3B3AA",
"4. c #B4B4AB",
"5. c #B0B2AC",
"6. c #B1B3AD",
"7. c #B2B3AD",
"8. c #B2B4AD",
"9. c #B4B6AF",
"0. c #B8BAB3",
"q. c #B9BAB3",
"w. c #B9BBB3",
"e. c #BEC0B8",
"r. c #C3C4BD",
/* pixels */
"                                                                                                                            ",
"                                                                                                                            ",
"                                                                                                                            ",
"                                                                                                                            ",
"                                                                                                                            ",
"                                                                                                                            ",
"                                                                                                                            ",
"                                                                                                                            ",
"                                                                                                                            ",
"                                                                                                                            ",
"                                                            - V #                                                           ",
"                                                          5 9.r.=.$                                                         ",
"                                                      . $ 3.5.e.5.@.o                                                       ",
"                                                      . ! 9.5.e.3.w.M o                                                     ",
"                                                      ; w.5.8.e.5.8.3.O                                                     ",
"                                                      E 9.5.5.E 5.5.w.u                                                     ",
"                                                    @ 3.3.;.` 8 -.:.w.! X                                                   ",
"                                                    9 4.| o.U 5 | X.o.4.@                                                   ",
"                                                    A 3.O.o.G 5 _ o.o.>.5                                                   ",
"                                                  X ` $.O.o.U 5 | O.O.<.M X                                                 ",
"                                                  @ ;.&.O.O.O.U O.O.O.<.K o                                                 ",
"                                                  * w.o.O.+.O.O.O.O.O.$.[ o                                                 ",
"                                                  5 8.O.O.+.O.O.O.+.O.$.-.@                                                 ",
"                                                  p <.o.+.O.+.O.O.O.O.o.0.&                                                 ",
"                                                  B <.O.O.O.O.O.O.O.O.o.w.-                                                 ",
"                                                X A { o.$.$.;.;.;.#.o.o. .6                                                 ",
"                                                X F ` :.8.8.8.8.5.8.8. .@.9                                                 ",
"                                                X E ! [ E M p u s V { ! #.u                                                 ",
"                                                o D G * : 8 ; * : 6 - s S r                                                 ",
"                                                o u W : r 9 < + 6 9 7 i a -                                                 ",
"                                                o u ! b w 9 e > t 9 t J 9 *                                                 ",
"                                                o u I C l i j 2 l t i I 9 *                                                 ",
"                                                o u F U 0 3 0 d 0 , m Q r & X                                               ",
"                                                o 9 A ( n d k h g , T ' 9 &                                                 ",
"                                                  9 B ] J 3 h h d 3 ) ' 9 $                                                 ",
"                                                  8 b o.T , 3 3 2 d R ' 5 %                                                 ",
"                                                  8 s o.| _ J x T | ( ` 8 %                                                 ",
"                                                  8 a ' P T Y V ) T L Y w *                                                 ",
"                                                  e q ~ T | U M | | H U c % X                                               ",
"                                                o e f ~ o.+.) S O.o.R ^ v #                                                 ",
"                                                  6 N | O.+.' V +.+.o./ M @                                                 ",
"                                                  = S ] X.O.] A +.+._ E D O                                                 ",
"                                                  & G ` | %.] F +.+.o.E D o                                                 ",
"                                                  $ W Q X.+.] D O.+.o.W a                                                   ",
"                                                  o G @.X.+.] D O.O.o.#.:                                                   ",
"                                                    M 5.| O.] S O.O.o.{ =                                                   ",
"                                                    5 } | o.( Z O.o. .K $                                                   ",
"                                                    - [ ( | Q b ..] ' Z O                                                   ",
"                                                    $ B i n C C m b s 9 o                                                   ",
"                                                    . 5 w l z n z j 9 % X                                                   ",
"                                                        X   @ i X                                                           ",
"                                                            o 1                                                             ",
"                                                                                                                            ",
"                                                                                                                            ",
"                                                                                                                            ",
"                                                                                                                            ",
"                                                                                                                            ",
"                                                                                                                            ",
"                                                                                                                            ",
"                                                                                                                            ",
"                                                                                                                            ",
"                                                                                                                            "
};
