/* XPM */
static char *_fefc5e02f7e42b4c826498cd54258dczd906fW0zjyDYADl[] = {
/* columns rows colors chars-per-pixel */
"64 64 49 1 ",
"  c #B7C8C6",
". c #C6D7D5",
"X c #D2D2D2",
"o c #4299A7",
"O c #659EA7",
"+ c #4D868F",
"@ c #3F7C86",
"# c #1C5963",
"$ c #0E7281",
"% c #257C8A",
"& c #5B949D",
"* c #27646E",
"= c #1C808F",
"- c #358C99",
"; c #6BC2CF",
": c #3B9DAC",
"> c #157786",
", c #317F8B",
"< c #59A7B3",
"1 c #125B66",
"2 c #58AFBC",
"3 c #3092A1",
"4 c #4896A2",
"5 c #216A75",
"6 c #3B848F",
"7 c #5197A2",
"8 c #176A77",
"9 c #156A77",
"0 c #398C99",
"q c #40AFC0",
"w c #208FA0",
"e c #348996",
"r c #448A95",
"t c #397F8A",
"y c #267986",
"u c #31A0B1",
"i c #227784",
"p c #6199A2",
"a c #53A1AD",
"s c #518B94",
"d c #235D66",
"f c #137584",
"g c #73ABB4",
"h c #3E8C98",
"j c #37717A",
"k c #47A9B8",
"l c #C3C3C3",
"z c #649CA5",
"x c white",
/* pixels */
"  ......  ......  ......  ......  ......  ......  ......  ......",
"  ......  ......  ......  ......  ......  ......  ......  ......",
"XXooooooooooooooXXOOOOOOOOOOOO++XX@@@@@@@@@@@@##XX$$$$$$$$$$$$$$",
"XXooooooooooooooXXOOOOOOOOOOOO++XX@@@@@@@@@@@@##XX$$$$$$$$$$$$$$",
"XXoo%%%%%%%%%%ooXXOO&&&&&&&&&&++XX@@**********##XX$$==========$$",
"XXoo%%%%%%%%%%ooXXOO&&&&&&&&&&++XX@@**********##XX$$==========$$",
"XXoo%%%%%%%%%%ooXXOO&&&&&&&&&&++XX@@**********##XX$$==========$$",
"XXoo%%%%%%%%%%ooXXOO&&&&&&&&&&++XX@@**********##XX$$==========$$",
"XXoo%%%%%%%%%%ooXXOO&&&&&&&&&&++XX@@**********##XX$$==========$$",
"XXoo%%%%%%%%%%ooXXOO&&&&&&&&&&++XX@@**********##XX$$==========$$",
"XXoo%%%%%%%%%%ooXXOO&&&&&&&&&&++XX@@**********##XX$$==========$$",
"XXoo%%%%%%%%%%ooXXOO&&&&&&&&&&++XX@@**********##XX$$==========$$",
"XXoo%%%%%%%%%%ooXXOO&&&&&&&&&&++XX@@**********##XX$$==========$$",
"XXoo%%%%%%%%%%ooXXOO&&&&&&&&&&++XX@@**********##XX$$==========$$",
"XXooooooooooooooXX++++++++++++++XX##############XX$$$$$$$$$$$$$$",
"XXooooooooooooooXX++++++++++++++XX##############XX$$$$$$$$$$$$$$",
"  ......  ......  ......  ......  ......  ......  ......  ......",
"  ......  ......  ......  ......  ......  ......  ......  ......",
"XX------------;;XX::::::::::::>>XX,,<<<<<<<<<<<<XX11111111111111",
"XX------------;;XX::::::::::::>>XX,,<<<<<<<<<<<<XX11111111111111",
"XX--2222222222;;XX::3333333333>>XX,,4444444444<<XX11555555555566",
"XX--2222222222;;XX::3333333333>>XX,,4444444444<<XX11555555555566",
"XX--2222222222;;XX::3333333333>>XX,,4444444444<<XX11555555555566",
"XX--2222222222;;XX::3333333333>>XX,,4444444444<<XX11555555555566",
"XX--2222222222;;XX::3333333333>>XX,,4444444444<<XX11555555555566",
"XX--2222222222;;XX::3333333333>>XX,,4444444444<<XX11555555555566",
"XX--2222222222;;XX::3333333333>>XX,,4444444444<<XX11555555555566",
"XX--2222222222;;XX::3333333333>>XX,,4444444444<<XX11555555555566",
"XX--2222222222;;XX::3333333333>>XX,,4444444444<<XX11555555555566",
"XX--2222222222;;XX::3333333333>>XX,,4444444444<<XX11555555555566",
"XX;;;;;;;;;;;;;;XX>>>>>>>>>>>>>>XX,,,,,,,,,,,,,,XX11666666666666",
"XX;;;;;;;;;;;;;;XX>>>>>>>>>>>>>>XX,,,,,,,,,,,,,,XX11666666666666",
"  ..............  ......  ..............  ......  ......  ......",
"  ..............  ......  ..............  ......  ......  ......",
"XX77777777777777XX88888888999900XXqqqqqqqqqqqqwwXX99eeeeeeeeeeee",
"XX77777777777777XX88888888999900XXqqqqqqqqqqqqwwXX99eeeeeeeeeeee",
"XX77rrrrrrrrrrttXX88yyyyyyyyyy00XXqquuuuuuuuuuwwXX99iiiiiiiiiiee",
"XX77rrrrrrrrrrttXX88yyyyyyyyyy00XXqquuuuuuuuuuwwXX99iiiiiiiiiiee",
"XX77rrrrrrrrrrttXX88yyyyyyyyyy00XXqquuuuuuuuuuwwXX99iiiiiiiiiiee",
"XX77rrrrrrrrrrttXX88yyyyyyyyyy00XXqquuuuuuuuuuwwXX99iiiiiiiiiiee",
"XX77rrrrrrrrrrttXX88yyyyyyyyyy00XXqquuuuuuuuuuwwXX99iiiiiiiiiiee",
"XX77rrrrrrrrrrttXX88yyyyyyyyyy00XXqquuuuuuuuuuwwXX99iiiiiiiiiiee",
"XX77rrrrrrrrrrttXX88yyyyyyyyyy00XXqquuuuuuuuuuwwXX99iiiiiiiiiiee",
"XX77rrrrrrrrrrttXX88yyyyyyyyyy00XXqquuuuuuuuuuwwXX99iiiiiiiiiiee",
"XX77rrrrrrrrrrttXX88yyyyyyyyyy00XXqquuuuuuuuuuwwXX99iiiiiiiiiiee",
"XX77rrrrrrrrrrttXX88yyyyyyyyyy00XXqquuuuuuuuuuwwXX99iiiiiiiiiiee",
"XX77ttttttttttttXX00000000000000XXwwwwwwwwwwwwwwXX99999999999999",
"XX77ttttttttttttXX00000000000000XXwwwwwwwwwwwwwwXX99999999999999",
"  ..............  ......  ......  ......  ......  ......  ......",
"  ..............  ......  ......  ......  ......  ......  ......",
"XXppppppppppppppXXaaaaaaaaaaaaaaXXssssssssssssddXXffffffffffffff",
"XXppppppppppppppXXaaaaaaaaaaaaaaXXssssssssssssddXXffffffffffffff",
"XXppggggggggggOOXXaahhhhhhhhhhaaXXssjjjjjjjjjjddXXff3333333333kk",
"XXppggggggggggOOXXaahhhhhhhhhhaaXXssjjjjjjjjjjddXXff3333333333kk",
"XXppggggggggggOOXXaahhhhhhhhhhaaXXssjjjjjjjjjjddXXff3333333333kk",
"XXppggggggggggOOXXaahhhhhhhhhhaaXXssjjjjjjjjjjddXXff3333333333kk",
"llppggggggggggzzllaahhhhhhhhhhaallssjjjjjjjjjjddllff3333333333kk",
"llppggggggggggzzllaahhhhhhhhhhaallssjjjjjjjjjjddllff3333333333kk",
"XXppggggggggggzzXXaahhhhhhhhhhaaXXssjjjjjjjjjjddXXff3333333333kk",
"XXppggggggggggzzXXaahhhhhhhhhhaaXXssjjjjjjjjjjddXXff3333333333kk",
"XXppggggggggggzzXXaahhhhhhhhhhaaXXssjjjjjjjjjjddXXff3333333333kk",
"XXppggggggggggzzXXaahhhhhhhhhhaaXXssjjjjjjjjjjddXXff3333333333kk",
"XXppzzzzzzzzzzzzXXaaaaaaaaaaaaaaXXddddddddddddddXXffkkkkkkkkkkkk",
"XXppzzzzzzzzzzzzXXaaaaaaaaaaaaaaXXddddddddddddddXXffkkkkkkkkkkkk"
};
