/* XPM */
static char *bce29cdf38024bc6d0fd6c4f42ba9bd0pvsQRIalEpSZm5xJ[] = {
/* columns rows colors chars-per-pixel */
"50 50 142 2 ",
"   c #000000",
".  c #070804",
"X  c #0A0C06",
"o  c #0D0E09",
"O  c #0E1104",
"+  c #0F1109",
"@  c #141707",
"#  c #151A01",
"$  c #181F01",
"%  c #12150A",
"&  c #161A0B",
"*  c #191D0D",
"=  c #1B1E11",
"-  c #1B2301",
";  c #1C220C",
":  c #1F2511",
">  c #212701",
",  c #232D01",
"<  c #21270E",
"1  c #232A0D",
"2  c #263202",
"3  c #2A3602",
"4  c #2D3B03",
"5  c #273209",
"6  c #2B330D",
"7  c #2F3B0A",
"8  c #323E04",
"9  c #313C0A",
"0  c #212611",
"q  c #242B12",
"w  c #282F13",
"e  c #282D18",
"r  c #273011",
"t  c #2C3413",
"y  c #333C14",
"u  c #323D1B",
"i  c #2F4006",
"p  c #354304",
"a  c #384605",
"s  c #374802",
"d  c #3B4B05",
"f  c #35420A",
"g  c #39460B",
"h  c #3C4B0A",
"j  c #3F5104",
"k  c #3F510A",
"l  c #364114",
"z  c #394414",
"x  c #3D4B13",
"c  c #3A461C",
"v  c #3E4B19",
"b  c #3F5010",
"n  c #3D4724",
"m  c #414E0B",
"M  c #425405",
"N  c #455904",
"B  c #495D05",
"V  c #43540B",
"C  c #465A0C",
"Z  c #4A5D0C",
"A  c #414F15",
"S  c #404E1A",
"D  c #445413",
"F  c #485615",
"G  c #475912",
"H  c #4A5C12",
"J  c #45531B",
"K  c #47581A",
"L  c #4B5B1B",
"P  c #4C6206",
"I  c #4D610D",
"U  c #4D620D",
"Y  c #4E630F",
"T  c #4F640F",
"R  c #506707",
"E  c #52650B",
"W  c #52670A",
"Q  c #51660C",
"!  c #546B0C",
"~  c #57700E",
"^  c #5D780D",
"/  c #4C6211",
"(  c #4E6012",
")  c #4E6112",
"_  c #4E6213",
"`  c #4E6015",
"'  c #4E6214",
"]  c #4D6019",
"[  c #506510",
"{  c #516610",
"}  c #536512",
"|  c #506415",
" . c #506615",
".. c #526614",
"X. c #526715",
"o. c #516516",
"O. c #546715",
"+. c #536910",
"@. c #556A13",
"#. c #556B13",
"$. c #566C11",
"%. c #556D12",
"&. c #546916",
"*. c #546A17",
"=. c #576F16",
"-. c #586F11",
";. c #596F13",
":. c #526719",
">. c #53641A",
",. c #54691B",
"<. c #556A1A",
"1. c #576E1A",
"2. c #5A6D19",
"3. c #596F1A",
"4. c #577112",
"5. c #597010",
"6. c #5A7111",
"7. c #5B7212",
"8. c #5B7510",
"9. c #5A7215",
"0. c #5B7317",
"q. c #5A7018",
"w. c #5B721A",
"e. c #5C731B",
"r. c #5D7518",
"t. c #5F7718",
"y. c #5D731E",
"u. c #5F7919",
"i. c #617A14",
"p. c #60761C",
"a. c #61791A",
"s. c #637E1C",
"d. c #475325",
"f. c #4D5D22",
"g. c #4F5D26",
"h. c #4F5930",
"j. c #566A21",
"k. c #5A6E24",
"l. c #5D7421",
"z. c #576233",
"x. c #627B21",
"c. c #668020",
/* pixels */
"                                                                                                    ",
"                                                                                                    ",
"                                                                                                    ",
"                                                                                                    ",
"                                  X *         X     @ y y X 0 %       + o o                         ",
"                                % ,.u     % J r . o . H Z >.g.h.=   . 1 L g                         ",
"                            % . K 5 y o o x Z o.,.a.v y g A q v J v L 0 h J *                       ",
"                          t b f r   f S x 1 a ) U ) a.s.&.y x 9 p 8 V ` ,.w < X                     ",
"                            r L 9.g H z H h Z H 9.1.Z o.) &.h V p h h Z U y.m V v                   ",
"                    y & . . v h B V V m Z -.9.H &.U U p.-.r.U V Z Z x F h A l D :                   ",
"                  * l f L t o.F D C &.Z Z Z } E 5.8.p C V 5.E a.g V ^ h m m g h *                   ",
"                % 0 H ,.y.o.C &.,.w.F m Z } W m D d Z 8 d U W @.V u.V U V K V H t                   ",
"              ; l V Z ,.Z Z o.V H Z s 8 8 m M Z s m B a s M U +.o.C p 8 H +.) H D .                 ",
"              * 6 V 2.Z m m Z Z d f @.3 p m p p a M p 8 3 5.V M } 9.V U M s +.:.` t 1               ",
"              % u ,.M m g A H d g p h i 8 a 8 a , m p 4 m W 4.d &.4.#.4.} h M +.#.C S               ",
"              * V N d p m m g ) f h s g M M 8 8 8 8 W 8 8 M M 4 C U _ :.#.9.d M C H ,.X             ",
"            . j.J D F 3 8 a h d h Z d p m Z -.8 > 8 M M m a m d ~ ) U F k U g k ' k  ..             ",
"            . F U C p f - 3 C m N p M @.! M B Z 9 5 m M 4 8 8 g U d d U k C p d b 4.C ' %           ",
"            q V 8 D -.V h D 3 d W U s d s P C M d V M 2 8 P d E j 4.%.p j D ] N C V ] t             ",
"            q F D o.V 3 ) H %.d d M p } B Z ^ m 5 # # - #.B M U s U j V w.N #.c.] D v               ",
"        X J o.n y d 4 2 f V p p V ! W s V C d p , O - , U d N j N N s p N u.9.r.C ! ;               ",
"        % y Z J H s V d d g C C g V Z s M 8 2 p d a s 4 N d f j M p j p I u.C s C :.D 1 +           ",
"        o F g h M d H M V ' g V M 8 s 4 2 d E M W W N j U d 2 N 4 4 2 d s %.V _ &.j h l.; +         ",
"        % m M m p p V p F &.M M d p 4 C W N M N N j j s d U , - s I M k k N ' l._ j E l.L .         ",
"        . v ) f V g V H V g Z s d , 2 9 B s s s M j N d W W 3 8 s d d M C C / / C k p &.L           ",
"        . ; H 8 G V h +.d d U s p 4 - 8 N M 8 d s B p N d W w.p i s j 8.! f k N d V i ) &.7 .       ",
"      . X v Z 2 o.M V V +.Z ) f s M 2 , 2 s - s B C M d ! ;.g M ' N k d d j N h C i G >.l y .       ",
"      6 M x x ) h d F 2.N Z ! p d 4 - - 8 M 2 m U ! g Z E M Z N C i P c.k Z d d +.h N ! g           ",
"        : b f h v >.Z 8.V U V p Z p C 2 Z N 3 9 h ! d 4 4 2 2 d ^ d j e.k U / d ) ` C H y           ",
"          : F o.6 H %.B s V 4 j d W N N p Z 8 , 4 4 4 8 ! B N B R C s /  .V C j k d P f.X           ",
"            n s M f V H P g P U ` M F ! d ! 7 O - C ! s N P N W j N P k C / i h Z k D ] d.          ",
"            v x >.V C H U V U g ! d C V N ! %.M d N W M P N P %./ e./ s h d p C j j K D ;           ",
"          . ] H H y.) s 8 o.N C k D h - j 5.3 4 M B N N 4.! 9.f k j U G 7 s ` _ ' H K >.:           ",
"            X u D Z y.h 3 h s.C 4 i 4 s U P - - p C ' H _ 4 d h ~ d b 2 f N H g D t q X             ",
"              O F m H g N h C o.Z d 5.N i.H 7 p N U d k k j #.h p x ' 4 f k g h Z y                 ",
"                j.Z H a a 9 x V +.#.w.g h d p _ +.C p I j p H j w./ C &.k N p d / *                 ",
"              X G h H h , k V p +.~ H M C o.! %.C B C C j U k D ! ' 9./ k i F K l ;                 ",
"              . Z H o.H V V H o.8.! 5.&.! H C Z C ` j _ w.W V C / / C 1./ 1.l.:                     ",
"                v v w.,.U 8 H 9.) ) ! ~ C V H V ' U +.h P _ ! / #._ j Y u.*.5                       ",
"                . ; z 1.#.H M h k V 1.2.U Z d V ' :.N B +.b x k k D ! _ U D c                       ",
"                    % J w.) _ d V M ` 9.D U 2.V C -.M w.k.o.} H L q } G ,.K t 1                     ",
"                        ; J j.D L ! &.` x.U &.%.,.O.U &.-.o.V m h 9 a A M z y &                     ",
"                            y H U o.H o.p 2.F ) g y.w.H o.o.y 1 t t 6 g x.%                         ",
"                          @ 6 a &.F ` L o.f.t y ,.k.J ) L D u t .   & H u                           ",
"                          & F t : r z.v .     O O . o t @ % e       + *                             ",
"                                    = e                     .                                       ",
"                                                                                                    ",
"                                                                                                    ",
"                                                                                                    ",
"                                                                                                    "
};
