/* XPM */
static char *_30a8e67c767477ee317db89492094aejT7njvCsx0h238m0[] = {
/* columns rows colors chars-per-pixel */
"32 32 8 1 ",
"  c None",
". c #B90000",
"X c red",
"o c #00CC0E",
"O c #00FF11",
"+ c #DFC500",
"@ c #FFE100",
"# c white",
/* pixels */
"                                ",
"                                ",
"                                ",
"                                ",
"                                ",
"                                ",
"                                ",
"                                ",
"                                ",
"              XXXX              ",
"            XX....XX            ",
"           X..    ..X           ",
"          X.        .X          ",
"       OOOO          X          ",
"     OOooooOO       X.          ",
"    Ooo   .ooO     X.           ",
"   Oo       .oO   #.            ",
"  oO          O###.             ",
"  oO          O                 ",
"  oO         OO                 ",
"   oOO      OOo     @@@@@       ",
"    oO#    #Oo     @+++++@      ",
"     oo####oo     @+     +@     ",
"                 @+       +@    ",
"                 @         @    ",
"                 @         @    ",
"                 +        @+    ",
"                  +#     #+     ",
"                   +#####+      ",
"                                ",
"                                ",
"                                "
};
