/* XPM */
static char *_7c81325c2094656cc8d0affb04b764evc9uzjlNGTku2M3U[] = {
/* columns rows colors chars-per-pixel */
"64 64 8 1 ",
"  c #B90000",
". c red",
"X c #00CC0E",
"o c #00FF11",
"O c #DFC500",
"+ c #FFE100",
"@ c #639BFF",
"# c white",
/* pixels */
"@@@@@@@@@@@@@@@@@@@@@@@@@@@@@@@@@@@@@@@@@@@@@@@@@@@@@@@@@@@@@@@@",
"@@@@@@@@@@@@@@@@@@@@@@@@@@@@@@@@@@@@@@@@@@@@@@@@@@@@@@@@@@@@@@@@",
"@@@@@@@@@@@@@@@@@@@@@@@@@@@@@@@@@@@@@@@@@@@@@@@@@@@@@@@@@@@@@@@@",
"@@@@@@@@@@@@@@@@@@@@@@@@@@@@@@@@@@@@@@@@@@@@@@@@@@@@@@@@@@@@@@@@",
"@@@@@@@@@@@@@@@@@@@@@@@@@@@@@@@@@@@@@@@@@@@@@@@@@@@@@@@@@@@@@@@@",
"@@@@@@@@@@@@@@@@@@@@@@@@@@@@@@@@@@@@@@@@@@@@@@@@@@@@@@@@@@@@@@@@",
"@@@@@@@@@@@@@@@@@@@@@@@@@@@@@@@@@@@@@@@@@@@@@@@@@@@@@@@@@@@@@@@@",
"@@@@@@@@@@@@@@@@@@@@@@@@@@@@@@@@@@@@@@@@@@@@@@@@@@@@@@@@@@@@@@@@",
"@@@@@@@@@@@@@@@@@@@@@@@@@@@@@@@@@@@@@@@@@@@@@@@@@@@@@@@@@@@@@@@@",
"@@@@@@@@@@@@@@@@@@@@@@@@@@@@@@@@@@@@@@@@@@@@@@@@@@@@@@@@@@@@@@@@",
"@@@@@@@@@@@@@@@@@@@@@@@@@@@@@@@@@@@@@@@@@@@@@@@@@@@@@@@@@@@@@@@@",
"@@@@@@@@@@@@@@@@@@@@@@@@@@@@@@@@@@@@@@@@@@@@@@@@@@@@@@@@@@@@@@@@",
"@@@@@@@@@@@@@@@@@@@@@@@@@@@@@@@@@@@@@@@@@@@@@@@@@@@@@@@@@@@@@@@@",
"@@@@@@@@@@@@@@@@@@@@@@@@@@@@@@@@@@@@@@@@@@@@@@@@@@@@@@@@@@@@@@@@",
"@@@@@@@@@@@@@@@@@@@@@@@@@@@@@@@@@@@@@@@@@@@@@@@@@@@@@@@@@@@@@@@@",
"@@@@@@@@@@@@@@@@@@@@@@@@@@@@@@@@@@@@@@@@@@@@@@@@@@@@@@@@@@@@@@@@",
"@@@@@@@@@@@@@@@@@@@@@@@@@@@@@@@@@@@@@@@@@@@@@@@@@@@@@@@@@@@@@@@@",
"@@@@@@@@@@@@@@@@@@@@@@@@@@@@@@@@@@@@@@@@@@@@@@@@@@@@@@@@@@@@@@@@",
"@@@@@@@@@@@@@@@@@@@@@@@@@@@@........@@@@@@@@@@@@@@@@@@@@@@@@@@@@",
"@@@@@@@@@@@@@@@@@@@@@@@@@@@@........@@@@@@@@@@@@@@@@@@@@@@@@@@@@",
"@@@@@@@@@@@@@@@@@@@@@@@@....        ....@@@@@@@@@@@@@@@@@@@@@@@@",
"@@@@@@@@@@@@@@@@@@@@@@@@....        ....@@@@@@@@@@@@@@@@@@@@@@@@",
"@@@@@@@@@@@@@@@@@@@@@@..    @@@@@@@@    ..@@@@@@@@@@@@@@@@@@@@@@",
"@@@@@@@@@@@@@@@@@@@@@@..    @@@@@@@@    ..@@@@@@@@@@@@@@@@@@@@@@",
"@@@@@@@@@@@@@@@@@@@@..  @@@@@@@@@@@@@@@@  ..@@@@@@@@@@@@@@@@@@@@",
"@@@@@@@@@@@@@@@@@@@@..  @@@@@@@@@@@@@@@@  ..@@@@@@@@@@@@@@@@@@@@",
"@@@@@@@@@@@@@@oooooooo@@@@@@@@@@@@@@@@@@@@..@@@@@@@@@@@@@@@@@@@@",
"@@@@@@@@@@@@@@oooooooo@@@@@@@@@@@@@@@@@@@@..@@@@@@@@@@@@@@@@@@@@",
"@@@@@@@@@@ooooXXXXXXXXoooo@@@@@@@@@@@@@@..  @@@@@@@@@@@@@@@@@@@@",
"@@@@@@@@@@ooooXXXXXXXXoooo@@@@@@@@@@@@@@..  @@@@@@@@@@@@@@@@@@@@",
"@@@@@@@@ooXXXX@@@@@@  XXXXoo@@@@@@@@@@..  @@@@@@@@@@@@@@@@@@@@@@",
"@@@@@@@@ooXXXX@@@@@@  XXXXoo@@@@@@@@@@..  @@@@@@@@@@@@@@@@@@@@@@",
"@@@@@@ooXX@@@@@@@@@@@@@@  XXoo@@@@@@##  @@@@@@@@@@@@@@@@@@@@@@@@",
"@@@@@@ooXX@@@@@@@@@@@@@@  XXoo@@@@@@##  @@@@@@@@@@@@@@@@@@@@@@@@",
"@@@@XXoo@@@@@@@@@@@@@@@@@@@@oo######  @@@@@@@@@@@@@@@@@@@@@@@@@@",
"@@@@XXoo@@@@@@@@@@@@@@@@@@@@oo######  @@@@@@@@@@@@@@@@@@@@@@@@@@",
"@@@@XXoo@@@@@@@@@@@@@@@@@@@@oo@@@@@@@@@@@@@@@@@@@@@@@@@@@@@@@@@@",
"@@@@XXoo@@@@@@@@@@@@@@@@@@@@oo@@@@@@@@@@@@@@@@@@@@@@@@@@@@@@@@@@",
"@@@@XXoo@@@@@@@@@@@@@@@@@@oooo@@@@@@@@@@@@@@@@@@@@@@@@@@@@@@@@@@",
"@@@@XXoo@@@@@@@@@@@@@@@@@@oooo@@@@@@@@@@@@@@@@@@@@@@@@@@@@@@@@@@",
"@@@@@@XXoooo@@@@@@@@@@@@ooooXX@@@@@@@@@@++++++++++@@@@@@@@@@@@@@",
"@@@@@@XXoooo@@@@@@@@@@@@ooooXX@@@@@@@@@@++++++++++@@@@@@@@@@@@@@",
"@@@@@@@@XXoo##@@@@@@@@##ooXX@@@@@@@@@@++OOOOOOOOOO++@@@@@@@@@@@@",
"@@@@@@@@XXoo##@@@@@@@@##ooXX@@@@@@@@@@++OOOOOOOOOO++@@@@@@@@@@@@",
"@@@@@@@@@@XXXX########XXXX@@@@@@@@@@++OO@@@@@@@@@@OO++@@@@@@@@@@",
"@@@@@@@@@@XXXX########XXXX@@@@@@@@@@++OO@@@@@@@@@@OO++@@@@@@@@@@",
"@@@@@@@@@@@@@@@@@@@@@@@@@@@@@@@@@@++OO@@@@@@@@@@@@@@OO++@@@@@@@@",
"@@@@@@@@@@@@@@@@@@@@@@@@@@@@@@@@@@++OO@@@@@@@@@@@@@@OO++@@@@@@@@",
"@@@@@@@@@@@@@@@@@@@@@@@@@@@@@@@@@@++@@@@@@@@@@@@@@@@@@++@@@@@@@@",
"@@@@@@@@@@@@@@@@@@@@@@@@@@@@@@@@@@++@@@@@@@@@@@@@@@@@@++@@@@@@@@",
"@@@@@@@@@@@@@@@@@@@@@@@@@@@@@@@@@@++@@@@@@@@@@@@@@@@@@++@@@@@@@@",
"@@@@@@@@@@@@@@@@@@@@@@@@@@@@@@@@@@++@@@@@@@@@@@@@@@@@@++@@@@@@@@",
"@@@@@@@@@@@@@@@@@@@@@@@@@@@@@@@@@@OO@@@@@@@@@@@@@@@@++OO@@@@@@@@",
"@@@@@@@@@@@@@@@@@@@@@@@@@@@@@@@@@@OO@@@@@@@@@@@@@@@@++OO@@@@@@@@",
"@@@@@@@@@@@@@@@@@@@@@@@@@@@@@@@@@@@@OO##@@@@@@@@@@##OO@@@@@@@@@@",
"@@@@@@@@@@@@@@@@@@@@@@@@@@@@@@@@@@@@OO##@@@@@@@@@@##OO@@@@@@@@@@",
"@@@@@@@@@@@@@@@@@@@@@@@@@@@@@@@@@@@@@@OO##########OO@@@@@@@@@@@@",
"@@@@@@@@@@@@@@@@@@@@@@@@@@@@@@@@@@@@@@OO##########OO@@@@@@@@@@@@",
"@@@@@@@@@@@@@@@@@@@@@@@@@@@@@@@@@@@@@@@@@@@@@@@@@@@@@@@@@@@@@@@@",
"@@@@@@@@@@@@@@@@@@@@@@@@@@@@@@@@@@@@@@@@@@@@@@@@@@@@@@@@@@@@@@@@",
"@@@@@@@@@@@@@@@@@@@@@@@@@@@@@@@@@@@@@@@@@@@@@@@@@@@@@@@@@@@@@@@@",
"@@@@@@@@@@@@@@@@@@@@@@@@@@@@@@@@@@@@@@@@@@@@@@@@@@@@@@@@@@@@@@@@",
"@@@@@@@@@@@@@@@@@@@@@@@@@@@@@@@@@@@@@@@@@@@@@@@@@@@@@@@@@@@@@@@@",
"@@@@@@@@@@@@@@@@@@@@@@@@@@@@@@@@@@@@@@@@@@@@@@@@@@@@@@@@@@@@@@@@"
};
