/* XPM */
static char *result[] = {
/* columns rows colors chars-per-pixel */
"64 64 6 1 ",
"  c #A3A087",
". c #B4B198",
"X c #C0BDA4",
"o c #CFCCB3",
"O c #DCD9C0",
"+ c #B1ABAB",
/* pixels */
"                                                                ",
"                                                                ",
"  ............................................................  ",
"  ............................................................  ",
"  ............................................................  ",
"  ............................................................  ",
"  ......XXXXXXXXXXXXXXXXXXXXXXXXXXXXXXXXXXXXXXXXXXXXXXXX......  ",
"  ......XXXXXXXXXXXXXXXXXXXXXXXXXXXXXXXXXXXXXXXXXXXXXXXX......  ",
"  ....XXooooooooooooooooooooooooooooooooooooooooooooooooXX....  ",
"  ....XXooooooooooooooooooooooooooooooooooooooooooooooooXX....  ",
"  ....XXooooooooooooooooooooooooooooooooooooooooooooooooXX....  ",
"  ....XXooooooooooooooooooooooooooooooooooooooooooooooooXX....  ",
"  ....XXooooOOOOOOOOOOOOOOOOOOOOOOOOOOOOOOOOOOOOOOOOooooXX....  ",
"  ....XXooooOOOOOOOOOOOOOOOOOOOOOOOOOOOOOOOOOOOOOOOOooooXX....  ",
"  ....XXooooOOOOOOOOOOOOOOOOOOOOOOOOOOOOOOOOOOOOOOOOooooXX....  ",
"  ....XXooooOOOOOOOOOOOOOOOOOOOOOOOOOOOOOOOOOOOOOOOOooooXX....  ",
"  ....XXooooOOOOOOOOOOOOOOOOOOOOOOOOOOOOOOOOOOOOOOOOooooXX....  ",
"  ....XXooooOOOOOOOOOOOOOOOOOOOOOOOOOOOOOOOOOOOOOOOOooooXX....  ",
"  ....XXooooOOOOOOOOOOOOOOOOOOOOOOOOOOOOOOOOOOOOOOOOooooXX....  ",
"  ....XXooooOOOOOOOOOOOOOOOOOOOOOOOOOOOOOOOOOOOOOOOOooooXX....  ",
"  ....XXooooOOOOOOOOOOOOOOOOOOOOOOOOOOOOOOOOOOOOOOOOooooXX....  ",
"  ....XXooooOOOOOOOOOOOOOOOOOOOOOOOOOOOOOOOOOOOOOOOOooooXX....  ",
"  ....XXooooOOOOOOOOOOOOOOOOOOOOOOOOOOOOOOOOOOOOOOOOooooXX....  ",
"  ....XXooooOOOOOOOOOOOOOOOOOOOOOOOOOOOOOOOOOOOOOOOOooooXX....  ",
"  ....XXooooOOOOOOOOOOOOOOOOOOOOOOOOOOOOOOOOOOOOOOOOooooXX....  ",
"  ....XXooooOOOOOOOOOOOOOOOOOOOOOOOOOOOOOOOOOOOOOOOOooooXX....  ",
"  ....XXooooOOOOOOOOOOOOOOOOOOOOOOOOOOOOOOOOOOOOOOOOooooXX....  ",
"  ....XXooooOOOOOOOOOOOOOOOOOOOOOOOOOOOOOOOOOOOOOOOOooooXX....  ",
"  ....XXooooOOOOOOOOOOOOOOOOOOOOOOOOOOOOOOOOOOOOOOOOooooXX....  ",
"  ....XXooooOOOOOOOOOOOOOOOOOOOOOOOOOOOOOOOOOOOOOOOOooooXX....  ",
"  ....XXooooOOOOOOOOOOOOOOOOOOOOOOOOOOOOOOOOOOOOOOOOooooXX....  ",
"  ....XXooooOOOOOOOOOOOOOOOOOOOOOOOOOOOOOOOOOOOOOOOOooooXX....  ",
"  ....XXooooOOOOOOOOOOOOOOOOOOOOOOOOOOOOOOOOOOOOOOOOooooXX....  ",
"  ....XXooooOOOOOOOOOOOOOOOOOOOOOOOOOOOOOOOOOOOOOOOOooooXX....  ",
"  ....XXooooOOOOOOOOOOOOOOOOOOOOOOOOOOOOOOOOOOOOOOOOooooXX....  ",
"  ....XXooooOOOOOOOOOOOOOOOOOOOOOOOOOOOOOOOOOOOOOOOOooooXX....  ",
"  ....XXooooOOOOOOOOOOOOOOOOOOOOOOOOOOOOOOOOOOOOOOOOooooXX....  ",
"  ....XXooooOOOOOOOOOOOOOOOOOOOOOOOOOOOOOOOOOOOOOOOOooooXX....  ",
"  ....XXooooOOOOOOOOOOOOOOOOOOOOOOOOOOOOOOOOOOOOOOOOooooXX....  ",
"  ....XXooooOOOOOOOOOOOOOOOOOOOOOOOOOOOOOOOOOOOOOOOOooooXX....  ",
"  ....XXooooOOOOOOOOOOOOOOOOOOOOOOOOOOOOOOOOOOOOOOOOooooXX....  ",
"  ....XXooooOOOOOOOOOOOOOOOOOOOOOOOOOOOOOOOOOOOOOOOOooooXX....  ",
"  ....XXooooOOOOOOOOOOOOOOOOOOOOOOOOOOOOOOOOOOOOOOOOooooXX....  ",
"  ....XXooooOOOOOOOOOOOOOOOOOOOOOOOOOOOOOOOOOOOOOOOOooooXX....  ",
"  ....XXooooOOOOOOOOOOOOOOOOOOOOOOOOOOOOOOOOOOOOOOOOooooXX....  ",
"  ....XXooooOOOOOOOOOOOOOOOOOOOOOOOOOOOOOOOOOOOOOOOOooooXX....  ",
"  ....XXooooOOOOOOOOOOOOOOOOOOOOOOOOOOOOOOOOOOOOOOOOooooXX....  ",
"  ....XXooooOOOOOOOOOOOOOOOOOOOOOOOOOOOOOOOOOOOOOOOOooooXX....  ",
"  ....XXooooOOOOOOOOOOOOOOOOOOOOOOOOOOOOOOOOOOOOOOOOooooXX....  ",
"  ....XXooooOOOOOOOOOOOOOOOOOOOOOOOOOOOOOOOOOOOOOOOOooooXX....  ",
"  ....XXooooOOOOOOOOOOOOOOOOOOOOOOOOOOOOOOOOOOOOOOOOooooXX....  ",
"  ....XXooooOOOOOOOOOOOOOOOOOOOOOOOOOOOOOOOOOOOOOOOOooooXX....  ",
"  ....XXooooooooooooooooooooooooooooooooooooooooooooooooXX....  ",
"  ....XXooooooooooooooooooooooooooooooooooooooooooooooooXX....  ",
"  ....XXooooooooooooooooooooooooooooooooooooooooooooooooXX....  ",
"  ....XXooooooooooooooooooooooooooooooooooooooooooooooooXX....  ",
"  ......XXXXXXXXXXXXXXXXXXXXXXXXXXXXXXXXXXXXXXXXXXXXXXXX......  ",
"  ......XXXXXXXXXXXXXXXXXXXXXXXXXXXXXXXXXXXXXXXXXXXXXXXX......  ",
"  ............................................................  ",
"  ............................................................  ",
"  ............................................................  ",
"  ............................................................  ",
"                                                                ",
"                                                                "
};
