/* XPM */
static char *result[] = {
/* columns rows colors chars-per-pixel */
"64 64 7 1 ",
"  c #6D592D",
". c #9B875B",
"X c #C2AE82",
"o c #CEBA8E",
"O c #DDC99D",
"+ c #EAD6AA",
"@ c white",
/* pixels */
"                                                                ",
"                                                                ",
"  ............................................................  ",
"  ............................................................  ",
"  ..XXXXXXXXXXXXXXXXXXXXXXXXXXXXXXXXXXXXXXXXXXXXXXXXXXXXXXXX..  ",
"  ..XXXXXXXXXXXXXXXXXXXXXXXXXXXXXXXXXXXXXXXXXXXXXXXXXXXXXXXX..  ",
"  ..XXXXooooooooooooooooooooooooooooooooooooooooooooooooXXXX..  ",
"  ..XXXXooooooooooooooooooooooooooooooooooooooooooooooooXXXX..  ",
"  ..XXooOOOOOOOOOOOOOOOOOOOOOOOOOOOOOOOOOOOOOOOOOOOOOOOOooXX..  ",
"  ..XXooOOOOOOOOOOOOOOOOOOOOOOOOOOOOOOOOOOOOOOOOOOOOOOOOooXX..  ",
"  ..XXooOOOOOOOOOOOOOOOOOOOOOOOOOOOOOOOOOOOOOOOOOOOOOOOOooXX..  ",
"  ..XXooOOOOOOOOOOOOOOOOOOOOOOOOOOOOOOOOOOOOOOOOOOOOOOOOooXX..  ",
"  ..XXooOOOO++++++++++++++++++++++++++++++++++++++++OOOOooXX..  ",
"  ..XXooOOOO++++++++++++++++++++++++++++++++++++++++OOOOooXX..  ",
"  ..XXooOOOO++++++++++++++++++++++++++++++++++++++++OOOOooXX..  ",
"  ..XXooOOOO++++++++++++++++++++++++++++++++++++++++OOOOooXX..  ",
"  ..XXooOOOO++++++++++++++++++++++++++++++++++++++++OOOOooXX..  ",
"  ..XXooOOOO++++++++++++++++++++++++++++++++++++++++OOOOooXX..  ",
"  ..XXooOOOO++++++++++++++++++++++++++++++++++++++++OOOOooXX..  ",
"  ..XXooOOOO++++++++++++++++++++++++++++++++++++++++OOOOooXX..  ",
"  ..XXooOOOO++++++++++++++++++++++++++++++++++++++++OOOOooXX..  ",
"  ..XXooOOOO++++++++++++++++++++++++++++++++++++++++OOOOooXX..  ",
"  ..XXooOOOO++++++++++++++++++++++++++++++++++++++++OOOOooXX..  ",
"  ..XXooOOOO++++++++++++++++++++++++++++++++++++++++OOOOooXX..  ",
"  ..XXooOOOO++++++++++++++++++++++++++++++++++++++++OOOOooXX..  ",
"  ..XXooOOOO++++++++++++++++++++++++++++++++++++++++OOOOooXX..  ",
"  ..XXooOOOO++++++++++++++++++++++++++++++++++++++++OOOOooXX..  ",
"  ..XXooOOOO++++++++++++++++++++++++++++++++++++++++OOOOooXX..  ",
"  ..XXooOOOO++++++++++++++++++++++++++++++++++++++++OOOOooXX..  ",
"  ..XXooOOOO++++++++++++++++++++++++++++++++++++++++OOOOooXX..  ",
"  ..XXooOOOO++++++++++++++++++++++++++++++++++++++++OOOOooXX..  ",
"  ..XXooOOOO++++++++++++++++++++++++++++++++++++++++OOOOooXX..  ",
"  ..XXooOOOO++++++++++++++++++++++++++++++++++++++++OOOOooXX..  ",
"  ..XXooOOOO++++++++++++++++++++++++++++++++++++++++OOOOooXX..  ",
"  ..XXooOOOO++++++++++++++++++++++++++++++++++++++++OOOOooXX..  ",
"  ..XXooOOOO++++++++++++++++++++++++++++++++++++++++OOOOooXX..  ",
"  ..XXooOOOO++++++++++++++++++++++++++++++++++++++++OOOOooXX..  ",
"  ..XXooOOOO++++++++++++++++++++++++++++++++++++++++OOOOooXX..  ",
"  ..XXooOOOO++++++++++++++++++++++++++++++++++++++++OOOOooXX..  ",
"  ..XXooOOOO++++++++++++++++++++++++++++++++++++++++OOOOooXX..  ",
"  ..XXooOOOO++++++++++++++++++++++++++++++++++++++++OOOOooXX..  ",
"  ..XXooOOOO++++++++++++++++++++++++++++++++++++++++OOOOooXX..  ",
"  ..XXooOOOO++++++++++++++++++++++++++++++++++++++++OOOOooXX..  ",
"  ..XXooOOOO++++++++++++++++++++++++++++++++++++++++OOOOooXX..  ",
"  ..XXooOOOO++++++++++++++++++++++++++++++++++++++++OOOOooXX..  ",
"  ..XXooOOOO++++++++++++++++++++++++++++++++++++++++OOOOooXX..  ",
"  ..XXooOOOO++++++++++++++++++++++++++++++++++++++++OOOOooXX..  ",
"  ..XXooOOOO++++++++++++++++++++++++++++++++++++++++OOOOooXX..  ",
"  ..XXooOOOO++++++++++++++++++++++++++++++++++++++++OOOOooXX..  ",
"  ..XXooOOOO++++++++++++++++++++++++++++++++++++++++OOOOooXX..  ",
"  ..XXooOOOO++++++++++++++++++++++++++++++++++++++++OOOOooXX..  ",
"  ..XXooOOOO++++++++++++++++++++++++++++++++++++++++OOOOooXX..  ",
"  ..XXooOOOOOOOOOOOOOOOOOOOOOOOOOOOOOOOOOOOOOOOOOOOOOOOOooXX..  ",
"  ..XXooOOOOOOOOOOOOOOOOOOOOOOOOOOOOOOOOOOOOOOOOOOOOOOOOooXX..  ",
"  ..XXooOOOOOOOOOOOOOOOOOOOOOOOOOOOOOOOOOOOOOOOOOOOOOOOOooXX..  ",
"  ..XXooOOOOOOOOOOOOOOOOOOOOOOOOOOOOOOOOOOOOOOOOOOOOOOOOooXX..  ",
"  ..XXXXooooooooooooooooooooooooooooooooooooooooooooooooXXXX..  ",
"  ..XXXXooooooooooooooooooooooooooooooooooooooooooooooooXXXX..  ",
"  ..XXXXXXXXXXXXXXXXXXXXXXXXXXXXXXXXXXXXXXXXXXXXXXXXXXXXXXXX..  ",
"  ..XXXXXXXXXXXXXXXXXXXXXXXXXXXXXXXXXXXXXXXXXXXXXXXXXXXXXXXX..  ",
"  ............................................................  ",
"  ............................................................  ",
"                                                                ",
"                                                                "
};
