/* XPM */
static char *c277b361f5384445b9becf47cf77a488Wvz34LV4YPFRR7U6[] = {
/* columns rows colors chars-per-pixel */
"32 32 6 1 ",
"  c #6D592D",
". c #9B875B",
"X c #C2AE82",
"o c #CEBA8E",
"O c #DDC99D",
"+ c #EAD6AA",
/* pixels */
"                                ",
" .............................. ",
" .XXXXXXXXXXXXXXXXXXXXXXXXXXXX. ",
" .XXooooooooooooooooooooooooXX. ",
" .XoOOOOOOOOOOOOOOOOOOOOOOOOoX. ",
" .XoOOOOOOOOOOOOOOOOOOOOOOOOoX. ",
" .XoOO++++++++++++++++++++OOoX. ",
" .XoOO++++++++++++++++++++OOoX. ",
" .XoOO++++++++++++++++++++OOoX. ",
" .XoOO++++++++++++++++++++OOoX. ",
" .XoOO++++++++++++++++++++OOoX. ",
" .XoOO++++++++++++++++++++OOoX. ",
" .XoOO++++++++++++++++++++OOoX. ",
" .XoOO++++++++++++++++++++OOoX. ",
" .XoOO++++++++++++++++++++OOoX. ",
" .XoOO++++++++++++++++++++OOoX. ",
" .XoOO++++++++++++++++++++OOoX. ",
" .XoOO++++++++++++++++++++OOoX. ",
" .XoOO++++++++++++++++++++OOoX. ",
" .XoOO++++++++++++++++++++OOoX. ",
" .XoOO++++++++++++++++++++OOoX. ",
" .XoOO++++++++++++++++++++OOoX. ",
" .XoOO++++++++++++++++++++OOoX. ",
" .XoOO++++++++++++++++++++OOoX. ",
" .XoOO++++++++++++++++++++OOoX. ",
" .XoOO++++++++++++++++++++OOoX. ",
" .XoOOOOOOOOOOOOOOOOOOOOOOOOoX. ",
" .XoOOOOOOOOOOOOOOOOOOOOOOOOoX. ",
" .XXooooooooooooooooooooooooXX. ",
" .XXXXXXXXXXXXXXXXXXXXXXXXXXXX. ",
" .............................. ",
"                                "
};
