/* XPM */
static char *_62849ccacec4e50a032c738c53f7515ErXe7YZoU3LoKaj6[] = {
/* columns rows colors chars-per-pixel */
"32 32 5 1 ",
"  c #A3A087",
". c #B4B198",
"X c #C0BDA4",
"o c #CFCCB3",
"O c #DCD9C0",
/* pixels */
"                                ",
" .............................. ",
" .............................. ",
" ...XXXXXXXXXXXXXXXXXXXXXXXX... ",
" ..XooooooooooooooooooooooooX.. ",
" ..XooooooooooooooooooooooooX.. ",
" ..XooOOOOOOOOOOOOOOOOOOOOooX.. ",
" ..XooOOOOOOOOOOOOOOOOOOOOooX.. ",
" ..XooOOOOOOOOOOOOOOOOOOOOooX.. ",
" ..XooOOOOOOOOOOOOOOOOOOOOooX.. ",
" ..XooOOOOOOOOOOOOOOOOOOOOooX.. ",
" ..XooOOOOOOOOOOOOOOOOOOOOooX.. ",
" ..XooOOOOOOOOOOOOOOOOOOOOooX.. ",
" ..XooOOOOOOOOOOOOOOOOOOOOooX.. ",
" ..XooOOOOOOOOOOOOOOOOOOOOooX.. ",
" ..XooOOOOOOOOOOOOOOOOOOOOooX.. ",
" ..XooOOOOOOOOOOOOOOOOOOOOooX.. ",
" ..XooOOOOOOOOOOOOOOOOOOOOooX.. ",
" ..XooOOOOOOOOOOOOOOOOOOOOooX.. ",
" ..XooOOOOOOOOOOOOOOOOOOOOooX.. ",
" ..XooOOOOOOOOOOOOOOOOOOOOooX.. ",
" ..XooOOOOOOOOOOOOOOOOOOOOooX.. ",
" ..XooOOOOOOOOOOOOOOOOOOOOooX.. ",
" ..XooOOOOOOOOOOOOOOOOOOOOooX.. ",
" ..XooOOOOOOOOOOOOOOOOOOOOooX.. ",
" ..XooOOOOOOOOOOOOOOOOOOOOooX.. ",
" ..XooooooooooooooooooooooooX.. ",
" ..XooooooooooooooooooooooooX.. ",
" ...XXXXXXXXXXXXXXXXXXXXXXXX... ",
" .............................. ",
" .............................. ",
"                                "
};
