/* XPM */
static char *_abd0e18e9814fbffcf439db693cb34dblBn4jTwe3V6yzdy[] = {
/* columns rows colors chars-per-pixel */
"64 64 42 1 ",
"  c #0F0A01",
". c gray4",
"X c #160601",
"o c #35231D",
"O c #503201",
"+ c #633E01",
"@ c #42302A",
"# c #45332D",
"$ c #4F3D37",
"% c #7D4E01",
"& c #125B66",
"* c #1C5963",
"= c #235D66",
"- c #156A77",
"; c #9F6301",
": c #B47613",
"> c #E8AA47",
", c #ECAE4B",
"< c #0E7281",
"1 c #137584",
"2 c #227784",
"3 c #257C8A",
"4 c #3F7C86",
"5 c #1C808F",
"6 c #3B848F",
"7 c #348996",
"8 c #358C99",
"9 c #3092A1",
"0 c #4D868F",
"q c #4299A7",
"w c #5197A2",
"e c #6199A2",
"r c #649CA5",
"t c #659EA7",
"y c #53A1AD",
"u c #47A9B8",
"i c #73ABB4",
"p c #B7C8C6",
"a c #C3C3C3",
"s c #C6D7D5",
"d c #D2D2D2",
"f c white",
/* pixels */
"ppssssssppssssssppssssssppssssssppssssssppssssssppssssssppssssss",
"ppssssssppssssssppssssssppssssssppssssssppssssssppssssssppssssss",
"ddqqqqqqqqqqqqqqddtttttttttttt00dd444444444444**dd<<<<<<<<<<<<<<",
"ddqqqqqqqqqqqqqqddttffffffffffffffffffffffffffffff<<<<<<<<<<<<<<",
"ddqq3333333333qqddttfXXXXXXXXXXooooooo..::>>,,,,,f<<5555555555<<",
"ddqq3333333333qqddfffXXXXXXXXXXooooooo..::>>,,,,,f<<5555555555<<",
"ddqq3333333333qqddfXXoooooooooo###$$XX..::,,:::::f<<5555555555<<",
"ddqq3333333333qqfffXXoooooooooo###$$XX..::,,:::::f<<5555555555<<",
"ddqq3333333333qqfXXoooo$$$$$$#####XX..::,,::OOOO@f<<5555555555<<",
"ddqq3333333333qffXXoooo$$$$$$#####XX..::,,::OOOO@fff5555555555<<",
"ddqq3333333333ffXoooo$$$$#######XX..::,,++++@@@@@XXf5555555555<<",
"ddqq3333333fffffXoooo$$$$#######XX..::,,++++@@@@@XXfffffffffff<<",
"ddqq3333333fXXXXooo$$$$######ooo..  ,,++++..XXXXXXXXXff::::::f<<",
"ddqq33333fffXXXXooo$$$$######ooo..  ,,++++..XXXXXXXXXff::::::f<<",
"ddqqqqqqqf..ooooo$$$$######ooooX..::,,++XXXXXXXXXXXXX::,,,,,,f<<",
"ddqqqqqfff..ooooo$$$$######ooooX..::,,++XXXXXXXXXXXXX::,,,,,,f<<",
"ppsssfff..oooooo$$$####ooooooXXX::;;;;++XXXXXXXXXXX::,,,,,,,,fss",
"ppsssf..oooooo$$$######ooooooXXX::;;::++XXXXXXXXX..::,,,,..fffss",
"dd888f..oooooo$$$######ooooooXXX::;;::++XXXXXXXXX..::,,,,..f&&&&",
"dd88ff..oooo$$$$#####oooooooo..X::;;::,,,,XXXXXXX..::,,XX..f&&&&",
"dd8fff..oooo$$$$#####oooooooo..X::;;::,,,,XXXXXXX..::,,XX..fff66",
"dd8f..oooo$$$$#######ooooooXXXXX::;;;;::,,,,XXXXXXX::,,XXXXXXf66",
"dd8f..oooo$$$$#######ooooooXXXXX::;;;;::,,,,XXXXXXX::,,XXXXXXf66",
"dd8fXXoo$$$$$$#####ooooooXXXXXXX::;;XX;;::,,,,XXXXX::,,XXXXXXf66",
"dd8fXXoo$$$$$$#####ooooooXXXXXXX::;;XX;;::,,,,XXXXX::,,XXXXXXf66",
"dd8fXXoo$$$$#######ooooooXXXXXXX::;;XXXX;;::,,,,XXX::,,XXXXXXf66",
"dfffXXoo$$$$#######ooooooXXXXXXX::;;XXXX;;::,,,,XXX::,,XXXXXXfff",
"df..oooo$$$$#######ooooooXXXXXXX::;;XXXXXX;;::,,,..::,,XXXXXX..f",
"df..oooo$$$$#######ooooooXXXXXXX::;;XXXXXX;;::,,,..::,,XXXXXX..f",
"df..oooo$$$$#######ooooooXXXXXXX::;;XXXXXXXX;;::,%%,,,,XXXXXXXXf",
"df..oooo$$$$#######ooooooXXXXXXX::;;XXXXXXXX;;::,%%,,,,XXXXXXXXf",
"df..oooo$$#######ooooooooXXXXXXX::;;XXXXXXXXXX;;:%%::,,XXXXXXXXf",
"pf..oooo$$#######ooooooooXXXXXXX::,,XXXXXXXXXXXX;%%::,,XXXXXXXXf",
"pf..oooo$$#######ooooooooXXXXXXX::,,XXXXXXXXXXXX;%%::,,XXXXXXXXf",
"df..oooo$$#######ooooooooXXXXXXX::;;,,XXXXXXXXXXX%%::,,XXXXXXXXf",
"df..oooo$$#######ooooooooXXXXXXX::;;,,XXXXXXXXXXX%%::,,XXXXXXXXf",
"df..oooo$$#######ooooooooXXXXXXX::;;;;,,XXXXXXXXX%%::,,XXXXXXXXf",
"df..oooo$$#######ooooooooXXXXXXX::;;;;,,XXXXXXXXX%%::,,XXXXXXXXf",
"dfXXoooo$$#######ooooooooXXXXXXX::;;;;;;,,XXXXXXX%%::,,XXXXXXXXf",
"dfXXoooo$$#######ooooooooXXXXXXX::;;;;;;,,XXXXXXX%%::,,XXXXXXXXf",
"dfXXoooo$$#######ooooooooXXXXXXX::;;..;;;;,,XXXXX%%::,,XXXXXXfff",
"dfXXoooo$$#######ooooooooXXXXXXX::;;..;;;;,,XXXXX%%::,,XXXXXXf77",
"df..oooo$$#########ooooooXXXXXXX::;;XX..;;;;,,XXX%%::,,XXXXXXf77",
"df..oooo$$#########ooooooXXXXXXX::;;XX..;;;;,,XXX%%::,,XXXXXXf77",
"dfff..oo$$$$#######ooooooooXXXXX%%;;XXXXXX;;;;,,.%%::,,XXXXfff77",
"ddwf..oo$$$$#######ooooooooXXXXX%%;;XXXXXX;;;;,,.%%::,,XXXXf2277",
"ddwf..oo$$$$#########ooooooXXXXX%%;;XXXXXX..;;;;,%%::,,XXXXf----",
"ddwf..oo$$$$#########ooooooXXXXX%%;;XXXXXX..;;;;,%%::,,XXXXf----",
"ppsfffXXoo$$$$#######ooooooXXXX.%%;;XXXXXXXXXX;;;%%::%%XXfffssss",
"ppsssfffXXoo$$#########ooooooXX.%%%%XXXXXXXXXXXX;%%%%OOfffssssss",
"ddeeeeefXXoo$$#########ooooooXX.%%%%XXXXXXXXXXXX;%%%%OOf11111111",
"ddeeeeefffXXoo$$#########ooooXX.OO%%OOXXXXXXXXXX.%%OOfff11111111",
"ddeeiiiiifXXoo$$#########ooooXX.OO%%OOXXXXXXXXXX.%%OOf99999999uu",
"ddeeiiiiifffXXoo$$$########ooXXXOO%%%%OOXXXXXXXXXOOfff99999999uu",
"ddeeiiiiiiifXXoo$$$########ooXXXOO%%%%OOXXXXXXXXXOOf9999999999uu",
"ddeeiiiiiiifffXXo$$$$########XXXOOOO%%%%OOXXXXXXXfff9999999999uu",
"aaeeiiiiiiiiffXXo$$$$########XXXOOOO%%%%OOXXXXXXXf119999999999uu",
"aaeeiiiiiiiiffffXoooooooooo##ooXXXXXOO%%%%OOOOXXff119999999999uu",
"ddeeiiiiiiiiiiffXoooooooooo##ooXXXXXOO%%%%OOOOXXfd119999999999uu",
"ddeeiiiiiiiiiifff......XXooooooXXXXXXXOO%%%%OOfffd119999999999uu",
"ddeeiiiiiiiiiitff......XXooooooXXXXXXXOO%%%%OOffdd119999999999uu",
"ddeeiiiiiiiiiirtfffffffXXXXXXXXXXXXXXXXXfffffff=dd119999999999uu",
"ddeerrrrrrrrrrrrddyyyyfXXXXXXXXXXXXXXXXXfff=====dd11uuuuuuuuuuuu",
"ddeerrrrrrrrrrrrddyyyyfffffffffffffffffff=======dd11uuuuuuuuuuuu"
};
