/* XPM */
static char *a4a4947d60594868b2771df0f5d7d8c4LJ1JwuIUZOIdkhyY[] = {
/* columns rows colors chars-per-pixel */
"64 64 96 2 ",
"   c #010101",
".  c #020202",
"X  c gray2",
"o  c #060606",
"O  c #090909",
"+  c #0B0B0B",
"@  c #0E0E0E",
"#  c #101010",
"$  c gray8",
"%  c gray9",
"&  c #191919",
"*  c gray12",
"=  c gray13",
"-  c #272727",
";  c gray16",
":  c #2C2C2C",
">  c gray20",
",  c #343434",
"<  c #3A3A3A",
"1  c #3C3C3C",
"2  c gray24",
"3  c #3F3F3F",
"4  c #125B66",
"5  c #1C5963",
"6  c #235D66",
"7  c #156A77",
"8  c #176A77",
"9  c #27646E",
"0  c #216A75",
"q  c #37717A",
"w  c gray25",
"e  c gray28",
"r  c #494949",
"t  c #4E4E4E",
"y  c gray34",
"u  c #585858",
"i  c #5B5B5B",
"p  c gray39",
"a  c #656565",
"s  c gray42",
"d  c #6C6C6C",
"f  c gray45",
"g  c #747474",
"h  c #777777",
"j  c #797979",
"k  c #0E7281",
"l  c #137584",
"z  c #227784",
"x  c #267986",
"c  c #257C8A",
"v  c #3F7C86",
"b  c #317F8B",
"n  c #397F8A",
"m  c #1C808F",
"M  c #3B848F",
"N  c #348996",
"B  c #358C99",
"V  c #398C99",
"C  c #3E8C98",
"Z  c #208FA0",
"A  c #3092A1",
"S  c #3B9DAC",
"D  c #31A0B1",
"F  c #4D868F",
"G  c #448A95",
"H  c #518B94",
"J  c #5B949D",
"K  c #4896A2",
"L  c #4299A7",
"P  c #5197A2",
"I  c #6199A2",
"U  c #649CA5",
"Y  c #659EA7",
"T  c #53A1AD",
"R  c #47A9B8",
"E  c #59A7B3",
"W  c #58AFBC",
"Q  c #73ABB4",
"!  c #40AFC0",
"~  c #6BC2CF",
"^  c #868686",
"/  c #898989",
"(  c gray56",
")  c #929292",
"_  c gray58",
"`  c gray60",
"'  c #9A9A9A",
"]  c gray61",
"[  c #9D9D9D",
"{  c gray63",
"}  c gray65",
"|  c #A9A9A9",
" . c #B7C8C6",
".. c #C3C3C3",
"X. c #C6D7D5",
"o. c #D2D2D2",
/* pixels */
" . .X.X.X.X.X.X. . .X.X.X.X.X.X. . .X.X.X.X.X.X. . .X.X.X.X.X.X. . .X.X.X.X.X.X. . .X.X.X.X.X.X. . .X.X.X.X.X.X. . .X.X.X.X.X.X.",
" . .X.X.X.X.X.X. . .X.X.X.X.X.X. . .X.X.X.X.X.X. . .X.X.X.X.X.X. . .X.X.X.X.X.X. . .X.X.X.X.X.X. . .X.X.X.X.X.X. . .X.X.X.X.X.X.",
"o.o.L L L L L L L L L L L L L L o.o.Y Y Y Y Y Y Y Y Y Y Y Y F F o.o.v v v v v v v v v v v v 5 5 o.o.k k k k k k k k k k k k k k ",
"o.o.L L L L L L L L L L L L L L o.o.Y Y Y Y Y Y Y Y Y Y Y Y F F o.o.v v v v v v v v v v v v 5 5 o.o.k k k k k k k k k k k k k k ",
"o.o.L L c c c c c c c c c c L L o.o.Y Y J J J J J J J J J J F F o.o.v v 9 9 9 9 9 9 9 9 9 9 5 5 o.o.k k m m m m m m m m m m k k ",
"o.o.L L c c c c c c c c c c L L o.o.Y Y J J J J J J J J J J F F o.o.v v 9 9 9 9 9 9 9 9 9 9 5 5 o.o.k k m m m m m m m m m m k k ",
"o.o.L L c c c c c c c c c c L L o.o.Y Y J J J J J J J J J J F F o.o.v v 9 9 9 9 9 9 9 9 9 9 5 5 o.o.k k m m m m m m m m m m k k ",
"o.o.L L c c c c c c c c c c L L o.o.Y Y J J J J J J J J J J F F o.o.v v 9 9 9 9 9 9 9 9 9 9 5 5 o.o.k k m m m m m m m m m m k k ",
"o.o.L L c c c c c c c c c c L L o.o.Y Y J J J J J J J J J J F F o.o.v v 9 9 9 9 9 9 9 9 9 9 5 5 o.o.k k m m m m m m m m m m k k ",
"o.o.L L c c c c c c c c c c s 2 2 2 < Y J J J J J J J J J J F F o.o.v v 9 9 9 9 9 9 9 / 2 < 2 2 } o.k k m m m m m m m m m m k k ",
"o.o.L L c c c c c c c c c c w . . . . Y J J J J J J J J J J F F o.o.v v 9 9 9 9 9 9 9 s . . . . / o.k k m m m m m m m m m m k k ",
"o.o.L L c c c c c c c c c c w . . . . Y J J J J J J J J J J F F o.o.v v 9 9 9 9 9 9 9 a . . . . ( o.k k m m m m m m m m m m k k ",
"o.o.L L c c c c c c c c c c w . . . . | J J J J J J J J J J F F o.o.v v 9 9 9 9 9 9 9 p . . . . ( o.k k m m m m m m m m m m k k ",
"o.o.L L c c c c c c c c c c w . . . . ^ J J J J J J J J J J F F o.o.v v 9 9 9 9 9 9 9 t . . . . / o.k k m m m m m m m m m m k k ",
"o.o.L L L L L L L L L L L L L L o.o.F , . . . % F F F F F F F F o.o.5 5 5 5 ( . . . . y 5 5 5 5 o.o.k k k k k k k k k k k k k k ",
"o.o.L L L L L L L L L L L L L L o.o.F w . . . % F F F F F F F F o.o.5 5 5 5 ( . . . . f 5 5 5 5 o.o.k k k k k k k k k k k k k k ",
" . .X.X.X.X.X.X. . .X.X.X.X.X.X. . .X.w . . . &  . .X.X.X.X.X.X. . .X.X.X.X.( . . . . d X.X.X.X. . .X.X.X.X.X.X. . .X.X.X.X.X.X.",
" . .X.X.X.X.X.X. . .X.X.X.X.X.X. . .X.2 X . X &  . .X.X.X.X.X.X. . .X.X.X.X.( . . . . f X.X.X.X. . .X.X.X.X.X.X. . .X.X.X.X.X.X.",
"o.o.B B B B B B B B B B B B ~ ~ o.o.S > . . . # | S S S S S l l o.o.b b E E f . . . . y E E E E o.o.4 4 4 4 4 4 4 4 4 4 4 4 4 4 ",
"o.o.B B B B B B B B B B B B w . . . . . . . . . . . . . . . . . . . . . . . . . . . . . . . . . / o.4 4 4 4 4 4 4 4 4 4 4 4 4 4 ",
"o.o.B B W W W W W W W W W W w . . . . . . . . . . . . . . . . . . . . . . . . . . . . . . . . . / o.4 4 0 0 0 0 0 0 0 0 0 0 M M ",
"o.o.B B W W W W W W W W W W w . . . . . . . . . . . . . . . . . . . . . . . . . . . . . . . . . / o.4 4 0 0 0 0 0 0 0 0 0 0 M M ",
"o.o.B B W W W W W W W W W W < . . . . . . X . . . . . . . . . . . . . . . . . . . . . . . . . . ( o.4 4 0 0 0 0 0 0 0 0 0 0 M M ",
"o.o.B B W W W W W W ) ' ' [ - . . . . # - = - = . . . . . . . . . . . . . . X - - = - @ . . . . i ' { { } 0 0 0 0 0 0 0 0 0 M M ",
"o.o.B B W W W W W j X X . X . . . . . s A A A A & . . . . . . . . . . . . . * K K K K y . . . . . X X X @ 0 0 0 0 0 0 0 0 0 M M ",
"o.o.B B W W W W W j . . . . . . . . . h A A A A * X . . . . . . . . . . . . * K K K K p . . . . . . . . + 0 0 0 0 0 0 0 0 0 M M ",
"o.o.B B W W W W W f . . . . . . . . . h A A A A * . . . . . . . . . . . . . = K K K K p . . . . . . . . + 0 0 0 0 0 0 0 0 0 M M ",
"o.o.B B W W W W W f . . . . . . . . . h A A A A & . . . . . . . . . . . . . = K K K K p . . . . . . . . + 0 0 7 0 0 0 0 0 0 M M ",
"o.o.B B W p i i p : . . . . . . . . . ; p i i y + . . . . . . . . . . . . . @ a a a a - . . . . . . . . . i s s s s 0 0 0 0 M M ",
"o.o.B B W # . . . . . . . . . . . . . . . . . . . . . . . . . . . . . . . . . . . . . . . . . . . . . . . . . . . . 0 0 0 0 M M ",
"o.o.~ ~ ~ # X . . . . . . . . . . . . . . . . . . . . . . . . . . . . . . . . . . . . . . . . . . . . . . . . . . . M M M M M M ",
"o.o.~ ~ ~ # . . . . . . . . . . . . . . . . . . . . . . . . . . . . . . . . . . . . . . . . . . . . . . . . . . . . M M M M M M ",
" . .X.X.X.# . . . . . . . . . . . . . . . . . . . . . . . . . . . . . . . . . . . . . . . . . . . . . . . . . . . . X.X.X.X.X.X.",
" . .X.X.X.# . . . * 2 2 < 2 # . . . . . . . . . . . . . . . . . . . . . . . . . . . . . . . . . * : , > > X . . . . X.X.X.X.X.X.",
"o.o.P P P % . . . s P P P P w . . . . . . . . . . . . . . . . . . . . . . . . . . . . . . . . . / o.7 7 N = . . . . N N N N N N ",
"o.o.P P P # . . . f P P P P w . . . . . . . . . . . . . . . . . . . . . . . . . . . . . . . . . / o.7 7 N * . . . . N N N N N N ",
"o.o.P P G # X . . f G G G G 3 . . . . . . . . . . . . . . . . . . . . . . . . . . . . . . . . . / o.7 7 z = . . . . z z z z N N ",
"o.o.P P G # . . . f G G G G 2 . . . . . . . . . . . . . . . . . . . . . . . . . . . . . . . . . / o.7 7 z * . . . . z z z z N N ",
"o.o.P P G # . . . f G G G G w . . . . e s s a a a s a a a a a p p p p p p p p i p p a : . . . . / o.7 7 z * . . . . z z z z N N ",
"o.o.P P G # . . . f G G G G w . . . . | x x x x x x x x x x V V o.o.! ! D D D D D D D d . . . . / o.7 7 z * . . . . z z z z N N ",
"o.o.P P G # . . . f G G G G 3 . . . . 7 x x x x x x x x x x V V o.o.D ! D D D D D D D a . . . . ( o.7 7 z * . . . . z z z z N N ",
"o.o.P P G # . . . h G G G G 2 . . . . 7 x x x x x x x x x x V V o.o.! ! D D D D D D D p . . . . ( o.7 7 z * . . . . z z z z N N ",
"o.o.P P G % . X . h G G G G < . . X . { x x x x x x x x x x V V o.o.! ! D D D D D D D i . . . . / o.7 7 z * . . . . z z z z N N ",
"o.o.P P G { [ ' ' G G G G G n ) ) / _ , & & % % % & % % ; x V V o.o.= = & & & % & & & r ( / ( ( o.o.7 7 z ' ( / ) ^ z z z z N N ",
"o.o.P P G G G G G G G G G G n n o.o.7 w . . . . . . . . % x V V o.o.+ . . . . . . . . d D D Z Z o.o.7 7 z z z z z z z z z z N N ",
"o.o.P P G G G G G G G G G G n n o.o.8 w X . . . . . . . # x V V o.o.X . . . . . . . . f D D Z Z o.o.7 7 z z z z z z z z z z N N ",
"o.o.P P n n n n n n n n n n n n o.o.V w . . . . . . . . & B V V o.o.@ . . . . . . . . f Z Z Z Z o.o.7 7 7 7 7 7 7 7 7 7 7 7 7 7 ",
"o.o.P P n n n n n n n n n n n M o.o.V 2 X . . . . . . . # V V V o.o.+ . . . . . . . . d Z Z Z Z o.o.7 7 7 7 7 7 7 7 7 7 7 7 7 7 ",
" . .X.X.X.X.X.X.X.X.X.X.X.X.X.X. . .X.X.[ ' ' _ ' ' ' ) [ X.X.X. . .) ( ) ) ) ( ( ( ( X.X.X.X.X. . .X.X.X.X.X.X. . .X.X.X.X.X.X.",
" . .X.X.X.X.X.X.X.X.X.X.X.X.X.X. . .X.X.X.X.X.X. . .X.X.X.X.X.X. . .X.X.X.X.X.X. . .X.X.X.X.X.X. . .X.X.X.X.X.X. . .X.X.X.X.X.X.",
"o.o.I I I I I I I I I I I I I I o.o.T T T T T T T T T T T T T T o.o.H H H H H H H H H H H H 6 6 o.o.l l l l l l l l l l l l l l ",
"o.o.I I I I I I I I I I I I I I o.o.T T T T T T T T T T T T T T o.o.H H H H H H H H H H H H 6 6 o.o.l l l l l l l l l l l l l l ",
"o.o.I I Q Q Q Q Q Q Q Q Q Q Y Y o.o.T T C C C C V C C C C C T T o.o.H H q q q q q q q q q q 6 6 o.o.l l A A A A A A A A A A R R ",
"o.o.I I Q Q Q Q Q Q Q Q Q Q Y Y o.o.T T C C C C C C C C C C T T o.o.H H q q q q q q q q q q 6 6 o.o.l l A A A A A A A A A A R R ",
"o.o.I I Q Q Q Q Q Q Q Q Q Q Y Y o.o.T T C C C C C C C C C C T T o.o.H H q q q q q q q q q q 6 6 o.o.l l A A A A A A A A A A R R ",
"o.o.I I Q Q Q Q Q Q Q Q Q Q Y Y o.o.T T C C C C C C C C C C T T o.o.H H q q q q q q q q q q 6 6 o.o.l l A A A A A A A A A A R R ",
"....I I Q Q Q Q Q Q Q Q Q Q Y U ....T T C C C C C C C C C C T T ....H H q q q q q q q q q q 6 6 ....l l A A A A A A A A A A R R ",
"....I I Q Q Q Q Q Q Q Q Q Q U U ....T T C C C C C C C C C C T T ....H H q q q q q q q q q q 6 6 ....l l A A A A A A A A A A R R ",
"o.o.I I Q Q Q Q Q Q Q Q Q Q U U o.o.T T C C C C C C C C C C T T o.o.H H q q q q q q q q q q 6 6 o.o.l l A A A A A A A A A A R R ",
"o.o.I I Q Q Q Q Q Q Q Q Q Q U U o.o.T T C C C C C C C C C C T T o.o.H H q q q q q q q q q q 6 6 o.o.l l A A A A A A A A A A R R ",
"o.o.I I Q Q Q Q Q Q Q Q Q Q U U o.o.T T C C C C C C C C C C T T o.o.H H q q q q q q q q q q 6 6 o.o.l l A A A A A A A A A A R R ",
"o.o.I I Q Q Q Q Q Q Q Q Q Q U U o.o.T T C C C C C C C C C C T T o.o.H H q q q q q q q q q q 6 6 o.o.l l A A A A A A A A A A R R ",
"o.o.I I U U U U U U U U U U U U o.o.T T T T T T T T T T T T T T o.o.6 6 6 6 6 6 6 6 6 6 6 6 6 6 o.o.l l R R R R R R R R R R R R ",
"o.o.I I U U U U U U U U U U U U o.o.T T T T T T T T T T T T T P o.o.6 6 6 6 6 6 6 6 6 6 6 6 6 6 o.o.l l R R R R R R R R R R R R "
};
