/* XPM */
static char *result[] = {
/* columns rows colors chars-per-pixel */
"64 64 9 1 ",
"  c #059076",
". c #800C97",
"X c #2CB79D",
"o c #639BFF",
"O c #FFBC92",
"+ c #FFD3B8",
"@ c #FFD6BC",
"# c #DB87FF",
"$ c white",
/* pixels */
"oooooooooooooooooooooooooooooooooooooooooooooooooooooooooooooooo",
"oooooooooooooooooooooooooooooooooooooooooooooooooooooooooooooooo",
"oooooooooooooooooooooooooooooooooooooooooooooooooooooooooooooooo",
"oooooooooooooooooooooooooooooooooooooooooooooooooooooooooooooooo",
"oooooooooooooooooooooooooooooooooooooooooooooooooooooooooooooooo",
"oooooooooooooooooooooooooooooooooooooooooooooooooooooooooooooooo",
"oooooooooooooooooooooooooooooooooooooooooooooooooooooooooooooooo",
"oooooooooooooooooooooooooooooooooooooooooooooooooooooooooooooooo",
"oooooooooooooooooooooooooooooooooooooooooooooooooooooooooooooooo",
"oooooooooooooooooooooooooooooooooooooooooooooooooooooooooooooooo",
"oooooooooooooooooooooooooooooooooooooooooooooooooooooooooooooooo",
"oooooooooooooooooooooooooooooooooooooooooooooooooooooooooooooooo",
"oooooooooooooooooooooooooooooooooooooooooooooooooooooooooooooooo",
"oooooooooooooooooooooooooooooooooooooooooooooooooooooooooooooooo",
"ooooooooooooooooooooooooooooooooooooooooooo$$$$$$$$$$ooooooooooo",
"ooooooooooooooooooooooooooooooooooooooo$$$$$........$$$ooooooooo",
"ooooooooooooooooooooooooooooooooooooooo$..............$ooooooooo",
"ooooooooooooooooooooooooooooooooooooo$$$..............$$$ooooooo",
"ooooooooooooooooooooooooooooooooooooo$..................$ooooooo",
"ooooooooooooooooooooooooooooooooooo$$$..................$$$ooooo",
"ooooooooooooooooooooooooooooooooooo$......................$ooooo",
"ooooooooooooooooooooooooooooooooooo$......................$ooooo",
"ooooooooooooooooooooooooooooooooooo$XX....................$ooooo",
"ooooooooooooooooooooooooooooooooooo$XX....................$ooooo",
"ooooooooooooooooooooooooooooooooooo$..XX....@@@@@@@@@@....$ooooo",
"ooooooooooooooooooooooooooooooooooo$..XX....@@@@@@@@@@....$ooooo",
"ooooooooooooooooooooooooooooooooooo$....XX@@@@@@@@@@@@@@..$ooooo",
"ooooooooooooooooooooooooooooooooo$$$....XX@@@@@@@@@@@@@@..$ooooo",
"ooooooooooooooooooooooooooooooooo$OOOOOO  XXXX      XX  @@$ooooo",
"ooooooooooooooooooooooo$$$$$$$$$$$OOOOOO  XXXX      XX  @@$ooooo",
"ooooooooooooooooooooooo$##########OO@@OO@@      @@      @@$ooooo",
"ooooooooooooooooo$$$$$$$##########OO@@OO@@      @@      @@$ooooo",
"ooooooooooooooooo$################OO@@@@OO@@@@@@@@@@@@@@$$$ooooo",
"ooooooooooooooooo$################OO@@@@OO@@@@@@@@@@@@@@$ooooooo",
"ooooooooooooooooo$################OOO@@@OOOOOO@@@@@@@@$$$ooooooo",
"ooooooooooooooooo$#################OOO@@OOOOOO@@@@@@@@$ooooooooo",
"ooooooooooooooooo$++################OO@@@@OO@@$$$$$$$$$ooooooooo",
"ooooooooooooooooo$++################OO@@@@OO@@$ooooooooooooooooo",
"ooooooooooooooooo$@@++##############OOOO@@@@OO$ooooooooooooooooo",
"ooo$$$$$$$$oooo$$$@@++###############OOO@@@@OO$$oooooooooooooooo",
"ooo$OO@@@@$oooo$@@@@@@OO##############OOOO@@@@@$$ooooooooooooooo",
"ooo$OO@@@@$$$$$$@@@@@@OO##############OOOO@@@@@@$ooooooooooooooo",
"ooo$$$OOOO@@@@@@@@@@@@OO##############$$OOOO@@@@$$$ooooooooooooo",
"ooooo$OOOO@@@@@@@@@@@@OO##############$$$$OO@@@@$$$$$ooooooooooo",
"ooooo$$$$$OO@@@@@@@@OO$$##########$$$$$oo$OOOOO@@@@@$ooooooooooo",
"ooooooooo$OO@@@@@@@@OO$$##########$oooooo$$$$$OOOOOO$ooooooooooo",
"ooooooooo$$$OOOOOOOO$$$$$$$$$$$$$$$oooooooooo$$$$$$$$ooooooooooo",
"ooooooooooo$OOOOOOOO$ooooooooooooooooooooooooooooooooooooooooooo",
"ooooooooooo$$$$$$$$$$ooooooooooooooooooooooooooooooooooooooooooo",
"oooooooooooooooooooooooooooooooooooooooooooooooooooooooooooooooo",
"oooooooooooooooooooooooooooooooooooooooooooooooooooooooooooooooo",
"oooooooooooooooooooooooooooooooooooooooooooooooooooooooooooooooo",
"oooooooooooooooooooooooooooooooooooooooooooooooooooooooooooooooo",
"oooooooooooooooooooooooooooooooooooooooooooooooooooooooooooooooo",
"oooooooooooooooooooooooooooooooooooooooooooooooooooooooooooooooo",
"oooooooooooooooooooooooooooooooooooooooooooooooooooooooooooooooo",
"oooooooooooooooooooooooooooooooooooooooooooooooooooooooooooooooo",
"oooooooooooooooooooooooooooooooooooooooooooooooooooooooooooooooo",
"oooooooooooooooooooooooooooooooooooooooooooooooooooooooooooooooo",
"oooooooooooooooooooooooooooooooooooooooooooooooooooooooooooooooo",
"oooooooooooooooooooooooooooooooooooooooooooooooooooooooooooooooo",
"oooooooooooooooooooooooooooooooooooooooooooooooooooooooooooooooo",
"oooooooooooooooooooooooooooooooooooooooooooooooooooooooooooooooo",
"oooooooooooooooooooooooooooooooooooooooooooooooooooooooooooooooo"
};
