/* XPM */
static char *result[] = {
/* columns rows colors chars-per-pixel */
"64 64 8 1 ",
"  c #059076",
". c #800C97",
"X c #2CB79D",
"o c #639BFF",
"O c #FFBC92",
"+ c #FFD6BC",
"@ c #DB87FF",
"# c white",
/* pixels */
"oooooooooooooooooooooooooooooooooooooooooooooooooooooooooooooooo",
"oooooooooooooooooooooooooooooooooooooooooooooooooooooooooooooooo",
"oooooooooooooooooooooooooooooooooooooooooooooooooooooooooooooooo",
"oooooooooooooooooooooooooooooooooooooooooooooooooooooooooooooooo",
"oooooooooooooooooooooooooooooooooooooooooooooooooooooooooooooooo",
"oooooooooooooooooooooooooooooooooooooooooooooooooooooooooooooooo",
"oooooooooooooooooooooooooooooooooooooooooooooooooooooooooooooooo",
"oooooooooooooooooooooooooooooooooooooooooooooooooooooooooooooooo",
"oooooooooooooooooooooooooooooooooooooooooooooooooooooooooooooooo",
"oooooooooooooooooooooooooooooooooooooooooooooooooooooooooooooooo",
"oooooooooooooooooooooooooooooooooooooooooooooooooooooooooooooooo",
"oooooooooooooooooooooooooooooooooooooooooooooooooooooooooooooooo",
"oooooooooooooooooooooooooooooooooooooooooooooooooooooooooooooooo",
"oooooooooooooooooooooooooooooooooooooooooooooooooooooooooooooooo",
"ooooooooooooooooooooooooooooooooooooooooooo##########ooooooooooo",
"ooooooooooooooooooooooooooooooooooooooo#####........###ooooooooo",
"ooooooooooooooooooooooooooooooooooooooo#..............#ooooooooo",
"ooooooooooooooooooooooooooooooooooooo###..............###ooooooo",
"ooooooooooooooooooooooooooooooooooooo#..................#ooooooo",
"oooooooooooooooooooooooooooooooooooo##..................###ooooo",
"ooooooooooooooooooooooooooooooooooo##.....................#ooooo",
"ooooooooooooooooooooooooooooooooooo#......................#ooooo",
"ooooooooooooooooooooooooooooooooooo#XX....................#ooooo",
"ooooooooooooooooooooooooooooooooooo#XX....................#ooooo",
"ooooooooooooooooooooooooooooooooooo#..XX....++++++++++....#ooooo",
"ooooooooooooooooooooooooooooooooooo#..XX....++++++++++....#ooooo",
"ooooooooooooooooooooooooooooooooooo#....XX++++++++++++++..#ooooo",
"ooooooooooooooooooooooooooooooooo###....XX++++++++++++++..#ooooo",
"ooooooooooooooooooooooooooooooooo#OOOOOOOOXXXX      XX  ++#ooooo",
"ooooooooooooooooooooooo###########O++++++OXXXX      XX  ++#ooooo",
"ooooooooooooooooooooooo#@@@@@@@@@@O++++++O      ++      ++#ooooo",
"oooooooooooooooo########@@@@@@@@@@O++++++O      ++      ++#ooooo",
"oooooooooooooooo##@@@@@@@@@@@@@@@@O++++++OOO++++++++++++##oooooo",
"oooooooooooooooo##@@@@@@@@@@@@@@@@O++++++++O++++++++++++#ooooooo",
"oooooooooooooooo##@@@@@@@@@@@@@@@@O++++++++OOO++++++++###ooooooo",
"oooooooooooooooo##@@@@@@@@@@@@@@@@OOO++++++++O++++++++#ooooooooo",
"oooooooooooooooo##@@@@@@@@@@@@@@@@@OOO+++++++O#########ooooooooo",
"ooooooooooooooooo#@@@@@@@@@@@@@@@@@@OOO++++++O##############oooo",
"ooooooooooooooooo#++@@@@@@@@@@@@@@@@@OOO+++++++++++++++++++#oooo",
"ooooooooooooooooo#++@@@@@@@@@@@@@@@@@@OO+++++++++++++++++++#oooo",
"ooooooooooooooooo#++++@@@@@@@@@@@@@@@@@OO+++++++++++++++++##oooo",
"o##########oooo###++++@@@@@@@@@@@@@@@@@@#+++++++++++++++++#ooooo",
"o#OOOO++++#oooo#++++++++@@@@@@@@@@@@@@#####################ooooo",
"o#OOOO++++######++++++++@@@@@@@@@@@@@@####oooooooooooooooooooooo",
"o#####OOOO++++++++++++OO@@@@@@@@@@######oooooooooooooooooooooooo",
"ooooo#OOOO++++++++++++OO@@@@@@@@@@#ooooooooooooooooooooooooooooo",
"ooooo#####OO++++++++OO#############ooooooooooooooooooooooooooooo",
"ooooooooo#OO++++++++OO#ooooooooooooooooooooooooooooooooooooooooo",
"ooooooooo###OOOOOOOO###ooooooooooooooooooooooooooooooooooooooooo",
"ooooooooooo#OOOOOOOO##oooooooooooooooooooooooooooooooooooooooooo",
"ooooooooooo###########oooooooooooooooooooooooooooooooooooooooooo",
"oooooooooooooooooooooooooooooooooooooooooooooooooooooooooooooooo",
"oooooooooooooooooooooooooooooooooooooooooooooooooooooooooooooooo",
"oooooooooooooooooooooooooooooooooooooooooooooooooooooooooooooooo",
"oooooooooooooooooooooooooooooooooooooooooooooooooooooooooooooooo",
"oooooooooooooooooooooooooooooooooooooooooooooooooooooooooooooooo",
"oooooooooooooooooooooooooooooooooooooooooooooooooooooooooooooooo",
"oooooooooooooooooooooooooooooooooooooooooooooooooooooooooooooooo",
"oooooooooooooooooooooooooooooooooooooooooooooooooooooooooooooooo",
"oooooooooooooooooooooooooooooooooooooooooooooooooooooooooooooooo",
"oooooooooooooooooooooooooooooooooooooooooooooooooooooooooooooooo",
"oooooooooooooooooooooooooooooooooooooooooooooooooooooooooooooooo",
"oooooooooooooooooooooooooooooooooooooooooooooooooooooooooooooooo",
"oooooooooooooooooooooooooooooooooooooooooooooooooooooooooooooooo"
};
