/* XPM */
static char *result[] = {
/* columns rows colors chars-per-pixel */
"64 64 8 1 ",
"  c #059076",
". c #800C97",
"X c #2CB79D",
"o c #639BFF",
"O c #FFBC92",
"+ c #FFD6BC",
"@ c #DB87FF",
"# c white",
/* pixels */
"oooooooooooooooooooooooooooooooooooooooooooooooooooooooooooooooo",
"oooooooooooooooooooooooooooooooooooooooooooooooooooooooooooooooo",
"oooooooooooooooooooooooooooooooooooooooooooooooooooooooooooooooo",
"oooooooooooooooooooooooooooooooooooooooooooooooooooooooooooooooo",
"oooooooooooooooooooooooooooooooooooooooooooooooooooooooooooooooo",
"oooooooooooooooooooooooooooooooooooooooooooooooooooooooooooooooo",
"oooooooooooooooooooooooooooooooooooooooooooooooooooooooooooooooo",
"oooooooooooooooooooooooooooooooooooooooooooooooooooooooooooooooo",
"oooooooooooooooooooooooooooooooooooooooooooooooooooooooooooooooo",
"oooooooooooooooooooooooooooooooooooooooooooooooooooooooooooooooo",
"oooooooooooooooooooooooooooooooooooooooooooooooooooooooooooooooo",
"oooooooooooooooooooooooooooooooooooooooooooooooooooooooooooooooo",
"oooooooooooooooooooooooooooooooooooooooooooooooooooooooooooooooo",
"oooooooooooooooooooooooooooooooooooooooooooooooooooooooooooooooo",
"ooooooooooo##########ooooooooooooooooooooooooooooooooooooooooooo",
"ooooooooo###........#####ooooooooooooooooooooooooooooooooooooooo",
"ooooooooo#..............#ooooooooooooooooooooooooooooooooooooooo",
"ooooooo###..............###ooooooooooooooooooooooooooooooooooooo",
"ooooooo#..................#ooooooooooooooooooooooooooooooooooooo",
"ooooo###..................##oooooooooooooooooooooooooooooooooooo",
"ooooo#.....................##ooooooooooooooooooooooooooooooooooo",
"ooooo#......................#ooooooooooooooooooooooooooooooooooo",
"ooooo#....................XX#ooooooooooooooooooooooooooooooooooo",
"ooooo#....................XX#ooooooooooooooooooooooooooooooooooo",
"ooooo#....++++++++++....XX..#ooooooooooooooooooooooooooooooooooo",
"ooooo#....++++++++++....XX..#ooooooooooooooooooooooooooooooooooo",
"ooooo#..++++++++++++++XX....#ooooooooooooooooooooooooooooooooooo",
"ooooo#..++++++++++++++XX....###ooooooooooooooooooooooooooooooooo",
"ooooo#++  XX      XXXXOOOOOOOO#ooooooooooooooooooooooooooooooooo",
"ooooo#++  XX      XXXXO++++++O###########ooooooooooooooooooooooo",
"ooooo#++      ++      O++++++O@@@@@@@@@@#ooooooooooooooooooooooo",
"ooooo#++      ++      O++++++O@@@@@@@@@@########oooooooooooooooo",
"oooooo##++++++++++++OOO++++++O@@@@@@@@@@@@@@@@##oooooooooooooooo",
"ooooooo#++++++++++++O++++++++O@@@@@@@@@@@@@@@@##oooooooooooooooo",
"ooooooo###++++++++OOO++++++++O@@@@@@@@@@@@@@@@##oooooooooooooooo",
"ooooooooo#++++++++O++++++++OOO@@@@@@@@@@@@@@@@##oooooooooooooooo",
"ooooooooo#########O+++++++OOO@@@@@@@@@@@@@@@@@##oooooooooooooooo",
"oooo##############O++++++OOO@@@@@@@@@@@@@@@@@@#ooooooooooooooooo",
"oooo#+++++++++++++++++++OOO@@@@@@@@@@@@@@@@@++#ooooooooooooooooo",
"oooo#+++++++++++++++++++OO@@@@@@@@@@@@@@@@@@++#ooooooooooooooooo",
"oooo##+++++++++++++++++OO@@@@@@@@@@@@@@@@@++++#ooooooooooooooooo",
"ooooo#+++++++++++++++++#@@@@@@@@@@@@@@@@@@++++###oooo##########o",
"ooooo#####################@@@@@@@@@@@@@@++++++++#oooo#++++OOOO#o",
"oooooooooooooooooooooo####@@@@@@@@@@@@@@++++++++######++++OOOO#o",
"oooooooooooooooooooooooo######@@@@@@@@@@OO++++++++++++OOOO#####o",
"ooooooooooooooooooooooooooooo#@@@@@@@@@@OO++++++++++++OOOO#ooooo",
"ooooooooooooooooooooooooooooo#############OO++++++++OO#####ooooo",
"ooooooooooooooooooooooooooooooooooooooooo#OO++++++++OO#ooooooooo",
"ooooooooooooooooooooooooooooooooooooooooo###OOOOOOOO###ooooooooo",
"oooooooooooooooooooooooooooooooooooooooooo##OOOOOOOO#ooooooooooo",
"oooooooooooooooooooooooooooooooooooooooooo###########ooooooooooo",
"oooooooooooooooooooooooooooooooooooooooooooooooooooooooooooooooo",
"oooooooooooooooooooooooooooooooooooooooooooooooooooooooooooooooo",
"oooooooooooooooooooooooooooooooooooooooooooooooooooooooooooooooo",
"oooooooooooooooooooooooooooooooooooooooooooooooooooooooooooooooo",
"oooooooooooooooooooooooooooooooooooooooooooooooooooooooooooooooo",
"oooooooooooooooooooooooooooooooooooooooooooooooooooooooooooooooo",
"oooooooooooooooooooooooooooooooooooooooooooooooooooooooooooooooo",
"oooooooooooooooooooooooooooooooooooooooooooooooooooooooooooooooo",
"oooooooooooooooooooooooooooooooooooooooooooooooooooooooooooooooo",
"oooooooooooooooooooooooooooooooooooooooooooooooooooooooooooooooo",
"oooooooooooooooooooooooooooooooooooooooooooooooooooooooooooooooo",
"oooooooooooooooooooooooooooooooooooooooooooooooooooooooooooooooo",
"oooooooooooooooooooooooooooooooooooooooooooooooooooooooooooooooo"
};
