/* XPM */
static char *result[] = {
/* columns rows colors chars-per-pixel */
"64 64 8 1 ",
"  c #059076",
". c #800C97",
"X c #2CB79D",
"o c #639BFF",
"O c #FFBC92",
"+ c #FFD6BC",
"@ c #DB87FF",
"# c white",
/* pixels */
"oooooooooooooooooooooooooooooooooooooooooooooooooooooooooooooooo",
"ooooooooooooooooooo####ooooooooooooooooooooooooooooooooooooooooo",
"ooooooooooooooooooo#OO#ooooooooooooooooooooooooooooooooooooooooo",
"ooooooooooooooooooo#OO#ooooooooooooooooooooooooooooooooooooooooo",
"ooooooooooooooooooo#OO#ooooooooooooooooooooooooooooooooooooooooo",
"ooooooooooooooooo###OO#ooooooooooooooooooooooooooooooooooooooooo",
"ooooooooooooooooo#OO++#ooooooooooooooooooooooooooooooooooooooooo",
"ooooooooooooooooo#OO++#ooooooooooooooooooooooooooooooooooooooooo",
"ooooooooooooooooo#OO++#ooooooooooooooooooooooooooooooooooooooooo",
"ooooooooooooooo###OO++#ooooooooooooooooooooooooooooooooooooooooo",
"ooooooooooooooo#OO++###ooooooooooooooooooooooooooooooooooooooooo",
"ooooooooooooo###OO++#ooooooooooooooooooooooooooooooooooooooooooo",
"ooooooooooooo#OO++++#ooooooooooooooooooooooooooooooooooooooooooo",
"ooooooooooooo#OO++++#ooooooooooooooooooooooooooooooooooooooooooo",
"ooooooooooooo#OO++++#ooooooooooooooooooooooooooooooooooooooooooo",
"ooooooooooooo#OO++++###ooooooooooooooooooooooooooooooooooooooooo",
"ooooooooooooo#OO++++++#oooo######ooooooooooooooooooooooooooooooo",
"ooooooooooooo#OO++++++###########ooooooooooooooooooooooooooooooo",
"ooooooooooooo#OO++++++++++@@@@@@#ooooooooooooooooooooooooooooooo",
"ooooooooooooo#OO++++++++++@@@@@@#ooooooooooooooooooooooooooooooo",
"ooooooooooooo###OO++++++@@@@@@@@#ooooooooooooooooooooooooooooooo",
"ooooooooooooo###OO++++++@@@@@@@@#ooooooooooooooooooooooooooooooo",
"ooooooooooooooo###OO++@@@@@@@@@@#ooooooooooooooooooooooooooooooo",
"ooooooooooooooooo#OO++@@@@@@@@@@###ooooooooooooooooooooooooooooo",
"ooooooooooooooooo#@@@@@@@@@@@@@@@@#ooooooooooooooooooooooooooooo",
"ooooooooooooooooo#@@@@@@@@@@@@@@@@#ooooooooooooooooooooooooooooo",
"ooooooooooooooooo#@@@@@@@@@@@@@@@@#ooooooooooooooooooooooooooooo",
"ooooooooooooooooo#@@@@@@@@@@@@@@@@#ooooooooooooooooooooooooooooo",
"ooooooooooooooooo#@@@@@@@@@@@@@@@@#ooooooooooooooooooooooooooooo",
"ooooooooooooooooo#@@@@@@@@@@@@@@@@#ooooooooooooooooooooooooooooo",
"ooooooooooooooooo#@@@@@@@@@@@@@@@@#ooooooooooooooooooooooooooooo",
"ooooooooooooooooo#@@@@@@@@@@@@@@@@#ooooooooooooooooooooooooooooo",
"ooooooooooooooooo#@@@@@@@@@@@@@@@@#ooooooooooooooooooooooooooooo",
"ooooooooooooooooo#@@@@@@@@@@@@@@@@###ooooooooooooooooooooooooooo",
"ooooooooooooooooo###@@@@@@@@OOOOOOOO#ooooooooooooooooooooooooooo",
"ooooooooooooooooooo#@@@@@@@OO++++++O########oooooooooooooooooooo",
"ooooooooooooooooooo#@@@@@@OOO++++++O....XX.##ooooooooooooooooooo",
"ooooooooooooooooooo#@@@@@OOO+++++++O....XX..###ooooooooooooooooo",
"ooooooooooooooooooo###@@OOO++++++++O..XX......#ooooooooooooooooo",
"ooooooooooooooooooo###@OOO+++++++++O..XX......###ooooooooooooooo",
"oooooooooooooooooooo###O+++++++++++OXX..........#ooooooooooooooo",
"oooooooooooooooooooo##+++++++++OOOOOXX..........#ooooooooooooooo",
"ooooooooooooooooooooo#+++++++++O  XX++..........#ooooooooooooooo",
"ooooooooooooooooooooo#+++++++OOO  XX++..........##oooooooooooooo",
"ooooooooooooooooooooo#+++++++O++  XX++++.........#oooooooooooooo",
"ooooooooooooooooooooo#++++OOOO++  XX++++.........#oooooooooooooo",
"ooooooooooooooooooooo#++++##++++    ++++.........#oooooooooooooo",
"ooooooooooooooooooooo#++++##++++    ++++.........#oooooooooooooo",
"ooooooooooooooooooooo#++++##++++++  ++++.........#oooooooooooooo",
"ooooooooooooooooooooo#++++##++++++  ++++.........#oooooooooooooo",
"ooooooooooooooooooooo#++++##++++    ++++.........#oooooooooooooo",
"ooooooooooooooooooooo#++++##++++    ++++.........#oooooooooooooo",
"ooooooooooooooooooooo#++++##++++  XX++++........##oooooooooooooo",
"ooooooooooooooooooooo#++++##++++  XX++++........#ooooooooooooooo",
"ooooooooooooooooooooo#++++####++    ++........###ooooooooooooooo",
"ooooooooooooooooooooo#++++#oo#++    ++........#ooooooooooooooooo",
"ooooooooooooooooooooo#++++#oo###++++........###ooooooooooooooooo",
"ooooooooooooooooooooo#++++#oooo#++++........#ooooooooooooooooooo",
"ooooooooooooooooooooo###++#ooooo#############ooooooooooooooooooo",
"ooooooooooooooooooooooo####ooooooooooooooooooooooooooooooooooooo",
"oooooooooooooooooooooooooooooooooooooooooooooooooooooooooooooooo",
"oooooooooooooooooooooooooooooooooooooooooooooooooooooooooooooooo",
"oooooooooooooooooooooooooooooooooooooooooooooooooooooooooooooooo",
"oooooooooooooooooooooooooooooooooooooooooooooooooooooooooooooooo"
};
