/* XPM */
static char *result[] = {
/* columns rows colors chars-per-pixel */
"64 64 17 1 ",
"  c #048F75",
". c #059076",
"X c #09947A",
"o c #800C97",
"O c #820E99",
"+ c #8D19A4",
"@ c #2CB79D",
"# c #639BFF",
"$ c #FFBC92",
"% c #FFC7A3",
"& c #FFCAA9",
"* c #FFCDAE",
"= c #FFD2B6",
"- c #FFD6BC",
"; c #C78CFF",
": c #C990FF",
"> c white",
/* pixels */
"################################################################",
"################################################################",
"################################################################",
"################################################################",
"################################################################",
"################################################################",
"################################################################",
"################################################################",
"################################################################",
"################################################################",
"################################################################",
"################################################################",
"################################################################",
"################################################################",
"################################################################",
"###########################################>>>>>>>>>>###########",
"###########################################>oooooooo>###########",
"#######################################>>>>>oooooooo>>>#########",
"#######################################>oooooooooooooo>#########",
"#####################################>>>oooooooooooooo>>>#######",
"#####################################>oooooooooooooooooo>#######",
"###################################>>>oooooooooooooooooo>#######",
"###################################>oooooooooooooooooooo>#######",
"###################################>oooooooooooooooooooo>>>#####",
"###################################>@@oooooooooooooooooooo>#####",
"###################################>@@oooooooooooooooooooo>#####",
"###################################>oo@@oooo----------oooo>#####",
"#################################>>>oo@@oooo----------oooo>#####",
"#################################>$$++OO@@--------------oo>#####",
"#######################>>>>>>>>>>>$$++OO@@--------------oo>#####",
"#######################>::::::$$$$$$$$--  @@@@......@@..-->#####",
"#################>>>>>>>::::::$$--$$$$--  @@@@......@@..-->#####",
"#################>::::::::::::$$------$$--XX....--......-->#####",
"#################>::::::::::::$$------$$--XX....--......-->#####",
"#################>&&::::::::::$$$$------$$--==---------->>>#####",
"#################>&&::::::::::$$$$------$$--==---------->#######",
"#################>--**::::::::::$$$$------$$--------$$>>>#######",
"###>>>>>>>>####>>>--**::::::::::$$$$------$$--------$$>#########",
"###>$$---->####>------%%::::::::::$$$$------>>>>>>$$-->#########",
"###>$$---->>>>>>------%%::::::::::$$$$------>>>>>>$$-->#########",
"###>>>$$--------------$$::::::::::::::$$------$$----$$>#########",
"#####>$$--------------$$::::::::::::::$$------$$----$$>#########",
"#####>>>>>$$--------$$>>;;::::::::::::::$$--------$$>>>#########",
"#########>$$--------$$>>;;::::::::::::::$$--------$$>###########",
"#########>>>$$$$$$$$>>>>>>::::::::>>>>>>>>$$$$$$$$>>>###########",
"###########>$$$$$$$$>####>::::::::>######>$$$$$$$$>#############",
"###########>>>>>>>>>>####>>>>>>>>>>######>>>>>>>>>>#############",
"################################################################",
"################################################################",
"################################################################",
"################################################################",
"################################################################",
"################################################################",
"################################################################",
"################################################################",
"################################################################",
"################################################################",
"################################################################",
"################################################################",
"################################################################",
"################################################################",
"################################################################",
"################################################################",
"################################################################"
};
