/* XPM */
static char *result[] = {
/* columns rows colors chars-per-pixel */
"64 64 9 1 ",
"  c #059076",
". c #800C97",
"X c #2CB79D",
"o c #639BFF",
"O c #FFBC92",
"+ c #FFD3B8",
"@ c #FFD6BC",
"# c #DB87FF",
"$ c white",
/* pixels */
"oooooooooooooooooooooooooooooooooooooooooooooooooooooooooooooooo",
"oooooooooooooooooooooooooooooooooooooooooooooooooooooooooooooooo",
"oooooooooooooooooooooooooooooooooooooooooooooooooooooooooooooooo",
"oooooooooooooooooooooooooooooooooooooooooooooooooooooooooooooooo",
"oooooooooooooooooooooooooooooooooooooooooooooooooooooooooooooooo",
"oooooooooooooooooooooooooooooooooooooooooooooooooooooooooooooooo",
"oooooooooooooooooooooooooooooooooooooooooooooooooooooooooooooooo",
"oooooooooooooooooooooooooooooooooooooooooooooooooooooooooooooooo",
"oooooooooooooooooooooooooooooooooooooooooooooooooooooooooooooooo",
"oooooooooooooooooooooooooooooooooooooooooooooooooooooooooooooooo",
"oooooooooooooooooooooooooooooooooooooooooooooooooooooooooooooooo",
"oooooooooooooooooooooooooooooooooooooooooooooooooooooooooooooooo",
"oooooooooooooooooooooooooooooooooooooooooooooooooooooooooooooooo",
"oooooooooooooooooooooooooooooooooooooooooooooooooooooooooooooooo",
"ooooooooooo$$$$$$$$$$ooooooooooooooooooooooooooooooooooooooooooo",
"ooooooooo$$$........$$$$$ooooooooooooooooooooooooooooooooooooooo",
"ooooooooo$..............$ooooooooooooooooooooooooooooooooooooooo",
"ooooooo$$$..............$$$ooooooooooooooooooooooooooooooooooooo",
"ooooooo$..................$ooooooooooooooooooooooooooooooooooooo",
"ooooo$$$..................$$$ooooooooooooooooooooooooooooooooooo",
"ooooo$......................$ooooooooooooooooooooooooooooooooooo",
"ooooo$......................$ooooooooooooooooooooooooooooooooooo",
"ooooo$....................XX$ooooooooooooooooooooooooooooooooooo",
"ooooo$....................XX$ooooooooooooooooooooooooooooooooooo",
"ooooo$....@@@@@@@@@@....XX..$ooooooooooooooooooooooooooooooooooo",
"ooooo$....@@@@@@@@@@....XX..$ooooooooooooooooooooooooooooooooooo",
"ooooo$..@@@@@@@@@@@@@@XX....$ooooooooooooooooooooooooooooooooooo",
"ooooo$..@@@@@@@@@@@@@@XX....$$$ooooooooooooooooooooooooooooooooo",
"ooooo$@@  XX      XXXX  OOOOOO$ooooooooooooooooooooooooooooooooo",
"ooooo$@@  XX      XXXX  OOOOOO$$$$$$$$$$$ooooooooooooooooooooooo",
"ooooo$@@      @@      @@OO@@OO##########$ooooooooooooooooooooooo",
"ooooo$@@      @@      @@OO@@OO##########$$$$$$$ooooooooooooooooo",
"ooooo$$$@@@@@@@@@@@@@@OO@@@@OO################$ooooooooooooooooo",
"ooooooo$@@@@@@@@@@@@@@OO@@@@OO################$ooooooooooooooooo",
"ooooooo$$$@@@@@@@@OOOOOO@@@OOO################$ooooooooooooooooo",
"ooooooooo$@@@@@@@@OOOOOO@@OOO#################$ooooooooooooooooo",
"ooooooooo$$$$$$$$$@@OO@@@@OO################++$ooooooooooooooooo",
"ooooooooooooooooo$@@OO@@@@OO################++$ooooooooooooooooo",
"ooooooooooooooooo$OO@@@@OOOO##############++@@$ooooooooooooooooo",
"oooooooooooooooo$$OO@@@@OOO###############++@@$$$oooo$$$$$$$$ooo",
"ooooooooooooooo$$@@@@@OOOO##############OO@@@@@@$oooo$@@@@OO$ooo",
"ooooooooooooooo$@@@@@@OOOO##############OO@@@@@@$$$$$$@@@@OO$ooo",
"ooooooooooooo$$$@@@@OOOO$$##############OO@@@@@@@@@@@@OOOO$$$ooo",
"ooooooooooo$$$$$@@@@OO$$$$##############OO@@@@@@@@@@@@OOOO$ooooo",
"ooooooooooo$@@@@@OOOOO$oo$$$$$##########$$OO@@@@@@@@OO$$$$$ooooo",
"ooooooooooo$OOOOOO$$$$$oooooo$##########$$OO@@@@@@@@OO$ooooooooo",
"ooooooooooo$$$$$$$$oooooooooo$$$$$$$$$$$$$$$OOOOOOOO$$$ooooooooo",
"ooooooooooooooooooooooooooooooooooooooooooo$OOOOOOOO$ooooooooooo",
"ooooooooooooooooooooooooooooooooooooooooooo$$$$$$$$$$ooooooooooo",
"oooooooooooooooooooooooooooooooooooooooooooooooooooooooooooooooo",
"oooooooooooooooooooooooooooooooooooooooooooooooooooooooooooooooo",
"oooooooooooooooooooooooooooooooooooooooooooooooooooooooooooooooo",
"oooooooooooooooooooooooooooooooooooooooooooooooooooooooooooooooo",
"oooooooooooooooooooooooooooooooooooooooooooooooooooooooooooooooo",
"oooooooooooooooooooooooooooooooooooooooooooooooooooooooooooooooo",
"oooooooooooooooooooooooooooooooooooooooooooooooooooooooooooooooo",
"oooooooooooooooooooooooooooooooooooooooooooooooooooooooooooooooo",
"oooooooooooooooooooooooooooooooooooooooooooooooooooooooooooooooo",
"oooooooooooooooooooooooooooooooooooooooooooooooooooooooooooooooo",
"oooooooooooooooooooooooooooooooooooooooooooooooooooooooooooooooo",
"oooooooooooooooooooooooooooooooooooooooooooooooooooooooooooooooo",
"oooooooooooooooooooooooooooooooooooooooooooooooooooooooooooooooo",
"oooooooooooooooooooooooooooooooooooooooooooooooooooooooooooooooo",
"oooooooooooooooooooooooooooooooooooooooooooooooooooooooooooooooo"
};
