/* XPM */
static char *result[] = {
/* columns rows colors chars-per-pixel */
"64 64 9 1 ",
"  c #059076",
". c #800C97",
"X c #2CB79D",
"o c #639BFF",
"O c #FFBC92",
"+ c #FFD3B8",
"@ c #FFD6BC",
"# c #DB87FF",
"$ c white",
/* pixels */
"oooooooooooooooooooooooooooooooooooooooooooooooooooooooooooooooo",
"oooooooooooooooooooooooooooooooooooooooooooooooooooooooooooooooo",
"oooooooooooooooooooooooooooooooooooooooooooooooooooooooooooooooo",
"oooooooooooooooooooooooooooooooooooooooooooooooooooooooooooooooo",
"oooooooooooooooooooooooooooooooooooooooooooooooooooooooooooooooo",
"ooooooooooooooooooo$$$$$$$$$$$$$$ooooooooooooooooooooooooooooooo",
"ooooooooooooooooooo$........@@@@$ooooooooooooooooooooooooooooooo",
"ooooooooooooooooo$$$........@@@@$$$ooooooooooooooooooooooooooooo",
"ooooooooooooooooo$........@@    @@$ooooooooooooooooooooooooooooo",
"ooooooooooooooo$$$........@@    @@$$$ooooooooooooooooooooooooooo",
"ooooooooooooooo$........@@@@XX  @@@@$ooooooooooooooooooooooooooo",
"oooooooooooooo$$........@@@@XX  @@@@$oooooo$$$$ooooooooooooooooo",
"oooooooooooooo$.........@@@@    @@@@$oooooo$@O$ooooooooooooooooo",
"oooooooooooooo$.........@@@@    @@@@$ooooo$$@O$ooooooooooooooooo",
"oooooooooooooo$.........@@@@  @@@@@@$ooooo$$@O$ooooooooooooooooo",
"oooooooooooooo$.........@@@@  @@@@@@$ooo$$$$@O$ooooooooooooooooo",
"oooooooooooooo$.........@@@@    @@@@$oo$$@@@@O$ooooooooooooooooo",
"oooooooooooooo$.........@@@@    @@@@$$$$@@@@OO$ooooooooooooooooo",
"oooooooooooooo$.........@@@@XX  @@OO@@OO@@@@O$$ooooooooooooooooo",
"oooooooooooooo$.........@@@@XX  @@OO@@OO@@@@O$oooooooooooooooooo",
"oooooooooooooo$$..........@@XX  @@OOOO@@@@OOO$oooooooooooooooooo",
"ooooooooooooooo$..........@@XX  @@OOOO@@@@OOO$oooooooooooooooooo",
"ooooooooooooooo$..........XX  @@OOOO@@@@OOO$$$oooooooooooooooooo",
"ooooooooooooooo$..........XX  @@OOOO@@@@OOO$oooooooooooooooooooo",
"ooooooooooooooo$$$......XX..OOOO@@@@@@OOOO$$oooooooooooooooooooo",
"ooooooooooooooooo$......XX..OOOO@@@@@@OOOO$$$ooooooooooooooooooo",
"ooooooooooooooooo$$$..XX....OO@@@@@OOOOO####$ooooooooooooooooooo",
"ooooooooooooooooooo$..XX....OO@@@@OOOOO#####$ooooooooooooooooooo",
"ooooooooooooooooooo$$$$$$$$$OOOOOOOO########$ooooooooooooooooooo",
"ooooooooooooooooooooooooooo$OOOOOOO#########$$$ooooooooooooooooo",
"ooooooooooooooooooooooooooo$$$################$ooooooooooooooooo",
"ooooooooooooooooooooooooooooo$################$ooooooooooooooooo",
"ooooooooooooooooooooooooooooo$################$ooooooooooooooooo",
"ooooooooooooooooooooooooooooo$################$ooooooooooooooooo",
"ooooooooooooooooooooooooooooo$################$ooooooooooooooooo",
"ooooooooooooooooooooooooooooo$################$ooooooooooooooooo",
"ooooooooooooooooooooooooooooo$################$ooooooooooooooooo",
"ooooooooooooooooooooooooooooo$################$ooooooooooooooooo",
"ooooooooooooooooooooooooooooo$################$ooooooooooooooooo",
"ooooooooooooooooooooooooooooo$################$ooooooooooooooooo",
"ooooooooooooooooooooooooooooo$$$########OOOO$$$ooooooooooooooooo",
"ooooooooooooooooooooooooooooooo$########OOOO$$$ooooooooooooooooo",
"ooooooooooooooooooooooooooooooo$######++@@@@OO$ooooooooooooooooo",
"ooooooooooooooooooooooooooooooo$######++@@@@OO$$$ooooooooooooooo",
"ooooooooooooooooooooooooooooooo$####++@@@@@@@@OO$ooooooooooooooo",
"ooooooooooooooooooooooooooooooo$####++@@@@@@@@OO$ooooooooooooooo",
"ooooooooooooooooooooooooooooooo$$$$$$$$$@@@@@@OO$ooooooooooooooo",
"ooooooooooooooooooooooooooooooooooooooo$@@@@@@OO$ooooooooooooooo",
"ooooooooooooooooooooooooooooooooooooooo$$$@@@@OO$ooooooooooooooo",
"ooooooooooooooooooooooooooooooooooooooooo$@@@@OO$ooooooooooooooo",
"ooooooooooooooooooooooooooooooooooooooooo$@@@@OO$ooooooooooooooo",
"ooooooooooooooooooooooooooooooooooooooooo$@@@@OO$ooooooooooooooo",
"ooooooooooooooooooooooooooooooooooooooooo$@@OO$$$ooooooooooooooo",
"ooooooooooooooooooooooooooooooooooooooo$$$@@OO$ooooooooooooooooo",
"ooooooooooooooooooooooooooooooooooooooo$@@OO$$$ooooooooooooooooo",
"ooooooooooooooooooooooooooooooooooooooo$@@OO$ooooooooooooooooooo",
"ooooooooooooooooooooooooooooooooooooooo$@@OO$ooooooooooooooooooo",
"ooooooooooooooooooooooooooooooooooooooo$@@OO$ooooooooooooooooooo",
"ooooooooooooooooooooooooooooooooooooooo$OO$$$ooooooooooooooooooo",
"ooooooooooooooooooooooooooooooooooooooo$OO$ooooooooooooooooooooo",
"ooooooooooooooooooooooooooooooooooooooo$$$$ooooooooooooooooooooo",
"oooooooooooooooooooooooooooooooooooooooooooooooooooooooooooooooo",
"oooooooooooooooooooooooooooooooooooooooooooooooooooooooooooooooo",
"oooooooooooooooooooooooooooooooooooooooooooooooooooooooooooooooo"
};
