/* XPM */
static char *result[] = {
/* columns rows colors chars-per-pixel */
"64 64 8 1 ",
"  c #059076",
". c #800C97",
"X c #2CB79D",
"o c #639BFF",
"O c #FFBC92",
"+ c #FFD6BC",
"@ c #DB87FF",
"# c white",
/* pixels */
"oooooooooooooooooooooooooooooooooooooooooooooooooooooooooooooooo",
"oooooooooooooooooooooooooooooooooooooooooooooooooooooooooooooooo",
"oooooooooooooooooooooooooooooooooooooooooooooooooooooooooooooooo",
"oooooooooooooooooooooooooooooooooooooooooooooooooooooooooooooooo",
"ooooooooooooooooooooooooooooooooooooo####ooooooooooooooooooooooo",
"ooooooooooooooooooo#############ooooo#++###ooooooooooooooooooooo",
"ooooooooooooooooooo#........++++#oooo#++++#ooooooooooooooooooooo",
"ooooooooooooooooo###........++++###oo#++++#ooooooooooooooooooooo",
"ooooooooooooooooo#........++    ++#oo#++++#ooooooooooooooooooooo",
"ooooooooooooooo###........++    ++####++++#ooooooooooooooooooooo",
"ooooooooooooooo#........++++XX  ++++##++++#ooooooooooooooooooooo",
"oooooooooooooo##........++++XX  ++++##++++#ooooooooooooooooooooo",
"oooooooooooooo#.........++++    ++++##++++#ooooooooooooooooooooo",
"oooooooooooooo#.........++++    ++++##++++#ooooooooooooooooooooo",
"oooooooooooooo#.........++++  ++++++##++++#ooooooooooooooooooooo",
"oooooooooooooo#.........++++  ++++++##++++#ooooooooooooooooooooo",
"oooooooooooooo#.........++++    ++++##++++#ooooooooooooooooooooo",
"oooooooooooooo#.........++++    ++++##++++#ooooooooooooooooooooo",
"oooooooooooooo#.........++++XX  ++OOOO++++#ooooooooooooooooooooo",
"oooooooooooooo#.........++++XX  ++O+++++++#ooooooooooooooooooooo",
"oooooooooooooo##..........++XX  OOO+++++++#ooooooooooooooooooooo",
"ooooooooooooooo#..........++XX  O+++++++++#ooooooooooooooooooooo",
"ooooooooooooooo#..........XXOOOOO+++++++++##oooooooooooooooooooo",
"ooooooooooooooo#..........XXO+++++++++++O###oooooooooooooooooooo",
"ooooooooooooooo###......XX..O+++++++++OOO@###ooooooooooooooooooo",
"ooooooooooooooooo#......XX..O++++++++OOO@@###ooooooooooooooooooo",
"ooooooooooooooooo###..XX....O+++++++OOO@@@@@#ooooooooooooooooooo",
"ooooooooooooooooooo##.XX....O++++++OOO@@@@@@#ooooooooooooooooooo",
"oooooooooooooooooooo########O++++++OO@@@@@@@#ooooooooooooooooooo",
"ooooooooooooooooooooooooooo#OOOOOOOO@@@@@@@@###ooooooooooooooooo",
"ooooooooooooooooooooooooooo###@@@@@@@@@@@@@@@@#ooooooooooooooooo",
"ooooooooooooooooooooooooooooo#@@@@@@@@@@@@@@@@#ooooooooooooooooo",
"ooooooooooooooooooooooooooooo#@@@@@@@@@@@@@@@@#ooooooooooooooooo",
"ooooooooooooooooooooooooooooo#@@@@@@@@@@@@@@@@#ooooooooooooooooo",
"ooooooooooooooooooooooooooooo#@@@@@@@@@@@@@@@@#ooooooooooooooooo",
"ooooooooooooooooooooooooooooo#@@@@@@@@@@@@@@@@#ooooooooooooooooo",
"ooooooooooooooooooooooooooooo#@@@@@@@@@@@@@@@@#ooooooooooooooooo",
"ooooooooooooooooooooooooooooo#@@@@@@@@@@@@@@@@#ooooooooooooooooo",
"ooooooooooooooooooooooooooooo#@@@@@@@@@@@@@@@@#ooooooooooooooooo",
"ooooooooooooooooooooooooooooo#@@@@@@@@@@@@@@@@#ooooooooooooooooo",
"ooooooooooooooooooooooooooooo###@@@@@@@@@@++OO#ooooooooooooooooo",
"ooooooooooooooooooooooooooooooo#@@@@@@@@@@++OO###ooooooooooooooo",
"ooooooooooooooooooooooooooooooo#@@@@@@@@++++++OO###ooooooooooooo",
"ooooooooooooooooooooooooooooooo#@@@@@@@@++++++OO###ooooooooooooo",
"ooooooooooooooooooooooooooooooo#@@@@@@++++++++++OO#ooooooooooooo",
"ooooooooooooooooooooooooooooooo#@@@@@@++++++++++OO#ooooooooooooo",
"ooooooooooooooooooooooooooooooo###########++++++OO#ooooooooooooo",
"ooooooooooooooooooooooooooooooo######oooo#++++++OO#ooooooooooooo",
"ooooooooooooooooooooooooooooooooooooooooo###++++OO#ooooooooooooo",
"ooooooooooooooooooooooooooooooooooooooooooo#++++OO#ooooooooooooo",
"ooooooooooooooooooooooooooooooooooooooooooo#++++OO#ooooooooooooo",
"ooooooooooooooooooooooooooooooooooooooooooo#++++OO#ooooooooooooo",
"ooooooooooooooooooooooooooooooooooooooooooo#++OO###ooooooooooooo",
"ooooooooooooooooooooooooooooooooooooooooo###++OO#ooooooooooooooo",
"ooooooooooooooooooooooooooooooooooooooooo#++OO###ooooooooooooooo",
"ooooooooooooooooooooooooooooooooooooooooo#++OO#ooooooooooooooooo",
"ooooooooooooooooooooooooooooooooooooooooo#++OO#ooooooooooooooooo",
"ooooooooooooooooooooooooooooooooooooooooo#++OO#ooooooooooooooooo",
"ooooooooooooooooooooooooooooooooooooooooo#OO###ooooooooooooooooo",
"ooooooooooooooooooooooooooooooooooooooooo#OO#ooooooooooooooooooo",
"ooooooooooooooooooooooooooooooooooooooooo#OO#ooooooooooooooooooo",
"ooooooooooooooooooooooooooooooooooooooooo#OO#ooooooooooooooooooo",
"ooooooooooooooooooooooooooooooooooooooooo####ooooooooooooooooooo",
"oooooooooooooooooooooooooooooooooooooooooooooooooooooooooooooooo"
};
