/* XPM */
static char *def2d06118ae4b379b18c97ea7e67a75zJomGWQNP6DgiizE[] = {
/* columns rows colors chars-per-pixel */
"32 32 18 1 ",
"  c None",
". c #C57544",
"X c #048F75",
"o c #059076",
"O c #09947A",
"+ c #EA9A69",
"@ c #800C97",
"# c #820E99",
"$ c #8D19A4",
"% c #2CB79D",
"& c #FFBC92",
"* c #FFC7A3",
"= c #FFCAA9",
"- c #FFCDAE",
"; c #FFD2B6",
": c #FFD6BC",
"> c #C78CFF",
", c #C990FF",
/* pixels */
"                                ",
"                                ",
"                                ",
"                                ",
"                                ",
"                                ",
"                                ",
"                                ",
"      @@@@                      ",
"     @@@@@@@                    ",
"    @@@@@@@@@                   ",
"   @@@@@@@@@@@                  ",
"   @@@@@@@@@@%                  ",
"   @@:::::@@%@                  ",
"   @:::::::%#$.                 ",
"   :o%ooo%%X:&&:.,,,            ",
"   :ooo:ooO:&:::.,,,,,,         ",
"    :::::;:&:::+.,,,,,=         ",
"     &::::&:::+.,,,,,-:         ",
"     :&   :::+.,,,,,*:::   ::&  ",
"     &::&:::+.,,,,,,&:::::::&   ",
"      &::::+.,,,,,,> &::::&     ",
"       &&++    ,,,,   &&&&      ",
"                                ",
"                                ",
"                                ",
"                                ",
"                                ",
"                                ",
"                                ",
"                                ",
"                                "
};
