/* XPM */
static char *_2e105d50426445788267c6252f4ada9iwXJsdHciq9ldkfc[] = {
/* columns rows colors chars-per-pixel */
"64 64 19 1 ",
"  c None",
". c #D31E1E",
"X c #048F75",
"o c #059076",
"O c #09947A",
"+ c #EA9A69",
"@ c #800C97",
"# c #820E99",
"$ c #8D19A4",
"% c #2CB79D",
"& c #FFBC92",
"* c #FFC7A3",
"= c #FFCAA9",
"- c #FFCDAE",
"; c #FFD2B6",
": c #FFD6BC",
"> c #C78CFF",
", c #C990FF",
"< c white",
/* pixels */
"                                                                ",
"                                                                ",
"                                                                ",
"                                                                ",
"                                                                ",
"                                                                ",
"                                                                ",
"                                                                ",
"                                 <<<<<<                         ",
"                                <<....<<                        ",
"                                <......<<                       ",
"                                <..<<...<                       ",
"                                <..<<<..<                       ",
"                                <<.<<<..<                       ",
"                                 <<<<...<                       ",
"           <<<<<<<<<<              <...<<                       ",
"           <@@@@@@@@<             <<..<<                        ",
"         <<<@@@@@@@@<<<<<         <..<                          ",
"         <@@@@@@@@@@@@@@<         <..<                          ",
"       <<<@@@@@@@@@@@@@@<<<       <..<                          ",
"       <@@@@@@@@@@@@@@@@@@<       <<<<                          ",
"       <@@@@@@@@@@@@@@@@@@<<<     <<<<                          ",
"       <@@@@@@@@@@@@@@@@@@@@<     <..<                          ",
"     <<<@@@@@@@@@@@@@@@@@@@@<     <..<                          ",
"     <@@@@@@@@@@@@@@@@@@@@%%<     <<<<                          ",
"     <@@@@@@@@@@@@@@@@@@@@%%<                                   ",
"     <@@@@::::::::::@@@@%%@@<                                   ",
"     <@@@@::::::::::@@@@%%@@<<<                                 ",
"     <@@::::::::::::::%%##$$&&<                                 ",
"     <@@::::::::::::::%%##$$&&<<<<<<<<<<<                       ",
"     <::oo%%oooooo%%%%XX::&&&&&&&&,,,,,,<                       ",
"     <::oo%%oooooo%%%%XX::&&&&::&&,,,,,,<<<<<<<                 ",
"     <::oooooo::ooooOO::&&::::::&&,,,,,,,,,,,,<                 ",
"     <::oooooo::ooooOO::&&::::::&&,,,,,,,,,,,,<                 ",
"     <<<::::::::::;;::&&::::::&&&&,,,,,,,,,,==<                 ",
"       <::::::++::;;::&&::::::&&&&,,,,,,,,,,==<                 ",
"       <<<&&::::::::&&::::::&&&&,,,,,,,,,,--::<                 ",
"         <&&::::::::&&::::::&&&&,,,,,,,,,,--::<<<    <<<<<<<<   ",
"         <::&&<<<<<<::::::&&&&,,,,,,,,,,**::::::<    <::::&&<   ",
"         <::&&<<<<<<::::::&&&&,,,,,,,,,,**::::::<<<<<<::::&&<   ",
"         <&&::::&&::::::&&,,,,,,,,,,,,,,&&::::::::::::::&&<<<   ",
"         <&&::::&&::::::&&,,,,,,,,,,,,,,&&::::::::::::::&&<     ",
"         <<<&&::::::::&&,,,,,,,,,,,,,,>><<&&::::::::&&<<<<<     ",
"           <&&::::::::&&,,,,,,,,,,,,,,>><<&&::::::::&&<         ",
"           <<<&&&&&&&&<<<<<<<<,,,,,,,,<<<<<<&&&&&&&&<<<         ",
"             <&&&&&&&&<      <,,,,,,,,<    <&&&&&&&&<           ",
"             <<<<<<<<<<      <<<<<<<<<<    <<<<<<<<<<           ",
"                                                                ",
"                                                                ",
"                                                                ",
"                                                                ",
"                                                                ",
"                                                                ",
"                                                                ",
"                                                                ",
"                                                                ",
"                                                                ",
"                                                                ",
"                                                                ",
"                                                                ",
"                                                                ",
"                                                                ",
"                                                                ",
"                                                                "
};
