/* XPM */
static char *dd5a4f9379674aa2bcb84613c5aaa2ffqMZlQdWDOdsVWXCd[] = {
/* columns rows colors chars-per-pixel */
"32 32 11 1 ",
"  c None",
". c #C57544",
"X c #059076",
"o c #EA9A69",
"O c #800C97",
"+ c #2CB79D",
"@ c #FFBC92",
"# c #FFD3B8",
"$ c #FFD6BC",
"% c #DA85FF",
"& c #DB87FF",
/* pixels */
"                                ",
"                                ",
"                                ",
"                                ",
"                                ",
"                                ",
"                                ",
"      OOOO                      ",
"     OOOOOOO                    ",
"    OOOOOOOOO                   ",
"   OOOOOOOOOOO                  ",
"   OOOOOOOOOO+                  ",
"   OO$$$$$OO+O                  ",
"   O$$$$$$$+OO                  ",
"   $X+XXX++Xoo.                 ",
"   $XXX$XXX$@$o.&&&&            ",
"    $$$$$$$o$$o.&&&&&&&         ",
"     $$$$oo@$$..&&&&&&&         ",
"         $@$$o.&&&&&&&#         ",
"         @$$o.&&&&&&&#$         ",
"        $$$o.&&&&&&&@$$$   $$@  ",
"        $$o. &&&&&&&@$$$$$$@@   ",
"      $$$..    &&&&& @$$$$@     ",
"      ...             @@@@      ",
"                                ",
"                                ",
"                                ",
"                                ",
"                                ",
"                                ",
"                                ",
"                                "
};
