/* XPM */
static char *f7b6b69174df4ebbaf6fa7372b545839weZTj8t3sRP9J7Ht[] = {
/* columns rows colors chars-per-pixel */
"32 32 9 1 ",
"  c None",
". c #C57544",
"X c #059076",
"o c #EA9A69",
"O c #800C97",
"+ c #2CB79D",
"@ c #FFBC92",
"# c #FFD6BC",
"$ c #DB87FF",
/* pixels */
"                                ",
"                                ",
"                                ",
"                                ",
"                                ",
"                                ",
"                                ",
"      OOOO                      ",
"     OOOOOOO                    ",
"    OOOOOOOOO                   ",
"   OOOOOOOOOOO                  ",
"   OOOOOOOOOO+                  ",
"   OO#####OO+O                  ",
"   O#######+OO                  ",
"   #X+XXX++ooo.                 ",
"   #XXX#XXXo@oo.$$$$            ",
"    ######o@##o.$$$$$$$         ",
"     ####o@###.$$$$$$$$         ",
"         @###.$$$$$$$$$         ",
"  ##########.$$$$$$$$$#         ",
"   ######## $$$$$$$$$##         ",
"             $$$$$$$####   ##@@ ",
"               $$$$$@######@@   ",
"                     @####@     ",
"                      @@@@      ",
"                                ",
"                                ",
"                                ",
"                                ",
"                                ",
"                                ",
"                                "
};
