/* XPM */
static char *result[] = {
/* columns rows colors chars-per-pixel */
"64 64 9 1 ",
"  c #059076",
". c #800C97",
"X c #2CB79D",
"o c #639BFF",
"O c #FFBC92",
"+ c #FFD3B8",
"@ c #FFD6BC",
"# c #DB87FF",
"$ c white",
/* pixels */
"oooooooooooooooooooooooooooooooooooooooooooooooooooooooooooooooo",
"oooooooooooooooooooooooooooooooooooooooooooooooooooooooooooooooo",
"oooooooooooooooooooooooooooooooooooooooooooooooooooooooooooooooo",
"ooooooooooooooooooooo$$$$ooooooooooooooooooooooooooooooooooooooo",
"ooooooooooooooooooooo$OO$ooooooooooooooooooooooooooooooooooooooo",
"ooooooooooooooooooo$$$OO$ooooooooooooooooooooooooooooooooooooooo",
"ooooooooooooooooooo$OO@@$ooooooooooooooooooooooooooooooooooooooo",
"ooooooooooooooooooo$OO@@$ooooooooooooooooooooooooooooooooooooooo",
"ooooooooooooooooooo$OO@@$ooooooooooooooooooooooooooooooooooooooo",
"ooooooooooooooooo$$$OO@@$ooooooooooooooooooooooooooooooooooooooo",
"ooooooooooooooooo$OO@@$$$ooooooooooooooooooooooooooooooooooooooo",
"ooooooooooooooo$$$OO@@$ooooooooooooooooooooooooooooooooooooooooo",
"ooooooooooooooo$OO@@@@$ooooooooooooooooooooooooooooooooooooooooo",
"ooooooooooooooo$OO@@@@$ooooooooooooooooooooooooooooooooooooooooo",
"ooooooooooooooo$OO@@@@$ooooooooooooooooooooooooooooooooooooooooo",
"ooooooooooooooo$OO@@@@$$$ooooooooooooooooooooooooooooooooooooooo",
"ooooooooooooooo$OO@@@@@@$ooooooooooooooooooooooooooooooooooooooo",
"ooooooooooooooo$OO@@@@@@$$$$$$$$$ooooooooooooooooooooooooooooooo",
"ooooooooooooooo$OO@@@@@@@@++####$ooooooooooooooooooooooooooooooo",
"ooooooooooooooo$OO@@@@@@@@++####$ooooooooooooooooooooooooooooooo",
"ooooooooooooooo$$$OO@@@@++######$ooooooooooooooooooooooooooooooo",
"ooooooooooooooooo$OO@@@@++######$ooooooooooooooooooooooooooooooo",
"ooooooooooooooooo$$$OOOO########$ooooooooooooooooooooooooooooooo",
"ooooooooooooooooo$$$OOOO########$$$ooooooooooooooooooooooooooooo",
"ooooooooooooooooo$################$ooooooooooooooooooooooooooooo",
"ooooooooooooooooo$################$ooooooooooooooooooooooooooooo",
"ooooooooooooooooo$################$ooooooooooooooooooooooooooooo",
"ooooooooooooooooo$################$ooooooooooooooooooooooooooooo",
"ooooooooooooooooo$################$ooooooooooooooooooooooooooooo",
"ooooooooooooooooo$################$ooooooooooooooooooooooooooooo",
"ooooooooooooooooo$################$ooooooooooooooooooooooooooooo",
"ooooooooooooooooo$################$ooooooooooooooooooooooooooooo",
"ooooooooooooooooo$################$ooooooooooooooooooooooooooooo",
"ooooooooooooooooo$################$$$ooooooooooooooooooooooooooo",
"ooooooooooooooooo$$$#########OOOOOOO$ooooooooooooooooooooooooooo",
"ooooooooooooooooooo$########OOOOOOOO$$$$$$$$$ooooooooooooooooooo",
"ooooooooooooooooooo$#####OOOOO@@@@OO....XX..$ooooooooooooooooooo",
"ooooooooooooooooooo$####OOOOO@@@@@OO....XX..$$$ooooooooooooooooo",
"ooooooooooooooooooo$$$OOOO@@@@@@OOOO..XX......$ooooooooooooooooo",
"oooooooooooooooooooo$$OOOO@@@@@@OOOO..XX......$$$ooooooooooooooo",
"oooooooooooooooooooo$OOO@@@@OOOO@@  XX..........$ooooooooooooooo",
"oooooooooooooooooo$$$OOO@@@@OOOO@@  XX..........$ooooooooooooooo",
"oooooooooooooooooo$OOO@@@@OOOO@@  XX@@..........$ooooooooooooooo",
"oooooooooooooooooo$OOO@@@@OOOO@@  XX@@..........$$oooooooooooooo",
"oooooooooooooooooo$O@@@@OO@@OO@@  XX@@@@.........$oooooooooooooo",
"ooooooooooooooooo$$O@@@@OO@@OO@@  XX@@@@.........$oooooooooooooo",
"ooooooooooooooooo$OO@@@@$$$$@@@@    @@@@.........$oooooooooooooo",
"ooooooooooooooooo$O@@@@$$oo$@@@@    @@@@.........$oooooooooooooo",
"ooooooooooooooooo$O@$$$$ooo$@@@@@@  @@@@.........$oooooooooooooo",
"ooooooooooooooooo$O@$$ooooo$@@@@@@  @@@@.........$oooooooooooooo",
"ooooooooooooooooo$O@$$ooooo$@@@@    @@@@.........$oooooooooooooo",
"ooooooooooooooooo$O@$oooooo$@@@@    @@@@.........$oooooooooooooo",
"ooooooooooooooooo$$$$oooooo$@@@@  XX@@@@........$$oooooooooooooo",
"ooooooooooooooooooooooooooo$@@@@  XX@@@@........$ooooooooooooooo",
"ooooooooooooooooooooooooooo$$$@@    @@........$$$ooooooooooooooo",
"ooooooooooooooooooooooooooooo$@@    @@........$ooooooooooooooooo",
"ooooooooooooooooooooooooooooo$$$@@@@........$$$ooooooooooooooooo",
"ooooooooooooooooooooooooooooooo$@@@@........$ooooooooooooooooooo",
"ooooooooooooooooooooooooooooooo$$$$$$$$$$$$$$ooooooooooooooooooo",
"oooooooooooooooooooooooooooooooooooooooooooooooooooooooooooooooo",
"oooooooooooooooooooooooooooooooooooooooooooooooooooooooooooooooo",
"oooooooooooooooooooooooooooooooooooooooooooooooooooooooooooooooo",
"oooooooooooooooooooooooooooooooooooooooooooooooooooooooooooooooo",
"oooooooooooooooooooooooooooooooooooooooooooooooooooooooooooooooo"
};
