/* XPM */
static char *_4c627f9042d4a29e283a01dcc8aaf29aeQm6q9p6EM2rZOv[] = {
/* columns rows colors chars-per-pixel */
"64 64 17 1 ",
"  c None",
". c #048F75",
"X c #059076",
"o c #09947A",
"O c #800C97",
"+ c #820E99",
"@ c #8D19A4",
"# c #2CB79D",
"$ c #FFBC92",
"% c #FFC7A3",
"& c #FFCAA9",
"* c #FFCDAE",
"= c #FFD2B6",
"- c #FFD6BC",
"; c #C78CFF",
": c #C990FF",
"> c white",
/* pixels */
"                                                                ",
"                                                                ",
"                                                                ",
"                                                                ",
"                                                                ",
"                                                                ",
"                                                                ",
"                                                                ",
"                                                                ",
"                                                                ",
"                                                                ",
"                                                                ",
"                                                                ",
"                                                                ",
"                                                                ",
"           >>>>>>>>>>                                           ",
"           >OOOOOOOO>                                           ",
"         >>>OOOOOOOO>>>>>                                       ",
"         >OOOOOOOOOOOOOO>                                       ",
"       >>>OOOOOOOOOOOOOO>>>                                     ",
"       >OOOOOOOOOOOOOOOOOO>                                     ",
"       >OOOOOOOOOOOOOOOOOO>>>                                   ",
"       >OOOOOOOOOOOOOOOOOOOO>                                   ",
"     >>>OOOOOOOOOOOOOOOOOOOO>                                   ",
"     >OOOOOOOOOOOOOOOOOOOO##>                                   ",
"     >OOOOOOOOOOOOOOOOOOOO##>                                   ",
"     >OOOO----------OOOO##OO>                                   ",
"     >OOOO----------OOOO##OO>>>                                 ",
"     >OO--------------##++@@$$>                                 ",
"     >OO--------------##++@@$$>>>>>>>>>>>                       ",
"     >--XX##XXXXXX####..--$$$$$$$$::::::>                       ",
"     >--XX##XXXXXX####..--$$$$--$$::::::>>>>>>>                 ",
"     >--XXXXXX--XXXXoo--$$------$$::::::::::::>                 ",
"     >--XXXXXX--XXXXoo--$$------$$::::::::::::>                 ",
"     >>>----------==--$$------$$$$::::::::::&&>                 ",
"       >----------==--$$------$$$$::::::::::&&>                 ",
"       >>>$$--------$$------$$$$::::::::::**-->                 ",
"         >$$--------$$------$$$$::::::::::**-->>>    >>>>>>>>   ",
"         >--$$>>>>>>------$$$$::::::::::%%------>    >----$$>   ",
"         >--$$>>>>>>------$$$$::::::::::%%------>>>>>>----$$>   ",
"         >$$----$$------$$::::::::::::::$$--------------$$>>>   ",
"         >$$----$$------$$::::::::::::::$$--------------$$>     ",
"         >>>$$--------$$::::::::::::::;;>>$$--------$$>>>>>     ",
"           >$$--------$$::::::::::::::;;>>$$--------$$>         ",
"           >>>$$$$$$$$>>>>>>>>::::::::>>>>>>$$$$$$$$>>>         ",
"             >$$$$$$$$>      >::::::::>    >$$$$$$$$>           ",
"             >>>>>>>>>>      >>>>>>>>>>    >>>>>>>>>>           ",
"                                                                ",
"                                                                ",
"                                                                ",
"                                                                ",
"                                                                ",
"                                                                ",
"                                                                ",
"                                                                ",
"                                                                ",
"                                                                ",
"                                                                ",
"                                                                ",
"                                                                ",
"                                                                ",
"                                                                ",
"                                                                ",
"                                                                "
};
