/* XPM */
static char *_443d66233bd4d86c92b73e41f591a80b0OB3zMEXs68OvaZ[] = {
/* columns rows colors chars-per-pixel */
"64 64 233 2 ",
"   c #020203",
".  c #05060C",
"X  c #08060B",
"o  c #07090E",
"O  c #0A0A0E",
"+  c #060911",
"@  c #0B0B12",
"#  c #0E161E",
"$  c #141415",
"%  c #33100A",
"&  c #121C2A",
"*  c #152539",
"=  c #2B2C2B",
"-  c #353335",
";  c #541B16",
":  c #641E1A",
">  c #482914",
",  c #59251A",
"<  c #63221D",
"1  c #68291F",
"2  c #592321",
"3  c #563526",
"4  c #503E33",
"5  c #682B22",
"6  c #673426",
"7  c #763727",
"8  c #743B29",
"9  c #67353A",
"0  c #5F423C",
"q  c #7C432A",
"w  c #6E5B2C",
"e  c #644539",
"r  c #7A4A37",
"t  c #172E4A",
"y  c #253749",
"u  c #3F3F42",
"i  c #293B54",
"p  c #203E62",
"a  c #25456A",
"s  c #354E64",
"d  c #264873",
"f  c #2B517D",
"g  c #355478",
"h  c #454848",
"j  c #5A514F",
"k  c #6F4B44",
"l  c #47586E",
"z  c #446068",
"x  c #656566",
"c  c #7D6E66",
"v  c #767776",
"b  c #874A2D",
"n  c #85492E",
"m  c #864B32",
"M  c #8E5433",
"N  c #AD5C33",
"B  c #C56C38",
"V  c #8B5B46",
"C  c #965E41",
"Z  c #9A6847",
"A  c #817C46",
"S  c #936C59",
"D  c #AE6E54",
"F  c #957468",
"G  c #B07965",
"H  c #F05551",
"J  c #C6754B",
"K  c #EC734E",
"L  c #F3665C",
"P  c #C97F73",
"I  c #F27869",
"U  c #F37570",
"Y  c #8F843E",
"T  c #A48620",
"R  c #DEA618",
"E  c #E5A71B",
"W  c #EFB91C",
"Q  c #DC8437",
"!  c #D7A93C",
"~  c #EBB22C",
"^  c #F4C61C",
"/  c #FCCC1C",
"(  c #F5C928",
")  c #F2CF36",
"_  c #F5CC35",
"`  c #908955",
"'  c #98826B",
"]  c #B48774",
"[  c #AE9173",
"{  c #D58851",
"}  c #F28D47",
"|  c #E8954D",
" . c #DBB34A",
".. c #E7A65A",
"X. c #E7B259",
"o. c #CA876B",
"O. c #CE916E",
"+. c #D69677",
"@. c #E78E69",
"#. c #F58876",
"$. c #DBB96B",
"%. c #DEA873",
"&. c #EAA46D",
"*. c #F0B26E",
"=. c #EAAD79",
"-. c #EDB479",
";. c #F2B279",
":. c #F7D848",
">. c #F5D457",
",. c #F8E155",
"<. c #DDC77A",
"1. c #F4D46B",
"2. c #F7DC6A",
"3. c #EFCE70",
"4. c #F9E669",
"5. c #F9E77C",
"6. c #2D5583",
"7. c #2E5B86",
"8. c #2E5B8A",
"9. c #335A84",
"0. c #335E8C",
"q. c #35618D",
"w. c #3A628C",
"e. c #3D6692",
"r. c #4B6787",
"t. c #556F8D",
"y. c #476D96",
"u. c #4C729A",
"i. c #587696",
"p. c #787F8A",
"a. c #597CA3",
"s. c #7F8082",
"d. c #5E80A2",
"f. c #6787A9",
"g. c #728EAC",
"h. c #7992AE",
"j. c #8A8988",
"k. c #928C8A",
"l. c #999695",
"z. c #A58B85",
"x. c #B0968D",
"c. c #B2A194",
"v. c #B8A49B",
"b. c #8C9CAE",
"n. c #8AA1BA",
"m. c #ABABAB",
"M. c #B8AFA9",
"N. c #B5B5B6",
"B. c #CC988B",
"V. c #F0978C",
"C. c #CBA78C",
"Z. c #DAA88D",
"A. c #D8B689",
"S. c #C4A999",
"D. c #D9AE91",
"F. c #CAB399",
"G. c #DBB49A",
"H. c #E7AA88",
"J. c #EAB686",
"K. c #F3B985",
"L. c #EEA890",
"P. c #E4BB95",
"I. c #E5BD99",
"U. c #CDB8AC",
"Y. c #D6BDB0",
"T. c #EDBEA3",
"R. c #F8B4AA",
"E. c #E7C884",
"W. c #F5C28C",
"Q. c #F5CD8A",
"!. c #EEC398",
"~. c #F8C793",
"^. c #F4C799",
"/. c #F8CC9A",
"(. c #E5D891",
"). c #F4D697",
"_. c #FAEB88",
"`. c #FAED9A",
"'. c #D7CAAF",
"]. c #D6C6B8",
"[. c #F3C8A5",
"{. c #F3CDA4",
"}. c #EED3AD",
"|. c #F9D1A4",
" X c #FAD6AD",
".X c #F6D9AB",
"XX c #FAD9AD",
"oX c #E5CAB4",
"OX c #F2CEB1",
"+X c #EFD2B5",
"@X c #FADBB3",
"#X c #F4D6B9",
"$X c #FADEBC",
"%X c #F8E5A7",
"&X c #FCF5A4",
"*X c #FAE4B7",
"=X c #FCF4B7",
"-X c #97ACC2",
";X c #A8B7C5",
":X c #B9C7D4",
">X c #C9C8C7",
",X c #D3CCC9",
"<X c #CBD0D2",
"1X c #D5D3D3",
"2X c #DAD8D6",
"3X c #DDDCDC",
"4X c #E6D8C8",
"5X c #F5DCC4",
"6X c #E2DBDB",
"7X c #EEE6C1",
"8X c #F7E6C8",
"9X c #FAECCD",
"0X c #FCF6C9",
"qX c #EBE1D6",
"wX c #EBE3DC",
"eX c #F7E9D4",
"rX c #FBF3D9",
"tX c #FDF9DE",
"yX c #D6DDE4",
"uX c #E4E3E2",
"iX c #EAE7E5",
"pX c #ECECEC",
"aX c #F6EEE9",
"sX c #FAF5E3",
"dX c #F6F2EC",
"fX c #F9F3EC",
"gX c #FDFBEC",
"hX c #EFEFF0",
"jX c #F3F3F3",
"kX c #FAF5F2",
"lX c #FCFAF5",
"zX c #F6F8F9",
"xX c 0",
/* pixels */
"xXxXxXxXxXxXxXxXxXxXxXxXxXxXxXxXxXxXxXxXxXxXxXxXxXxXxXxXxXxXxXxXxXxXxXxXxXxXxXxXxXxXxXxXxXxXxXxXxXxXxXxXxXxXxXxXxXxXxXxXxXxXxXxX",
"xXxXxXxXxXxXxXxXxXxXxXxXxXxXxXxXxXxXxXxXxXxXxXxXxXxXxXxXxXxXxXxXxXxXxXxXxXxXxXxXxXxXxXxXxXxXxXxXxXxXxXxXxXxXxXxXxXxXxXxXxXxXxXxX",
"xXxXxXxXxXxXxXxXxXxXxXxXxXxXxXxXxXxXxXxXxXxXxXxXxXxXxXxXxXxXxXxXzXxXxXxXxXxXxXxXxXxXxXxXxXxXxXxXxXxXxXxXxXxXxXxXxXxXxXxXxXxXxXxX",
"xXxXxXxXxXxXxXxXxXxXxXxXxXxXxXxXxXxXxXxXxXxXxXxXxXxXxXxXxXxXlX2X2XwXzXxXxXxXxXxXxXxXxXxXxXxXxXxXxXxXxXxXxXxXxXxXxXxXxXxXxXxXxXxX",
"xXxXxXxXxXxXxXxXxXxXxXxXxXxXxXxXxXxXxXxXxXxXxXxXxXxXxXxXiXz.F r 4 r m.xXxXxXxXxXxXxXxXxXxXxXxXxXxXxXxXxXxXxXxXxXxXxXxXxXxXxXxXxX",
"xXxXxXxXxXxXxXxXxXxXxXxXxXxXxXxXxXxXxXxXxXxXxXxXxXxXuX[ Z 8 7 6 3 M 1 ,XzXxXxXxXxXxXxXxXxXxXxXxXxXxXxXxXxXxXxXxXxXxXxXxXxXxXxXxX",
"xXxXxXxXxXxXxXxXxXxXxXxXxXxXxXxXxXxXxXxXxXxXxXxXxX].S q n n 7 6 n 7 8 r z.lXxXxXxXxXxXxXxXxXxXxXxXxXxXxXxXxXxXxXxXxXxXxXxXxXxXxX",
"xXxXxXxXxXxXxXxXxXxXxXxXxXxXxXxXxXxXxXxXxXxXxXxXY.C n n n 7 7 8 q 7 r 2 6 v.xXxXxXxXxXxXxXxXxXxXxXxXxXxXxXxXxXxXxXxXxXxXxXxXxXxX",
"xXxXxXxXxXxXxXxXxXxXxXxXxXxXxXxXxXxXxXxXxXxXxX4XZ n q q 7 5 , n < 1 : 7 5 V zXxXxXxXxXxXxXxXxXxXxXxXxXxXxXxXxXxXxXxXxXxXxXxXxXxX",
"xXxXxXxXxXxXxXxXxXxXxXxXxXxXxXxXxXxXxXxXxXxXxX[ M n 7 5 < < < 6 , 1 ; 1 2 q >XxXxXxXxXxXxXxXxXxXxXxXxXxXxXxXxXxXxXxXxXxXxXxXxXxX",
"xXxXxXxXxXxXxXxXxXxXxXxXxXxXxXxXxXxXxXxXxXzXx.Z Z n , 6 e 4 3 > 2 % 5 < 5 % z.zXxXxXxXxXxXxXxXxXxXxXxXxXxXxXxXxXxXxXxXxXxXxXxXxX",
"xXxXxXxXxXxXxXxXxXxXxXxXxXxXxXxXxXxXxXxXxX1XM M m q j S.7X}.{.^.G.G.G.D.J.] x.xXxXxXxXxXxXxXxXxXxXxXxXxXxXxXxXxXxXxXxXxXxXxXxXxX",
"xXxXxXxXxXxXxXxXxXxXxXxXxXxXxXxXxXxXxXxXzX].q b m , F 6X@X@XXX|. X/./.~.K./.] kXxXxXxXxXxXxXxXxXxXxXxXxXxXxXxXxXxXxXxXxXxXxXxXxX",
"xXxXxXxXxXxXxXxXxXxXxXxXxXxXxXxXxXxXxXxXxX6Xr b 8 % v.9X@X@X@X X|././.K.;.~.] pXxXxXxXxXxXxXxXxXxXxXxXxXxXxXxXxXxXxXxXxXxXxXxXxX",
"xXxXxXxXxXxXxXxXxXxXxXxXxXxXxXxXxXxXxXxXzXjXc b 7 % '.9X5XL.+.J.@X X~.K.~.|.H.kXxXxXxXxXxXxXxXxXxXxXxXxXxXxXxXxXxXxXxXxXxXxXxXxX",
"xXxXxXxXxXxXxXxXxXxXxXxXxXxXxXxXxXxXxXxXxXpX9 7 7 % U.gXB.L.G.| D Z.~./.+.P H.dXxXxXxXxXxXxXxXxXxXxXxXxXxXxXxXxXxXxXxXxXxXxXxXxX",
"xXxXxXxXxXxXxXxXxXxXxXxXxXxXxXxXxXxXxXxXxXpXe M b ; B. XZ.Z.G -.D.J./..X{ { &.fXxXxXxXxXxXxXxXxXxXxXxXxXxXxXxXxXxXxXxXxXxXxXxXxX",
"xXxXxXxXxXxXxXxXxXxXxXxXxXxXxXxXxXxXxXxXxXpXj m n ; S.eXD Y.M.F O.~.{.!.S e D fXxXxXxXxXxXxXxXxXxXxXxXxXxXxXxXxXxXxXxXxXxXxXxXxX",
"xXxXxXxXxXxXxXxXxXxXxXxXxXxXxXxXxXxXxXxXxXxXl.7 n ; ] @X[ uXl.9 ' W.+X&.F k ] fXxXxXxXxXxXxXxXxXxXxXxXxXxXxXxXxXxXxXxXxXxXxXxXxX",
"xXxXxXxXxXxXxXxXxXxXxXxXxXxXxXxXxXxXxXxXxXxXuXB.D.B D  X'.eXwXF.!.W.@XJ.Y.G.I.lXzXxXxXxXxXxXxXxXxXxXxXxXxXxXxXxXxXxXxXxXxXxXxXxX",
"xXxXxXxXxXxXxXxXxXxXxXxXxXxXxXxXxXxXxXxXxXjXz.N +. .D aX/.W.|.&.*./.*X|.} ..*XlXxXxXxXxXxXxXxXxXxXxXxXxXxXxXxXxXxXxXxXxXxXxXxXxX",
"xXxXxXxXxXxXxXxXxXxXxXxXxXxXxXxXxXxXxXxXzXiXS R.=.}.G aXgX9X*X|. X|.8XrX!.K.$XlXxXxXxXxXxXxXxXxXxXxXxXxXxXxXxXxXxXxXxXxXxXxXxXxX",
"xXxXxXxXxXxXxXxXxXxXxXxXxXxXxXxXxXxXxXxXxXlXj.S D.rXo.sXsXtX0X X|.{.{.OX%.=.W.aXxXxXxXxXxXxXxXxXxXxXxXxXxXxXxXxXxXxXxXxXxXxXxXxX",
"xXxXxXxXxXxXxXxXxXxXxXxXxXxXxXxXxXxXxXxXxXxXxX:X,XxXjXgXtXtX8XXXXXJ.[ O.H.K.J.dXxXxXxXxXxXxXxXxXxXxXxXxXxXxXxXxXxXxXxXxXxXxXxXxX",
"xXxXxXxXxXxXxXxXxXxXxXxXxXxXxXxXxXxXxXxXxXxXxXxXxXxXxXrXrX9X XH.o.O.o.{ | K.P.kXxXxXpXuXdXxXxXxXxXxXxXxXxXxXxXxXxXxXxXxXxXxXxXxX",
"xXxXxXxXxXxXxXxXxXxXxXxXxXxXxXxXxXxXxXxXxXxXxXxXxXxXxXgX9X9X$X}.G J P o.=.=.4XxXxX<X<Xk.l.<XxXxXxXxXxXxXxXxXxXxXxXxXxXxXxXxXxXxX",
"xXxXxXxXxXxXxXxXxXxXxXxXxXxXxXxXxXxXxXxXxXxXxXxXxXxXxXxXsX8X*X@X@X/.~./.K.D.jXxXpXl.N.l.j.j.zXxXxXxXxXxXxXxXxXxXxXxXxXxXxXxXxXxX",
"xXxXxXxXxXxXxXxXxXxXxXxXxXxXxXxXxXxXxXxXxXxXxXxXxXxXxXxXxXaXeXXX XXX5X@XG.dXxXzXpXj.l.k.v s.xXxXxXxXxXxXxXxXxXxXxXxXxXxXxXxXxXxX",
"xXxXxXxXxXxXxXxXxXxXxXxXxXxXxXxXxXxXxXxXxXxXxXxXxXxXxXxXxXlXfX[.~.!.$.C.iXxXxXxXjXc.M.x.[ c.xXxXxXxXxXxXxXxXxXxXxXxXxXxXxXxXxXxX",
"xXxXxXxXxXxXxXxXxXxXxXxXxXxXxXxXxXxXxXxXxXxXxXxXxXxXxXxXgX.X*.!.H.o.B J !.zXxXxXlXqXOXK.J.+XxXxXxXxXxXxXxXxXxXxXxXxXxXxXxXxXxXxX",
"xXxXxXxXxXxXxXxXxXxXxXxXxXxXxXxXxXxXxXxXxXxXxXxXxXxXlX%X5.`.&.K { B <.4.) ).xXxXkX8X[.&.J.#XxXxXxXxXxXxXxXxXxXxXxXxXxXxXxXxXxXxX",
"xXxXxXxXxXxXxXxXxXxXxXxXxXxXxXxXxXxXxXxXxXxXxXxXxXxX`.2.`.0XsX=X%X*X9X_.,._ 9XxXuX#XOX;.H.eXxXxXxXxXxXxXxXxXxXxXxXxXxXxXxXxXxXxX",
"xXxXxXxXxXxXxXxXxXxXxXxXxXxXxXxXxXxXxXxXxXxXxXxXxX0X~ E.=XtXzXR.R.R.OX&X5.) 1.gXj.'.}.&.&.fXxXxXxXxXxXxXxXxXxXxXxXxXxXxXxXxXxXxX",
"xXxXxXxXxXxXxXxXxXxXxXxXxXxXxXxXxXxXxXxXxXxXxXxXgX:.E A.0XaXV.L L L I ^.`. .W %Xk.].D.{ H.lXxXxXxXxXxXxXxXxXxXxXxXxXxXxXxXxXxXxX",
"xXxXxXxXxXxXxXxXxXxXxXxXxXxXxXxXxXxXxXxXxXxXxXxX=X( R $.0X5XH #.H L U #._. .~ Q.4X#XT.D wXxXxXxXxXxXxXxXxXxXxXxXxXxXxXxXxXxXxXxX",
"xXxXxXxXxXxXxXxXxXxXxXxXxXxXxXxXxXxXxXxXxXxXxXlX2.~ E  .=XI U L V.#.L K ;.! | 9X5X.XC.j.zXxXxXxXxXxXxXxXxXxXxXxXxXxXxXxXxXxXxXxX",
"xXxXxXxXxXxXxXxXxXxXxXxXxXxXxXxXxXxXxXxXxXxXxX8X_ E W T (.{ *X&.I I ).} ..! X.5X|.[.].xXxXxXxXxXxXxXxXxXxXxXxXxXxXxXxXxXxXxXxXxX",
"xXxXxXxXxXxXxXxXxXxXxXxXxXxXxXxXxXxXxXxXxXxXzXwX-.Q  .[ <.K Q.@.Q.;...K =.4XF.oX!.4XxXxXxXxXxXxXxXxXxXxXxXxXxXxXxXxXxXxXxXxXxXxX",
"xXxXxXxXxXxXxXxXxXxXxXxXxXxXxXxXxXxXxXxXxXxXxX9X+X1XxXzX3.| 2.X._.1.X.~ $.xXhXqXjXxXxXxXxXxXxXxXxXxXxXxXxXxXxXxXxXxXxXxXxXxXxXxX",
"xXxXxXxXxXxXxXxXxXxXxXxXxXxXxXxXxXxXxXxXxXxXxXeX[.2XxXzX2.4.4.4.4.4.,.:.<.xXxXxXxXxXxXxXxXxXxXxXxXxXxXxXxXxXxXxXxXxXxXxXxXxXxXxX",
"xXxXxXxXxXxXxXxXxXxXxXxXxXxXxXxXxXxXxXxXxXxXxX5X[.2XxXxX1.:.:.:.:.:.) ) $.xXxXxXxXxXxXxXxXxXxXxXxXxXxXxXxXxXxXxXxXxXxXxXxXxXxXxX",
"xXxXxXxXxXxXxXxXxXxXxXxXxXxXxXxXxXxXxXxXxXxXxX5X!.2XxXxX>.( ( ) ) ( / ^ <.xXxXxXxXxXxXxXxXxXxXxXxXxXxXxXxXxXxXxXxXxXxXxXxXxXxXxX",
"xXxXxXxXxXxXxXxXxXxXxXxXxXxXxXxXxXxXxXxXxXxXxX5XP.2XxXxX:.^ ^ ^ ^ ^ ^ ^ E.xXxXxXxXxXxXxXxXxXxXxXxXxXxXxXxXxXxXxXxXxXxXxXxXxXxXxX",
"xXxXxXxXxXxXxXxXxXxXxXxXxXxXxXxXxXxXxXxXxXxXxX5XP.<XxXwX~ / / / ^ / ^ ~ '.xXxXxXxXxXxXxXxXxXxXxXxXxXxXxXxXxXxXxXxXxXxXxXxXxXxXxX",
"xXxXxXxXxXxXxXxXxXxXxXxXxXxXxXxXxXxXxXxXxXxXxXqX!.v.xXpX` ` A ` ` Y A w ].zXxXxXxXxXxXxXxXxXxXxXxXxXxXxXxXxXxXxXxXxXxXxXxXxXxXxX",
"xXxXxXxXxXxXxXxXxXxXxXxXxXxXxXxXxXxXxXxXxXxXxXeX' F.xXpXb.u.e.y.w.f 7.s :XzXxXxXxXxXxXxXxXxXxXxXxXxXxXxXxXxXxXxXxXxXxXxXxXxXxXxX",
"xXxXxXxXxXxXxXxXxXxXxXxXxXxXxXxXxXxXxXxXxXxXxXzXv.2XxXpXn.i.y.i.u.7.7.g 2XxXxXxXxXxXxXxXxXxXxXxXxXxXxXxXxXxXxXxXxXxXxXxXxXxXxXxX",
"xXxXxXxXxXxXxXxXxXxXxXxXxXxXxXxXxXxXxXxXxXxXxXxXdXjXxX<Xh.u.q.w.w.f f t.pXxXxXxXxXxXxXxXxXxXxXxXxXxXxXxXxXxXxXxXxXxXxXxXxXxXxXxX",
"xXxXxXxXxXxXxXxXxXxXxXxXxXxXxXxXxXxXxXxXxXxXxXxXxXxXxX:Xg.y.f * a 8.6.t.pXxXxXxXxXxXxXxXxXxXxXxXxXxXxXxXxXxXxXxXxXxXxXxXxXxXxXxX",
"xXxXxXxXxXxXxXxXxXxXxXxXxXxXxXxXxXxXxXxXxXxXxXxXxXxXjX-Xa.q.a + a 0.0.t.hXxXxXxXxXxXxXxXxXxXxXxXxXxXxXxXxXxXxXxXxXxXxXxXxXxXxXxX",
"xXxXxXxXxXxXxXxXxXxXxXxXxXxXxXxXxXxXxXxXxXxXxXxXxXzXpXn.u.f * @ a q.0.i.hXxXxXxXxXxXxXxXxXxXxXxXxXxXxXxXxXxXxXxXxXxXxXxXxXxXxXxX",
"xXxXxXxXxXxXxXxXxXxXxXxXxXxXxXxXxXxXxXxXxXxXxXxXxXxX:Xf.u.f   & g q.0.i.hXxXxXxXxXxXxXxXxXxXxXxXxXxXxXxXxXxXxXxXxXxXxXxXxXxXxXxX",
"xXxXxXxXxXxXxXxXxXxXxXxXxXxXxXxXxXxXxXxXxXxXxXxXxXxX;Xd.q.p   * a 8.f r.hXxXxXxXxXxXxXxXxXxXxXxXxXxXxXxXxXxXxXxXxXxXxXxXxXxXxXxX",
"xXxXxXxXxXxXxXxXxXxXxXxXxXxXxXxXxXxXxXxXxXxXxXxXxXzXn.a.q.&   * 9.0.d l hXxXxXxXxXxXxXxXxXxXxXxXxXxXxXxXxXxXxXxXxXxXxXxXxXxXxXxX",
"xXxXxXxXxXxXxXxXxXxXxXxXxXxXxXxXxXxXxXxXxXxXxXxXxX<Xg.e.d &   t e.8.d l pXxXxXxXxXxXxXxXxXxXxXxXxXxXxXxXxXxXxXxXxXxXxXxXxXxXxXxX",
"xXxXxXxXxXxXxXxXxXxXxXxXxXxXxXxXxXxXxXxXxXxXxXxXjX;Xg.q.p o   * y.y.6.s 3XxXm.j.l.uXxXxXxXxXxXxXxXxXxXxXxXxXxXxXxXxXxXxXxXxXxXxX",
"xXxXxXxXxXxXxXxXxXxXxXxXxXxXxXxXxXxXxXxXxXxXxXxXyXg.f.0.t     * y.0.p p j.x + . @ m.xXxXxXxXxXxXxXxXxXxXxXxXxXxXxXxXxXxXxXxXxXxX",
"xXxXxXxXxXxXxXxXxXxXxXxXxXxXxXxXxXxXxXxXxXxXxXxX:Xd.u.f * o o * y.6.d * . + @ @ - 3XxXxXxXxXxXxXxXxXxXxXxXxXxXxXxXxXxXxXxXxXxXxX",
"xXxXxXxXxXxXxXxXxXxXxXxXxXxXxXxXxXxXxXxXxXxXxXjX-Xf.q.a o X X y a.9.d * X X @ X l.xXxXxXxXxXxXxXxXxXxXxXxXxXxXxXxXxXxXxXxXxXxXxX",
"xXxXxXxXxXxXxXxXxXxXxXxXxXxXxXxXxXxXxXxXxXxXxXyXp.l w.a o O X y 9.y i & X + X x xXxXxXxXxXxXxXxXxXxXxXxXxXxXxXxXxXxXxXxXxXxXxXxX",
"xXxXxXxXxXxXxXxXxXxXxXxXxXxXxXxXxXxXxXxXxXxXxX>X1Xm.s # o o   * z >X6Xv O X h 3XxXxXxXxXxXxXxXxXxXxXxXxXxXxXxXxXxXxXxXxXxXxXxXxX",
"xXxXxXxXxXxXxXxXxXxXxXxXxXxXxXxXxXxXxXxXxXxXpXuXlX>X= O X   O $ j wXfX1X- X N.xXxXxXxXxXxXxXxXxXxXxXxXxXxXxXxXxXxXxXxXxXxXxXxXxX",
"xXxXxXxXxXxXxXxXxXxXxXxXxXxXxXxXxXxXxXxXxXxXzXpX3X1Xu O O v yX3Xs.1X3X>X- u jXxXxXxXxXxXxXxXxXxXxXxXxXxXxXxXxXxXxXxXxXxXxXxXxXxX",
"xXxXxXxXxXxXxXxXxXxXxXxXxXxXxXxXxXxXxXxXxXxXzX].x h O   $ >XxX>X= h x h $ v xXxXxXxXxXxXxXxXxXxXxXxXxXxXxXxXxXxXxXxXxXxXxXxXxXxX"
};
