/* XPM */
static char *_26f0d9c91514ff1efdf6db26a7129a71Q1KnxqsRimGKiuC[] = {
/* columns rows colors chars-per-pixel */
"32 32 48 1 ",
"  c #125B66",
". c #1C5963",
"X c #235D66",
"o c #156A77",
"O c #176A77",
"+ c #27646E",
"@ c #216A75",
"# c #37717A",
"$ c #0E7281",
"% c #137584",
"& c #157786",
"* c #227784",
"= c #267986",
"- c #257C8A",
"; c #3F7C86",
": c #317F8B",
"> c #397F8A",
", c #1C808F",
"< c #3B848F",
"1 c #348996",
"2 c #358C99",
"3 c #398C99",
"4 c #3E8C98",
"5 c #208FA0",
"6 c #3092A1",
"7 c #3B9DAC",
"8 c #31A0B1",
"9 c #4D868F",
"0 c #448A95",
"q c #518B94",
"w c #5B949D",
"e c #4896A2",
"r c #4299A7",
"t c #5197A2",
"y c #6199A2",
"u c #649CA5",
"i c #659EA7",
"p c #53A1AD",
"a c #47A9B8",
"s c #59A7B3",
"d c #58AFBC",
"f c #73ABB4",
"g c #40AFC0",
"h c #6BC2CF",
"j c #B7C8C6",
"k c #C3C3C3",
"l c #C6D7D5",
"z c #D2D2D2",
/* pixels */
"jllljllljllljllljllljllljllljlll",
"zrrrrrrrziiiiii9z;;;;;;.z$$$$$$$",
"zr-----rziwwwww9z;+++++.z$,,,,,$",
"zr-----rziwwwww9z;+++++.z$,,,,,$",
"zr-----rziwwwww9z;+++++.z$,,,,,$",
"zr-----rziwwwww9z;+++++.z$,,,,,$",
"zr-----rziwwwww9z;+++++.z$,,,,,$",
"zrrrrrrrz9999999z.......z$$$$$$$",
"jllljllljllljllljllljllljllljlll",
"z222222hz777777&z:ssssssz       ",
"z2dddddhz766666&z:eeeeesz @@@@@<",
"z2dddddhz766666&z:eeeeesz @@@@@<",
"z2dddddhz766666&z:eeeeesz @@@@@<",
"z2dddddhz766666&z:eeeeesz @@@@@<",
"z2dddddhz766666&z:eeeeesz @@@@@<",
"zhhhhhhhz&&&&&&&z:::::::z <<<<<<",
"jllllllljllljllllllljllljllljlll",
"ztttttttzOOOOoo3zgggggg5zo111111",
"zt00000>zO=====3zg888885zo*****1",
"zt00000>zO=====3zg888885zo*****1",
"zt00000>zO=====3zg888885zo*****1",
"zt00000>zO=====3zg888885zo*****1",
"zt00000>zO=====3zg888885zo*****1",
"zt>>>>>>z3333333z5555555zooooooo",
"jllllllljllljllljllljllljllljlll",
"zyyyyyyyzpppppppzqqqqqqXz%%%%%%%",
"zyfffffizp44444pzq#####Xz%66666a",
"zyfffffizp44444pzq#####Xz%66666a",
"kyfffffukp44444pkq#####Xk%66666a",
"zyfffffuzp44444pzq#####Xz%66666a",
"zyfffffuzp44444pzq#####Xz%66666a",
"zyuuuuuuzpppppppzXXXXXXXz%aaaaaa"
};
