/* XPM */
static char *_4ee0015c18c410db2691932dec5e2aefQH3pNIAlrSETyeH[] = {
/* columns rows colors chars-per-pixel */
"64 64 20 1 ",
"  c None",
". c black",
"X c #222034",
"o c #741414",
"O c #1B3547",
"+ c #214057",
"@ c #244760",
"# c #284F6A",
"$ c #2C5775",
"% c #4F455B",
"& c #534C64",
"* c #56536F",
"= c #AC3232",
"- c #306082",
"; c #387CB8",
": c #387CB9",
"> c #5B6EE1",
", c #5FCDE4",
"< c #CBDBFC",
"1 c white",
/* pixels */
"                                                                ",
"            11          11                                      ",
"            11          11                                      ",
"              1111    11  11                                    ",
"              1111    11  11                                    ",
"            11,,,,<<  ,,1111                                    ",
"            11,,,,<<  ,,1111                                    ",
"            1111,,,,,,,,1111                                    ",
"            1111,,,,,,,,1111                                    ",
"              11<<<<1111                                        ",
"              11<<<<1111                                        ",
"                11<<11                                          ",
"                11<<11                                          ",
"                  1111                                          ",
"                  1111                                          ",
"                  11                                            ",
"                  11                                            ",
"             ..............                                     ",
"             .;;;:OOOO@@;;...                                   ",
"         .....;;::OOOO@@;;--...                                 ",
"         .;;;;--OOOO------$$$$...                               ",
"       ...;;;;--OOOO------$$$$--...                             ",
"       .;;$$$$$$--------$$$$$$##$$.                             ",
"       .;;$$$$$$--------$$$$$$##$$...                           ",
"       .;;$$$$$$1111----$$$$####$$$$.                           ",
"     ...;;$$$$$$1111----$$$$####$$$$.                           ",
"     .;;$$##$$11XX11----$$##@@@@##$$.                           ",
"     .;;$$##$$11XX11----$$##@@@@##$$.                  ....     ",
"     .;;$$$$$$111111----$$########$$.                  .;;.     ",
"     .;;$$$$$$111111----$$########$$.                ...;;.     ",
"     .;;$$$$$$--$$$$--$$##$$$$$$$$$$.                .::--.     ",
"     .;;$$$$$$--$$$$--$$##$$$$$$$$$$...            ...:;-....   ",
"     .**&&&&**&&&&&&%%&&$$##$$####----.            .::--...-..  ",
"     .**&&&&**&&&&&&%%&&$$##$$####----...        ...::--..---.  ",
"     ...11..11..11..11..$$$$$$$$$$##$$--.        .::--------..  ",
"       .11..11..11..11..$$$$$$$$$$##$$--...      .::--------.   ",
"       ...11..11......--##$$############--.      .$$$$------.   ",
"     .....11..11.    .--##$$############--........$$$$------.   ",
"     .>>>>>>--$$$$==##$$$$####@@++######$$$$$$--$$$$$$$$.....   ",
"     .>>>>>>--$$$$==##$$$$####@@++######$$$$$$--$$$$$$$$.       ",
"     .<<<<<<>>>>$$$$==oo$$##@@####@@####@@$$$$$$$$$$$$$$.       ",
"     .<<<<<<>>>>$$$$==oo$$##@@####@@####@@$$$$$$$$$$$$$$.       ",
"     .11<<11<<<<>>----==$$$$##@@####@@######$$$$--$$$$...       ",
"     .11<<11<<<<>>----==$$$$##@@####@@######$$$$--$$$$.         ",
"     ...111111<<<<>>--$$>>--$$##@@######$$##$$----.....         ",
"       .111111<<<<>>--$$>>--$$##@@######$$##$$----.             ",
"       ...11111111<<>>>><<>>$$$$####$$##$$--------.             ",
"         .11111111<<>>>><<>>$$$$####$$##$$--------.             ",
"         ....11111111111<<<<>>$$$$$$$$------.......             ",
"            ..1111111111<<<<>>$$$$$$$$------.                   ",
"             ................................                   ",
"                                                                ",
"                                                                ",
"                                                                ",
"                                                                ",
"                                                                ",
"                                                                ",
"                                                                ",
"                                                                ",
"                                                                ",
"                                                                ",
"                                                                ",
"                                                                ",
"                                                                "
};
