/* XPM */
static char *result[] = {
/* columns rows colors chars-per-pixel */
"64 64 254 2 ",
"   c #0D0D0D",
".  c #0F1010",
"X  c #141414",
"o  c #141A1B",
"O  c #1A1D1D",
"+  c #1D201F",
"@  c #27221D",
"#  c #152526",
"$  c #1F2122",
"%  c #192F32",
"&  c #222526",
"*  c #2A2721",
"=  c #25292A",
"-  c #292D2E",
";  c #33302A",
":  c #2C3132",
">  c #263739",
",  c #303536",
"<  c #373B36",
"1  c #343A3A",
"2  c #383E3F",
"3  c #443A2E",
"4  c #534739",
"5  c #685334",
"6  c #243E42",
"7  c #135258",
"8  c #18575B",
"9  c #3C4343",
"0  c #374A4A",
"q  c #294D51",
"w  c #165865",
"e  c #1D5A64",
"r  c #135D6F",
"t  c #235D65",
"y  c #275C68",
"u  c #345D62",
"i  c #146369",
"p  c #0C6D7A",
"a  c #146A76",
"s  c #196977",
"d  c #07717E",
"f  c #0C727E",
"g  c #15747D",
"h  c #26636B",
"j  c #276668",
"k  c #29646E",
"l  c #39686C",
"z  c #2A6472",
"x  c #216975",
"c  c #266976",
"v  c #366E79",
"b  c #28737D",
"n  c #377475",
"m  c #367179",
"M  c #39737C",
"N  c #414544",
"B  c #424A4A",
"V  c #49504F",
"C  c #595447",
"Z  c #4B5453",
"A  c #4C5656",
"S  c #525C5B",
"D  c #6B5947",
"F  c #58664C",
"G  c #56605E",
"H  c #5E6859",
"J  c #786647",
"K  c #596563",
"L  c #5E6967",
"P  c #4E786E",
"I  c #477B7A",
"U  c #616B6A",
"Y  c #677371",
"T  c #697673",
"R  c #6F7C79",
"E  c #707875",
"W  c #946A2C",
"Q  c #AF7B2A",
"!  c #897352",
"~  c #A47C51",
"^  c #38807F",
"/  c #4F837A",
"(  c #768B73",
")  c #BC8838",
"_  c #D38719",
"`  c #E39719",
"'  c #D28B2E",
"]  c #E4A124",
"[  c #ECB324",
"{  c #F6CF2E",
"}  c #FEE93C",
"|  c #998653",
" . c #B28E6A",
".. c #C99D6B",
"X. c #D2A673",
"o. c #FFED48",
"O. c #FEF15D",
"+. c #067481",
"@. c #0E7381",
"#. c #127483",
"$. c #1F7682",
"%. c #197187",
"&. c #177987",
"*. c #1B7E8D",
"=. c #217684",
"-. c #227985",
";. c #257D8B",
":. c #29798A",
">. c #377B87",
",. c #3D7C84",
"<. c #31778F",
"1. c #257D91",
"2. c #427D86",
"3. c #427B88",
"4. c #11848D",
"5. c #1B808E",
"6. c #158590",
"7. c #1C8291",
"8. c #1E8D9E",
"9. c #24828C",
"0. c #36838A",
"q. c #3A828D",
"w. c #298B98",
"e. c #338696",
"r. c #3D8592",
"t. c #348A95",
"y. c #3D8B96",
"u. c #348B9A",
"i. c #3D8D99",
"p. c #28929E",
"a. c #369199",
"s. c #1D90A2",
"d. c #228FA0",
"f. c #378DA1",
"g. c #2291A2",
"h. c #2E92A1",
"j. c #2E9CAD",
"k. c #3292A2",
"l. c #3A9AA7",
"z. c #2E9FB1",
"x. c #309FB1",
"c. c #3B9BB3",
"v. c #2FA0AE",
"b. c #33A1AE",
"n. c #2DA3B3",
"m. c #32A1B2",
"M. c #3DADBD",
"N. c #49878C",
"B. c #4C858E",
"V. c #528C8B",
"C. c #4D8691",
"Z. c #448A94",
"A. c #478996",
"S. c #4D8A92",
"D. c #418C9A",
"F. c #528B93",
"G. c #558C98",
"H. c #47959C",
"J. c #53949C",
"K. c #5A9798",
"L. c #5B949D",
"P. c #618E84",
"I. c #788683",
"U. c #798683",
"Y. c #629A9D",
"T. c #67A39E",
"R. c #4496A4",
"E. c #4A96A3",
"W. c #4299A6",
"Q. c #449BAA",
"!. c #4A9AA9",
"~. c #5296A3",
"^. c #5D95A1",
"/. c #5A9AA4",
"(. c #529EAB",
"). c #5199B0",
"_. c #6196A2",
"`. c #639BA5",
"'. c #6A9DA7",
"]. c #659DA9",
"[. c #709CA7",
"{. c #4EA1AC",
"}. c #5CA2A4",
"|. c #53A3AD",
" X c #45A6B6",
".X c #49A8B7",
"XX c #46A9B9",
"oX c #4AAABA",
"OX c #54A5B1",
"+X c #58A9B4",
"@X c #56AEBA",
"#X c #5BADBC",
"$X c #41B1BF",
"%X c #54B2B8",
"&X c #59B1BC",
"*X c #68A3A8",
"=X c #71ADAE",
"-X c #6DA8B3",
";X c #72ABB4",
":X c #74AAB8",
">X c #74B1B9",
",X c #41AFC0",
"<X c #4DB1C2",
"1X c #68BAC9",
"2X c #6AC2CE",
"3X c #6DC5D2",
"4X c #82908C",
"5X c #8B9491",
"6X c #8A9794",
"7X c #8C9A97",
"8X c #95A39F",
"9X c #98A7A3",
"0X c #9FAEAA",
"qX c #A8B7B5",
"wX c #B0B6B5",
"eX c #CBB58B",
"rX c #D2BDAA",
"tX c #B2C2BB",
"yX c #B8C6BE",
"uX c #B9D2B9",
"iX c #CCC9B8",
"pX c #FFFBA9",
"aX c #B6C5C5",
"sX c #B9C6C5",
"dX c #BBCBC5",
"fX c #BAC9C9",
"gX c #BBD6CD",
"hX c #BAC7D2",
"jX c #BCD7D9",
"kX c #BFE1E0",
"lX c #C4C4C4",
"zX c #CACCCB",
"xX c #D4CCCD",
"cX c #C5D4CE",
"vX c #C8D6CB",
"bX c #CCD2CD",
"nX c #D2D1CE",
"mX c #D1D9CE",
"MX c #CACDD3",
"NX c #D2CED2",
"BX c #DACED7",
"VX c #C6D5D4",
"CX c #CAD5D5",
"ZX c #C4DAD4",
"AX c #C9D9D4",
"SX c #C6D7DB",
"DX c #CBD6DA",
"FX c #CBDADA",
"GX c #D3D3D3",
"HX c #D8D5D6",
"JX c #D3D5DA",
"KX c #E1D8DD",
"LX c #C9D6E2",
"PX c #D8D2E4",
/* pixels */
"hXtXLXAXZXFXZXZXaXfXVXVXDXDXVXVXaXsXjXZXZXFXvXDXdXaXSXSXZXZXFXVXfXwXkXVXfXFXAXCXsXfXDXDXVXDXVXDXhXtXLXFXCXVXFXgXfXaXZXDXDXCXDXZX",
"yXiXjXZXZXCXVXDXsXfXVXVXDXZXZXVXyXxXSXDXSXVXZXLXfXaXDXZXDXFXVXVXsXnXjXSXFXLXVXLXsXfXZXDXZXAXcXDXtXuXjXZXVXVXMXAXfXfXAXZXZXZXCXVX",
"BXCX!.l.l.l.!.R.Q.R.Q.Q.Q.Q.Q.R.FXDX[.Y.*X].T.`.*X`.*X`.`._.F.B.FXMXN.I M I M q.M ,.,.q.,.,.t e BXCXs g @.+.*.@.f p #.#.#.#.#.f ",
"BXGXl.!.Q.c.!.b.Q.W.Q.R.Q.R.!.Q.vXGX'.'.*X].}./.'.'.`.`.'.`.B.B.nXJXM N.q.2.^ q.N.2.,.3.2.3.e 8 NXAXf g @.+.%.@.#.f f f p f d f ",
"bXmXl.a.:.b >.9.;.;.;.;.;.9.R.l.nXHX[.'.G.^.Y.'.L.^.L.L.^./.B.C.xXHXI 2.k z h z y z h k y z w e JXGXd #.*.7.9.6.*.*.1.7.9.1.#.#.",
"BXNXc.Q.9.w.:.-.;.;.9.;.;.;.W.Q.nXbX`.*XL.^.G.G.^.^.^.G.^.L.B.C.HXJXM 0.h c h k z z z z z z e t nXBXd @.5.&.9.&.*.*.5.5.*.*.@.@.",
"CXnX!.Q.:.9.g 9.;.:.;.;.=.;.Q.R.nXJX*X*XL.G.K.`.K.K.K.K.K.K.B.V.xXCXI ,.y z j k j j j j h h 8 8 mXNX%.%.5.7.4.7.7.7.5.5.7.7.@.#.",
"nXnXQ.l.9.9.;.<.;.;.;.;.;.;.Q.Q.NXJXY.`.L.^.K.J.L.G._.L.^.L.C.B.BXJXq.,.z z h z z h c z h h e e nXHX+.@.6.*.5.;.*.7.5.5.*.5.+.@.",
"GXGXW.W.;.;.;.;.;.;.;.;.;.-.Q.Q.GXbX'.].K._.L.^.L.L.L.^.L.L.C.B.nXGX,.,.j k k h h k k k z h e e GXJX@.@.*.7.7.*.*.*.*.9.*.*.@.@.",
"GXGXR.l.;.;.;.:.9.;.;.;.;.;.Q.l.JXNX].].K._.L.^.L.L.L.Y.L.K.C.B.GXJX2.3.h k k z z h k h k h e e NXNXp @.*.*.7.*.*.7.*.7.*.7.@.@.",
"JXGXQ.Q.:.1.;.;.;.;.;.;.;.;.Q.Q.GXbX].].K.L.L.G.L.L.L.L.L.L.C.B.nXbX3.3.j z h h k k k k z h e e GXJX#.#.7.7.7.1.7.7.*.7.*.*.@.@.",
"nXnXl.Q.:.;.1.:.;.;.;.;.;.;.W.W.JXGX'.].K.L.^.^.L.L.G.L.L.L.B.B.GXGX3.,.j k h c c h k k z y e e GXnX+.#.*.*.*.*.*.7.*.*.*.*.@.+.",
"GXGXQ.Q.1.;.;.;.;.;.;.;.;.9.Q.!.nXnX'.].K.L./.L.L.L.L.^._.L.C.C.NXCX3.3.h z h h k h k k z k e e GXnX@.#.*.9.7.7.7.7.*.1.*.1.@.@.",
"GXGXR.l.<.;.;.;.;.;.;.:.;.9.l.Q.JXJX`.].K.L.L.L.L.L.L.L.G.^.C.C.GXGX,.,.k z h h k h k h k k e e GXGX#.@.*.*.*.*.*.*.*.*.*.*.@.@.",
"GXGXW.Q.R.l.Q.W.Q.Q.Q.l.R.l.Q.Q.NXbXF.C.V.C.C.C.B.F.B.F.G.F.3.3.GXGXe t 8 e e e e e e e t e 8 e NXGX@.p @.#.@.@.@.#.@.@.@.#.+.@.",
"GXnXW.l.Q.Q.Q.W.W.Q.W.Q.Q.Q.Q.R.NXGXC.B.B.C.B.C.B.B.B.B.3.S N , D 3 ; % q e e w e e e w e e e e GXNX@.+.@.@.@.#.@.@.@.@.@.@.@.#.",
"MXtXLXJXjXJXjXZXfXfXDXAXVXFXDXDXhXtXLXFXZXFXZXVXsXaXDXwX2 ! ! ~ D ! ..J ; R gXAXaXaXAXFXDXZXZXDXfXtXSXSXvXCXZXZXfXfXZXZXDXZXFXZX",
"tXuXjXAXZXCXDXvXdXdXcXAXAXcXAXcXyXuXjXgXZXcX0XB N N 2 * ! ! ; N C C - 4 ..! H MXdXdXCXvXvXCXvXbXsXxXjXSXgXZXgXLXdXdXcXcXZXcXAXZX",
"PXzXu.e.w.u.i.u.u.u.u.t.u.u.2X2XPXzX!.u.>.b O aX7X@ @ ! 5 * % %.BXMX,.u ; ! 4 2.+X|.+X+X+X+X+X+XSXzXe w 7 i i 7 w w r r r w w w ",
"BXGXa.u.f.w.u.p.t.t.t.t.t.t.2X3XlXE > V Y T , V qX@ ; 3 @ $ Z # xXJX>.<.C.3  ., +X|.+X|.OXOX+XOXGXJXw w i r 7 w i w w w w w e r ",
"vXvXw.t.-X&X-X%X@X@X@X&X+X%X3Xn , R qXdXcX4XK K : Y L < 2 S K O GXCX:.<.E.0 5 4 u H.!.E.E.E.OX+XnXnX7 r i s c c x s s x s c 0.0.",
"BXBXa.u.<X%X%X%X&X@X%X&XoX{.0 K 9XdXdXdXdXR S 4XR 2 $ O X X . X S BXr.<.E.D.;  ., H.H.H.H.E.].+XxXrXw r s s b s x k c x x c q.Z.",
"CXbXf.e.+X%X%X%X#X#X&X&XA.> Y qXtXtXtXtXtX0X- U T A N < - & X Z L < :.>.H.H., J 4 ,.E.J.P.E.| +XrXX.i w x c j j x x x x x s >.r.",
"GXNXu.a.oX+X1X<X%X&X&XOX> T 9XqXqXqXqXqXqX8X8XZ - 1 < , = O & 8X7XL % <.H.l.,.4 | 0 E.E.| Q._ T.iXKX8 t H s c g x x x x x x q.r.",
"JXnXu.t.#X&X@X#X&X@X&X> K I.0X0X0X0X0X0X0X9X5X6X6XY V V V K 0X0X0XT S > Q.H.E.* ! - C.~ F.H.` ) mXiXW i s s x x s c x c s s N.>.",
"nXnXa.t.#X@X<X@X@X@Xl Z U U.9X8X8X8X8X8X8X8X7X5X4X4X4X6X7X9X8X8X9XT L 1 M R.H.u J ! D P.E.E.` { ' ] D 8 F W l s x x s c x x r.r.",
"HXnXe.w.#X#X&X+X@X+X= K L U.7X7X7X7X7X7X6X7X7X7X7X7X7X7X7X7X7X6X7XY L K > E.E.A.& J - W _ ` [ } } [ 5 i s s x h x x x x x c r.r.",
"bXGXt.a.#X@X&X&X@Xl B K G R 4X4X4X4X4X4X4X4X4X4X4X4X4X4X4X4X4X4X4XL K G 1 M D.E.P ;  .3 5 [ } O.o.{ [ [ Q J l x c x x x s s >.q.",
"JXGXt.t.&X@X@X&X&X% S S S Y U.U.U.U.U.U.U.U.U.U.U.U.U.U.U.U.I.I.I.K S S S q H.E.( J @ Q _ { o.pXpXo.{ Q P j j x x x x x c c r.r.",
"GXnXa.w.#X&X@X&X@X- A A A A R R R R R E R R R R R R R R R R R R R A A A A o R.H.W.V.| W Q ` } O.o.} _ 7 x n x s s x x s c c 0.0.",
"GXGX2X2X3X2X2X3X#X9 V Z Z A S Y Y Y Y Y Y Y Y Y Y Y Y Y Y Y Y Y A Z Z V V + >.:.0./ P >.:.! [ { { ` _ J P ! 3.q.N.r.r.>.r.>.r.r.",
"JXnX2X3X1X3X3X1X+XB B V B B B S U L L L L L U L L L L L L L L V V B V B B * :.>.t.J / / / W _ _ ] iX8 F / N.r.q.r.>.r.r.r.q.r.0.",
"aXtXLXVXZXJXgXFXwX0 B 9 9 B B 9 0 S G G G S G S G G G G G A B 9 0 B B 0 B - qXZXfXaXSXiXiX' vX..] uXVXX.ZXAXVXZXsXfXAXDXZXVXCXDX",
"sXbXjXSXDXCXcXDXqX9 9 9 9 9 9 9 9 9 9 B Z Z A A A V V B 9 9 9 9 9 9 9 9 9 2 qXAXfXaXZXFXrXzXvXX...eXjXX.dXDXCXCXdXdXcXCXAXZXCXZX",
"DXVX_.G.~.~.E.(.3.9 2 2 9 2 2 2 2 2 2 2 2 2 2 2 2 2 2 2 9 2 2 2 2 2 2 2 2 & l.,X$XM.$X,Xm.| y./ iXlXh a a.u.u.t.e.e.u.t.u.e.e.e.",
"GXDXK.J.(.E.~.G.3., 1 1 1 1 1 < 1 1 1 1 1 1 1 1 1 1 1 1 1 1 1 < , 1 1 1 < O  XM.,X,X,X,X$X|.t.w.BXJXa a u.e.e.t.t.t.t.t.t.e.t.t.",
"nXnXJ.E.i.<.J.A.q.= , , , , , , , , , , , , , , , , , , , , , , , , , , , o j.n.v.m.z.x.x.m.8.g.nXzXp a b b :.g =.-.=.=.-.-.t.t.",
"KXxX~.~.D.E.A.i.A.O : : : : : : : : : : : : : : : : : : : : : : : : : , : o x.j.c.m.m.x.x.x.8.g.nXKXs s :.g :.&.g -.$.=.b $.w.t.",
"vXbXH.J.Z.Z.N.Z.Z.% - - - - - - - - - - - - - - - - - - - - - - - - - - - 7 n.n.z.v.m.m.m.m.s.s.JXxXa a b -.=.$.:.:.=.=.=.$.t.e.",
"JXGX~.L.A.y.N.i.C.y O = = = = = = = = = = = = = = = = = = = = = = = = = X w.n.c.m.v.m.x.m.m.d.d.bXBXa p =.g :.:.g -.$.-.-.b t.t.",
"GXGX~.~.A.Z.Z.Z.Z.Z.o & & & & & & & & & & & & & & & & & & & & & & & & & q j.z.v.x.x.x.m.m.x.d.8.GXnXa a :.-.-.b -.-.-.=.=.-.e.t.",
"NXnXE.J.A.y.A.Z.Z.Z.v X $ $ $ $ $ $ $ $ $ $ $ $ $ & $ $ $ $ $ $ $ $ $ . p.n.z.z.m.m.m.m.x.m.g.8.NXxXa a =.-.&.-.=.=.-.=.-.-.t.t.",
"JXnX~.~.Z.Z.A.Z.Z.Z.N.q O O O O $ O O O O O O O O O O O O O O O O O X m v.m.m.m.x.x.z.x.m.z.d.8.JXnXa a =.:.-.-.-.=.-.=.=.=.e.t.",
"GXnX~.J.Z.y.Z.r.Z.Z.r.Z.% O O O o O O O O O O O O O O O O O O O O O t ,Xv.m.m.v.x.x.x.m.m.m.g.d.GXnXa a =.=.&.=.-.-.-.=.=.g e.e.",
"GXnX~.J.Z.Z.Z.Z.Z.Z.Z.Z.,.> . O o X X X X X X O X X o X X X X o . K M.,Xm.v.v.v.m.m.m.m.z.z.d.8.GXbXa a =.=.:.-.$.$.=.%.=.-.e.u.",
"GXGX(.J.Z.Z.Z.Z.Z.Z.Z.Z.D.B.q . X X X X X X X X X X X X X X X X 4XKXM.XXm.m.m.v.x.m.x.m.x.x.g.g.GXGXs g =.=.%.=.=.=.;.=.-.-.t.t.",
"nXnX~.J.q.0.q.0.q.,.q.q.>.r.>.z 2 . . . . . . . . . .   X   6 >.lXxXp.g.s.s.s.s.p.d.8.g.d.g.8.8.nXxXa a s s a a a a a a a i s a ",
"NXGX~.J.q.0.,.0.>.0.>.>.>.>.>.3.BX8Xq o       o       # q :.i.t.BXBX8.p.g.s.g.p.8.8.8.d.8.g.8.g.MXnXa a %.a a a a a a a a a g a ",
"aXyXjXZXAXDXvXDXVXZXZXZXZXDXVXZXfXtXLXFXgXbXgXdXaXaXVXVXAXZXDXFXVXwXSXZXcXDXcXDXaXfXZXZXVXVXFXVXhXsXLXDXZXZXVXZXfXfXDXZXDXVXDXZX",
"sXxXjXDXSXSXSXFXVXVXDXDXDXZXVXVXyXzXjXLXZXMXSXJXdXdXcXcXAXcXcXcXwXlXjXDXDXSXZXLXaXfXVXFXZXDXVXZXtXuXjXcXZXcXMXCXfXsXZXCXZXCXAXVX",
"FXMX_.Y.K.L.Y.Y./._.`./.`.`.^.].BXMX`.(.{.(.OX/.{.!.|.{.{.{.|.{.FXFXG.V.V.C.V.F.G.G.F.J.C.C.k t PXVX=.g @.@.1.+.#.#.&.&.&.#.&.g ",
"CXNXY.'.*X}.L._._._._._.`.`.L._.xXCX(.OXOX|.OX(.|.(.|.|.}.{.|.|.CXJXF.F.J.S.G.3.G.S.C.G.S.G.t t NXAXg g %.#.%.&.&.f #.f @.d &.#.",
"HXGX_._.-X:X=X:X;X;X;X;X;X-X'.*XnXGX|.).r.y.D.a.i.i.i.i.D.D.(.(.nXHXV.F.3.v v I n v m m M M e h nXnX&.#.k.h.h.p.f.h.f.k.f.k..X.X",
"nXnXT.L.>X:X=X;X:X:X:X-X:X-X].].BXGX+X+Xi.D.i.a.y.D.D.t.y.y.|.|.nXGXV.C.z ,.v v >.M >.v m v e h nXGX@.#.k.w.l.a.h.h.k.k.h.k.oXoX",
"bXGX`.Y.;X-X=X:X;X=X=X=X=X=X*X`.vXvX|.|.y.t.Z.A.D.D.Z.Z.D.y.|.|.nXGXF.G.n I n m n n v l n n t t JXxX&.%.h.l.p.h.h.k.h.h.h.h. X X",
"NXGXL.`.;X:X=X;X;X;X;X;X;X;X`.].nXHX(.}.a.a.D.D.y.i.t.D.D.i.|.|.GXJXC.V.v M n b v M n M n n t t GXxX%.@.h.p.h.f.p.k.h.a.k.p.oXoX",
"lXlX^.].=X:X>X;X;X;X;X;X;X;X`.`.lXlX|.{.D.y.i.y.i.D.y.i.y.y.OX|.lXlXF.S.m M v v m m m M m n t t lXlX#.#.j.u.h.k.k.k.u.h.h.h..X X",
"lXlX^.`.=X-X>X-X;X;X;X;X;X;X*X`.lXlX!.{.D.D.D.i.i.D.y.D.D.y.|.(.lXlXG.G.n M v ,.M M m M m m h t lXlX#.#.h.a.h.h.k.k.h.h.f.h..X X",
"NXCX_.^.=X;X;X:X;X;X;X;X;X;X`.].GXnXOXOXD.D.y.y.y.i.y.i.i.y.|.OXJXzXG.F.v v v M m m v n m M h e NXNX&.#.h.f.h.k.h.f.h.h.k.h.oXoX",
"GXGX_._.=X:X=X-X;X;X;X;X;X=X*XL.GXnX{.{.Z.y.y.y.i.D.y.y.y.y.(.|.HXbXG.F.n >.v M m m n M M M h t nXNX#.#.p.k.h.k.k.k.k.h.h.h. X X",
"GXGX_._.=X:X;X:X;X;X;X;X;X;X].].GXGX|.{.y.H.i.D.i.i.D.i.i.D.|.|.bXGXG.G.n v n M m M m M n v t e GXJX&.#.k.k.h.k.h.h.h.k.h.k.oXoX",
"GXJX_.].=X;X-X=X;X;X;X;X=X-X].`.nXnX(.(.D.i.r.i.y.y.y.y.y.i.(.(.GXJXC.C.n v m M m m m M m v j h NXNX#.g k.k.h.k.h.u.h.k.f.k. X X",
"NXnX^.`.T.]./.*X].`.`.].`.*X/._.JXGXOX|.(.|.(.|.+X(.OX|.(.(.OX|.NXbXy y t t e t t h t t t j e t GXGX#.%.XX.XXX.XoX XoX X X XoXoX",
"GXCX_.].Y.`.`.].`.`.].`.`.*X_.*XGXnX(.|.(.|.(.(.(.(.OX|.OX(.OX(.GXGXt t j e h t t t t t t h e y GXGX#.@.oXoXXX X X XoX.X X XoX X"
};
