/* XPM */
static char *result[] = {
/* columns rows colors chars-per-pixel */
"64 64 249 2 ",
"   c #0E0E0E",
".  c #0F1010",
"X  c #131314",
"o  c #16191A",
"O  c #1A1C1D",
"+  c #1F2020",
"@  c #1E2121",
"#  c #192729",
"$  c #193337",
"%  c #222525",
"&  c #272826",
"*  c #262A2A",
"=  c #2A2E2E",
"-  c #383129",
";  c #2D3233",
":  c #26393A",
">  c #313636",
",  c #363936",
"<  c #343A3B",
"1  c #383E3E",
"2  c #453A2F",
"3  c #3A403F",
"4  c #4C4539",
"5  c #66523D",
"6  c #7A6739",
"7  c #115259",
"8  c #18575B",
"9  c #3C4343",
"0  c #3A4F4A",
"q  c #2A5255",
"w  c #155B65",
"e  c #165867",
"r  c #1D5A64",
"t  c #115A6A",
"y  c #235D66",
"u  c #265D68",
"i  c #325E64",
"p  c #146369",
"a  c #0C6D7A",
"s  c #1E6673",
"d  c #146A76",
"f  c #1A6977",
"g  c #156B79",
"h  c #07717E",
"j  c #0C727E",
"k  c #15747D",
"l  c #276467",
"z  c #25636B",
"x  c #29646E",
"c  c #2A6472",
"v  c #286774",
"b  c #226975",
"n  c #2D6E75",
"m  c #246C79",
"M  c #356D77",
"N  c #377475",
"B  c #367179",
"V  c #39737C",
"C  c #444847",
"Z  c #434B4B",
"A  c #53544A",
"S  c #4B5453",
"D  c #4B5454",
"F  c #585853",
"G  c #525C5B",
"H  c #735D47",
"J  c #51625B",
"K  c #6F6749",
"L  c #5A6563",
"P  c #5C6866",
"I  c #447876",
"U  c #626E6C",
"Y  c #65716E",
"T  c #6B7774",
"R  c #727D7B",
"E  c #9A5F1D",
"W  c #8D652D",
"Q  c #AC7934",
"!  c #907558",
"~  c #38807F",
"^  c #6D877D",
"/  c #74857A",
"(  c #B98534",
")  c #DE951F",
"_  c #E49A1A",
"`  c #D38E2E",
"'  c #EBB122",
"]  c #F9D731",
"[  c #FEE73B",
"{  c #948656",
"}  c #A78B4D",
"|  c #899474",
" . c #B08D69",
".. c #D1A466",
"X. c #FFEB43",
"o. c #FFF363",
"O. c #067481",
"+. c #0E7381",
"@. c #127484",
"#. c #1F7682",
"$. c #197187",
"%. c #177987",
"&. c #1B7E8D",
"*. c #217684",
"=. c #227985",
"-. c #2D758C",
";. c #257D8B",
":. c #2A798A",
">. c #397782",
",. c #3D7C84",
"<. c #327E8A",
"1. c #3A7E8A",
"2. c #247D91",
"3. c #427D85",
"4. c #427B88",
"5. c #11848D",
"6. c #1B808E",
"7. c #158590",
"8. c #1C8291",
"9. c #1E8D9E",
"0. c #25818C",
"q. c #36878B",
"w. c #34818D",
"e. c #3A828D",
"r. c #298A98",
"t. c #338696",
"y. c #3D8591",
"u. c #348A95",
"i. c #3D8A96",
"p. c #348B9A",
"a. c #3D8D99",
"s. c #28929E",
"d. c #35919A",
"f. c #1D90A2",
"g. c #228FA0",
"h. c #368DA1",
"j. c #2291A2",
"k. c #2E92A1",
"l. c #2E9CAD",
"z. c #3292A2",
"x. c #3A9AA7",
"c. c #2E9FB1",
"v. c #309FB0",
"b. c #33A1B1",
"n. c #32A1B2",
"m. c #3DADBD",
"M. c #49878B",
"N. c #4C858E",
"B. c #528C8D",
"V. c #4D8691",
"C. c #448A94",
"Z. c #478996",
"A. c #4E8992",
"S. c #418C9A",
"D. c #528B93",
"F. c #558C98",
"G. c #47959D",
"H. c #53949C",
"J. c #5A9798",
"K. c #5B949D",
"L. c #7B8885",
"P. c #6C978A",
"I. c #629A9D",
"U. c #66A29D",
"Y. c #4495A3",
"T. c #4A96A3",
"R. c #4299A6",
"E. c #449BAA",
"W. c #4999A8",
"Q. c #4F98AF",
"!. c #5196A3",
"~. c #5D95A1",
"^. c #5A9AA3",
"/. c #529EAB",
"(. c #6196A2",
"). c #639BA5",
"_. c #6A9DA7",
"`. c #659DA9",
"'. c #709CA7",
"]. c #4EA2AC",
"[. c #5CA2A2",
"{. c #53A2AE",
"}. c #45A6B6",
"|. c #49A8B7",
" X c #46A9B8",
".X c #4AAABA",
"XX c #56A5B0",
"oX c #58A8B5",
"OX c #56AEBA",
"+X c #5AADBC",
"@X c #55B2B8",
"#X c #59B1BD",
"$X c #67A3A8",
"%X c #71ADAE",
"&X c #6DA8B3",
"*X c #72ABB4",
"=X c #74AAB8",
"-X c #74B1B9",
";X c #4BB1C1",
":X c #63A6C1",
">X c #68BECB",
",X c #66C3CB",
"<X c #6AC2CD",
"1X c #6EC5D2",
"2X c #828D8B",
"3X c #83938C",
"4X c #8A9895",
"5X c #909E9B",
"6X c #93A19E",
"7X c #BFB49A",
"8X c #9AA9A5",
"9X c #A9B1AF",
"0X c #ABB9B6",
"qX c #C7B5A2",
"wX c #B3C3BB",
"eX c #B9C7BC",
"rX c #B9D2B9",
"tX c #FFF996",
"yX c #CBC9B6",
"uX c #B8C6C5",
"iX c #BACAC5",
"pX c #BAC9C9",
"aX c #BBCDD0",
"sX c #BCD7D9",
"dX c #BEE0DF",
"fX c #C4C4C3",
"gX c #CCCDCC",
"hX c #D5CBCD",
"jX c #D3CCCD",
"kX c #C4D4CD",
"lX c #C8D6CA",
"zX c #CDD2CD",
"xX c #D2D2CE",
"cX c #D1D9CE",
"vX c #CACDD2",
"bX c #D2CED2",
"nX c #D7CED9",
"mX c #C5D5D4",
"MX c #CAD5D5",
"NX c #C5DAD4",
"BX c #CAD9D4",
"VX c #CAD6D9",
"CX c #C6D8DB",
"ZX c #CBDADA",
"AX c #D3D3D3",
"SX c #D7D5D7",
"DX c #E1D8DD",
"FX c #C9D7E2",
"GX c #D8D2E4",
/* pixels */
"aXwXFXZXsXAXsXNXuXpXmXMXVXmXmXVXuXeXsXBXBXZXNXMXpXuXCXNXmXNXCXNXpX0XdXNXkXVXMXMXuXpXMXVXmXmXmXVXaXwXGXCXMXmXZXaXpXiXNXCXMXmXZXmX",
"wXyXsXmXCXMXMXBXiXpXmXmXMXmXmXmXuXhXsXFXCXCXNXZXpXuXmXCXVXZXMXmXuXhXsXFXCXFXCXCXuXpXMXZXCXZXmXZXwXrXsXNXmXvXmXMXpXiXMXNXNXMXNXmX",
"nXmXW.R.v.E.Q.R.R.R.E.R.E.R.E.R.BXMX'.I.$X`.U._.`.).`.`.).(.D.V.ZXMX3.I V 3.V M.,.,.,.1.,.,.r 8 GXmXg k @.O.2.+.j j @.k j @.@.@.",
"nXAXR.E.E.x.E.x.E.E.E.R.R.R.W.E.MXAX_._.$X^.[.)._._._.)._.).N.N.AXVXI N.e.1.~ >.3.3.3.4.3.3.y 8 jXcXk j +.O.+.O.+.j j j j j j j ",
"zXcXx.Y.:.k <.=.;.;.;.;.2.w.x.h.AXSX'.'.F.~.I._.K.K.K.K.^.~.V.D.hXSXI M.l c u c u x z c x c 8 r AXbXj @.&.8.0.7.&.&.2.8.2.2.@.@.",
"nXhXx.E.:.r.:.&.;.;.0.;.;.0.R.].AXzXI.$XF.~.J.F.~.^.K.K.~.K.4.V.SXMX,.V z n z c c v v v c c e u jXAXh +.&.5.0.&.&.&.6.6.&.&.+.+.",
"BXxXW.E.:.0.#.0.:.2.2.:.;.;.R.R.AXAX$X_.K.~.J.^.K.J.J.F.K.J.B.B.hXAX,.e.u c l c l l l z z z 8 8 ZXbX$.$.&.r.5.7.8.8.6.6.8.8.+.@.",
"xXAXE.x.0.0.=.<.0.;.;.;.=.0.R.R.bXVXI.).(.F.K.H.K.F.I.K.K.K.N.N.nXVX,.,.v c l c x z n x x x y r jXSXj +.7.%.%.:.&.8.6.6.6.6.j +.",
"AXAXE.R.:.;.;.;.;.;.;.;.;.=.}.R.AXzX`.`.K.(.K.K.K.K.K.K.K.K.V.N.jXSX,.,.x x x z x v x x x z r r AXAX+.@.&.8.7.8.&.&.&.8.&.6.+.+.",
"bXAXR.x.;.;.;.;.;.;.;.0.;.=.R.x.AXAX$X`.K.(.K.~.K.K.K.K.K.K.N.N.SXcX4.4.l c x v x z x x x z r r AXvX+.+.&.2.&.2.&.6.&.8.2.6.+.+.",
"SXAXR.E.:.2.:.;.;.;.;.;.;.;.E.R.AXvX`.`.J.K.K.K.K.K.K.K.K.K.N.N.bXgX4.4.l u z z c x x x l x r r AXAX+.+.8.6.8.&.8.8.&.8.&.&.+.+.",
"AXzXR.R.;.;.2.;.;.;.;.;.;.;.R.E.SXAX_.`.J.K.~.K.K.K.K.K.K.K.N.N.SXAX4.,.l x b v x x z z n l r r AXAX+.+.&.&.&.&.6.8.&.&.&.&.j j ",
"AXAXR.E.2.;.2.;.;.;.0.;.;.:.R.].AXAX).`.J.K.^.K.K.K.K.~.K.K.N.N.jXMX4.4.x u z z x x l n n l 8 8 bXAXg +.&.0.8.8.8.8.2.8.8.2.+.+.",
"AXAXR.x.-.;.;.:.=.;.2.:.;.0.h.E.SXSX).`.J.K.K.K.K.K.K.K.K.K.V.D.AXcX>.1.M c z z K z i J i J i p AXAX+.@.&.&.&.&.&.&.&.&.&.&.+.+.",
"AXAXE.R.E.R.R.E.E.E.E.x.R.R.E.E.gXgXD.V.B.N.V.V.N.D.N.D.V.D.4.V.AXzXy r 8 r y y W r K l l 6 q 7 bXAX+.+.+.@.+.@.+.+.+.+.+.@.h +.",
"AXAXR.x.E.E.R.E.E.R.R.R.E.E.E.x.SXAXV.N.N.V.N.V.N.V.N.N.N.V.V.D.bXAX8 r r 0 l 8 l w E q 8 i S J AXAX+.+.+.+.+.@.+.+.+.+.+.+.+.+.",
"vX0XFXVXNXZXNXkXiXpXmXZXmXZXmXVXvX0XFXZXNXZXNXNX9XF , F 2 3.wXnXaXuXZXmXcXyX) ..7XuX) ..yX..' cX7XeXCXCXlXNXNXNXpXpXmXBXCXmXZXNX",
"wXrXsXBXCXMXMXBXiXpXmXNXBXkXBXkXiXrXsXNXkXkXmX4 H { !  .! ! 2 A 8XyXCXZX..7XlX_ ' ) ] _ _ ' yXqXuXgXsXCXNXNXsXZXiXiXNXkXNXkXBXNX",
"GXvXa.t.r.p.h.u.p.u.u.u.p.p.1X<XGXvXQ.d.b.:.4 ! ! - , 4 2 5 5 ! C R q.:.$XU.[.| ' X.X.X.[ ( @XU...qXr e p 7 p 7 w e t e t e e t ",
"nXSXd.u.h.r.p.p.u.a.p.u.u.u.<X1XMXzXx.x.i.-  .- 9 r.x.x.T.M & 5 ! 4 = n 3X| U.} ' [ tXtX[ ' } | yXAXe t 7 w t w p w w w e w p r ",
"lXlXr.t.+X@X#X@X@XOXOX#X@XoX<X>XzXAXx.x.;  .2 l k.z.z.h.z.z.$.7 -  .! - 0 / ( _ ] X.tXo.] ) { P.hXxXw t p m m n b s b f b m 1.w.",
"DXnXd.p.:X@X@X@X#XOX@X#XOX#X<X<XAXhXv.<.- { , n w.z.k.k.z.h.g %.9X2 2 ..! 4 - 4 _ ] ] [ ] { @XU.` yXt t f g m s b b v v b v e.C.",
"kXgXp.p.+X@X@X@X+X+X#X#XOXOX>X1XMXbXE.q ! 2 : > $ r z.z.z.z.%.%.zXvXq & 2 ! H Q ) E _ _ ) ` oX$XAXfXw w b m l b b m b f b f e.e.",
"AXbXp.d.OX#X;X&XOX#X@XoX#XOX<X<XhXfX$ - ! 2 X G 9 X = # # r t @.SXnX4.-.J W 9 E V G.} Q ^ ` P.| hXDX8 e v s m g s b b b b b e.y.",
"AXxXp.u.+X;X+X@X#X#X#XOX#X;X<X1X9XC U - H + 1 G X + 3X2XR L , @ 2XjXw.:.J.B.J.H.J.P.^ { G.^ | oXMXxXt w b f s m s b s m s s y.e.",
"AXjXp.d.+XOX+X+XOXoXOXOXOX#X>X<X, uXG - - D 1 o + X 2X9X5XY U L C & n :.T.G.T.Q T.^ B./ / / U.oXjXlXw w s b b s m b b m b s e.e.",
"SXxXu.u.+X@X#XoX#X#X#X#X#X#X,X1X+ 4X4X2X3 * = ; & & 5X8X6X4XU L G G % 8 !.T.R.J.T.T.T.Y.( G.@XXXSXzXp w b b v s b b b v b v C.y.",
"vXcXu.d.+XOX#X#XOXOXOXOXOXOX>X: = Z Z F D Z 9 ; > U 8X6X4X4XT L G G S & c G.G.G.T.T.T.Y.G.x.[.@XbXgXw w s b v b m b b f s f e.e.",
"AXSXu.r.#X#X+X#XOXOXOXOX#X;X: ^ 9XF 3XL.Y D > = T 5X6X4X4X2X2XF S S S Z X M.T.T.Y.G.T.G.T.T.oXoXAXxXt r m s b s b b b b b m e.y.",
"AXxXa.d.+X#X+X#X#X#X#XOX+Xi Y kXkXL , 1 * 1 L 2X5X5X4X3XL.L.3.G S S Z Z C   G.G.G.G.T.T.T.T.XXXXAXzXt w m s b b s s b s m m w.e.",
"MXSX<X,X1X>X<X<X<X<X<X>XK.9 uXpXuXwX8X5X5X3X2X5X4X4X2XL.L.R T G S Z Z 9 9 < $ w.w.w.w.:.w.<.w.w.bXcXt p e.w.1.e.y.y.y.e.e.w.e.C.",
"SXgX<X<X>X1X1X>X<X<X<X<X0 6XpXuX0X0X8X5X3X4X5X4X3X2XL./ R T Y S Z 9 9 9 3 1 o m w.:.w.w.w.:.w.<.AXzXe w y.i.1.e.y.e.y.e.C.e.e.e.",
"pXwXFXNXNXSXsXZXmXCXVX0XC 0XeX0X9X9X8X8X6X4X4X2X2X2X3.R T U L Z 0 9 3 3 < < > ; uXuXmXZXmXVXMXmXaXeXFXbXBXZXmXNXuXpXMXBXVXmXMXVX",
"uXzXsXmXNXMXkXZXBXBXZXY / wX0X9X9X9X6X5X5X4X2X2XL.3.! Y U P D 9 9 3 1 1 < > ; O 0XpXmXMXmXZXmXmXuXrXdXZXaXVXMXMXpXpXkXmXNXmXNXNX",
"MXvX~.H.!.!.G.!.!.!.!.: 3X0X9X9X8X5X5X4X2X2X2XR ! 3.U P L G 9 9 3 1 < > > ; ; * x m.m.m.m.m.j.j.nXaXs p d.u.p.u.u.t.u.u.p.u.u.t.",
"AXVXK.H./.!.!.F.!.T.!., 4X8X8X8X5X4X4X2X2XR 4.! T Y P L G Z 9 9 1 > > ; ; = = * 7 ;Xm.;Xm.m.j.f.nXnXg g p.p.t.u.u.u.u.u.u.t.i.u.",
"xXAXH.G.a.S.Z.Z.C.C.N 9 3.9X6X5X4X4X2X4.4.2X! T U P L F Z 9 < < > > ; ; = = * % $ c.c.c.c.n.9.f.AXlXp a m *.:.k *.*.=.=.*.*.u.t.",
"nXbX!./.S.Y.Z.i.Z.Z.M 3 Y 5X5X4X2X2X2X2X! 3.4.L L F F 9 9 < > > > ; = = * * % % O n.v.v.n.v.r.s.bXSX$.f -.k =.%.k *.*.*.#.*.u.u.",
"lXkXH.H.C.C.M.C.C.C.M 3 P U 4XL.2X2X! 4.T P L L G Z 1 1 < > > ; ; = = * * % % @ $ l.n.n.c.n.f.f.ZXhXg d m 0.m #.:.;.=.=.*.*.u.t.",
"SXAX!.J.Z.S.M.a.Z.C.N , L L Y L.R 4.! Y P L G G C 1 1 < < > ; ; = * * * @ @ @ @ $ c.n.c.n.n.j.g.xXSXg g =.k <.;.k =.m =.=.k u.u.",
"SXAX!.!.Z.C.C.S.C.C.Z.; L G G L U Y U P L G Z 9 < < < > > ; = = = * % % @ @ O O $ v.v.v.n.c.g.9.AXAXg d *.=.=.*.:.=.=.=.*.=.t.u.",
"bXxX!.H.C.y.C.C.C.C.C.# G G D S F C Z C 9 9 1 < < < > ; ; = * * * @ % @ @ O o o c v.n.n.v.n.j.9.bXgXd d *.=.#.*.#.m =.#.=.=.u.p.",
"AXAX!.!.C.i.Z.C.Z.C.C.q Z D S S C C C 9 9 1 < < > > ; ; * * * * @ @ @ O O o o X r.v.c.v.n.v.j.9.SXxXf d =.;.=.*.=.=.=.*.#.#.t.t.",
"AXxXT.H.C.C.Z.y.C.y.M.>.= S Z Z C C 9 1 1 < < > ; ; = = * * % @ @ @ O O o o X o v.v.v.n.n.n.j.9.AXxXd d *.*.*.*.=.=.;.#.#.#.t.u.",
"bXcX!.!.C.C.C.C.S.Z.Z.C.# Z Z C 9 9 9 1 < > > ; = = = * & % % + @ O O o X X X b v.v.v.n.v.c.g.9.AXvXd d *.*.;.*.#.#.#.#.#.=.u.u.",
"AXAX!.!.C.C.C.C.S.4.Z.C.1.X 9 9 9 < < > > ; ; = = * * % % + + O O O o X X X o v.v.v.c.n.v.v.j.j.AXAXf d *.#.$.*.=.*.*.#.=.=.t.p.",
"bXxX!.H.,.q.e.q.1.1.1.1.-.>.; 9 < < > > ; ; = = * * % @ + O O O o o X X X   s g.j.g.f.g.g.j.9.9.AXxXg d f g g d g g g d g p g g ",
"bXcX!.H.e.<.,.e.1.1.1.>.4.-.$ < < > ; ; ; = * * % % @ + + O O O X X X . . 7 g.g.g.g.g.g.9.j.9.j.AXxXd d g d d d g g g g g d g d ",
"uXeXCXmXBXMXkXBXNXNXNXNXCXCXNXo > ; ; = = * * % @ @ @ O O o X X X X X X T ZXlXMXuXpXNXNXmXmXCXNXaXiXFXMXmXNXmXNXiXpXMXBXCXmXZXNX",
"uXhXsXZXCXCXZXFXmXCXMXMXMXVXmXkX% * = * * & % @ @ @ O o O X X X .     8XVXCXCXFXuXpXmXZXCXVXmXmX0XrXsXkXBXmXvXBXiXuXmXNXMXmXBXmX",
"ZXvX(.I.J.~.I.I.(.^.(.^.(.).~.).bXC O * % @ @ @ o O o o X X X   X & F.B.B.D.B.D.A.A.D.J.N.V.x y GXMX*.@.@.O.2.+.@.@.%.%.%.@.%.@.",
"MXAX(.).$X^.J.).(.(.(.(.).).K.(.hXMX4.= o @ @ O O O O X X . .   2XVXV.D.F.A.F.4.F.F.V.D.D.F.y y bXBXk k @.@.$.%.@.+.@.+.+.j %.@.",
"SXxX_.I.*X=X%X=X*X*X*X*X*X*X$X`.bXBX{.Q.n q @ .   X . . X $ i /.hXSXB.D.>.M I >.B B B B B V r x xXzX@.@.z.k.p.s.h.h.z.z.z.z.|.|.",
"cXgXK.K.-X=X%X*X=X=X=X*X=X&X`.`.SXAXoXoXa.a.a.d.>.M B a.a.a.{.XXSXxXB.N.M >.M M >.>.>.M V M y u jXAX+.@.x.r.x.z.s.k.h.z.z.z..X.X",
"jXAX).I.*X&X%X=X%X%X%X%X%X%X$X).cXlX{.{.q.i.C.C.Z.S.S.y.S.i././.AXAXD.F.M I N B N N n B N N l y ZXjX$.$.p.l.s.j.k.z.z.k.k.k.}.}.",
"SXAXK.).*X=X%X&X*X&X*X*X*X&X_._.hXSX/./.d.d.S.S.i.a.i.a.S.a./.{.bXAXB.B.V V N B M V B B N M y y SXhX%.@.j.d.k.a.k.z.s.z.k.d. X X",
"fXfX(.`.%X*X=X*X*X*X*X*X*X%X`.).fXfX{.].a.i.a.i.a.a.i.a.S.i.{.{.fXfXV.F.B V M V B B B B V B u y fXfX%.@.k.p.k.z.k.z.p.k.k.k..X}.",
"fXfX~.~.%X*X-X*X*X*X*X*X*X*X).).fXfX/.].S.a.S.a.a.S.a.S.a.i.{.{.fXfXF.F.N B M V V V B V V B y y fXfX@.@.k.d.k.k.z.z.k.k.k.k.|.}.",
"AXMX(.).%X*X*X*X*X*X*X*X*X*X$X`.AXjX{.].C.S.u.i.i.a.y.a.a.i.{.{.SXgXF.A.M V B V B B M B B N l y bXgX%.@.k.z.k.z.k.z.s.h.z.k. X X",
"SXAX(.~.*X*X&X*X*X*X*X*X*X*X).^.AXcX{.].i.S.i.C.a.S.a.a.a.y./.{.SXMXK.V.M >.M V B N B V V V z y bXbX@.@.z.z.k.z.z.z.z.z.p.h.}..X",
"bXAX^.(.%X=X*X*X*X*X*X=X*X*X_.).AXAX{.{.a.C.i.C.C.a.a.a.a.S.{.{.gXAXF.F.N M M V B V B V B M y y AXAX%.@.z.z.s.z.k.h.h.z.k.z. X.X",
"AXAX).`.%X*X&X*X&X*X&X*X*X*X$X).MXxX/./.S.a.i.i.a.i.i.i.a.a././.SXSXV.V.N B B V B B B B B B y z bXMX@.g z.z.z.z.p.s.k.z.k.z.}.}.",
"bXMX(.~.).$X^.)._.$X`.$X).`.^.(.AXAXXX{.{.{./.{.XX{.{.{././.{.{.MXgXu u y y z r y l y y l z 8 y bXAX%.%. X|.}..X.X X.X X}.}..X X",
"AXAX(.`.J.`.$X).).).).).).$X(.$XAXxX{.{./.{./.{.{.{.{.{.{.{.XX/.SXAXy y y y l y y y y y y z y u SXvX@.@. X.X X}.}.m. X X X}..X X"
};
