/* XPM */
static char *result[] = {
/* columns rows colors chars-per-pixel */
"64 64 249 2 ",
"   c #0E0E0E",
".  c #0F1213",
"X  c #131414",
"o  c #1F1B17",
"O  c #171919",
"+  c #1A1C1D",
"@  c #26221C",
"#  c #1D1F20",
"$  c #1E2122",
"%  c #162729",
"&  c #1B3135",
"*  c #222425",
"=  c #292724",
"-  c #262A2A",
";  c #292D2D",
":  c #322C23",
">  c #31312F",
",  c #292F30",
"<  c #2D3233",
"1  c #2A3737",
"2  c #313636",
"3  c #363936",
"4  c #353B3B",
"5  c #383E3E",
"6  c #4D3D29",
"7  c #39413D",
"8  c #514434",
"9  c #64503C",
"0  c #77683E",
"q  c #105057",
"w  c #17575C",
"e  c #314041",
"r  c #3C4343",
"t  c #2D4C50",
"y  c #155B65",
"u  c #165866",
"i  c #1D5A64",
"p  c #115A6A",
"a  c #235D66",
"s  c #225D6B",
"d  c #136367",
"f  c #0C6D7B",
"g  c #1E6773",
"h  c #146A76",
"j  c #196A77",
"k  c #07717E",
"l  c #0C727E",
"z  c #14747D",
"x  c #276667",
"c  c #26636B",
"v  c #29646E",
"b  c #386568",
"n  c #2A6472",
"m  c #226975",
"M  c #266976",
"N  c #356D78",
"B  c #26727D",
"V  c #377475",
"C  c #367179",
"Z  c #39737C",
"A  c #474846",
"S  c #434B4B",
"D  c #4D514C",
"F  c #4B5453",
"G  c #4E5757",
"H  c #525C5B",
"J  c #695642",
"K  c #55645C",
"L  c #746C4E",
"P  c #5A6563",
"I  c #5D6867",
"U  c #47766E",
"Y  c #626D6B",
"T  c #64706E",
"R  c #6A7674",
"E  c #737E7B",
"W  c #815B22",
"Q  c #8A743B",
"!  c #AF7627",
"~  c #C7771E",
"^  c #8D7253",
"/  c #38807F",
"(  c #5F866E",
")  c #74817E",
"_  c #6C9177",
"`  c #B18637",
"'  c #DD921A",
"]  c #E3981A",
"[  c #D39330",
"{  c #EBB324",
"}  c #F7D22E",
"|  c #FEE63A",
" . c #8D8754",
".. c #AC864D",
"X. c #A88664",
"o. c #B7926E",
"O. c #D39753",
"+. c #FEEE51",
"@. c #067481",
"#. c #0E7381",
"$. c #127483",
"%. c #1F7682",
"&. c #197187",
"*. c #177987",
"=. c #1B7E8D",
"-. c #227684",
";. c #237985",
":. c #2B738A",
">. c #297789",
",. c #257C8B",
"<. c #297B8B",
"1. c #367A86",
"2. c #3D7C84",
"3. c #3A7E8A",
"4. c #247D91",
"5. c #447A87",
"6. c #427D86",
"7. c #11848D",
"8. c #1B808E",
"9. c #1C8291",
"0. c #1D8D9C",
"q. c #23828C",
"w. c #35838C",
"e. c #3A828C",
"r. c #298A98",
"t. c #338696",
"y. c #3D8592",
"u. c #348A96",
"i. c #3D8B96",
"p. c #358B9A",
"a. c #3C8D9A",
"s. c #29929D",
"d. c #38919B",
"f. c #1F90A2",
"g. c #228FA0",
"h. c #378DA1",
"j. c #2493A4",
"k. c #2E92A1",
"l. c #3292A2",
"z. c #3B9AA6",
"x. c #2E9FB1",
"c. c #329EB2",
"v. c #2EA1AC",
"b. c #34A1AD",
"n. c #2DA4B3",
"m. c #32A1B1",
"M. c #3DAAB9",
"N. c #4C858E",
"B. c #48888A",
"V. c #55918B",
"C. c #448A94",
"Z. c #4C8893",
"A. c #418C9A",
"S. c #528C94",
"D. c #558C98",
"F. c #4A9599",
"G. c #57959A",
"H. c #5B949D",
"J. c #7B8885",
"K. c #629A9D",
"L. c #64A29D",
"P. c #4396A3",
"I. c #4A96A3",
"U. c #4299A6",
"Y. c #449BAA",
"T. c #499AA9",
"R. c #5196A3",
"E. c #5D95A1",
"W. c #5A9AA4",
"Q. c #5097AD",
"!. c #529EAB",
"~. c #6196A2",
"^. c #639BA5",
"/. c #6A9DA7",
"(. c #659DA9",
"). c #709CA7",
"_. c #4EA1AC",
"`. c #59A4A7",
"'. c #54A2AD",
"]. c #45A6B6",
"[. c #48A7B7",
"{. c #45A9B9",
"}. c #4AAABA",
"|. c #55A5B1",
" X c #59A8B4",
".X c #56AEBB",
"XX c #5AADBC",
"oX c #57B1BA",
"OX c #68A3A8",
"+X c #71ADAE",
"@X c #6DA8B3",
"#X c #72ABB4",
"$X c #74AAB8",
"%X c #74B1B9",
"&X c #3CB2C0",
"*X c #44AEC2",
"=X c #52B1C1",
"-X c #68BAC9",
";X c #6AC2CE",
":X c #6EC6D3",
">X c #828D8A",
",X c #84918E",
"<X c #93978F",
"1X c #899693",
"2X c #8E9C99",
"3X c #909E9B",
"4X c #93A19E",
"5X c #969EA1",
"6X c #9AA9A5",
"7X c #ACB6B2",
"8X c #A9B8B4",
"9X c #CBB692",
"0X c #D0BCA3",
"qX c #B4C4BC",
"wX c #BBD5B9",
"eX c #DFDFB1",
"rX c #B6C6C5",
"tX c #B9C6C5",
"yX c #BACAC5",
"uX c #BAC9C9",
"iX c #BBD5CD",
"pX c #BAC7D2",
"aX c #BCD7D9",
"sX c #BFE1E0",
"dX c #C4C4C3",
"fX c #C6CBCA",
"gX c #CDCDCC",
"hX c #D3CCCD",
"jX c #C5D5CE",
"kX c #C9D6CA",
"lX c #CCD2CD",
"zX c #D2D1CE",
"xX c #D1D9CE",
"cX c #CCCED2",
"vX c #D2CED2",
"bX c #D8CED6",
"nX c #C6D5D4",
"mX c #CAD5D5",
"MX c #C5DAD4",
"NX c #C9D9D4",
"BX c #C6D7DB",
"VX c #CBD6DA",
"CX c #CBD9DA",
"ZX c #D3D3D3",
"AX c #D9D5D6",
"SX c #D3D5D9",
"DX c #C0E0D5",
"FX c #C9D6E2",
"GX c #D8D3E4",
/* pixels */
"pXqXGXmXaXSXaXMXtXuXnXnXVXnXnXmXrXtXaXMXnXCXNXmXuXrXMXBXnXmXBXMXiX7XsXBXnXVXNXmXtXuXVXMXnXVXnXmXpXqXFXCXnXnXCXjXuXrXMXnXCXnXCXMX",
"qXwXaXnXBXcXmXNXyXyXnXnXNXnXnXnXdXhXaXCXBXmXMXCXuXrXmXnXVXCXnXnXtXhXaXFXBXBXBXFXtXuXmXVXnXCXnXnXqXwXaXMXnXcXnXmXuXyXNXNXnXnXmXnX",
"GXlXT.U.c.Y.T.U.Y.P.Y.Y.Y.Y.Y.U.NXmX).K.OX/.L.^.OX^.OX(.^.~.S.N.VXnX5.U U 6.Z e.2.2.2.6.2.2.i i GXmXj z $.@.4.@.#.f $.#.l #.$.$.",
"hXZXz.Y.Y.z.Y.z.Y.U.Y.P.U.U.T.Y.mXmX/./.OX!.OXW.(.(.^././.^.N.N.cXSXU C.e.2./ 2.6.6.2.3.6.6.a w hXNXz l #.@.#.$.#.l #.k l l l l ",
"mXxXz.z.>.B 1.8.,.;.,.,.,.t.h.z.ZXAX)./.D.E.K./.H.H.H.H.H.~.Z.S.bXAXU 5.n n s n c n c v s n w a vXZXl $.=.9.q.7.=.=.4.9.4.4.$.$.",
"bXhXz.Y.q.q.>.=.q.,.q.q.,.q.U.Y.ZXlXK.OXH.H.G.D.E.E.E.D.E.E.5.N.ZXmX2.e.g M v v n n n n n n i s hXbXk $.8.*.q.*.=.=.8.8.8.8.#.#.",
"mXzXT.Y.>.q.=.,.<.<.,.<.;.>.Y.P.ZXZXOX/.D.~.G.~.H.G.G.G.G.D.B.V.hXZX2.2.s n x v x x x x a v w q SXzX&.#.9.9.7.9.9.9.8.8.9.9.#.$.",
"hXAXY.z.q.q.;.3.,.,.,.,.,.q.Y.Y.vXZXK.^.H.H.G.R.H.D.K.H.K.H.S.N.ZXSX6.2.n n x n n c n n v v a u lXAX#.#.7.8.8.<.=.9.8.8.8.8.l #.",
"ZXZXY.z.<.,.,.,.,.,.,.,.,.;.Y.Y.ZXZX/.(.H.E.D.E.H.H.H.H.H.H.N.N.vXxX5.2.v v v v v v v v v v a i ZXZX#.#.7.4.9.9.=.8.=.q.=.=.#.#.",
"ZXZXP.z.<.,.,.,.q.,.,.q.,.,.Y.z.ZXmX/.(.G.E.H.E.H.H.H.H.H.H.N.N.ZXZX2.5.x n v n v v v v v v i i vXcX#.#.=.=.9.4.=.=.=.9.9.=.#.#.",
"SXZXY.Y.<.4.,.,.;.,.,.,.q.,.Y.Y.ZXgX/.(.G.H.H.H.H.H.H.H.H.H.Z.N.vXnX5.5.x s c c m n v c n v a i ZXAX#.#.9.9.9.=.9.9.=.9.=.=.#.#.",
"vXzXP.z.,.,.4.>.,.4.,.,.,.>.z.Y.SXZX/./.G.K.K.H.H.H.H.H.H.H.N.N.ZXZX5.3.x v v M v c v c v s w u ZXZX#.#.=.,.=.=.8.9.=.=.=.=.#.#.",
"ZXZXY.U.<.<.4.,.,.,.<.,.>.,.z.Y.ZXzX/./.G.R.W.G.H.H.H.E.H.H.N.N.vXzX5.5.s n c c v v v v n v i i vXZX#.#.=.8.9.q.9.9.9.4.4.9.#.#.",
"ZXZXU.z.4.,.<.,.,.,.,.,.q.t.h.Y.ZXAX^.5.t , * * - ; e e b D.S.N.zXSX2.2.v n c s v c v c n c i i ZXZX#.#.=.=.=.=.=.=.=.=.=.=.#.#.",
"ZXZXY.Y.Y.P.P.U.Y.Y.Y.z.U.z.Y._.cX>X% 3 Y R J.2X6X8X6X6XI , e B.ZXdXa i w w a a i i i i i a w i vXZX#.f #.$.#.$.#.#.#.#.#.$.k #.",
"ZXzXU.z.Y.Y.Y.Y.Y.z.Y.Y.Y.Y.z.1.= S I I T 3X8X8X8XqXyXuXjXqX)   ; P % i a i a w i i i w i i i i ZXZX#.#.#.#.#.$.#.#.#.#.#.#.#.#.",
"pXqXFXSXaXCXMXMXuXuXMXCXnXCX1X* G P P P J.6X6X6X8X8XrXtXuXnXP 7 Y 7X) 5 7XSXaXCXyXyXCXNXNXNXMXNXuXqXBXBXkXNXDXMXuXuXMXBXMXnXMXnX",
"qXwXaXNXMXmXnXmXyXyXjXMXNX8X- F G G H T 1X2X3X6X6X6X8X8XrX,XH ) A ,Xo > @ A 3 J Y qXMXjXmXmXjXnXtXgXaXBXiXnXiXGXyXrXjXnXNXNXMXNX",
"GXfXa.t.r.p.A.p.u.u.u.u.p.  S F F F G J.J.1X1X3X6X6X6X8X7XT R J.5 1Xo 9 o.^ ^ o.L 6 S.|. X X X XVXfXi u w d d y p y y u p p p u ",
"bXAXp.p.h.r.p.s.p.p.u.u.. S S S F F P E J.J.,X1X2X5X6X6X2XJ.5 ) H = D o : : : = J X.9 b |.'.`. XZXZXu p y p q u d y y y w y s y ",
"kXkXr.t.@XoXXXoXXX X.XN 4 r r S r F G R J.J.J.J.1X2X5X6X1X<X5 H F < 2 F # 5 - P.b @ ^ ^ b I.'. XzXlXu p d B m M m g m m g B 3.w.",
"bXAXd.p.=XoX XoXoX.X|.O 5 5 r r r r F T T R J.J.J.1X1X2X5X>X>X3 S r ; $ Y I 1 w.P.2.: ^ 3 C.'. XbXAXp p g h M j m m m M m M e.y.",
"mXgXp.p. XoXoXoX.XXX& 2 4 4 5 r r S r I T R R E ,X,X>X1X2X2XJ.5.2 2 ; * X $ # I.I.I.b 9 L t  XOXlXkXd y g B c m m m j m g g e.y.",
"ZXzXp.s..XoX=XXX.X!.O < 2 2 4 4 r r r F I I T R ^ 5.J.>X1X1X5XJ.R 2 $ + # % e I.I.I.I.: X.7  X XbXAXq p M g M j m m m m m m e.y.",
"ZXzXp.t.XXXX.X XoXN * < < < 2 4 e 5 r r H P I T T E E J.,X,X2X5X3X3XY A K 1X, F.I.I.I.8 ^ r  X XvXxXy y g g g m g m g M g g y.y.",
"ZXzXd.p.XXoX=XXXoXt - ; ; < 2 2 4 4 5 r S H P P T T R E ^ >XJ.2X3X3X6X6X7X1X7 a.F.P.I.8 o.F  X XvXlXp y g m m m m m m B g g y.y.",
"AXxXt.r.XXoX=X X.X1 * - - < , < 2 4 4 4 5 r G P P I T R J.J.J.J.,X1X3X4X6XJ.r Z I.I.I.; L 4 |. XAXlXp d m m M g m j m m m m y.y.",
"gXxXu.d.XX.XXXoX.X& * * - - ; < , < 2 4 4 5 r G H P I Y 5.^ 5.J.>X>X1X2X4XT 7 Z I.I.A.6 X.e |. XmXgXp y g g M m M M m m g g e.3.",
"ZXAXu.r.XXoXXXoX.X& $ $ * * - , , < < 2 2 4 5 5 F H P P I T R E J.J.J.1XY I G Z P.F.b 8 L b  X XZXzXp y m g m m g M m m m m y.y.",
"ZXZXd.r.XXoXoXXXXX& + $ $ * * - - - < < 2 2 4 4 r r H H I I T R R ) J.R P I 7 C I.P.3 X.: F.|.|.vXzXy y m g M j g g m g M B 1.y.",
"cXAX;X;X:X-X:X:X;Xe + + $ $ $ * - - - < < 2 2 2 4 5 r S G P I I R T P H H K 1 <.1.w.@ o.; <.t.w.ZXzXp y y.w.3.y.y.y.y.3.y.3.y.y.",
"AXgX;X;X:X;X:X-X;X6.O + # $ $ $ * - - - , < < 2 2 4 5 5 r r S F S F F G H H # w.w.M 8 9 t 1.t.L ZXhXy y y.y.3.w.y.y.y.w.y.w.y.3.",
"rXqXFXMXnXSXiXCXCX8X  O O + + $ # * * - - ; , < 2 2 4 4 5 r r r S S F F F F G aXtX2X8 ^  .O.kX9X7X9XVXZXNXNXjXDXtXuXnXmXnXnXmXCX",
"tXlXaXBXBXcXMXVXCXMX$ O O O + # # # * * - - ; , , < 2 4 5 5 r r r r S F F - 5XNXjX<X9 9 o.cXdXkX[ 9XaXgXaXNXmXmXyXyXNXnXNXnXNXnX",
"mXnXE.D.W.I.I.R.R.R.b   X X O O + # # * * * - ; , < < 2 2 4 4 5 r r r S r + *X*XM.Q 8 ^ 0 ..j.( ] 0XU W B.u.u.d.u.t.p.p.p.u.u.t.",
"vXVXG.G.!.R.R.D.R.R.R.O X X X O O + # # $ * * = - - , < 2 2 4 4 r r r S O ].*XM.M.L.: ^ 6 ] ! { { 0Xj f p.r.u.u.p.u.u.w.u.t.u.t.",
"ZXZXD.I.a.a.Z.I.C.C.C.V   X X X O O + + # # * * - - - , , < 2 4 4 5 e 1 i x.x.n.V.b.! ~ ~ } | | { O.0 L V z B %.;.%.;.%.;.;.u.t.",
"AXvXR.R.A.I.A.3.A.C.A.B.t .   X X X O O + + # $ * * - - , , < < 2 4 4 % m.v.n.d. ._ z.0 { | +.+.| } ! V B ( ;.8.%.;.%.%.z ;.u.u.",
"lXjXF.G.C.C.B.C.i.C.C.C.C.t       X X O O O + # $ * * - ; , , < 2 2 X ].c.m.n.n.b._ b.s.] | eXeX| ~ x h j ;.B z ;.>.;.;.>.B u.p.",
"AXAXR.R.Z.A.B.i.C.C.i.B.C.C.n     X X X O O + + # $ $ * * - - , , * M.&Xm.m.m.b.v.n._ ' { | +.+.+.} ! m U Q / ;.%.;.%.B ;.z u.u.",
"ZXZXR.R.C.i.Z.C.C.C.C.C.C.C.3.1.@ O     X X O O + + $ $ $ * - + A fX{.*Xm.c.x.m.m._  ._ ` } } | { [ ] ! C ;.;.z %.;.;.%.;.%.t.u.",
"mXzXR.R.C.C.C.C.C.C.C.C.C.C.3.3.bX>X    . X X O + + + $ $ O % N ZXbXM.*Xn.m.x.b.z._ U.b.` { L ' O.kXd V V ;.;.;.%.%.;.%.;.,.t.p.",
"ZXxXR.R.C.C.C.A.C.C.C.y.C.Z.3.3.bXAXg q & .   . X     % q c p.a.xXZX&X*Xx.m.x.m.V.V.V.V.! F.0.e.O.0Xh 0 >.;.;.;.;.%.;.-.-.%.t.u.",
"ZXzXR.D.C.C.C.e.C.C.A.B.C.C.3.3.vXZXh j 4.>.>.B i B >.;.B -.t.i.ZXZX*X*Xn.m.m.b.n.b.V._ _.V.j.( 0X0XK h -.%.>.z ;.;.;.%.%.%.r.u.",
"vXzXI.G.C.C.C.C.C.C.C.C.C.C.w.1.AXZXj h >.;.,.>.;.;.,.;.<.<.A.h.lXzX&X*Xn.x.x.v.M.n.m.m.x.F.w. .AXzXx j :.-.-.;.%.%.%.%.-.-.u.p.",
"ZXZX!.R.C.C.C.A.i.B.C.C.C.C.e.3.ZXgXz j >.-.,.<.>.>.>.;.<.>.u.p.AXAXM.{.m.m.b.n.b.n.b.n.x.b.r.j.AXzXj h -.&.-.%.,.%.,.%.-.;.t.t.",
"vXzXR.G.e.2.e.e.e.e.e.e.3.e.1.3.ZXZXa.a.P.d.p.u.p.a.a.p.a.u.d.a.fXlXj.j.f.f.0.f.s.f.f.f.s.j.0.0.ZXlXj h &.h h h h h h h h h j h ",
"vXxXR.F.e.w.1.e.2.e.1.1.1.e.3.3.ZXzXd.p.y.d.p.a.a.p.a.a.a.u.a.t.ZXAX0.s.g.f.g.j.f.0.0.s.0.f.0.j.ZXzXh h j h h h h h j h h f j h ",
"rX7XsXNXNXmXMXmXnXnXMXnXBXBXnXMXuXqXBXVXjXVXMXNXrXyXMXMXNXnXMXNXjX7XsXnXjXVXnXmXyXuXnXMXMXnXBXnXpXqXFXmXnXMXMXMXrXuXMXmXMXnXCXnX",
"tXhXaXSXBXBXMXCXmXmXCXnXMXVXnXNXtXlXaXFXMXnXVXSXtXyXjXjXNXjXmXjXdXdXaXVXVXBXnXBXrXuXnXCXnXCXnXmXqXwXBXiXNXjXcXNXyXrXnXnXmXnXCXmX",
"BXcX/.K.G.K.K.K.W.E.^.E.E.^.E.^.ZXfXW.Q.'.!.|.!._.T.|.|.'._._._.CXnXD.V.S.N.S.S.Z.S.S.D.Z.Z.c a GXnX%.$.#.#.=.#.$.#.*.*.*.$.*.$.",
"mXvX~./.W.OXG.~.^.~.~.~.^./.E.~.bXZX!. X'.!.|.!.`.!.'.!.'.'.'.'.gXVXS.S.D.Z.D.5.D.S.S.S.S.S.a a hXNXz $.&.*.&.*.*.#.$.#.l l *.$.",
"ZXAX/.K.@X$X#X$X#X#X#X#X#X@XOXOXvXmX'.Q.y.i.F.d.a.a.i.i.A.A.!.!.hXAXS.S.2.:.U 2.C N C N C Z i v ZXzX$.l h.k.p.j.k.h.l.l.l.l.[.[.",
"zXlXK.G.%X$X+X#X$X$X$X@X$X@X(.(.AXvX X Xi.a.d.p.i.i.i.i.a.a.'.'.ZXlXN.N.N 1.b N 1.1.1.N Z N a s hXAX$.#.z.s.z.l.r.l.l.l.l.l.}.}.",
"zXZX^.K.#X@X+X$X+X+X+X+X+X+XOX^.kXkX'.`.y.i.C.C.A.A.A.A.A.i.`.!.xXZXV.D.N U V C V V N V V V a i NXhX&.&.r.z.0.k.l.l.l.l.l.s.].{.",
"ZXZXH.^.#X$X+X@X#X#X#X#X#X#XOX^.zXAX`._.d.d.A.A.i.a.i.a.A.a.'.'.bXZXZ.S.C Z V N N Z N V N N x a ZXbX*.$.k.s.l.h.k.l.s.k.d.s.}.}.",
"dXdX~.(.#X#X%X#X#X#X#X#X#X#X^.^.dXdX'._.A.i.i.i.a.A.i.a.A.p.|.'.dXdXS.S.C Z N C C C C C C C x a dXdX$.$.l.s.l.k.l.l.r.l.l.k.[.[.",
"dXdXE.W.+X#X#X#X#X#X#X#X#X#X^.^.dXdXT._.A.A.A.A.A.A.i.A.A.i.'.'.dXdXD.D.V C N 1.Z Z C Z Z C a a dXdX$.#.k.d.k.l.l.l.k.l.l.k.[.].",
"ZXmX~.^.+X#X#X$X#X#X#X#X#X#XOX^.ZXZX|._.A.A.i.i.i.a.i.i.i.i.'.'.ZXfXD.S.N C N Z N C N V Z V x a vXvX&.*.l.l.k.l.k.l.k.l.l.l.[.}.",
"ZXZX~.E.+X$X@X#X#X@X#X#X#X#X^.~.ZXzX'._.y.A.p.C.a.A.i.i.i.i.!.!.SXZXD.S.V 2.N C C Z V Z Z Z s a zXvX$.#.l.l.k.l.l.l.l.k.k.l.].].",
"vXZX~.^.+X$X@X#X#X#X#X#X#X#XOX^.ZXZX'.'.i.F.i.A.A.a.A.i.a.A.'.'.zXZXD.D.N N N Z C Z C Z C V a a ZXAX$.$.l.z.s.l.l.l.l.l.k.l.[.}.",
"ZXZX~.(.+X#X@X#X@X#X#X@X@X#X^.OXcXzX!._.A.C.p.i.i.i.i.i.a.a.!.'.ZXAXN.N.V V C Z C C C Z C N a c vXvX$.#.l.h.g.l.k.r.k.k.l.l.].].",
"cXZXE.^.L.OXW.(./.^.(.OX^.OXE.^.ZXZX|.|.!.'.!.'.|.'.|.'.!.!.|.'.vXgXs s a a a a a x a a a c w a ZXZX&.*.{.}.{.].}.[.}.}.].].}.}.",
"ZXZXE.(.H./.^.^.^.OX^./.W.OXE.OXZXZX!.'.!.'.!.!.'.!.|.'.'.!.|.!.ZXAXa i x a c a a a a a a c a s ZXZX$.#.{.[.{.[.[.].].].].[.}.[."
};
