/* XPM */
static char *result[] = {
/* columns rows colors chars-per-pixel */
"64 64 255 2 ",
"   c #0E0E0E",
".  c #0F1212",
"X  c #131414",
"o  c #15191A",
"O  c #1A1C1C",
"+  c #28221B",
"@  c #181E20",
"#  c #1E2122",
"$  c #182729",
"%  c #183438",
"&  c #222525",
"*  c #292825",
"=  c #25292A",
"-  c #292D2D",
";  c #32312D",
":  c #243537",
">  c #2D3233",
",  c #313535",
"<  c #353836",
"1  c #353B3B",
"2  c #383E3F",
"3  c #463725",
"4  c #39413F",
"5  c #574533",
"6  c #65523A",
"7  c #78683B",
"8  c #1B3E41",
"9  c #135157",
"0  c #16575C",
"q  c #2A494D",
"w  c #3B4343",
"e  c #354B4B",
"r  c #155B65",
"t  c #155866",
"y  c #1E5A64",
"u  c #115A6A",
"i  c #235D66",
"p  c #245C6B",
"a  c #355C61",
"s  c #0E6366",
"d  c #1B636A",
"f  c #0C6D7A",
"g  c #1E6673",
"h  c #146B76",
"j  c #1E6A74",
"k  c #136678",
"l  c #156B79",
"z  c #1A6B7B",
"x  c #07717E",
"c  c #0C727E",
"v  c #15747D",
"b  c #266567",
"n  c #26636B",
"m  c #29646E",
"M  c #336368",
"N  c #276674",
"B  c #2A6472",
"V  c #226975",
"C  c #246C79",
"Z  c #356D78",
"A  c #26737D",
"S  c #357273",
"D  c #367179",
"F  c #3B7779",
"G  c #39737C",
"H  c #444745",
"J  c #434B4B",
"K  c #4F504A",
"L  c #4A5453",
"P  c #4F5958",
"I  c #505856",
"U  c #535D5C",
"Y  c #6A5947",
"T  c #56605E",
"R  c #786A4F",
"E  c #5A6463",
"W  c #5D6967",
"Q  c #477170",
"!  c #626D6B",
"~  c #65706E",
"^  c #73746F",
"/  c #6B7774",
"(  c #727E7C",
")  c #9C7436",
"_  c #C97A19",
"`  c #8E7353",
"'  c #38807F",
"]  c #528671",
"[  c #6D8D74",
"{  c #74817D",
"}  c #B68B35",
"|  c #E39719",
" . c #CA8C2B",
".. c #E9AE22",
"X. c #F6D12E",
"o. c #FEE83B",
"O. c #8A8558",
"+. c #948152",
"@. c #868D63",
"#. c #B18E6A",
"$. c #D39F5A",
"%. c #FFED48",
"&. c #FFF36B",
"*. c #067481",
"=. c #0E7381",
"-. c #127483",
";. c #1F7682",
":. c #197187",
">. c #177987",
",. c #1B7E8D",
"<. c #227684",
"1. c #237985",
"2. c #2B738A",
"3. c #297788",
"4. c #257C8A",
"5. c #297B8B",
"6. c #367B87",
"7. c #3D7C84",
"8. c #3A7E8A",
"9. c #247D91",
"0. c #427C85",
"q. c #757E82",
"w. c #11848D",
"e. c #1B808E",
"r. c #1C8291",
"t. c #1D8C9D",
"y. c #258289",
"u. c #23828C",
"i. c #36848B",
"p. c #3A828C",
"a. c #3A908E",
"s. c #298A98",
"d. c #338696",
"f. c #3D8592",
"g. c #348A96",
"h. c #3D8B96",
"j. c #358B9A",
"k. c #3C8D9A",
"l. c #2B929D",
"z. c #37919B",
"x. c #1D90A2",
"c. c #388DA1",
"v. c #2694A4",
"b. c #2E92A1",
"n. c #2E99AB",
"m. c #3292A2",
"M. c #3B99A6",
"N. c #339EB2",
"B. c #31A2AF",
"V. c #37A7B7",
"C. c #49878D",
"Z. c #5A8987",
"A. c #5B9588",
"S. c #448A94",
"D. c #498893",
"F. c #418C9A",
"G. c #548C96",
"H. c #499699",
"J. c #52949D",
"K. c #599798",
"L. c #5B949C",
"P. c #7B8885",
"I. c #739F8A",
"U. c #639A9C",
"Y. c #66A297",
"T. c #4299A6",
"R. c #4898A7",
"E. c #449BAA",
"W. c #5196A3",
"Q. c #5D94A1",
"!. c #589AA4",
"~. c #5097AD",
"^. c #529EAB",
"/. c #6196A2",
"(. c #639BA5",
"). c #6A9DA7",
"_. c #659DA9",
"`. c #709CA7",
"'. c #4EA1AC",
"]. c #5BA1A4",
"[. c #54A2AD",
"{. c #45A6B6",
"}. c #46A9B8",
"|. c #49A8B8",
" X c #4AAABA",
".X c #55A5B1",
"XX c #58A8B4",
"oX c #56AEBA",
"OX c #5AADBC",
"+X c #54B2B8",
"@X c #59B1BC",
"#X c #68A3A8",
"$X c #71ADAE",
"%X c #6DA8B3",
"&X c #72ABB4",
"*X c #74AAB8",
"=X c #74B1B9",
"-X c #3CB2C0",
";X c #4CB0C1",
":X c #63A6C1",
">X c #68BFCB",
",X c #66C3CB",
"<X c #6AC2CE",
"1X c #6EC6D2",
"2X c #828D8A",
"3X c #83918D",
"4X c #899693",
"5X c #8E9C99",
"6X c #919F9C",
"7X c #93A19E",
"8X c #99A9A5",
"9X c #A6AEAB",
"0X c #A3B2AF",
"qX c #ABBAB5",
"wX c #B3BDBA",
"eX c #CCB493",
"rX c #CABDA2",
"tX c #B5C5BC",
"yX c #BBD5B9",
"uX c #CACBB4",
"iX c #FFFAA2",
"pX c #B6C6C4",
"aX c #B9C6C4",
"sX c #BACAC5",
"dX c #BAC9C9",
"fX c #BBCED0",
"gX c #BCD7D9",
"hX c #BEE0DF",
"jX c #C4C4C3",
"kX c #C6CBCA",
"lX c #CDCECC",
"zX c #D5CBCD",
"xX c #D3CCCE",
"cX c #C7D6CB",
"vX c #C5D5CE",
"bX c #CCD2CD",
"nX c #D1D2CE",
"mX c #D1D9CE",
"MX c #CCCDD3",
"NX c #D2CED2",
"BX c #D9CDD7",
"VX c #C6D5D4",
"CX c #CAD5D5",
"ZX c #C5DAD4",
"AX c #C9D9D4",
"SX c #C5D4DC",
"DX c #CBD6DA",
"FX c #C6D9D9",
"GX c #CBDADA",
"HX c #D3D3D3",
"JX c #D9D4D6",
"KX c #D3D5D9",
"LX c #D1DCD9",
"PX c #C9D6E2",
"IX c #D8D3E4",
/* pixels */
"fXtXPXDXgXGXZXvXdXdXVXCXDXVXVXVXpXaXFXZXVXGXvXDXsXpXFXZXVXVXFXVXfXwXhXZXvXDXAXCXaXdXDXCXVXDXVXDXfXtXPXDXDXvXGXfXsXpXZXVXDXVXDXFX",
"tXuXgXVXVXDXVXDXdXdXVXVXDXVXCXVXaXzXgXDXFXSXZXPXdXpXVXFXDXDXVXVXtXxXhXPXDXPXVXPXdXdXVXDXVXAXVXAXtXyXgXZXVXVXVXCXdXsXAXAXZXVXAXVX",
"BXVXE.T.E.M.~.T.T.T.E.E.E.E.E.T.AXCX`.U.#X).Y.)._.(.#X_._.(.G.G.GXVXC.Q Q 0.F p.7.7.7.p.7.7.y y IXVXz v =.*.,.=.-.c -.=.=.-.-.v ",
"BXHXT.E.E.N.E.M.E.T.T.T.T.T.E.E.vXKX).).#X!.]._._._.).(.).).0.0.lXKXG 0.i.7.' p.0.0.0.0.0.0.y 0 zXmXc c =.f :.=.=.c c c c c x c ",
"CXmXM.M.3.1.5.y.4.4.9.4.3.u.T.T.zXJX`.).G.Q.U./.L.L.L.J.Q./.C.G.zXJXQ 0.B B p B b B n B p B 0 y NXHXc -.,.r.r.w.,.,.9.u.9.9.-.-.",
"BXzXM.E.u.u.5.4.y.4.4.y.4.u.T.E.mXbX(.#XQ.Q.K.L.Q.Q.Q.L.Q.Q.0.D.JXKX7.p.n C m m B N B B B B y p nXBXx -.e.>.u.,.,.,.e.e.e.,.=.*.",
"bXnXE.T.3.y.1.u.5.9.9.5.1.3.E.T.HXKX).#XG.Q.K./.K.K.U.K.L.K.C.Z.nXCXp.F p B b m b b b n b m 0 0 KXxX:.-.e.r.w.r.r.r.e.e.e.r.=.-.",
"nXJXE.M.y.u.4.2.4.4.4.y.1.4.E.T.MXKXU./.L.Q.K.J.L.G./.G.L.L.C.G.BXKX0.7.B B b B B n B B n m y y bXJXc =.w.e.e.5.,.r.e.e.e.e.c =.",
"HXHXE.T.4.3.4.4.4.4.4.4.4.,.E.E.NXnX_._.L./.L.Q.Q.W.L.Q.L.G.C.D.nXHX0.7.m m N b m m m m B n y y HXHX=.-.,.r.r.,.,.r.9.r.r.,.*.=.",
"NXNXT.M.4.4.4.4.y.4.u.4.4.4.T.T.HXCX)._.K.Q.L.Q.G.Q = : > : : q 9XJX0.7.b N m m N n m N m n y y NXHXf =.,.9.r.,.,.,.,.r.,.,.=.=.",
"KXHXE.E.9.5.9.4.1.4.4.4.9.4.E.T.KXlX)._.K.G.a   = J L L P T E P , > a 7.b n n n B m m b m m y y HXHX=.-.e.r.e.r.r.r.,.r.,.,.-.=.",
"HXnXM.E.4.y.5.4.4.y.9.4.4.4.T.T.KXNX`.G.# # 2 w w J L L P U E W ~ ~ P & q m N N m n m n m p y y HXHX*.=.e.,.,.9.,.r.,.,.,.,.=.f ",
"HXHXT.E.5.5.9.4.4.4.y.4.4.u.E.~.BXNXQ O > 1 1 w w w L L P U T ! 3X5X5XP.e % n n m m B n B B y y NXnX=.=.,.u.r.r.r.r.,.r.r.r.=.=.",
"HXnXT.M.9.4.9.3.1.4.9.9.4.u.M.E.BX2XO = > , 1 2 w J J J L / 2X4X6X8X0XqX8XE % g n n n n m n y y HXKX=.-.,.,.,.,.,.r.9.,.,.,.=.-.",
"HXHXE.E.E.T.T.T.E.E.T.T.T.M.T.E.2Xo = - - , , 2 w w J L E { P.3X5X8X8XqXwXwXW $ y y y y y i 0 y NXHX=.f =.-.=.=.=.=.=.=.=.-.f =.",
"HXnXT.M.E.E.E.T.E.E.T.T.E.E.E.6.X & = = : > , 2 w w w L / ( P.3X5X7X0X0XwXdXpXP q r y 0 y y y y HXHX=.=.=.=.=.-.=.=.=.=.=.=.=.=.",
"MXtXPXKXZXGXgXcXdXdXVXGXVXGXVX- # & & = - - < 1 2 w J U ~ ( P.P.4X7X8X0XqXpXvXqX& pXFXDXAXAXZXZXdXtXSXFXcXCXgXZXdXdXZXDXFXZXFXVX",
"qXyXgXGXZXDXDXvXsXsXvXZXAXvX2XO O # & = - , , 1 2 w w E ! / q.P.4X6X8X0XqXtXsXAX{ 2XAXvXAXvXCXvXaXlXgXSXvXCXfXLXsXsXvXAXAXvXZXAX",
"IXkXk.d.s.j.k.g.g.j.j.j.j.k.$ O O # & & = > > 1 1 2 w E ! / ( P.2X5X7X8X0XtXtX7XT . M XXXXXXXXXXDXkXy t 0 s s 0 r t t u t t r t ",
"BXKXm.g.c.s.j.l.g.j.j.g.j.A X o # # # * = - > , 1 2 J T ! ! ( q.P.4X6X8X8X8X4 T T - P.q XX[.#XXXHXHXt t s u 9 t s r t r t r d r ",
"bXbXs.g.%X+XOX+X@X.X@X@X.Xa o o O # # & = - > , 1 1 w U E ! / q.P.4X5X7X5XP.J 3XI 5XtXe F.R..XXXnXbX0 u k z C C V g V g j C 6.p.",
"JXJXm.j.;X@XOX+X@XoX+X@X+Xq X X O O # & = - > > 1 1 w P E ! ~ q.P.4X5X4X4XL ~ { , 0XO T m H..XXXBXJXt u g k C j V V V V V C p.S.",
"vXnXj.j.%X@X+X+XOXOXOX;XXXo X X o O # # = = - > , 1 2 L T ! ~ q.P.3X4X5X4XJ E U < I + ; q W.XX%XmXcXs u n A n V V V j C g j p.f.",
"HXnXj.l. X;X;X%X+X@XOX+XoX  X X o O # # & = - > , 1 2 H U E ~ / { P.4X5X3XJ L J ; < 6 Y < e XXXXNXJX0 t V j C j V V g C C j p.f.",
"HXnXg.g.OX@XoXoX@XoX@XoXoX  X X X O O # & = = > , 1 1 w P E ! / ( P.4X5XP.J , w O I + 6 ` Y L XXNXmXu r g j V V g V V C g g f.p.",
"HXxXz.j.OX@X@XoXoXoXoXoXXX    X o O O # & = = - > , 1 2 P T W / ( P.P.4X7X( > > # E & * + #.` a MXbXr t g j N V V V V C V g f.8.",
"KXnXg.s.%X;X;XXX@X@X@XOX@Xq   X X X O O & & = - > , 1 2 J U W ~ / { P.4X6X3X> = # & T L q * R ; KXnXu r g V C j V V g V g C f.f.",
"lXmXz.j.OXoX@X@XoXoX+XoX+XF.X . X O O O # & = - > > 1 1 2 P E ! / ( P.4X5X8X~ O O X J # 6.M 6 #.9XlXt r j j N V C C V V g V p.p.",
"HXJXg.g.@X+XoX@XOXoXoXoX@XoX    X O O O # # = = - > 1 , 2 J T ! ~ ( P.3X4X7X8X/ = & o S W.W.* ` K nXu r j j N g V V j g V C p.f.",
"HXnXz.j.OX@XOXOX@XoX@XoX@X@X@   X X X O # + & = - > 1 1 2 w L W ~ / P.P.4X6X8X0X6Xw f.R.R.W.; #.5 nXu r C j V j g g V g C C p.p.",
"MXJX,X,X1X>X>X1X<X<X<X<X<X>X!..   X O O O # & = - > > , 2 2 w U ! / ( P.3X5X8X8X{ $ 5.3.5.6.; ` Y mXr r p.i.8.p.f.f.f.p.f.6.f.f.",
"KXnX<X<X>X1X1X>X<X<X<X<X1X>X<X  X X X O O # & = = > > , 1 w w J L ! ( P.3X4X( ~ w n p.i.i.A < #.< HXu r f.f.f.p.f.p.f.f.f.p.f.p.",
"pXtXPXVXCXKXgXGXDXZXDXVXDXZXDX{ X X X o O # & & = > > > 1 2 w J J J P U T E W E H pXSXDXVX^ 6 ` q.uXPXMXZXAXVXZXpXdXDXVXDXVXVXDX",
"aXbXgXVXVXCXvXPXZXZXZXZXVXZXvXZX< o X o o O # & = - > > 1 2 w w J L L P T E E = wXdXVXVX9X; #.< wXtXhXGXfXVXDXCXsXsXvXVXAXvXAXAX",
"DXVX/.J.!.J.H.W.W.W.W.W.W.W.J.R.kX= X o o O # & = = > > > 2 2 w J J L P U T $ c.-X-X;Xc.* ` Y r BXVXz d z.j.z.g.g.d.g.g.j.d.g.s.",
"NXDXJ.J.^.W.W.W.W.W.W.W.W.W.J.W.BXkXo X O O # & = = > > > 1 2 w w J L P L # T.V.-X-XZ 3 #.6 % x.BXDXl h j.j.d.g.j.g.g.g.g.i.h.g.",
"nXHXJ.J.f.h.D.D.S.S.S.S.h.S.i.i.NXbXs % X o O # & = = > > < 2 w w J J > 8 v.B.B.N.8 6 ` Y 8 t.x.HXkXh h A A 3.v 1.;.<.<.;.1.g.g.",
"JXNXW.W.F.R.F.f.S.S.S.S.D.D.p.F BXBXk z p $ X # & = = > , < 2 w w X $ l.N.n.B.n.* 5 #.; S B.t.l.NXJXk z 3.v 1.>.v 1.;.<.;.1.g.g.",
"vXcXH.J.S.S.C.H.S.f.S.S.F.F.i.p.KXxX>.h 3.y.y 8 o o O # & o   @ q.zXV.;XN.B.B.- ` R > s.B.B.x.x.KXxXl f A y.<.;.1.3.<.<.<.<.d.j.",
"HXKX!.J.D.F.C.a.S.S.S.S.D.D.7.6.bXBXk h 5.;.9.5.1.A d y d j j.k.CXNX;X-XB.H.7 6 ` $ z.B.B.B.t.l.bXJXk l 1.v 3.2.1.1.;.;.1.v g.g.",
"BXHXW.W.S.S.D.S.S.S.S.S.S.S.7.i.KXbXz v 3.3.1.5.1.5.1.1.5.5.j.k.xXHXV.Y.B.B.3 #.; [ +.l.H.B.l.x.HXnXl h <.<.;.1.1.<.1.;.<.1.s.d.",
"HXnXW.J.S.h.D.h.S.S.S.S.S.S.p.6.HXxXz h 3.1.y.A 1.1.3.1.5.1.g.k.nXHX;X[ [ ` 5 6 7 [ A.[ [ B.x.x.NXbXh h <.<.,.;.v ;.1.;.1.1.g.g.",
"HXHXW.W.S.f.S.S.S.D.S.S.S.S.i.p.KXHXj h 3.1.4.5.5.3.4.3.5.5.h.k.HXHX;X+XB.Q _ 7 | [ B.B.H.[ a.t.KXnXj l <.<.1.1.1.<.1.<.<.<.d.d.",
"HXnXW.J.S.S.S.h.S.S.S.S.S.S.6.6.CXnXk h 5.1.1.1.1.4.3.<.<.1.g.g.mXHX-XI.M.5.| | .. .@.|  .B.x.t.HXnXk h <.<.;.;.1.1.1.<.<.v d.g.",
"HXbXW.J.S.S.S.S.D.S.D.S.S.D.p.6.KXHXz h 3.1.3.5.1.1.4.1.5.5.z.c.bXlXY.@.@.O...o.o.X.X...A.n.s.t.HXMXh h <.<.1.1.;.;.;.;.<.1.d.j.",
"HXHXW.!.S.S.S.S.S.S.S.f.D.S.p.i.HXbXz l 3.1.1.5.3.3.3.1.5.3.h.g.uX$.[ Y.} X.o.&.iXo...[ B.[ +.l.HXHXz h <.;.;.<.1.<.1.<.1.1.d.d.",
"NXnXW.J.p.i.p.i.p.p.p.i.i.i.7.6.KXnXk.j.F.z.j.h.k.j.k.g.k.g.c.k.zXzXS.z.[ | o.&.iX%.X.} a.t.t.t.HXnXh h z l l h l h h h l s v h ",
"HXHXW.J.p.6.7.i.6.8.6.6.8.7.6.p.HXnXk.k.k.z.j.z.k.j.k.k.k.g.k.g.xXeX] ) | | X.o.%.o. .) ) [ t.x.HXnXh h z h h h l h l l l h h h ",
"pXwXFXZXAXCXcXDXVXZXZXZXFXAXZXFXfXtXSXDXvXDXZXAXpXdXAXVXAXVXDXAXdXwXuXrXrXuX .X...X.$.FXZXkXAXVXdXpXPXVXVXAXZXZXdXdXZXFXVXVXDXFX",
"dXzXgXGXSXPXZXPXVXVXDXVXSXVXVXVXtXlXgXPXZXMXVXKXsXsXvXvXAXvXvXvXwXjXgXeXlXPX$.$.eX..$.DXkXbXrXVXtXyXFXgXVXVXkXDXsXpXvXAXAXVXGXVX",
"FXMX/.U.K.U.U.U./.Q.(.Q.(.(.Q.).KXvX(.~.[.^.XX^.[.E.[.'.[.'.[.'.GXDXK.Z.[ ^ O.Z.D.[ _ J.O.Z.m i IXCXz -.-.=.9.*.-.=.>.>.-.-.>.v ",
"CXHX/.(.]._.K.(././.(.U./.).L.Q.zXHX^..X[.[.[.^.[.[.[.[.[.[.[.[.bXKXG.G.+.Z.A.` G.O.( Z.[ G.p i NXAXv v -.-.:.>.>.=.-.=.=.c >.-.",
"JXzX).U.%X*X$X*X&X&X&X&X&X%X#X#XxXCX.X~.h.f.H.z.k.F.k.k.F.k.R.^.xXJXG.Z.7.2.Q R Z T F Z D G i b nXnX>.=.c.v.c.l.m.j.m.m.m.m.|.|.",
"mXbXU.L.:X*X$X&X*X*X*X*X*X%X_._.JXHXXXXXk.z.h.j.h.h.h.h.a.F.[.XXmXCXC.D.Z 6.Z Z 6.6.7.Z D Z i p xXJX=.-.M.s.M.l.b.m.m.m.m.m. X X",
"xXHX(.U.&X&X$X&X$X$X$X$X$X$X#X!.cXbX[..Xa.a.D.S.S.F.S.S.F.S.^.^.nXCXG.G.Z Q D G S S S S F S i i GXxX>.:.l.M.t.b.b.m.m.b.b.b.}.}.",
"HXKXL.(.&X*X$X&X&X%X&X&X&X&X_.).BXJX~.[.a.j.F.F.h.k.h.z.F.k.[.[.BXKXD.Z.G G S Z D G Z D D S i i nXzX:.-.b.l.m.c.b.m.l.m.m.l.|.|.",
"jXjX/._.$X&X&X%X&X&X&X&X&X&X(.(.jXjX~.'.k.k.k.h.k.F.h.h.k.h.[.[.jXjXG.D.D G Z G D D D D G D b i jXjX-.-.b.j.b.m.m.m.s.c.m.b.|.{.",
"kXjXQ.Q.$X&X=X*X&X&X&X&X&X&X#X(.jXuX^.'.F.k.F.F.F.F.h.F.F.h.[.[.jXjXG.G.S G Z 7.F F D D G D i i jXkX-.-.b.j.n.b.m.m.l.m.b.b.|.{.",
"NXMX(.Q.$X*X&X=X&X&X&X&X&X&X(.(.KXnX[.[.F.k.f.h.h.h.h.k.k.h.[.[.HXkXG.G.Z Z Z D D D Z D D D p i NXlX:.-.b.m.b.m.b.m.l.m.m.m. X X",
"HXHXU./.$X*X%X&X&X&X&X&X&X%X(.(.HXHX'.'.S.F.k.h.k.F.k.h.h.h.^.[.JXmXG.G.S 7.D D D D D G G F m i NXNX-.-.m.m.b.m.m.m.m.m.b.m.{.{.",
"HXHXQ.(.$X&X&X&X&X&X&X&X&X&X#X(.KXnX[.'.F.F.k.F.F.F.k.k.k.F.[.[.lXHXG.G.S Z D G D F D G D Z i y HXKX-.-.b.m.b.m.b.c.b.b.b.m.}. X",
"HXHX(.(.$X%X%X%X%X%X&X*X&X&X#X(.xXnX[.'.F.S.h.F.k.h.h.h.h.k.^.^.HXJXG.C.D Z D G Z G D D D Z b b nXHX-.-.m.c.b.b.b.s.b.c.c.b.{.{.",
"NXHXQ.(.#X).!.(.).#X#X_.(.#XL.(.HXHXXX[.^.[.^.[.[.[..X[.^.^.XX[.HXlXp p i i p i i b i i b m y i HXHX-.>.}.|.}.}.;X{. X}.{.{.;X{.",
"CXHXQ.(.K.).#X(.(.(.(._.Q.#XQ.#XHXbX^.[.^.[.^.^.[.^.[.[.[.^.[.^.HXKXi i i i b i i i i i i i y p HXNX-.-.}. X}.{.{.{. X{.|.{. X{."
};
