/* XPM */
static char *result[] = {
/* columns rows colors chars-per-pixel */
"64 64 252 2 ",
"   c #0E0E0E",
".  c #0F1212",
"X  c #131414",
"o  c #161718",
"O  c #161919",
"+  c #1A1C1D",
"@  c #1A1E1E",
"#  c #1E2121",
"$  c #1B2A2C",
"%  c #182F33",
"&  c #183438",
"*  c #222525",
"=  c #292825",
"-  c #26292A",
";  c #292D2E",
":  c #32302A",
">  c #2D3233",
",  c #293A38",
"<  c #313536",
"1  c #363937",
"2  c #353B3B",
"3  c #393E3E",
"4  c #4B3B2A",
"5  c #3B403F",
"6  c #514536",
"7  c #6C5339",
"8  c #243F42",
"9  c #144F55",
"0  c #16575C",
"q  c #3C4343",
"w  c #394948",
"e  c #2D5055",
"r  c #155B65",
"t  c #155867",
"y  c #1D5A64",
"u  c #115A6A",
"i  c #235D65",
"p  c #245D6D",
"a  c #146369",
"s  c #0C6C7A",
"d  c #1E6773",
"f  c #146B76",
"g  c #1A6876",
"h  c #156B7A",
"j  c #1A6B7B",
"k  c #07717E",
"l  c #0C727E",
"z  c #17747D",
"x  c #266567",
"c  c #26636B",
"v  c #29646E",
"b  c #34646F",
"n  c #276774",
"m  c #2A6472",
"M  c #226975",
"N  c #246C79",
"B  c #356E79",
"V  c #27737C",
"C  c #387575",
"Z  c #367179",
"A  c #39737C",
"S  c #414746",
"D  c #434B4B",
"F  c #595245",
"G  c #4B5453",
"H  c #4C5656",
"J  c #535D5C",
"K  c #6C5A45",
"L  c #59685F",
"P  c #746F50",
"I  c #5B6563",
"U  c #5B6765",
"Y  c #497872",
"T  c #676768",
"R  c #626D6B",
"E  c #65716F",
"W  c #706E71",
"Q  c #6A7775",
"!  c #717E7B",
"~  c #A37129",
"^  c #C17E39",
"/  c #8F7552",
"(  c #38807F",
")  c #68846B",
"_  c #6D8973",
"`  c #74827D",
"'  c #B38638",
"]  c #D98D1C",
"[  c #E69F1C",
"{  c #E8A71E",
"}  c #D08A2D",
"|  c #E9B023",
" . c #F7D430",
".. c #FEE93F",
"X. c #908657",
"o. c #838A69",
"O. c #B18D69",
"+. c #D29B5D",
"@. c #C89E6F",
"#. c #FEEF50",
"$. c #067481",
"%. c #0E7381",
"&. c #127483",
"*. c #1F7682",
"=. c #197187",
"-. c #177A87",
";. c #1B7E8D",
":. c #227684",
">. c #237985",
",. c #2B738A",
"<. c #297788",
"1. c #257C8A",
"2. c #2A7B8B",
"3. c #377A86",
"4. c #3D7C83",
"5. c #397E8A",
"6. c #247D91",
"7. c #447C85",
"8. c #887F85",
"9. c #11848D",
"0. c #1B808E",
"q. c #158590",
"w. c #1C8291",
"e. c #1E8D9E",
"r. c #24828C",
"t. c #37858A",
"y. c #3A828C",
"u. c #2A8A97",
"i. c #318694",
"p. c #3D8592",
"a. c #348A95",
"s. c #3D8A96",
"d. c #37859A",
"f. c #358B9A",
"g. c #3D8D99",
"h. c #28929E",
"j. c #36919B",
"k. c #228FA0",
"l. c #378DA1",
"z. c #2292A3",
"x. c #2E92A1",
"c. c #2D9BAB",
"v. c #3292A2",
"b. c #3B9AA7",
"n. c #2D9EB1",
"m. c #329EB1",
"M. c #33A1AD",
"N. c #2DA2B3",
"B. c #32A1B2",
"V. c #4A878C",
"C. c #54888A",
"Z. c #4C908F",
"A. c #448A94",
"S. c #4A8893",
"D. c #418C9A",
"F. c #528B94",
"G. c #558C98",
"H. c #48959B",
"J. c #52949D",
"K. c #5A9799",
"L. c #5B949C",
"P. c #7A8784",
"I. c #67958E",
"U. c #649A9B",
"Y. c #62A39E",
"T. c #4299A6",
"R. c #4798A8",
"E. c #449BAA",
"W. c #5196A3",
"Q. c #5D94A1",
"!. c #599AA4",
"~. c #5097AD",
"^. c #529EAB",
"/. c #6196A2",
"(. c #639BA5",
"). c #6A9DA7",
"_. c #659DA9",
"`. c #709CA7",
"'. c #4DA3AC",
"]. c #5BA1A3",
"[. c #53A2AD",
"{. c #45A6B6",
"}. c #49A8B7",
"|. c #46A9B8",
" X c #4AAABA",
".X c #55A7B3",
"XX c #56AEBA",
"oX c #5AADBC",
"OX c #55B2B8",
"+X c #59B1BD",
"@X c #68A3A8",
"#X c #71ADAE",
"$X c #6DA8B3",
"%X c #72ABB4",
"&X c #74AAB8",
"*X c #74B1B9",
"=X c #3CB2C0",
"-X c #51B0C1",
";X c #63A6C1",
":X c #67BECB",
">X c #66C3CB",
",X c #6AC2CE",
"<X c #6DC5D1",
"1X c #70C3D3",
"2X c #808E8B",
"3X c #83908D",
"4X c #9C938D",
"5X c #8A9895",
"6X c #919D9C",
"7X c #94A29E",
"8X c #ADA49F",
"9X c #9BAAA6",
"0X c #A5B2AD",
"qX c #ADB6B3",
"wX c #AAB9B5",
"eX c #D4B391",
"rX c #B6C5BC",
"tX c #B6CFB9",
"yX c #C3CAB7",
"uX c #B8C6C5",
"iX c #BACAC5",
"pX c #BAC9C9",
"aX c #BBCDD1",
"sX c #BCD7D9",
"dX c #BEE0DF",
"fX c #C4C4C3",
"gX c #C6CCC9",
"hX c #CECECC",
"jX c #D4CCCD",
"kX c #C7D6CB",
"lX c #C5D5CE",
"zX c #CDD3CD",
"xX c #D1D2CE",
"cX c #D1D9CE",
"vX c #CACDD3",
"bX c #D3CED2",
"nX c #D9CDD6",
"mX c #C5D5D4",
"MX c #CAD5D5",
"NX c #C5DAD4",
"BX c #CAD9D4",
"VX c #C5D5DD",
"CX c #CAD6DA",
"ZX c #C6D9D9",
"AX c #CBD9DA",
"SX c #D3D3D3",
"DX c #DAD2D4",
"FX c #D3D5DA",
"GX c #D7D7D8",
"HX c #E0E7DC",
"JX c #C8D6E3",
"KX c #D8D2E4",
/* pixels */
"aXrXJXCXNXCXNXNXuXpXmXmXCXMXmXmXuXrXVXBXlXAXNXMXpXuXBXZXmXVXBXNXpXwXdXsXlXCXMXMXuXpXMXCXmXMXmXMXaXrXJXCXmXmXAXaXuXuXmXmXAXBXAXVX",
"rXyXsXBXVXMXmXMXuXpXmXmXMXmXBXmXuXjXsXJXZXVXmXAXpXuXVXmXCXCXmXmXfXjXsXJXVXVXmXJXuXpXmXCXmXAXmXBXrXtXsXNXNXvXmXBXiXiXBXBXmXmXMXlX",
"nXmXR.T.m.E.~.T.T.T.E.R.E.T.E.b.BXMX`.(.@X(.Y.).@X(.@X_._.(.F.F.AXmX7.Y Y 4.A V.4.4.4.4.4.4.y y KXmX*.h %.$.;.%.&.k &.&.l &.&.&.",
"nXSXT.E.E.b.E.b.E.E.E.T.T.b.^.R.kXFX).).@X@X].!._.)._.(._.`.7.7.MXFXY A.5.5.( 4.7.7.4.V.7.7.y r jXcXl l %.k =.&.%.l l l l l k k ",
"MXcXb.b.<.V 2.r.1.1.1.1.1.r.T.b.DXSX`.).G.Q.U.(.K.L.L.J.L./.S.F.jXDXY 7.n m p b c m c m m m 9 y SXSXk &.;.w.r.q.;.;.6.r.r.6.&.&.",
"nXjXb.E.r.r.2.>.r.1.r.1.1.r.E.R.xXMXU.@XG.Q.K.G.Q.Q.Q.L.Q.Q.7.S.DXMX3.t.d m x m m m m n p m y p jXDXk &.0.-.r.-.;.;.w.0.w.;.%.%.",
"MXxXE.T.2.r.>.r.2.1.6.2.1.1.R.T.SXSX@X).L.Q.L./.K.G.K.F.K.K.V.C.jXFXV.A p m x m x x x x v v 0 0 FXbX=.&.0.w.9.q.w.w.0.0.w.w.%.&.",
"xXDXE.b.r.r.>.2.1.1.1.1.>.1.T.T.hXFXU.(./.G.K.J.L.L.U.L.Q.L.C.S.SXFXy.A m m x n m c n m c v y y zXDXk %.q.0.0.2.;.w.0.0.0.0.k %.",
"SXSXE.b.6.>.1.1.1.1.1.1.1.;.E.E.MXhX)._.L./.L.Q.L.L.Q./.Q.7.e e 3 5 8 b m m c v v v v v v v y y SXSX%.&.;.r.w.;.;.;.0.w.;.;.%.%.",
"bXxXE.b.2.1.1.2.1.1.6.1.r.>.T.T.FXSX@X_.K./.L.L.G.Q.F.e + o @ - ; > < < X   9 p v v v v v c y y bXbX$.%.;.;.w.;.;.w.;.w.;.;.%.%.",
"GXSXR.E.1.2.1.1.1.1.1.1.6.1.E.T.SXhX_._.K.L.L.L.U.e o o + * * ; ; > < 2 3 q w O o i v v v v y y SXFX%.&.w.w.w.;.w.w.w.w.0.6.%.%.",
"MXxXb.T.<.6.1.1.1.r.1.1.1.1.T.T.FXSX`._.K.L.Q.F.; o + + # * - ; > < 2 2 q q D D G ; & x v p y y SXSX%.&.;.;.;.;.;.;.;.6.;.;.%.k ",
"SXSXE.E.2.1.6.1.1.1.6.1.1.r.E.'.MXhX)._.U./.7.# o o + # * * - ; > > 2 3 3 S D G G H w & m m y y bXSX%.%.w.0.w.r.w.w.w.6.w.w.%.%.",
"bXxXT.b.2.6.6.2.>.1.1.1.1.r.l.E.GXGX(.(.L.7.X X o o + # * * - ; > < 2 3 q S D D H J I H % v y y SXSX%.&.;.;.0.;.;.;.;.;.;.;.%.%.",
"SXSXR.E.E.T.E.T.E.E.E.T.b.T.E.E.bXhXG.G.C.$   X o + @ # * * ; ; < < 2 5 q D D G H J I U D & 0 y bXSX%.k &.%.%.&.%.&.%.%.%.&.k l ",
"SXxXT.b.E.E.E.T.T.E.T.E.E.E.T.T.bXbXF.7.e   X X o + # # - - ; > < 2 3 q S D G I E U U U R > 9 i SXbX%.l %.h $.&.%.%.%.%.%.&.k &.",
"vXrXJXFXsXFXsXkXpXpXmXAXmXAXmXMXvXwXJXBXO   X X + + @ * * - ; < < 2 3 q D H R ! P.5X5X5X! Q q NXpXrXVXBXkXBXdXNXiXiXBXZXVXNXBXMX",
"rXtXsXAXNXMXBXBXiXiXlXBXBXlXAXlXiXtXsXrX. . X o + + # * - ; ; < < 2 q q H R E ! P.P.5X7X9XP.3 wXuXhXsXVXiXsXsXGXtXiXlXNXlXNXBXNX",
"KXgXg.i.u.f.g.f.f.f.f.a.f.f.<X<XKXgX~.&   X X O + + # * - ; > < 2 3 q G U E Q ` P.5X6X9X0X0XQ e CXvXy t 0 r a 0 u t u t r t r u ",
"bXGXf.f.l.u.d.h.a.a.a.a.a.a.,X,XSXBXb.    X o O + # * * - ; > < 2 3 D J R E ! P.P.5X7X9X0XwX9X, bXMXy t r u 0 y a r r r u r p r ",
"kXkXu.i.+X+X$XOXOXXXXX+XXXXX<X:XzXzXj.X X X X + + * * - ; > > < 2 q H I T E ` P.P.5X9X9X0XrXwXq fXzX0 u a j M N M M M d d M y.y.",
"DXDXj.f.+XOXOXOX+XXXXX+X.X+X,X,XGXjXi   X X o + @ # * - ; > < 2 3 q J I R Q ` P.5X7X9X0XwXrXpXH 8XDXt u g g N g c M M M M M y.A.",
"MXhXf.f.oXOXOXOXoXoXoXoXXXXX:X1XBXbX% X X o o + # # - - ; > < 2 3 G J U E ! ` 2X`.7X9X0XwXuXiXQ 7XgXr u M V c M j N d N M j y.y.",
"SXbXf.j. XOX-X;X+XOXOXXX+XXX>X,XhXDX%   X o + + # * - - > > 2 2 3 H I R Q ` P.3X5X7X9X0XrXuXlX` 8XFXu t n d M j M M M M M M y.p.",
"GXhXf.a.oX+XXXXX+XXX+XXX+X+X:X<XSXSX% X X o + + * * - ; > < 2 2 q J I R Q ! 2X3X6X7X7X0XrXpXkXE 0XcXu r M g M M d M M N d d p.y.",
"SXhXf.j.oXXXXXoXXXXXXXXXOXoX,X,XDXGX9 X o o + # * * - ; > < 2 3 G J R E ! ` 2X5X6X3X5X3XJ G rX< fXzXu r d d n M M M M N d d p.y.",
"GXxXa.u.oXOX+XXX+X+X+XoXOX+X,X<XbXhXv X o + @ @ * - ; ; > < 2 3 H I R E ! P.3X5X5X5X! < P.Q 1   nXxXa u M M M M M M d M M M p.p.",
"zXxXa.j.oXXXoXXXXXXXOXXXXXXX:X,XGXSXy.  o + @ * * - ; > < 2 3 q J I R Q ! 2X3X6X2X! < P.P.T D w W hXr 0 d d M M M N M M M M y.y.",
"GXSXa.i.-X+XoX+XoXXXXXXX+X-X,X1XhXbXb.$ O + @ * * - ; > < 2 3 q J U R ! ` 2X5X6X3X< G J D D rXuX1 xXr r M g M M d M M d M N y.p.",
"SXxXj.a.oX+X+X+X+XXXXXXX+X+X:X>XhXGXb.v O + # * * ; > > < 2 q q J R E ! P.3X5X6XJ > S 5 5 I = 2XT hXr r N d M M d M M d N N y.y.",
"bXGX>X>X1X>X,X,X,X,X,X,X<X:X1X,XSXSX;.h . @ * * - ; > < 2 3 3 q H E Q ` P.3X5X5X1 2 3 + T = = D 0XcXu r y.y.y.y.p.p.p.5.y.t.p.p.",
"GXhX,X,X1X,X1X:X,X,X,X,X<X:X,X:XSXSX&.&.u o # * - ; > < 2 3 q S G E ! ` 2X5X7X6X; ; = 1 X / : $ bXxXu r p.s.5.y.p.y.p.p.p.y.p.y.",
"uXuXZXmXBXFXsXAXmXNXBXmXmXZXNXBXaXiXJXFXMXS # $ - > > < 1 5 q D D R ! P.2X5X7X9Xo * o T = 4 O.5 pXuXJXbXNXBXmXNXuXpXMXmXMXmXmXAX",
"uXhXsXmXmXMXlXAXZXZXBXmXBXBXaXNXuXyXsXNXsXiX> - ; > < 2 3 5 w D G H ! P.3X6X9X0X1 o o I # : 7 1 0XyXsXAXaXVXMXMXiXiXmXBXBXmXNXmX",
"CXvX/.J.!.W.H.W.W.J.W.W.W.W.J.W.FXmXd g f g g O $ > < 2 3 q D D D H J ! 5X6X9X9X9X3 X I q % K / 5XmXg a j.f.g.a.a.i.f.a.f.a.a.i.",
"MXCXJ.J.^.W.W.J.W.W.W.W.W.^.W.J.nXSXj h h h f f & + < 2 3 q D D G H J I U Q P.P.E ; 9 & n a.4 / 8.FXj h f.f.i.u.a.a.a.a.a.i.g.a.",
"xXSXJ.H.s.d.S.S.A.A.V.A.A.A.t.t.SXkXf f V t.V V >.M O X 1 S S D H H J I U E U 3 & c.m.m.B.2.7 P qXgXf f N :.<.z :.:.:.:.:.>.a.a.",
"DXbXW.!.D.R.A.s.D.D.A.A.A.A.4.3.bXnXg j <.V r.0.>.>.>.j 9   X < D G D D > % 9 u.m.B.M.m.m.2 K F bXDXh j ,.z >.-.z >.:.:.:.z a.a.",
"zXlXH.J.A.A.V.A.A.A.A.s.D.A.5.t.FXjX&.f <.r.:.>.<.V <.2.<.<.s.n W W y ,.i.M.N.N.N.n.B.m.u.: / 2 GXjXh f V r.V *.>.2.:.:.:.:.a.a.",
"SXFXL.J.S.D.V.s.A.A.A.A.S.D.5.5.zXnXh f 2.-.2.2.<.r.>.r.r.V j.j.MXSX-X=XN.M.N.b.M.m.B.i.= / F -.zXDXs h :.z 2.,.V >.z :.:.:.a.i.",
"SXSXW.W.A.s.S.A.A.A.A.A.A.A.5.4.FXhXj f <.>.1.<.r.>.<.<.<.A h.j.xXDX X-XN.M.M.M.u.V 2 : O.K , e.SXxXh f :.>.;.>.-.:.>.*.>.>.a.a.",
"SXxXW.J.A.p.A.s.A.A.A.A.A.A.5.5.SXxXh f 2.<.>.>.>.*.>.>.r./ _ j.@.4Xw 1 1 - = : 6 6 O.X.F , z.e.hXhXf f :.:.:.>.:.:.>.:.>.*.i.f.",
"SXSX!.W.A.s.S.A.A.A.A.A.A.A.3.5.SXSXh f <.>.r.2.0.V ( >.C ) t.L 4 K 7 O./ @./ @./ P 6 - V m.z.e.FXSXg h :.:.>.*.:.*.>.*.*.*.i.a.",
"SXSXW.J.A.A.A.p.A.A.A.A.A.A.3.5.SXSXg f 2.<.>.>.( P Y ( L r.P 7 7 / 6 , , $ % , e M u.B.B.B.z.z.SXSXf f :.:.*.*.>.>.>.*.*.*.i.a.",
"SXzXW.J.A.A.S.H.A.A.A.A.A.A.y.4.GXSXg f 2.:.2.>.V ) Y ~ Y *.~ ^ 6 7 X.Y.M.M.N.M.m.m.m.B.n.n.e.e.SXhXf f :.:.:.>.*.*.*.*.*.>.f.f.",
"SXSXW.W.A.A.S.s.A.A.A.A.A.A.y.t.SXzXj f :.<.<.2.P Y V P ] ~ { ] ~ } '.X.N.M.N.M.m.m.B.B.m.m.z.z.SXSXh h :.*.*.:.:.:.:.:.>.>.i.i.",
"bXcXW.J.y.t.5.t.y.y.y.t.y.y.3.3.GXSXg.j.T.g.j.a.V.X.X.X.|  .#... .eXh.Z.) t.z.e.k.k.k.z.e.z.e.e.SXzXg f j h h f h f f f f f h h ",
"bXSXW.J.y.3.3.t.3.5.5.3.4.5.3.y.SXhXf.f.s.g.f.g.u.) ] | ..#.#.#.| ] ) u.h.u.z.h.k.k.e.e.e.z.e.z.SXxXf f j f f f h f h f h f h f ",
"uXqXdXAXBXMXlXBXmXBXZXBXZXBXNXZXaXrXVXCXkXCXNXBXeXrXyX}  .#.HX#.#. .{ ] +.zXlXMXuXpXNXBXNXmXAXmXaXiXJXMXmXNXNXNXuXpXmXBXmXmXAXVX",
"uXjXsXAXZXVXZXJXmXVXBXmXmXVXmXmXuXhXsXVXBXCXVXFXuXrXBX+. .#.#.#.[ } yXAXVXVXNXVXuXpXmXBXmXAXmXMXwXtXZXNXNXmXvXBXuXuXmXNXBXmXBXBX",
"AXvX).U.K.L.U.U./.!.(.Q./._.Q.(.FXgX_.~.[.[.[.^.' o._ } } |  .{ { fXI.Q F.C.C.F.S.G.F.G.S.S.v i KXvX*.l %.%.;.%.&.&.-.-.-.&.&.&.",
"MXSX/./.@X!.K./././.U./.(.(.Q./.jXSX^..X[.^.[.^.OX].o..X^.[ [ I.+.@.F.o._ S.F.S.F.F.F.F.F.F.i i SXBXz z =.&.=.-.-.%.&.l %.l -.&.",
"DXDXU./.$X&X%X&X%X$X%X%X%X%X@X@XbXBX[.~.p.g.g.H.j.g.X.( F.} X.[.jXeXI.C.3.b Y 3.Z B Z B Z 3.0 v SXzX-.%.v.x.x.h.x.l.v.v.v.v.}.}.",
"xXzX(.K.*X&X#X%X&X%X&X%X%X$X_._.DXSX.X.Xg.g.j.u.g.g.) A._ ~ Y.I.DXyXC.F.B 3.B B 3.3.3.B Z B i p hXDX%.&.b.u.b.j.f.v.v.x.v.v. X X",
"zXSX(.U.%X$X#X&X%X#X#X#X#X#X(.@XkXkX].[.t.s.A.Z.D.D.D.D.A.C.[.X.FXeXF.F.B Y C Z C C B C C C i x FXjX=.=.x.v.h.x.x.c.x.x.x.h.|.|.",
"SXSXL.(.%X&X#X%X%X%X%X%X%X%X_.(.DXDX[.[.j.j.D.D.g.D.p.g.g.g.[.Y.FXSXC.F.B A C B B C B B Z B i i SXxX=.%.x.h.c.d.f.x.x.j.v.v.}.}.",
"fXfX/._.#X%X&X$X%X%X%X%X%X%X(.(.fXfX[.'.D.g.D.s.g.D.s.g.g.s..X[.fXfXS.G.Z A B Z Z Z Z C Z Z i i fXfX-.&.x.f.x.v.x.v.f.x.x.x.}.{.",
"gXfXQ.!.#X%X*X%X%X%X%X%X%X%X(.(.fXfX^.R.D.D.g.g.D.D.s.D.D.s.[.[.fXgXG.G.Z A Z A A A Z A A Z i i fXfX&.%.x.f.c.v.v.v.x.v.x.x.}.{.",
"bXbX/./.#X%X%X*X%X%X%X%X%X%X@X(.SXxX[.[.D.A.s.p.s.g.s.s.s.g.[.[.SXhXG.G.C A Z Z Z Z B Z Z C c i bXSX=.&.x.v.x.x.x.x.x.x.x.x. X X",
"SXFX/./.#X%X$X%X%X%X%X%X%X%X(.Q.SXSX[.'.D.D.s.g.g.D.g.s.s.s.^.[.GXhXG.S.B A B A Z C Z A A A x i bXhX&.&.v.v.x.v.v.v.v.v.x.l.{.{.",
"MXSX/.(.#X&X%X%X%X%X%X*X%X%X@X(.SXSX[.[.s.H.g.g.D.g.D.g.g.D.[.[.hXSXG.G.C B Z Z Z A Z A Z B i i SXFX&.&.x.v.x.v.x.x.v.v.v.v.|. X",
"bXSX(.(.#X%X$X%X$X%X$X%X%X#X_._.hXxX^.'.D.g.p.A.g.p.s.g.s.g.^.^.SXGXC.V.C B Z A Z A Z Z Z B x i bXSX&.&.v.l.x.x.d.x.x.x.v.v.{.{.",
"bXMXQ./.Y.).(._._.(.(.@X(.@XQ.(.SXSX.X[.^.[.^.[..X[.[.[.^.^..X[.bXhXp p i i x y i x i i i v y i SXSX&.-.|.}.|. X|.|. X}.{.{. X X",
"SXSX/._.K.(.(._.(.(.(.@XQ.@XQ.@XSXxX[.[.^.[.^.^.[.[.[.[.[.[.[.^.SXFXi i x i p i i i i i i x y x SXbX&.&.|. X|.{.{.{.|. X{.{. X{."
};
