/* XPM */
static char *result[] = {
/* columns rows colors chars-per-pixel */
"64 64 247 2 ",
"   c #0E0F0F",
".  c #131314",
"X  c #131718",
"o  c #151A1A",
"O  c #1A1C1C",
"+  c #1B1F20",
"@  c #1E2122",
"#  c #17292B",
"$  c #173035",
"%  c #222525",
"&  c #252727",
"*  c #262A2A",
"=  c #2A2E2E",
"-  c #332D25",
";  c #35332B",
":  c #273737",
">  c #2D3233",
",  c #313636",
"<  c #383933",
"1  c #353B3B",
"2  c #383E3E",
"3  c #43382B",
"4  c #36413E",
"5  c #4B4235",
"6  c #69543E",
"7  c #1C3C41",
"8  c #12535A",
"9  c #1A565B",
"0  c #3C4343",
"q  c #275056",
"w  c #37625C",
"e  c #155965",
"r  c #1D5A63",
"t  c #235D65",
"y  c #245D6D",
"u  c #14626A",
"i  c #0C6D7A",
"p  c #136A76",
"a  c #1B6877",
"s  c #156B79",
"d  c #07717E",
"f  c #0C727E",
"g  c #16747D",
"h  c #266466",
"j  c #26636B",
"k  c #29646E",
"l  c #276674",
"z  c #2A6472",
"x  c #226975",
"c  c #246C79",
"v  c #366D78",
"b  c #287278",
"n  c #367677",
"m  c #36717A",
"M  c #39737C",
"N  c #434C4B",
"B  c #4C514E",
"V  c #4B5454",
"C  c #4B5554",
"Z  c #565557",
"A  c #525C5B",
"S  c #6F5A45",
"D  c #54685C",
"F  c #677557",
"G  c #5A6563",
"H  c #5C6766",
"J  c #4D7A73",
"K  c #626C6B",
"L  c #64726E",
"P  c #6A7774",
"I  c #737D7A",
"U  c #93672B",
"Y  c #B17A29",
"T  c #8D7551",
"R  c #A07040",
"E  c #38807F",
"W  c #7D815C",
"Q  c #728A72",
"!  c #74817E",
"~  c #BD8029",
"^  c #D9931C",
"/  c #E3981A",
"(  c #D49129",
")  c #EBB122",
"_  c #F6D02F",
"`  c #FEE738",
"'  c #A68841",
"]  c #AE8B69",
"[  c #D79F61",
"{  c #FFEB43",
"}  c #FFF672",
"|  c #067481",
" . c #0E7381",
".. c #127484",
"X. c #1E7682",
"o. c #197186",
"O. c #177987",
"+. c #1B7E8D",
"@. c #227684",
"#. c #227985",
"$. c #2B738A",
"%. c #297788",
"&. c #257D8B",
"*. c #297B8C",
"=. c #377A86",
"-. c #3D7C83",
";. c #3A7E8A",
":. c #247D91",
">. c #437986",
",. c #427D85",
"<. c #11848D",
"1. c #1B808E",
"2. c #158590",
"3. c #1C8291",
"4. c #1E8D9E",
"5. c #24828C",
"6. c #368488",
"7. c #3A828D",
"8. c #278894",
"9. c #2C8E9D",
"0. c #338696",
"q. c #3D8592",
"w. c #348A95",
"e. c #3D8B96",
"r. c #348B9B",
"t. c #3D8D99",
"y. c #2A929E",
"u. c #36919B",
"i. c #248EA0",
"p. c #378DA1",
"a. c #2594A4",
"s. c #2E92A1",
"d. c #3292A2",
"f. c #3A99A6",
"g. c #3C9CAC",
"h. c #2E9FB1",
"j. c #309FB1",
"k. c #36A0AF",
"l. c #33A3B3",
"z. c #4C858E",
"x. c #48888C",
"c. c #518B8C",
"v. c #4D8691",
"b. c #468895",
"n. c #448A94",
"m. c #4D8A93",
"M. c #418C9A",
"N. c #528B93",
"B. c #558D98",
"V. c #48959B",
"C. c #52949D",
"Z. c #5A9798",
"A. c #5B949D",
"S. c #7A8885",
"D. c #749886",
"F. c #629A9C",
"G. c #64A29D",
"H. c #4299A6",
"J. c #449BAA",
"K. c #4898A8",
"L. c #5196A3",
"P. c #5D95A1",
"I. c #599AA4",
"U. c #5597AE",
"Y. c #529EAB",
"T. c #469BB2",
"R. c #6196A2",
"E. c #639BA5",
"W. c #6A9DA7",
"Q. c #659DA9",
"!. c #709CA7",
"~. c #4EA1AC",
"^. c #5BA1A4",
"/. c #53A2AD",
"(. c #45A6B6",
"). c #49A8B7",
"_. c #46A9B9",
"`. c #4AAABA",
"'. c #54A5B1",
"]. c #55AAB7",
"[. c #56AEBA",
"{. c #5AADBC",
"}. c #41B1BF",
"|. c #55B2B8",
" X c #59B1BD",
".X c #68A3A8",
"XX c #71ADAE",
"oX c #6DA8B3",
"OX c #72ABB4",
"+X c #74AAB8",
"@X c #74B1B9",
"#X c #4EB0C1",
"$X c #63A6C1",
"%X c #67BECB",
"&X c #66C3CB",
"*X c #6AC2CE",
"=X c #6DC5D1",
"-X c #70C3D3",
";X c #818E8B",
":X c #84928E",
">X c #899693",
",X c #8E9C99",
"<X c #919F9C",
"1X c #93A19E",
"2X c #BAB49B",
"3X c #99A8A5",
"4X c #AEB6B3",
"5X c #ABBAB5",
"6X c #CFAF8A",
"7X c #D4BDA6",
"8X c #B5C4BC",
"9X c #B9D2B9",
"0X c #FFFA9E",
"qX c #CCC9B8",
"wX c #B6C5C4",
"eX c #B9C7C5",
"rX c #BACAC5",
"tX c #BAC9C9",
"yX c #BCD5CD",
"uX c #BCC7D3",
"iX c #BCD7D8",
"pX c #BFE1E0",
"aX c #C4C4C3",
"sX c #CBCCCB",
"dX c #D3CCCD",
"fX c #C4D4CE",
"gX c #CCD3CD",
"hX c #C7D8CC",
"jX c #D1D1CE",
"kX c #D1D9CE",
"lX c #CACDD3",
"zX c #D2CED2",
"xX c #D9CDD6",
"cX c #C5D5D4",
"vX c #CAD5D5",
"bX c #C5D9D4",
"nX c #CAD9D4",
"mX c #C4D5DD",
"MX c #CBD6D9",
"NX c #C6D9D9",
"BX c #CBDADA",
"VX c #D3D3D3",
"CX c #D8D5D6",
"ZX c #D3D5D9",
"AX c #D1DCD9",
"SX c #C9D6E2",
"DX c #D8D2E4",
/* pixels */
"uX8XSXnXiXnXbXhXeXtXcXcXMXcXcXcXrX8XmXnXhXBXnXMXrXwXNXbXcXbXNXcXtX5XpXbXfXBXnXvXeXtXMXMXcXMXcXMXuX8XSXBXMXcXBXfXrXwXMXbXnXcXnXcX",
"8XqXiXbXcXvXcXMXtXtXcXcXMXcXMXcXeXdXiXSXNXmXbXBXtXwXcXNXMXMXMXcXeXdXiXSXmXmXcXSXeXtXcXMXcXnXcXBX8X9XiXbXcXcXcXcXrXrXcXcXMXcXnXcX",
"xXcXJ.H.g.J.K.H.J.f.J.K.J.K.J.H.BXcX!.F..XE.G.W.Q.E.W.Q.E.E.v.c.BXvX,.>.J >.n x.,.-.-.7.-.-.r r DXvXg s  .| O. . .d .... . .....",
"xXVXH.J.J.g.T.f.J.H.K.H.H.H.J.J.cXVXW.W..XQ.^.I.W.W.Q.E.W.R.v.v.gXZXJ ,.;.;.E =.,.,.-.,.,.,.r 9 dXkXf f  .d o. ...f f f f f f f ",
"vXkXf.u.%.b %.5.#.*.5.*.&.5.H.f.VXCX!.W.B.P.F.R.A.A.A.C.A.E.v.N.xXCX>.,.l z y z j z k k y z 8 r VXVXd ..+.3.:.2.:.+.:.3.:.:.....",
"xXdXg.J.5.8.*.+.5.&.5.5.&.5.K.J.VXgXF..XB.P.Z.A.P.P.P.A.P.A.,.v.VXkXM -.j c j k z l z z z z r t dXxXd  .+.O.5.+.+.+.1.1.1.+. . .",
"vXjXJ.J.%.5.X.:.*.*.:.*.@.*.H.H.VXVXE.W.A.P.Z.P.Z.Z.Z.N.Z.Z.z.c.jXVX,.-.j z h k h h h h j k 9 9 kXxXO.o.+.3.<.2.3.2.1.1.3.3. . .",
"jXCXJ.f.5.8.#.;.5.#.#.5.#.&.J.K.VXZXF.E.P.A.Z.C.A.A.R.A.P.A.v.z.xXZX-.-.z z j z z k l z j z r r gXCX|  .2.+.1.*.+.1.1.1.1.1.f  .",
"VXVXJ.H.:.&.*.&.&.&.*.&.&.#.(.H.VXvXW.Q.Z.R.A.P.A.A.A.P.A.A.v.v.gXkX-.-.k k k k k k z k k k t t VXCX ...1.1.2.:.+.1.3.5.+.+. . .",
"VXjXH.f.*.#.&.&.:.&.:.5.&.#.J.H.VXgXQ.Q.Z.R.A.P.A.A.A.A.A.A.v.v.CXVX-.>.k y k k k k k k k j r e zXzX|  .+.:.3.+.+.1.+.3.+.+. . .",
"ZXVXH.J.*.&.&.*.&.#.&.&.#.*.J.H.VXzXQ.Q.Z.A.A.B.A.A.A.A.A.A.v.v.xXxX>.>.h q q q k x k k z k r t VXVX . .1.3.2.:.3.3.1.3.+.:. . .",
"zXjXH.g.*.&.&.&.&.&.5.&.&.*.f.J.CXVXQ.Q.Z.A.R.P.A.A.A.A.A.B.v.,.CX>.$ X           o : 9 k y r 9 VXVXf  .1.+.+.:.3.+.+.+.+.+...| ",
"VXVXJ.J.*.&.&.*.#.&.&.*.&.&.H.J.vXjXW.Q.Z.A.A.A.A.A.A.P.P.P.v.w   . . . . . O O O @ O X # q e e zXVXf ..+.5.3.3.3.3.3.:.+.3. . .",
"VXVXf.f.*.*.:.&.&.&.&.*.&.8.f.J.CXZXE.Q.Z.A.P.A.A.A.A.A.C.B.o   .   . . . O O O @ @ % * % o # r VXVX ...O.+.+.+.+.+.+.+.+.+. . .",
"VXVXK.J.K.g.f.H.J.J.J.f.f.H.J.J.zXzXB.N.c.z.z.z.v.c.v.v.G     . . . . O O O O O @ % & * * = * o sXVX .d  ... . . ... . . ...d  .",
"VXjXH.f.K.J.J.K.g.J.K.J.J.J.H.H.CXCX>.,.c.v.z.v.v.z.z.q     . . . . O O @ @ - O % * * * > > > > X xX .f ....| .. . . . . ...d ..",
"lX8XSXMXbXZXiXhXtXtXnXBXcXBXcXMXlX5XSXBXbXBXbXbXtXwXH     . . . o O o + @ @ % % * = = > > > , , 1 B SXNXhXnXpXNXeXtXbXNXcXcXnXMX",
"8X9XiXBXNXvXMXbX8XrXcXnXnXfXnXhXrX9XiXhXhXfXvXbXaX;X    . X O X O O + @ % % * * = = = > , 1 1 4 2 1 3XmXyXmXyXAXrXtXhXiXbXbXnXbX",
"DXfXe.0.9.r.t.w.w.r.r.r.r.r.*X*XDXlXT.f.g.j.T.g.g.. . . X X O O O O @ @ % * * = = = , , 1 1 2 0 2 N   e u 8 u 8 e e e e e e e e ",
"zXCXr.0.p.8.r.9.w.r.r.w.r.w.*X=XgXgXf.f.g.g.T.f.z . . X X O O O @ % % * * * = > > , , 1 4 2 0 0 N w 0 o 8 u 8 r e e e u e e u e ",
"gXkX8.w.oX|.{.|. X].[. X[.[.=X%XgXjXg.g.r.y.d.a.o X X X o + + @ % % & * = = > > , 1 1 2 0 0 0 N N N V = e @.c c x x x x a c 7.;.",
"xXxXd.r.#X|.{.|. X[.|. X]. X*X*XCXsXg.g.d.d.d.b   o O O + @ @ % % * * = = > , , 1 1 2 0 0 0 N N N V C N $ a c a j x x x x c 7.n.",
"hXjXp.w.{.|.|.|.{.{.{.{.].[.%X-XcXzXT.g.d.y.a.r o O O + @ % % * * = = > > , 1 1 2 2 0 0 N N N N V C A A # c k x a c x x x a 7.7.",
"VXjXw.y.`. X#XoX|. X|.|. X|.*X&XjXCXk.g.s.u.9.$ O O @ @ % % % = = = > , , 1 1 2 2 N A G H K P K G A A G * a l a x x a c x x 7.q.",
"CXjXw.w.{. X[.{. X{. X[. X X*X*XzXCXg.g.d.d.s.# + @ @ % % = = = = > , , 1 2 2 0 C A H H L P P S.S.H G H 1 9 x x a x x x x a x.;.",
"zXgXu.r.{.[.#X{.[.[.[.[.[.[.%X*XCXVXg.g.d.r.s.@ @ @ @ * = = = = , , 1 1 2 2 C A G H K L P I S.S.;X>XH H 2 9 x x x x x c a x q.7.",
"CXjXw.8.{.|. X[.|. X X[. X X*X=XjXgXg.g.s.d.s.X % % * * = = > > , 1 1 2 0 C A G H L P P S.S.S.:X>X,X1XL 4 9 x x x x x x x c q.q.",
"vXjXr.u. X].{.[.{.{.[.[.[.[.%X*XCXvXg.g.9.d.s.$ * * * > > > , 1 1 2 2 N A G G K L P I S.S.S.>X>X1X1X3X! 0 r l a x c x x a a ;.7.",
"VXCXw.8. X X X X|.[.[.[. X X*X=XzXzXg.g.s.d.s.$ * = = > > , 1 1 2 0 B Z G H K P P I S.S.S.:X>X,X3X3X4XS., x x a x x x a x c 7.n.",
"VXjXu.w.$X X{. X X[.{.[. X X%X%XgXCXf.g.s.p.s.r * > > , , 1 1 0 0 N Z G K K T >.S.S.S.:X,X,X3X3X3X5X5XD.# a x j a x x a x c ;.7.",
"zXCX*X&X=X*X*X*X*X*X*X*X*X%X=X*XCXVXO...O.....s + , , , 1 4 2 0 0 Z G K K I >.;XS.S.:X,X1X3X3X4X5X5X5XP q =.;.7.7.n.q.;.7.;.q.q.",
"CXgX*X*X=X*X=X%X*X*X*X*X=X%X=X%XzXVX....+...O...o : 1 4 0 0 0 0 N G K P I I S.:X:X>X,X1X3X3X4X5X5XwX5X2 =.q.q.7.7.;.q.7.e.7.q.;.",
"wX8XSXcXcXZXiXBXMXcXBXcXcXMXcXbXiX8XSXZXbXcXAXyX<Xo 2 0 0 0 0 N V K S.I S.S.;X:X>X1X>X:X,X3X5X8XwXtX,XZ cXBXcXbXwXtXMXcXMXcXMXMX",
"eXgXiXcXMXvXfXBXbXbXbXcXbXbXcXbX8XqXiXbXiXMXcXZXwXN 0 0 0 N N B A P >.T ;X;X>X,X,X;X:X,X1X3X8XrXtX8X0 8XyXcXMXvXrXrXnXcXbXhXbXcX",
"MXlXR.C.C.L.V.L.L.L.L.C.L.L.C.L.SXlXc a p p g p s a   0 N V N C G >.;X;X;X>X,X,X:XG 1 & 2 = G hXfXL 7 u u.r.u.w.w.0.w.0.w.w.w.0.",
"VXBXZ.C.~.L.L.C.L.L.L.L.Y.L.L.L.xXVXa s s s p p p a e X N V V A A S.:X>X,X<X<XI = > Z L S.>XB 3X>.2 s i r.r.0.w.w.w.w.w.w.0.e.w.",
"jXVXC.V.q.q.b.m.n.n.n.n.n.x.6.6.VXhXp p b 5.6.5.#.#.&.9 & C Z A Z P >X<X<X3XK - , 2 N C D N N = 5 dXp p g b %.g @.#.@.X.@.#.w.0.",
"xXzXL.Y.M.K.M.M.n.n.n.n.n.n.;.=.zXxXs U b g *.g J #.#.b 8 = D A G G ,X1X3X3X@ & , = % 2 S.,X>X@ xXCXo.a $.g #.X.g #.X.X.X.X.w.w.",
"hXgXC.C.n.M.x.n.n.q.n.n.n.n.7.7.AXqXF D W E J X.R %.*.*.*.l @ N K K K <X3X;X. @ O 2 C - - G 5X$ CXdXs p b 5.g @.%.*.%.%.%.@.w.w.",
"CXZXC.C.m.M.x.t.n.n.n.n.b.n.6.=.nX[ D i F F J M E E n n #.#.u.t = 0 K P ;X;XO . A 1 - 6 - K : X.jXCXp s %.g *.$.g #.g X.#.g w.w.",
"VXVXK.L.n.n.n.n.n.n.n.n.n.n.;.>.7X6XY w Y T #.w U 5 U w b 6.w.e.zX4Xl $ : * . N C . 5 T = $ 3.4.VXVXp p @.@.X.@.#.#.#.@.@.#.0.w.",
"zXjXL.C.n.n.n.n.n.n.b.n.n.n.;.;.jXVX^ / ^ ^ U ^ R S T 3 % q e.w.zXxXl.#Xj.l.x $ 1 = 3 T q j.i.4.zXgXp p @.%.+.#.@.@.#.X.#.#.w.w.",
"CXjXL.L.n.n.n.n.b.n.n.n.n.n.J Y qXZXR ` ` ` _ ^ 5 - 4 T ] - - 6.VXlX#X}.j.l.j.9.*.2 T 3 i.l.a.4.VXVXa s @.@.#.@.#.@.#.@.@.@.0.w.",
"VXjXL.C.n.n.n.q.n.x.n.n.n.n.;.;.7X[ ^ ` } } ` _ / Y F 0 - ] ] - I vX}.#Xj.l.j.l.k 3 ] 1 h.h.a.4.VXjXp p @.@.X.X.#.@.#.@.X.X.8.w.",
"zXjXL.C.n.n.V.n.n.n.n.n.M.n.6.E [ [ ) { 0X0X` ) T n F F c * 5 T 6 3 -._.h.j.8.: 3 ] < 9.j.j.4.4.VXzXp p @.&.&.@.X.@.X.X.@.@.w.w.",
"VXjXY.L.n.q.n.n.n.n.n.n.n.7.Q R kXhXY { ` ` ` ) F =.E b *.*.q 4 T S S - < ; ; T T 5 5.h.j.j.a.a.VXVXs p @.X.X.X.@.@.@.X.@.#.0.w.",
"zXjXL.C.7.6.;.;.-.7.7.6.=.7.=.=.qX7X) / / _ ^ ) ^ n.W W r.w.t.;.B B T S ] ] ] S 1 4.4.a.i.i.4.4.VXgXs p a s s p s p p p p p s s ",
"VXVXL.C.7.=.;.6.6.=.7.=.=.7.-.Q dX( ' x.T ( q.Q ' ~ M.n.t.w.t.w.zX4Xq * 0 % $ O.a.a.4.4.4.i.4.i.VXjXp p a p p p s s s p s p s p ",
"wX8XmXbXcXMXhXMXcXcXbXcXNXNXcXNX4X2XgXSXqX[ pXgX8X8XqXnXbXcXnXMXvX4XpXcXfXBXhXMXtXtXbXbXcXcXBXcXuX8XSXMXcXbXbXbXtXeXMXbXMXcXBXcX",
"eXdXiXBXNXSXbXSXbXcXMXcXcXMXcXcXwXqX[ SXiX6XBX[ rXrXhXhXnXhXcXhX4XaXiXMXMXmXbXmXwXtXcXBXcXBXcXcX8X9XiXyXcXcXlXnXtXeXcXcXcXhXBXcX",
"NXlXR.F.Z.F.F.F.E.P.E.P.E.E.P.W.xXqXD.F.Q ^.'.Q ~.Y.'.'./.~.~.~.DXnXZ.z.c.c.c.N.N.m.N.C.m.m.k t DXcX@.g  . .:.| ....O.O.....O...",
"cXzXF.W.^.Q.Z.R.P.R.E.F.E.W.A.P.xXvXI.'.]././.Y./.Y./.Y./././.^.hXZXv.m.C.v.v.v.B.N.v.B.v.N.t t zXkXg ......o.O.O. . . ...f O...",
"CXCX!.F.oX+XXX+XOXOXOXOXXXoX.X.XzXvX/.U.e.t.M.t.e.e.e.t.M.M.Y.Y.jXCXN.N.M v J =.m v M v m M r k VXgX....p.s.d.y.p.d.p.d.d.d.).).",
"jXsXI.Z.@X+XXXOX+X+X+X+X+XoXQ.U.CXzX'.{.e.t.t.u.e.t.e.e.t.t././.CXgXz.c.v $.v v =.M =.v v v r y dXCX ...d.9.f.u.i.s.s.s.u.s.`.`.",
"jXVXE.F.OXoXXX+XXXXXXXXXXXXX.X.XkXhX^./.6.e.n.n.e.M.M.e.M.e././.VXVXc.B.v J n n v n v v n n t t nXzXo.o.s.f.4.a.d.d.s.s.s.y._._.",
"VXCXA.E.OX+XXXoXOXOXOXOXOXXXW.E.jXCX/./.u.u.M.M.e.M.e.t.M.t././.CXVXN.c.v v n v v m n n n v h t VXdXO...s.y.d.t.y.d.s.u.d.d.)._.",
"aXaXP.Q.OXOX@XOXOXOXOXOXOXOXE.E.aXaX/.~.M.e.t.e.t.M.e.e.t.e.'./.aXaXm.B.n M m M v m m m m m t t aXaX....d.r.s.s.d.d.9.d.d.p._.(.",
"aXaXP.E.XXOXOXOXOXOXOXOXOXOXW.E.aXaXY.~.M.e.M.e.t.M.e.M.M.e././.aXaXB.B.v v v M M M m m M m t t aXaX....s.d.s.d.d.d.s.d.s.9._.(.",
"VXvXR.P.XXOXOXOXOXOXOXOXOXOXE.E.VXjX'./.M.M.e.e.e.t.e.t.t.e././.VXsXB.m.v =.m M v n v n m m h t zXzXO...s.d.s.s.d.d.9.d.d.d.).`.",
"CXVXE.P.XX+XoXOXOXOXoXOXOXoX.XP.VXjX~.~.n.t.e.e.t.M.t.t.e.q.Y./.ZXjXB.N.v M v M m n m M M M j h zXgX....d.d.s.d.d.d.d.s.9.s.(._.",
"zXVXP.E.XXOXXX+XOXOXOXOXOXOX.XE.VXVX/.~.M.M.e.M.M.t.M.e.e.M././.gXVXB.B.n v v n m M m M m v t t zXCXO...d.d.s.d.p.s.s.p.d.d._.).",
"VXVXE.Q.XXOXoXoXoXOXOXOXOXOXW.E.VXjXY.~.M.e.e.M.e.e.e.e.M.M.Y./.CXCXc.z.n v n m m m m M m v h t zXVX..f d.r.s.d.9.9.s.s.d.d.(.(.",
"zXvXP.P..XW.I.E.W.E.Q.Q.E..XA.E.CXjX'./././.Y./.'./.'./.Y.Y.'./.lXgXy y t t t r t t t t h j r t VXVXo..._.`._._.`._.`._.(.(.`.`.",
"VXVXR.Q.A.E..XE.E..XE.E.E..XI..XVXjX/./.Y./.Y.Y./.Y.'././.Y.'.Y.zXVXt t t t j t t h t t t y r j VXzX...._.`._.(.(.(.`._.).(.`.(."
};
