/* XPM */
static char *result[] = {
/* columns rows colors chars-per-pixel */
"64 64 253 2 ",
"   c #0D0E0E",
".  c #0F1010",
"X  c #141515",
"o  c #16191A",
"O  c #1B1D1D",
"+  c #26231E",
"@  c #181F20",
"#  c #1F2122",
"$  c #17272A",
"%  c #172D2F",
"&  c #183437",
"*  c #222525",
"=  c #292621",
"-  c #25292A",
";  c #2E2F2B",
":  c #292D2E",
">  c #353129",
",  c #233637",
"<  c #2C3132",
"1  c #303536",
"2  c #393B36",
"3  c #343A3A",
"4  c #383E3F",
"5  c #433A2F",
"6  c #3A403F",
"7  c #724A1A",
"8  c #544A39",
"9  c #6D5636",
"0  c #0E3B40",
"q  c #174D53",
"w  c #19565C",
"e  c #374542",
"r  c #3C4343",
"t  c #284E51",
"y  c #175865",
"u  c #1E5A64",
"i  c #235D65",
"p  c #235E6B",
"a  c #18636A",
"s  c #0C6D7B",
"d  c #176674",
"f  c #1E6773",
"g  c #146A76",
"h  c #156B79",
"j  c #1A6C7B",
"k  c #07717E",
"l  c #0C727E",
"z  c #14747D",
"x  c #276567",
"c  c #26636B",
"v  c #29646E",
"b  c #2A6472",
"n  c #226975",
"m  c #256A77",
"M  c #356E79",
"N  c #247379",
"B  c #357273",
"V  c #367179",
"C  c #39737C",
"Z  c #397879",
"A  c #424A4A",
"S  c #464B49",
"D  c #4F514E",
"F  c #4B5453",
"G  c #4F5957",
"H  c #525C5A",
"J  c #705E4A",
"K  c #56605E",
"L  c #507057",
"P  c #766548",
"I  c #5A6463",
"U  c #5E6967",
"Y  c #477973",
"T  c #636E6C",
"R  c #617D6A",
"E  c #677371",
"W  c #6B7775",
"Q  c #707C7A",
"!  c #AC7529",
"~  c #8C7353",
"^  c #A47C51",
"/  c #38807F",
"(  c #5B877D",
")  c #738374",
"_  c #BE852E",
"`  c #DA8917",
"'  c #E29418",
"]  c #E8A71E",
"[  c #D2902C",
"{  c #EBB222",
"}  c #F6CF2F",
"|  c #FFEA3E",
" . c #998B59",
".. c #AD9169",
"X. c #C79869",
"o. c #CEA573",
"O. c #FFED49",
"+. c #FEF15E",
"@. c #067481",
"#. c #0E7381",
"$. c #127484",
"%. c #1E7682",
"&. c #197187",
"*. c #167987",
"=. c #1B7E8D",
"-. c #227684",
";. c #237985",
":. c #27768A",
">. c #2B738A",
",. c #257C8B",
"<. c #297B8B",
"1. c #387985",
"2. c #3D7C84",
"3. c #3A7E89",
"4. c #247D91",
"5. c #427D85",
"6. c #427B88",
"7. c #11848D",
"8. c #1B808E",
"9. c #1C8291",
"0. c #1D8C9C",
"q. c #23828C",
"w. c #36848B",
"e. c #3A818C",
"r. c #288894",
"t. c #2D8E9E",
"y. c #318694",
"u. c #3D8592",
"i. c #348A95",
"p. c #3D8B96",
"a. c #39869A",
"s. c #348C9B",
"d. c #3D8D99",
"f. c #2A929E",
"g. c #36919C",
"h. c #258EA0",
"j. c #368DA1",
"k. c #2594A3",
"l. c #2E92A1",
"z. c #3292A2",
"x. c #3A99A6",
"c. c #3B9CAC",
"v. c #309FB0",
"b. c #3CA0AD",
"n. c #4A878B",
"m. c #4C858E",
"M. c #528D8B",
"N. c #4D8691",
"B. c #448A94",
"V. c #478996",
"C. c #4E8992",
"Z. c #418C9A",
"A. c #528B93",
"S. c #558C98",
"D. c #48959B",
"F. c #53949D",
"G. c #5A9698",
"H. c #5B949D",
"J. c #798683",
"K. c #798987",
"L. c #629A9D",
"P. c #64A29D",
"I. c #4299A6",
"U. c #4F95AB",
"Y. c #4799A9",
"T. c #449BAA",
"R. c #5296A3",
"E. c #5D95A1",
"W. c #5A9AA4",
"Q. c #529EAB",
"!. c #469BB2",
"~. c #6196A2",
"^. c #639BA5",
"/. c #6A9DA7",
"(. c #659DA9",
"). c #709CA7",
"_. c #4EA1AC",
"`. c #5BA1A4",
"'. c #53A2AD",
"]. c #45A6B6",
"[. c #49A8B7",
"{. c #46A9B8",
"}. c #4AAABA",
"|. c #54A5B1",
" X c #55AAB7",
".X c #56AEBA",
"XX c #5AADBC",
"oX c #55B2B8",
"OX c #59B1BD",
"+X c #68A3A8",
"@X c #71ADAE",
"#X c #6CA9B3",
"$X c #72ABB4",
"%X c #74AAB8",
"&X c #72B6BC",
"*X c #5BB0C1",
"=X c #63A6C1",
"-X c #68BECB",
";X c #66C3CB",
":X c #6AC2CE",
">X c #6DC5D1",
",X c #70C3D3",
"<X c #82908C",
"1X c #87928F",
"2X c #8A9794",
"3X c #8C9A97",
"4X c #95A39F",
"5X c #9CA09F",
"6X c #9CABA8",
"7X c #89B2A1",
"8X c #ABB4B2",
"9X c #A8B7B4",
"0X c #D1B491",
"qX c #B3C3BC",
"wX c #B8C6BE",
"eX c #B7D0B9",
"rX c #CBCABA",
"tX c #FFFBB3",
"yX c #B2BEC6",
"uX c #B6C5C5",
"iX c #B9C7C5",
"pX c #BBCAC6",
"aX c #BAC9C9",
"sX c #BACED0",
"dX c #BCD7D8",
"fX c #BEE0DF",
"gX c #C4C4C3",
"hX c #CBCCCB",
"jX c #D4CBC7",
"kX c #D3CCCE",
"lX c #C4D4CE",
"zX c #CCD3CD",
"xX c #C7D8CD",
"cX c #D1D1CE",
"vX c #D1D9CE",
"bX c #CACDD3",
"nX c #D2CED2",
"mX c #D8CED7",
"MX c #C6D5D4",
"NX c #CAD5D5",
"BX c #C5D9D4",
"VX c #CAD9D4",
"CX c #C5D5DD",
"ZX c #CAD6D9",
"AX c #C6D9D9",
"SX c #CBDADA",
"DX c #D3D3D3",
"FX c #DAD3D4",
"GX c #D3D5D9",
"HX c #D7D7D8",
"JX c #C0E0D5",
"KX c #C9D6E2",
"LX c #D8D2E4",
/* pixels */
"sXqXKXSXdXVXBXMXuXaXMXMXZXMXMXMXuXrXdXBXBXSXBXNXpXuXAXAXMXBXSXMXpX9XfXMXlXZXVXNXuXaXZXZXMXAXMXNXsXwXKXZXNXMXSXsXpXuXBXZXSXMXSXMX",
"qXrXdXMXMXNXNXVXpXpXlXMXZXMXNXMXiXkXdXKXAXCXBXZXaXuXMXMXZXSXMXMXgXnXdXSXSXCXBXKXuXpXMXZXMXZXMXVXqXeXdXBXMXMXMXVXpXpXBXVXMXMXVXMX",
"mXNXY.I.c.c.U.I.T.I.T.T.Y.I.T.T.AXNX).L.+X(.P.+X(.^.(.(.^.^.A.C.SXbXn.C Y 5.Z 2.1.2.2.e.2.2.u y LXNX%.h #.@.=.#.#.s $.l l $.$.$.",
"mXDXx.Y.T.c.!.x.T.I.Y.I.I.I.!.T.zXDX^.+X+XW.`.^./.(././././.6.m.NXHXC n.3.3./ 3.n.6.Y 5.6.5.i w kXvXl l #.s &.@.$.l #.l l l k l ",
"zXvXx.x.<.N <.q.,.,.,.,.,.q.I.j.FXFX)./.S.E.L.~.H.G.H.H.E.E.N.A.kXHX5.5.b b p b c v c b p b w u DXkXl $.=.9.,.7.4.=.9.9.4.4.$.$.",
"mXkXc.T.q.q.:.=.q.,.,.q.,.q.Y.Y.cXbXL.+XH.~.S.H.E.E.H.H.E.E.6.N.FXDXZ Z n b c b b m b b b b y i kXFXk $.8.*.r.*.=.=.=.8.8.=.#.#.",
"VXcX!.I.<.q.;.,.,.<.<.<.:.<.T.T.DXHX+X/.H.E.G.W.H.G.H.G.G.G.n.M.kXDX2.e.p b x v x x x c c v w w GXnX&.$.8.r.7.9.9.9.8.8.8.9.#.$.",
"cXFXY.x.q.q.;.3.,.,.q.q.;.q.I.I.bXDXL.^.E.S.G.H.H.F.L.S.H.H.N.N.GXHX5.2.b b c b b c b b c v u u zXHXk #.7.8.*.4.=.8.8.8.8.8.l #.",
"DXDXT.T.,.,.,.,.,.,.,.,.,.*.!.I.nXNX/.(.H.~.F.H.H.H.H.H.H.H.C.m.nXDX2.6.v v c c b b v v b c u u DXHX#.#.9.=.9.=.=.8.9.q.=.=.#.#.",
"NXcXI.x.<.,.,.<.,.,.,.q.,.,.T.I.NXcX/.(.H.E.H.E.H.H.H.H.H.H.m.m.DXDX6.2.c b v v v c v c v c u u nXbX#.#.=.q.9.=.=.8.=.9.=.=.#.#.",
"HXDXT.Y.,.,.4.,.,.;.,.,.q.,.Y.I.FXcX(.(.G.H.H.H.H.H.H.H.H.H.m.m.nXzX6.6.x c c c b v b v v v i u FXDX#.#.9.=.9.=.9.9.=.9.=.=.#.#.",
"DXkXx.T.:.,.,.,.,.q.,.,.,.,.x.T.GXDX/.(.G.H.L.H.H.H.H.H.H.H.m.m.HXDX5.3.x b c m v c c c v c u w DXDX#.#.8.4.=.=.8.9.=.=.=.=.#.#.",
"DXDXI.T.,.,.4.,.,.,.q.,.,.q.Y.!.DXzX(.(.G.H.E.H.H.H.H.~.H.H.N.m.kXzX6.6.p p c c v v b v b v u u nXDX#.#.=.q.9.9.9.9.=.4.=.9.#.#.",
"DXDXI.x.<.:.,.<.,.,.<.,.,.q.x.I.HXDX^.(.G.H.E.H.H.H.H.H.H.H.N.C.DXGX2.3.B b c c v v v c b c u i DXDX#.#.=.=.=.=.=.=.=.=.=.=.#.#.",
"DXDXT.I.Y.I.x.I.T.T.T.x.I.x.Y.Y.bXcXA.A.n.N.m.N.C.C.N.N.m.A.5.m.DXzXu u w t u u u u u i u u w y nXnX#.k #.$.#.$.#.#.#.#.#.$.#.#.",
"DXcXY.x.!.T.T.I.T.I.I.T.Y.T.I.I.mXFXN.6.M.N.m.N.m.N.m.m.m.C.m.A.cXDXw i u u u y w y w w u u u u DXDX#.#.#.#.#.$.#.#.#.#.#.#.#.#.",
"sXqXKXGXBXSXdXxXpXpXMXSXMXSXMXNXbXqXSXVXBXVXBXBXuXuXAXSXMXAXMXAXaXgXyXI #       =       # T 6XZXaXwXCXAXJXxXJXBXpXpXBXBXBXBXSXBX",
"qXeXdXVXAXNXMXVXpXpXlXVXBXMXVXlXqXeXdXdXMXlXNXNXpXuXBXMXNXVXlXdX6XD   X X .   X   X . .   .   2 5XhXdXCXsXJXsXSXpXpXsXdXBXBXVXBX",
"LXbXd.y.r.g.j.a.s.s.s.i.s.s.:X,XLXbXU.x.c.c.!.c.c.c.c.c.c.x.*.q   X X X X X X X X X X X X X X X . T u y w y y y y y y a y y y y ",
"mXFXg.i.j.r.a.t.i.i.p.i.i.i.:X>XVXzXx.b.b.v.!.x.c.b.c.c.c.c.0 X X o o o X X X X O X X o X X X o o . $ y y y y y a y y y y y a y ",
"xXcXr.i.OXOX#XoXoX XOXOXXX X:X-XzXbXv.x.j.f.z.k.z.z.j.j.j.0 X O O O O O O O O O O O O o O o o o o o o $ d j m b f c n n j n w.w.",
"FXFXg.s.OXoXoXoXOX XoXOXoXOX:X;XFXkXc.c.l.z.g.t.l.z.l.l.b o O O O # O O O # O O O O O O # O O # # @ O o & d -.d n n n m n m e.B.",
"NXcXs.s. XoXoXoXXXXXOXXX XXX:X,XNXnXc.!.l.l.f.k.l.l.z.4.X # # # # # # # # # # # # # # # # # # # # # # # X u c n f n n j f j 3.u.",
"DXkXs.f.}.oX*X=XoXXXoXoXXXoX:X:XcXFXc.c.l.g.t.I.l.g.z.& * * * * * * * * * * * * * * * * * * * * * * * * # @ m h n n n n n f u.u.",
"DXkXs.y.XXOX.X.XOXOXOXOXOXOX;X:XnXHXc.c.z.z.l.l.z.z.N O - - - - - - - - - - - - - - - - - - - - - - - - - @ q m f n j m n f u.e.",
"DXzXg.g.XX.X*X X X.X X.XoXOX;X:XHXDXc.c.l.g.l.z.z.t.q - : : : : : : : : : : : : : : : : : : : : : : : : : - $ f n n n m n f u.e.",
"HXcXy.y.XX.XOX XOXOX*XOXOXOX;X>XnXhXc.c.z.z.l.z.z.z.@ < < < < < < < < < < < < < < < < < < < < < < < < < < < o c n j n n n n u.u.",
"zXzXg.g.OX XOXOXOX.X.XoXOXoX;X;XHXDXc.c.f.z.l.z.l.y.o 1 1 1 1 1 1 1 1 1 1 1 1 1 1 1 1 < 1 1 1 1 1 1 1 1 1 1 - c m m n n f f e.e.",
"DXHXi.y.OXOXXXOX.X.X.X.XOXOX;X;XjXjXM.b.g.g.l.z.z.y.* 3 3 3 3 3 3 3 3 3 1 3 3 3 3 3 3 3 3 3 3 3 3 3 3 3 3 3 < a f n n n n m u.u.",
"DXcXs.g.OXOX.XOXOX XOX X.X#X;X7X0XrX^ x.l.g.l.f.z.:.$ 4 4 4 4 4 4 4 4 4 4 4 4 4 4 4 4 4 4 4 4 6 4 4 4 4 4 4 4 y f f n f m N 1.u.",
"bXDX:X;X,X-X:X:X:X;X:X-X..;X@X..0XkXZ Y $.z $.*.$.d , r r 6 6 6 r r r r A F F F G G F F A r r r r r r r r r e M u.u.u.e.u.<.u.u.",
"HXcX:X:X:X:X,X:X:X:X>X:X..;X>X[ o.jX! N Y *.*.$.$.d - r A A A A A A F K K K K K K K H K H I H A r A r A A A r V u.e.u.e.u.u.u.3.",
"aXqXKXBXMXGXdXSXBXBXhXrX0XhXrX] [ [ [ rXrXrXo.xXpX8X- F A A A A F I T I T I T I U U U U U U U U G A S A A A A qXuXpXMXNXAXMXNXMX",
"iXzXdXMXMXNXlXSXBXxXo.rXo.' ' | } } o.xXpXrXrXvXuX8X* t F F F H E E E E E E E E E E E E E E E E E K F F F F e iXpXpXxXNXVXMXVXBX",
"ZXbXE.F.R.R.D.W.F.F.G.F.D.` | O.+.} ` ! ! 9 B g h h @ F H F G W Q Q Q Q 1X6.Q Q Q Q Q Q Q Q Q Q Q Q H F F F ; w.y.y.s.i.s.y.s.y.",
"DXZXG.F.Q.R.R.F.R.F.W.) _ } O.tXtXO.} `  .+ 9 L g j & H H K U K.J.J.J.J.1X~ 1X5.J.J.J.K.J.J.J.J.K.K.U K H K % t.i.i.i.i.i.y.p.i.",
"cXNXF.F.u.p.V.V.B.(  .! ' ] } O.+.| } 7 8 ..> t ;.:.w 6 I K U K.<X<X<X<X1X<X<X<X<X<X<X<X<X<X<X<X<X<XW I I r q j ;.;.-.-.;.;.y.y.",
"FXnXR.R.Z.Y.B.p.B.Z.B.n.n.R { } O.{ [ ` 9 < P + -.;.;.- U U E 3X3X3X3X3X1X5X3X1X3X3X3X3X3X3X2X2X3X2XJ.U U & -.%.%.%.N -.-.%.i.i.",
"xXlXD.F.B.Z.n.B.a.(  .( Z. .[ ! } ' #.d Y 8 ~ ~ t N <.c e U E 6X4X4X5X3X1X1X<X1X2X3X4X6X6X4X6X4X6X4XJ.U A w -.%.-.:.;.;.-.-.i.i.",
"mXFXW.F.C.B.u.d.B.n.n.n.a._ / Z [ ' s p ! n = ~ + q.;.,.& H E 6X6X4XU D D D E 1X1X1X4X6X6X6X6X8X6X6X) I & z >.>.%.;.z ;.;.;.y.y.",
"DXDXR.R.Z.p.B.B.B.B.B.) n.n./ ( jX` h P ,.<.,  .5 b <.:.:.% I 3X4X* O : 3 3 4 : D 4X6X8X9X9X9X9X9X6XE % m ;.*.-.;.;.;.%.-.;.y.i.",
"DXcXR.F.B.u.B.B.B.B.B.B.B.n.~ R mXX.h L <.;.f 8 P , <.>.<.N % U A X # : 1 A G W T < 9X9XqXuXqX9X9XE $ y ;.;.-.-.%.%.;.%.;.;.i.i.",
"DXDXR.R.B.B.V.B.B.B.B.u.B.B.) w.kXjXf g >.;.:.- X.> -.:.:.<.p.e o X X o # * 4 Q <XH Q aXaXaXuX6XF S d g -.:.;.%.;.%.;.-.%.%.y.y.",
"DXcXR.F.B.B.B.u.B.B.B.n.B.B.1.<.kXHXj h <.;.:.q D 9 , -.;.;.i.s.# I H 4 2 T T : T H <XMXaX6XQ , <XcXh g -.%.;.%.;.;.;.%.;.%.y.i.",
"DXcXR.W.B.B.D.B.B.B.B.B.B.B.3.w.HXvXj g <.>.<.;.3 o.> p :.<.d.d.1 D O = 5 > * 8XS : ) E r , y =.nXcXd g -.-.;.;.%.%.%.%.%.;.y.s.",
"DXDXR.F.B.u.B.B.B.B.B.B.B.B.e.1.nXzXj h ;.;.<.<.i 5 ~ ; i ,.i.a.gXS # 9 ~ + # 5XqXo -.:.v.v.k.k.FXDXh g -.%.-.%.;.-.;.%.,.;.y.y.",
"bXcXR.D.e.1.e.w.3.3.e.w.e.e.1.w.HXDXd.g.I.d.p.i.d.e ~ ..8 + r e S 5 ~ ~ + & % & & %.0.k.0.k.0.0.DXcXg g j h g g h h h g g g j h ",
"nXvXR.F.w.w.3.2.w.1.3.1.2.3.1.e.DXkXd.i.a.g.i.d.a.j.t : ~ X.~ P ..^ J - >.h.h.h.k.k.0.k.0.k.0.k.DXzXg g j g s d h h h g g g h g ",
"uXrXdXMXVXBXxXNXMXBXBXMXAXAXBXAXaXqXCXSXxXNXJXVXuXpXMX9XD 5 5 J 5 D K.NXlXZXxXNXaXaXBXBXBXBXSXMXsXpXKXNXMXBXBXBXuXpXBXVXAXMXSXMX",
"iXjXdXKXAXKXAXKXNXAXZXAXAXNXMXMXiXhXdXKXAXMXCXGXpXpXNXVXBXxXVXBX8XhXdXZXAXKXBXKXuXaXMXSXMXSXMXNX9XeXdXBXMXMXbXVXpXpXMXMXNXMXVXMX",
"AXbX~.L.H.G.L.L.E.~.^.G.~./.E./.mXhX(.Q.'.|.|.W._._.'.'.'._.'._.LXGXG.m.M.N.M.A.C.A.S.S.N.N.p i LXMX-.z $.#.4.#.$.$.*.*.*.$.*.$.",
"NXDX~.^.+XW.G.~.~.~.~.~.~.^.H.E.kXNXQ.|.'.Q.Q.Q.'.'.'._.`._.'.'.zXSXC.A.S.N.S.6.A.A.N.S.C.S.i i DXvXz $.$.$.&.$.$.#.$.#.#.l *.$.",
"FXDX/.L.#X%X@X%X$X#X$X$X$X$X+X+XDXNX|.!.w.a.B.g.p.p.p.p.Z.Z.'.Q.cXHXA.M.6.M M Y V V V V V Z i v DXcX$.$.z.f.z.f.j.z.z.z.z.z.[.[.",
"cXzXL.G.%X%X@X$X%X%X%X$X%X#X(.(.FXnX(. Xd.D.d.g.p.p.p.p.d.d.'.'.vXcXn.C.M 1.M M 1.1.1.M M M i p kXDX$.$.c.r.x.l.t.z.z.z.z.z.}.}.",
"cXDX^.^.$X#X@X%X$X@X@X@X@X@X+XW.xXxX|.`.p.w.B.B.Z.Z.p.Z.Z.p.'.'.DXnXA.S.V C V C B B B B Z B x i VXnX&.&.t.x.0.l.l.l.l.l.l.l.].].",
"DXGXH.L.$X%X@X$X$X$X$X$X$X$X+X/.vXHX`.'.g.g.Z.Z.p.Z.p.p.Z.d.'.'.mXGXM.M.M Y B V M C M M M B i i DXkX&.$.l.f.x.s.l.z.t.l.g.t.}.}.",
"gXgXE.(.@X$X&X$X$X$X$X$X$X$X^.^.gXgX'._.Z.p.Z.p.d.Z.p.p.d.p.|.'.gXgXN.S.B C V C V V M V V V c i gXgX$.$.z.t.l.z.z.z.t.z.z.t.[.].",
"gXgXE.^.@X$X$X$X$X$X$X$X$X$X/.^.gXgXQ._.Z.p.Z.d.Z.Z.p.Z.Z.p.'.'.gXgXS.S.B C M C Z Z V C Z V i i gXgX$.$.l.g.l.z.z.z.l.z.z.t.[.].",
"GXbX~.~.@X$X$X%X$X$X$X$X$X$X+X^.DXcX'.|.Z.B.a.p.a.Z.p.d.d.p.'.'.DXhXS.N.B M V C V V M V C V i i nXnX*.$.l.z.l.l.l.l.l.t.z.l.}.}.",
"DXDX~.~.@X%X#X$X$X$X#X$X$X$X^.W.DXcX_._.Z.Z.i.B.d.Z.d.d.p.u.Q.'.HXDXS.S.B 1.M C V V V C C C c i bXkX$.$.z.z.l.z.z.z.z.z.l.z.].].",
"DXDX~.W.@X$X$X$X$X$X$X$X$X$X/.^.DXFX'.|.Z.Z.p.Z.Z.Z.Z.Z.p.Z.'.'.kXDXS.A.B V V C V C V C V M i i DXHX*.$.z.z.l.z.j.l.z.z.z.z.].}.",
"DXDX^.(.@X$X#X#X#X$X$X$X@X$X+X^.NXcXQ.Y.Z.Z.a.p.p.i.p.p.p.Z.'.Q.HXHXN.N.B V M C V Z V V V V i c cXDX$.h z.z.l.z.h.t.l.l.z.z.].].",
"nXNX~.~.+X/.W.(./.+X(./.^.+XE.^.DXDX|.'.`.'.Q.'.|.'.|.'.Q.Q.|.'.nXcXp p i i p i i i i i x c w i DXnX&.*.{.}.{.}.}.[.}.{.].].}.}.",
"DXDX~.^.G.^./.^.^.^.^.^.W./.W.+XDXcX'._.'.'._.`.'.'.'.'.'.Q.|.Q.NXDXi u x i p i i x i i i i u c FXNX$.#.{.}.{.].].!.}.[.].].}.]."
};
