/* XPM */
static char *result[] = {
/* columns rows colors chars-per-pixel */
"64 64 246 2 ",
"   c #0E0E0E",
".  c #0E1414",
"X  c #131414",
"o  c #16191A",
"O  c #1A1C1C",
"+  c #2B251D",
"@  c #1D1F20",
"#  c #1E2122",
"$  c #152629",
"%  c #173237",
"&  c #222525",
"*  c #292824",
"=  c #26292A",
"-  c #292D2E",
";  c #33302A",
":  c #253536",
">  c #2D3233",
",  c #313636",
"<  c #333836",
"1  c #343A3B",
"2  c #383E3E",
"3  c #493C2B",
"4  c #39413E",
"5  c #574534",
"6  c #69563B",
"7  c #194348",
"8  c #0E5159",
"9  c #17565C",
"0  c #3C4343",
"q  c #274D53",
"w  c #165865",
"e  c #1D5A64",
"r  c #135D6F",
"t  c #235D66",
"y  c #225E6B",
"u  c #156268",
"i  c #0C6D7B",
"p  c #1E6773",
"a  c #136A76",
"s  c #196A77",
"d  c #07717E",
"f  c #0C727E",
"g  c #16737E",
"h  c #266567",
"j  c #25636B",
"k  c #29646E",
"l  c #266674",
"z  c #2A6472",
"x  c #226975",
"c  c #296D77",
"v  c #246B79",
"b  c #356E79",
"n  c #357273",
"m  c #367179",
"M  c #39737C",
"N  c #3B7878",
"B  c #424946",
"V  c #434B4B",
"C  c #4B5554",
"Z  c #4B5555",
"A  c #555152",
"S  c #525C5B",
"D  c #715C47",
"F  c #57605F",
"G  c #716445",
"H  c #5A6563",
"J  c #5C6866",
"K  c #42797C",
"L  c #616B6A",
"P  c #64706E",
"I  c #6A7774",
"U  c #717D7B",
"Y  c #986118",
"T  c #976E2F",
"R  c #B37A30",
"E  c #937558",
"W  c #38807F",
"Q  c #55897A",
"!  c #6E896F",
"~  c #74817E",
"^  c #B7843A",
"/  c #E1951B",
"(  c #E59C1B",
")  c #C58529",
"_  c #ECB524",
"`  c #F7D22F",
"'  c #FEE83B",
"]  c #8B8859",
"[  c #A88E54",
"{  c #979970",
"}  c #B0936B",
"|  c #D39A5F",
" . c #CA9E70",
".. c #FFEF4E",
"X. c #FEF261",
"o. c #067481",
"O. c #0E7381",
"+. c #127484",
"@. c #1F7682",
"#. c #197186",
"$. c #177987",
"%. c #1B7E8D",
"&. c #217684",
"*. c #2D7187",
"=. c #227984",
"-. c #257D8B",
";. c #29798A",
":. c #377985",
">. c #3D7C84",
",. c #3A7E89",
"<. c #257D91",
"1. c #427D86",
"2. c #427B88",
"3. c #11848D",
"4. c #1B808E",
"5. c #158590",
"6. c #1C8291",
"7. c #23828C",
"8. c #28828B",
"9. c #37848A",
"0. c #3A828C",
"q. c #288894",
"w. c #2D8E9E",
"e. c #338695",
"r. c #3D8592",
"t. c #348A95",
"y. c #3D8B96",
"u. c #348C9A",
"i. c #3D8D99",
"p. c #2D929E",
"a. c #37929A",
"s. c #2E8DA1",
"d. c #368DA1",
"f. c #2E92A1",
"g. c #2A9AA3",
"h. c #3292A2",
"j. c #3B99A5",
"k. c #3B9CAB",
"l. c #3CA0AD",
"z. c #4C858E",
"x. c #49898B",
"c. c #4F8F89",
"v. c #4D8691",
"b. c #468895",
"n. c #448A94",
"m. c #4E8993",
"M. c #418C9A",
"N. c #528B93",
"B. c #558C98",
"V. c #48969B",
"C. c #52949D",
"Z. c #5A9799",
"A. c #5B949D",
"S. c #7B8885",
"D. c #7D9984",
"F. c #629A9D",
"G. c #72A295",
"H. c #4299A6",
"J. c #4998A7",
"K. c #4C97AE",
"L. c #449BAA",
"P. c #5196A3",
"I. c #5D95A1",
"U. c #599AA4",
"Y. c #529EAB",
"T. c #6196A2",
"R. c #639BA5",
"E. c #6A9DA7",
"W. c #659DA9",
"Q. c #709CA7",
"!. c #4EA1AC",
"~. c #54A3AD",
"^. c #5BA7A9",
"/. c #45A6B6",
"(. c #49A8B7",
"). c #46A9B8",
"_. c #4AAABA",
"`. c #54A5B1",
"'. c #59A8B4",
"]. c #56AEBA",
"[. c #5BADBC",
"{. c #54B2B8",
"}. c #59B1BC",
"|. c #68A4A8",
" X c #71ADAE",
".X c #6BA9B3",
"XX c #72ABB4",
"oX c #74AAB8",
"OX c #6FB4BA",
"+X c #5BB0C1",
"@X c #6AB3C1",
"#X c #68BFCC",
"$X c #66C3CB",
"%X c #6AC2CE",
"&X c #6DC5D2",
"*X c #808A87",
"=X c #818E8B",
"-X c #82938D",
";X c #8A9895",
":X c #929D9A",
">X c #8AAA94",
",X c #93A19D",
"<X c #9AA8A6",
"1X c #89B2A1",
"2X c #A2B1AD",
"3X c #AFB7B2",
"4X c #A9B8B4",
"5X c #D3B794",
"6X c #B5C4BC",
"7X c #B9D2B9",
"8X c #C6CBB9",
"9X c #FFFBB8",
"0X c #B6C6C5",
"qX c #BBC4C3",
"wX c #B5CAC5",
"eX c #BACAC5",
"rX c #BAC9C9",
"tX c #BAD0CF",
"yX c #BCD6D9",
"uX c #BEE0DF",
"iX c #C4C4C3",
"pX c #CACECC",
"aX c #D5CCCA",
"sX c #D3CCCD",
"dX c #C5D4CE",
"fX c #CCD3CD",
"gX c #C8D7CC",
"hX c #D2D2CE",
"jX c #D1D9CE",
"kX c #CACDD3",
"lX c #D3CED2",
"zX c #D9CCD5",
"xX c #C6D5D4",
"cX c #CAD5D4",
"vX c #C5DAD4",
"bX c #C9D9D4",
"nX c #C4D4DC",
"mX c #CAD6DA",
"MX c #C6D9D9",
"NX c #CBDADA",
"BX c #D3D3D3",
"VX c #D8D5D6",
"CX c #D3D5DA",
"ZX c #C0E0D5",
"AX c #C9D7E2",
"SX c #D7D3E5",
/* pixels */
"rX6XAXNXyXNXvXvX0XrXxXxXmXcXxXxXwXqXyXbXbXNXgXcXrXwXMXvXxXvXMXxXtX3XyXvXdXmXcXcX0XrXcXcXxXbXxXbXtX6XAXcXxXxXNXdXwXwXvXmXvXxXNXMX",
"0X8XyXxXxXxXxXcXeXrXxXxXmXxXxXxXqXsXyXAXMXnXxXNXrX0XxXmXcXmXcXxXqXsXyXAXNXAXxXAX0X0XmXmXmXNXxXMX0X7XyXvXxXkXxXcXrXeXcXxXcXxXcXxX",
"SXdXJ.H.l.L.L.H.L.H.L.H.L.H.L.H.vXcXQ.F.|.R.F.|.W.R.|.W.R.R.N.v.NXxX1.K K 1.N 0.>.>.>.>.>.N t e SXkXs g +.o.;.o.O.i +.O.f +.+.g ",
"zXBXH.L.L.k.K.j.L.J.H.H.H.J.L.L.cXBXE.E.|.W.^.I.E.E.R.R.E.R.z.z.fXCXK x.>.,.W >.2.x.>.2.2.2.e 9 sXbXg f O.o.O.O.+.f f f f f d d ",
"fXjXj.j.;.g :.4.-.-.-.-.<.8.j.j.BXVXQ.E.B.I.F.E.A.I.A.A.I.U.z.v.zXVX1.1.k z y z j z j z y z 9 e BXBXo.+.%.6.%.3.%.%.<.6.7.<.+.+.",
"zXaXL.L.;.q.;.%.7.-.-.7.-.8.J.L.BXfXF.|.A.I.B.B.I.I.I.B.I.A.v.v.VXBXN N j c j z z z z l z z e y hXzXi O.4.$.q.%.%.%.%.4.%.%.O.O.",
"cXhXL.L.;.8.@.6.;.;.;.;.;.;.H.H.BXBX|.|.A.I.Z.I.Z.Z.Z.Z.Z.Z.c.z.sXcX>.0.j z h k h h h h j h 9 9 BXlX$.O.%.6.3.6.6.6.4.6.6.6.O.+.",
"hXBXL.j.8.7.@.,.7.-.-.-.%.-.L.H.lXBXF.R.I.B.Z.A.A.B.T.A.T.B.v.v.VXBX>.>.z z j z z j z z j z e e fXVXO.O.5.%.4.;.%.6.4.4.%.%.o.O.",
"BXBXL.H.<.=.-.-.-.-.-.-.-.%.L.L.kXhXE.W.Z.I.C.A.A.A.A.A.A.A.z.z.lXBX>.>.k k k j k z z k k j e e BXBXO.O.6.%.6.6.%.6.6.7.%.%.O.O.",
"kXBXH.j.;.-.-.;.-.-.-.7.-.=.H.H.VXBX|.W.Z.T.A.I.A.A.A.A.A.A.z.z.VXBX2.>.h k k z j j k j z j e e lXlXO.O.%.%.6.<.%.4.%.%.%.%.O.O.",
"VXBXH.L.;.q.<.-.-.-.-.-.-.-.L.H.lXfXE.W.B.A.A.A.A.A.A.A.A.A.z.z.sXfX2.2.h z j j z k z k z j t e VXBXO.+.6.4.6.%.6.6.%.6.%.%.O.O.",
"BXhXH.L.&.-.-.-.-.-.-.-.-.-.H.H.CXBXW.W.Z.F.I.I.A.A.A.A.A.A.z.z.VXcX2.2.h j l l l j j h k j e 9 BXBXo.O.4.-.%.%.%.6.%.6.%.%.O.O.",
"BXBXH.L.;.;.<.-.-.-.-.-.-.q.H.L.BXfXW.W.Z.A.I.A.A.A.A.I.A.A.z.z.lXfX2.2.t y j j k k k k z k e e lXBXd O.%.6.6.6.6.6.<.6.6.6.O.O.",
"BXBXH.j.<.<.-.;.=.-.<.-.-.8.d.L.CXBXR.W.Z.A.A.A.A.A.A.A.A.A.v.N.BXBX:.>.n z j j j j j j z j e e BXBXO.+.%.%.%.%.%.%.%.%.%.%.O.+.",
"BXBXH.L.L.H.H.H.L.L.L.H.j.H.L.L.lXhXN.B.x.v.v.m.z.N.v.N.z.N.x.z.BXhXt y 9 q e t e e e e t e 9 e lXBXO.d +.+.O.O.O.+.O.O.O.+.O.O.",
"BXBXH.j.L.H.L.L.L.H.H.L.L.L.L.H.VXlXv.2.c.v.z.v.z.z.z.z.z.N.2.N.BXcX9 e t e e w e e e e e e e e BXBX+.i O.O.O.O.O.O.O.O.O.O.i O.",
"tX3XAXBXyXNXvXgXeXrXcXNXxXNXcXNXtX3XAXmXxXMXvXvXwX0XNXxXxXNXbXNXwX0XAXxXgXNXtXbX0XeXNXbXNXvXxXbXrX6XnXMXgXgXZXvXrXrXvXvXvXxXNXvX",
"wX8XyXNXvXcXcXvXwXeXdXbXvXxXbXgXeX7XyXvXdXdXcXcXeXwXxXxXxXNXtXxXqX8XyXMXvXNXMXkXeX6XvXgXcXgXcXdXqXpXyXnXtXxXvXAXeXwXvXvXvXgXMXvX",
"SXdXi.e.w.u.d.y.e.u.u.e.u.u.%X&XzX8XP.j.l.g.L.k.k.k./.k.k.j.%.$.CXkX0.:.{..X~.'.'.`.'.'.].'.'.'.mXtXt w u u u 8 w w r w w w w w ",
"zXCXu.u.d.q.u.w.t.a.t.t.t.Q @X&X| 8X! k./.k.K.k.k.k.j.l.k.j.O.O.sXNX:.9.`.`.'.'.'.~.'.~.~.~.'.'.lXBXw w 8 u 8 e w w w w w w u w ",
"fXjXq.t.[.{..X{.}.{.].}.{.|.{ >X8XjXV.V.I ! h.g.h.h.s.s.h.h.#.$.VXpX;.<.V.J.J.V.J.J.P.J.J.J.Y.^.BXhX8 r a g v c p j x x s v 0.0.",
"zXzXh.u.[.{.].{.}.}.}.}.[ OXOX}  .aXZ.) Q c.Q Q f.h.h.s.h.h.+.$.zXCX*.q : o   X     O q b H.`.'.zXVXw r p a v s x x x x l v n.0.",
"gXhXu.u.'.].{.{.}.}.}.G.! OX%X[ _ | ( ) p.y.Q a.f.f.h.f.h.h.+.+.,X1 X O O O O O X X . .   o 2..XjXpXu w j c x x p v s v p p 9.r.",
"BXhXu.p._.].+X+X{.{.^.{.[ ( ( ( ' ` ` R ! R Q j.h.f.h.f.f.f.O.% O = = * # O O O O o X X X     : lXVX8 w l p x s p x p v v p r.0.",
"BXhXu.q.[.}.].[.}.].[ G.{.[ ` ' X...' ` ) c.a.h.h.h.h.w.h.e.o = - - = & & & @ O O O o X X X   X   0Xw u p x x p p x p c p p y.9.",
"BXhXi.a.[.].].].].].].].{.{./ ` 9X9X' / 9.u.Q h.h.w.h.w.s.. : , , - - = = & & # @ O o o o X X       7 9 p p x v x v x v p p r.0.",
"CXhXe.q.[.].+X].}.}.D.].G.) _ ` ..' ' ` Y e.c.] c.h.h.h.$ 1 1 , , - - - = = & & & @ O O O X X X       7 x p l p x v p x p v r.r.",
"hXBXa.a.[.].].}.}.}.}.|.{ D.{ _ ' ` ( R R Y c.c.w.f.h.7 : 2 2 2 < , , > - - = * & # # @ O O O X X . X . 9 p v p v v p x p v 0.0.",
"BXBXe.q.@X].].}.].].].].+X|.1X_ ( | ( 3 6 + a.h.h.h.=.o 0 0 0 0 1 1 , , > - - = = & # # @ O O o o X X X O p v p p v v p x v 0.0.",
"BXhXa.t.+X}.].}.}.].].G.^ [.>X( 5XBX! G G 6 T s.h.h.$ V V V 0 0 2 2 1 , , > - - = = & & & @ O O o o X X   9 v p p x p x v v 0.0.",
"cXBX#X$X&X#X%X%X$X$X%X#X%X$X1X} aXaXK G T 5 t $.+.w , C V V 0 0 0 0 2 1 , , > > - - = = & # @ @ O O o o X $ ,.9.0.r.r.0.r.0.r.r.",
"VXhX%X&X%X%X&X#X%X%X%X%X&X$X>XOX .hXT 7 G 5 w +.+.% Z Z Z C V V 0 0 0 2 2 1 , , > - - = * * & # O O o o o X :.0.r.0.r.0.r.9.0.0.",
"wX6XMXvXbXCXyXNXMXbXNXxXvXxXxXvX3X6XAXA D 5 wXtXrX- S S Z Z C V C 0 0 0 0 1 1 1 , : > - = = & & # @ @ O o X ;XvX0XrXcXxXcXxXcXNX",
"qXkXyXvXcXcXtXmXvXvXvXxXxXvXxXvX6XgXyX3 } + cXCX<X1 H S S L P P P J F Z V 0 1 1 , , > > - = - & & & @ @ O @ H lXeXrXvXxXvXxXvXxX",
"mXkXT.C.U.P.V.P.P.P.P.C.P.U.C.P.zXcX9 ; E 1 g a w 0 J H U S.~ U I I L H F Z 0 0 2 1 , , > - - = = & # # @ @ $ e.e.e.u.e.u.e.t.e.",
"BXmXA.C.J.P.P.C.P.P.K.P.P.P.P.P.zXBXq E 3 9 a a 8 Z J I -X=XS.S.1.E P L H F S V 2 1 1 1 , , > - - = = & # @ % w.y.e.t.t.t.e.y.t.",
"hXcXC.C.r.y.b.B.n.n.n.x.x.n.9.9.VXjX$  .; M ;.8.t S P <X:X-X-XS.*X*XU P L L F S Z 0 2 1 1 , > > - - = = & # $ @.=.&.&.=.=.=.t.e.",
"VXzXP.P.M.J.b.y.b.b.n.y.n.n.:.:.lXzX< G ; g 8.g j 0 S.<X,X:X;X-X*X2.E U I P L H F Z 0 2 2 1 , : > - - = = & $ %.g =.=.g g =.t.t.",
"gXfXV.Z.n.n.x.n.n.y.n.n.M.n.9.0.VXsX* } * 7.&.-.v B ;X2X<X<X,X;X;X*X*X~ 1.E P L J F S 0 2 2 1 1 , , > - - = 7 #.*.;.;.&.*.&.t.e.",
"VXCXP.C.b.M.x.i.n.n.n.n.n.n.0.:.fXzX& E * @.;.;.=.: -X4 0 J :X:X:X;X;X;X*X1.I I P J H Z 0 2 2 1 , , > > - & q #.g =.g =.=.g t.t.",
"lXBXP.P.M.r.n.n.b.n.n.n.n.n.:.0.CXhX: } + ;.;.;.;.% * X # # - I =X:X:X*XS.S.S.I P P L H C 0 0 0 2 , , , > o g =.=.=.=.&.&.=.e.t.",
"BXhXP.C.n.n.n.n.n.n.n.n.n.n.0.,.BXhX% E 5 t ;.=.s o & X # > , = 1.;X:X:X;X=XS.S.U I P L H 0 0 0 0 0 1 , , % &.=.g =.&.&.=.=.e.t.",
"VXhXP.C.n.n.b.n.n.n.n.n.b.n.:.,.BXBXw 3 E + x ;.j 1 F J o - 0 B ; *X*X:X;X;X-XS.S.U U I J V C 0 0 0 2 1 o v =.@.;.=.=.&.@.@.e.t.",
"lXfXP.P.n.r.n.n.n.n.n.n.n.n.>.:.cXBXs 7 6 E + q c $ * + B - 2 Z A A :X:X<X:X;X-XS.S.~ U I V C 0 0 0 0 1 7 &.=.&.=.=.=.&.&.@.e.e.",
"BXBXP.C.n.n.n.n.n.n.n.n.n.n.0.:.VXBXs a 7 D } 6 * < ; 3 + F - F 1.3 <X,X3X,X,X:X-X-XS.S.~ Z C V V V 0 . *.&.=.=.@.@.@.@.@.=.e.u.",
"BXjXP.P.n.n.n.n.n.n.n.n.n.n.0.0.kXhXg a &.h ; D  .E } E 5 + =XB *XA 1.4X3X<X<X,X:X;X-XS.S.Z Z Z C 0 . g #.@.#.=.=.=.=.&.=.=.e.e.",
"lXhXP.C.9.:.0.9.0.9.0.9.0.0.:.:.BXBXi.i.H.i.i.t - 0 4 @ * & <X2 =XB <X6X3X3X2X<X<X:X;X;XJ S S Z C # r a s a a a s a a a a a g a ",
"BXBXP.C.0.9.,.0.0.:.:.:.>.0.,.0.BXhXd.y.e.i.y.M.u.y.u.m : *XqXS 0 *XkXiXiX3X3X2X<X<X:XS.H H S Z = :Xa a #.s i a s a a a a a s a ",
"wX3XuXbXbXcXgXcXvXvXvXxXMXMXxXvXtX3XAXNXdXbXvXvX0XeXvXcX6XV H = o -XqXgXrXrX3X4X4X2X:XJ J J V = <X6XAXcXxXvXxXvXwXrXbXbXMXxXNXxX",
"qXaXyXAXMXnXMXAXxXMXmXcXxXmXxXMX6XpXnXAXvXnXMXCXeXeXdXxXgXdXcXdX3XA < ~ 2X2X4X2X;XS.I J B - S.cX6X7XyXxXvXxXkXbXeX0XxXxXxXcXbXxX",
"MXkXE.F.Z.I.F.F.T.U.R.I.R.R.I.R.BXdXU.K.~.~.`.Y.~.!.~.`.~.!.~.!.NXcXc.q : > - B : = - 0 k v.k t SXxX&.g O.O.%.O.+.+.+.$.+.+.$.+.",
"cXVXF.T.|.U.Z.T.T.T.T.F.R.R.A.T.zXBX~.'.~.Y.~.U.~.J.~.~.~.Y.~.~.fXCXm.m.B.b.N.v.B.N.N.N.N.N.t t lXgXg +.#.$.#.O.$.O.+.O.O.f $.+.",
"BXzXE.F..XoX XoXXX.XXXXXXX.XW.|.hXcX~.K.r.M.M.i.y.y.y.y.M.M.!.Y.sXVXN.N.2.b b K m b m b M M e j BXhX+.+.h.f.d.p.d.s.h.h.h.h.(.(.",
"hXfXR.Z.oXoX XXXoXoXoXoXoXXXW.W.zXcX.X`.y.a.i.a.y.i.y.y.i.i.~.~.BXgXv.z.b b b b :.:.:.b m b t y aXVXO.+.h.w.j.p.w.h.h.h.h.h._._.",
"hXBXR.F.XX.X XoX X X X X X XR.|.jXgX^.~.9.y.n.n.M.M.M.y.M.y.Y.Y.sXBXN.Z.n K N m n n n n N n t t NXsX$.#.s.j.6.g.f.h.h.f.f.w.).).",
"BXVXZ.T.XXoX XXXXXXXXXXXXXXXE.R.aXVXY.~.a.a.M.M.y.M.y.y.V.y.~.~.VXVXv.c.b M m b M M b b b n h t BXsX#.O.g.w.k.d.p.h.p.p.h.h.).).",
"iXiXT.W. XXXoXXXXXXXXXXXXXXXT.R.iXiX~.!.i.y.a.M.i.M.y.i.i.y.`.~.iXiXv.B.m M m b M m m m m m t t iXiX#.+.h.u.g.s.h.h.w.h.h.s.).(.",
"iXiXI.U. XXXoXXXXXXXXXXXXXXXR.R.iXiXY.!.M.y.M.y.i.M.y.M.i.y.~.Y.iXiXB.B.m M m M M N m m N m j t iXiX+.O.g.u.h.h.h.h.w.h.f.w.)./.",
"BXcXT.R. XXXXXXXXXXXXXXXXXXX|.R.BXhX~.`.M.M.y.y.y.i.r.i.M.y.~.`.cXpXB.N.n :.m m m m m m M M h t zXkX$.+.f.h.g.h.f.h.f.h.h.h.)._.",
"VXBXT.T.XXXX.XXXXXXXXXXXXXXXR.R.BXhX!.!.M.M.r.y.i.M.i.y.y.y.Y.~.VXBXB.v.n M m M m m m m M m t t lXhX+.+.s.h.f.h.h.h.h.f.w.h./.).",
"lXBXI.R. XoXXXXXXXXXXXXXXXXXR.R.BXBX~.`.M.M.y.M.M.i.M.y.i.i.~.~.sXBXB.B.n b b M M M m m m b t t BXBX$.+.h.h.f.h.f.h.s.h.h.h.).).",
"BXBXR.R. XXX.XXXXX.XXXXX.XXXW.|.lXhX~.J.M.y.y.y.y.y.i.y.y.i.Y.Y.BXVXv.v.n b M M m M m m m b t h sXBX+.O.h.a.f.f.s.u.p.h.h.h././.",
"lXlXI.T.|.R.R.W.R.R.|.W.R.E.U.R.BXBX'.~.Y.~.Y.~.~.~.~.~.Y.Y.'.~.lXfXt y t t t t t t t t h j e t lXBX$.+.)._.).)._.)._.)././._.).",
"BXcXR.R.Z.W.R.|.R.R.R.R.R.|.T.E.BXfXY.~.~.~.Y.Y.~.Y.'.~.~.Y.`.Y.BXBXt t h y t t t h t t t t e j BXlX+.+.)._._./././.).).)./._.(."
};
