/* XPM */
static char *result[] = {
/* columns rows colors chars-per-pixel */
"64 64 251 2 ",
"   c #0E0E0E",
".  c #0E1112",
"X  c #131414",
"o  c #15191A",
"O  c #1A1C1C",
"+  c #23231F",
"@  c #1E2121",
"#  c #182729",
"$  c #173135",
"%  c #222525",
"&  c #282924",
"*  c #25292A",
"=  c #292D2D",
"-  c #39322B",
";  c #2A2F30",
":  c #2D3333",
">  c #223739",
",  c #313636",
"<  c #363836",
"1  c #353B3B",
"2  c #393E3F",
"3  c #46392C",
"4  c #38403E",
"5  c #524839",
"6  c #654F39",
"7  c #76683E",
"8  c #223C40",
"9  c #124D54",
"0  c #16565C",
"q  c #324441",
"w  c #3B4343",
"e  c #295357",
"r  c #185764",
"t  c #155B65",
"y  c #1D5A64",
"u  c #115A6A",
"i  c #145A6A",
"p  c #235D66",
"a  c #245D6D",
"s  c #385C61",
"d  c #146469",
"f  c #0C6D7B",
"g  c #1E6773",
"h  c #146B76",
"j  c #1E6A74",
"k  c #156C79",
"l  c #196A7A",
"z  c #07717E",
"x  c #0C727E",
"c  c #15737D",
"v  c #276567",
"b  c #26636B",
"n  c #29646E",
"m  c #276774",
"M  c #2A6472",
"N  c #226975",
"B  c #2E6C74",
"V  c #246C79",
"C  c #346D77",
"Z  c #367475",
"A  c #367179",
"S  c #39737C",
"D  c #434B4B",
"F  c #464B48",
"G  c #53544F",
"H  c #4A5353",
"J  c #4F5958",
"K  c #575758",
"L  c #535D5C",
"P  c #6C5946",
"I  c #55605F",
"U  c #7B694E",
"Y  c #5A6563",
"T  c #5B6765",
"R  c #42797C",
"E  c #636C6A",
"W  c #65716E",
"Q  c #71796C",
"!  c #6A7674",
"~  c #717D7B",
"^  c #AC792B",
"/  c #D57C12",
"(  c #8B7154",
")  c #38807F",
"_  c #56877B",
"`  c #72876E",
"'  c #76867A",
"]  c #B68930",
"[  c #DB8F1D",
"{  c #E49A1A",
"}  c #D89621",
"|  c #E7AB22",
" . c #F5CC2B",
".. c #FDE539",
"X. c #8F8653",
"o. c #AE8743",
"O. c #868B6F",
"+. c #B48F6B",
"@. c #CFA36F",
"#. c #FEEE4E",
"$. c #067481",
"%. c #0E7381",
"&. c #127484",
"*. c #1E7682",
"=. c #197187",
"-. c #177988",
";. c #1B7E8D",
":. c #217684",
">. c #227985",
",. c #257D8B",
"<. c #297989",
"1. c #367C87",
"2. c #3D7C84",
"3. c #31778F",
"4. c #3A7E8A",
"5. c #257D91",
"6. c #427D85",
"7. c #427B88",
"8. c #11848D",
"9. c #1B808E",
"0. c #158590",
"q. c #1C8291",
"w. c #24828C",
"e. c #37848A",
"r. c #3A828C",
"t. c #278894",
"y. c #2E8D9D",
"u. c #318694",
"i. c #3D8592",
"p. c #348A95",
"a. c #3D8B96",
"s. c #37859A",
"d. c #348B9A",
"f. c #3D8D99",
"g. c #2C929E",
"h. c #38929B",
"j. c #2D8CA0",
"k. c #378DA1",
"l. c #2E92A1",
"z. c #2C98A4",
"x. c #3292A2",
"c. c #3C99A6",
"v. c #3EA0AB",
"b. c #4C848E",
"n. c #48898B",
"m. c #548B87",
"M. c #4D8591",
"N. c #448A94",
"B. c #498994",
"V. c #418C9A",
"C. c #548C97",
"Z. c #47969C",
"A. c #52949D",
"S. c #5A9799",
"D. c #5B949D",
"F. c #648C88",
"G. c #7A8884",
"H. c #62989B",
"J. c #64A29D",
"K. c #4496A4",
"L. c #4A95A3",
"P. c #4299A6",
"I. c #449BAA",
"U. c #499AA8",
"Y. c #4E98AE",
"T. c #5196A3",
"R. c #5D94A1",
"E. c #599AA4",
"W. c #529EAB",
"Q. c #6196A2",
"!. c #639BA5",
"~. c #6A9DA7",
"^. c #659DA9",
"/. c #709CA7",
"(. c #4EA2AC",
"). c #54A2AD",
"_. c #5AA5A8",
"`. c #45A6B6",
"'. c #49A8B7",
"]. c #46A9B8",
"[. c #4AAABA",
"{. c #55A5B1",
"}. c #5AA5B3",
"|. c #55AAB6",
" X c #5AA9B4",
".X c #56AEBA",
"XX c #5AADBC",
"oX c #55B2B8",
"OX c #59B1BD",
"+X c #68A3A8",
"@X c #71ADAE",
"#X c #6DA8B3",
"$X c #72ABB4",
"%X c #74AAB8",
"&X c #74B1B9",
"*X c #5BB0C1",
"=X c #63A6C1",
"-X c #68BECB",
";X c #66C3CB",
":X c #6AC2CE",
">X c #6DC5D1",
",X c #70C3D3",
"<X c #838C8A",
"1X c #83918C",
"2X c #8A9895",
"3X c #919D9B",
"4X c #93A29E",
"5X c #9095A1",
"6X c #9AA9A5",
"7X c #A3B2AD",
"8X c #AAB9B5",
"9X c #CFB693",
"0X c #D5BAAB",
"qX c #B5C4BC",
"wX c #B9D2B9",
"eX c #CAC9B5",
"rX c #FFFAA8",
"tX c #B6C6C5",
"yX c #B9C6C4",
"uX c #BACAC5",
"iX c #BAC9C9",
"pX c #B9CFD0",
"aX c #BCD7D9",
"sX c #BEE0DF",
"dX c #C4C4C3",
"fX c #C5CDCB",
"gX c #CCCECC",
"hX c #D4CBCC",
"jX c #C5D4CE",
"kX c #CDD3CD",
"lX c #C8D7CC",
"zX c #D2D2CE",
"xX c #D1D9CE",
"cX c #CBCDD3",
"vX c #D2CED2",
"bX c #D8CED6",
"nX c #C6D5D4",
"mX c #CAD5D5",
"MX c #C5DAD4",
"NX c #CAD9D4",
"BX c #C4D4DC",
"VX c #CAD6DA",
"CX c #C6D9D9",
"ZX c #CBDADA",
"AX c #D3D3D3",
"SX c #DAD3D4",
"DX c #D3D5DA",
"FX c #D8D7D8",
"GX c #C0E0D5",
"HX c #C9D7E2",
"JX c #D8D3E4",
/* pixels */
"iXqXHXDXaXDXaXMXtXiXnXnXVXnXnXVXtXqXCXNXMXZXNXmXiXtXCXMXMXMXCXMXiX8XaXMXjXVXNXmXtXiXVXMXnXVXnXmXpXqXHXVXmXnXZXpXuXuXmXnXZXnXZXnX",
"yXwXaXmXMXVXmXNXuXuXnXnXmXnXnXnXyXhXaXHXVXBXMXZXiXtXnXVXVXZXnXnXdXhXaXVXCXHXVXBXtXiXmXVXnXZXnXmXqXwXaXMXnXnXnXmXiXuXMXNXMXnXmXnX",
"bXnXU.K.v.c.Y.c.I.c.I.I.I.I.U.c.NXmX/.H.+X+XJ.!.^.!.+X^.~.!.C.M.ZXcXb.R R R S r.2.S 2.4.2.2.y y JXnX=.k %.$.;.$.&.f &.%.c &.&.&.",
"bXAXc.I.I.c.I.c.U.P.U.P.P.P.I.U.mXFX~.^.+XE._.Q.^.^.!.!.!.Q.b.b.nXDXS n.e.6.) r.n.6.6.7.6.6.p 0 hXxXc x %.f =.%.%.x x x z x z z ",
"mXxXc.c.<.c 1.9.,.>.,.w.,.t.K.k.AXSX/.^.C.R.H.~.S.D.R.D.R.E.b.M.SXFXR 6.n M a M a M b n a M 0 y AXzXf &.;.q.w.0.;.;.5.w.w.5.-.%.",
"bXhXc.I.,.t.<.,.w.,.w.<.,.w.I.I.AXkXH.+XD.R.S.C.R.Q.R.C.R.R.M.M.SXAXS r.b m n n M m M M M M r a hXbX$.%.9.-.w.-.;.;.;.9.;.;.%.%.",
"mXzXI.I.<.w.>.w.5.<.,.5.>.,.P.U.AXAX!.+XC.R.S.E.D.S.S.S.S.D.b.m.hXmX2.2.b M v n v v v v n v 0 0 ZXvX-.&.q.q.8.q.q.q.9.q.q.;.%.&.",
"zXSXU.c.w.w.>.3.,.,.,.,.,.,.I.P.AXDXH.!.D.R.S.D.D.D.H.C.H.C.M.M.bXFX2.2.M M v M M v B M n n y y zXSXf %.0.9.9.5.;.q.9.9.;.;.%.$.",
"AXAXI.c.,.,.,.<.,.,.w.,.,.,.I.I.vXzX^.^.S.Q.D.D.D.D.D.D.D.D.M.b.zXAX2.2.n n v b n n m n n b y y AXAX%.%.;.q.q.;.;.q.;.q.;.;.%.%.",
"AXzXP.c.,.,.,.<.,.,.<.w.,.>.I.c.AXmX+X^.D.Q.D.R.D.D.D.D.D.S.M.b.AXAX7.2.n M b m n n n v n n y y vXvX%.%.;.;.q.q.;.q.;.q.;.q.%.%.",
"FXAXP.I.5.5.5.>.,.>.,.,.,.,.U.P.AXvX^.^.C.D.D.R.D.D.D.D.D.D.M.b.zXnX7.7.v n b b M n M b n n y y AXFX$.&.q.q.q.5.q.q.q.q.;.;.%.%.",
"vXzXK.P.<.5.,.,.,.w.5.,.,.,.c.I.AXvX^.#XS.S.H.' G.D.D.D.D.D.b.b.AXAX7.7.v b b m n n b b n a y y AXAX%.%.;.,.;.;.;.;.;.;.;.;.%.%.",
"AXAXI.P.5.,.,.,.,.,.,.,.,.<.P.I.mXzX~.+X' F.O.' G.H.O.O.D.H.M.M.vXzX7.7.n M b N M b n n m n y y vXAXf %.;.;.q.q.q.q.5.q.5.q.$.%.",
"mXAXK.c.3.,.5.,.,.,.,.,.,.t.c.I.FXAXO.O.' o.H.D.` ' X.H.D.D.M.M.AXAX2.2.n M b b b b n n n n y p AXAX%.%.;.,.;.;.;.;.;.;.;.;.%.&.",
"AXAXU.I.P.c.c.P.I.I.I.P.P.c.P.I.zX0XM.F.m.| o._ [ ` M._ Q m.b.b.AXkXy y 0 e y y y y y y p y 0 0 vXAX%.%.&.%.$.&.%.&.%.%.%.&.%.%.",
"AXAXP.c.Y.I.P.P.I.P.c.I.U.I.I.P.AX0XM.b.m.]  .[  .( b.F.` _ b.M.vXAX0 p p y y r y y y r y y y y vXAX%.%.&.%.%.&.$.%.%.%.%.%.f %.",
"pXqXHXVXMXDXaXlXiXiXnXZXnXZXnXmXcXqX9X@.@.[ #.....| | / @.9XeXNXpXtXHXmXNXZXpXNXtXuXZXZXNXnXMXNXiXqXBXCXlXlXGXMXiXiXnXVXnXnXMXmX",
"qXwXaXZXMXmXnXMXuXuXjXMXNXnXZXlXqXwXpX9X| ..#.rX#...} eXkXeXpXMXqXeXaXsXMXVXGXvXuXqXMXlXNXNXlXMXyXgXaXBXpXMXaXZXuXuXMXlXMXMXNXMX",
"JXfXf.u.y.y.k.a.p.s.d.s.d.d.:X:X0X@.H.c.o. .#.rX#...| X.S.` o.-.DXcXr.A  X#X). X X{. X{.|. X{.{.VXpXy r 0 t d 0 t r u u i t i t ",
"bXSXd.s.k.t.s.g.p.h.p.p.p.p.:X>XmXeXc.F.{ ....#...[ X.X.X.h.x x hXZX1.u.{.{.{. X X). X).{.). X XAXAXr i t u 0 t d t t t t r d t ",
"kXlXt.p.XXoX#XoX.X.X.XOX.X|.>X-XxXFXZ.| } ] {  .| [ t.m.m.x.&.=.SXfX<.u.L.L.(.Z.L.L.I.L.U.L.). XSXkXr u d l V m N g N N N V 1.r.",
"SXSXh.d.OXoXoXoXOX.XoXOX|.OX:X:XFXeXX.` g.g.] ^ ^ / u.y.f.x.&.-.bXDX3.3.Z.K.Z.c.Z.Z.Z.Z.L.Z.{. XbXSXu u g l V j b N N m m m i.i.",
"mXkXd.d.XXoXoXoXXXXXXXXX.X.X-X,XNXhXv._ _ e.X.6 7 6 ` ` m.z.-.-.lXlX4.3.Z.Z.A.Z.L.L.L.L.L.L.}. XlXlXt t N V v N j V N l g l r.i.",
"AXzXs.g.[.oX*X=XoXoXoX.XOXoX;X:XzXSXv.` h.X.` - +.3 n.n._ l.&.&.SXAXr.3.Z.c.L.K.L.L.K.L.L.L. X XAXSX0 i m j V k j N N V N j r.i.",
"AXzXs.t.*XOX.X.XOXXXOX.XOXOX-X:XzXFXc.c.x._ = U 6 7 h.y.x.x.-.&.AXdXB 0 s S 4.Z.U.U.L.L.L.L.). XvXzXi t g j N N g N g V g g i.r.",
"AXzXd.h.XX.X.X.X.X.X.X.X.XOX:X:XAXAXv.c.<., 6 ( : a.x.y.x.x.k 9 o X % * * @ O X $ s L.Z.L.K. X XgXlXu t g N N N N V N V N g i.r.",
"DXxXp.p.XX.X*X.XOXOXOX.XOXOX:X:XvXvXv.V : +.6 * y.x.x.x.V o o q 4 < < : = = % % @ o o C K.L.{. XDXzXi i N N N g N N g V N N i.i.",
"gXAXh.p.XX.X.X.X.X.X.X.X.X.X-X:XFXFXs F ( 6 q y.y.l.y.$ ; H D w w 2 1 : : = * % % O O X # V.{. XAXgXt t g j m N V N N N g N r.r.",
"AXFXu.t.OXOX.XOXXX.X.X.XOX*X:X>XgX<X5 +.3 s l.l.x.<.@ H J H D w w 2 1 , : ; * * % O O O o X B.}.AXzXi t j j m j N N j g N V r.i.",
"AXzXh.y.#XOX*X.XOXOX.X.XOXOX-X-X2XP P 3 s d.z.l.<.@ L L H H H D w 2 1 , : ; * * % O O O o X X N.AXkXi t V j N g g g N j V V 4.r.",
"vXFX:X;X>X-X:X>X:X:X:X:X:X-X>X:X- +.3 0 &.&.-.%.$ Y I L J H H w w w 1 1 : : = * % % O o o X X o gXAXi t r.e.4.r.i.i.i.r.i.4.i.i.",
"AXgX:X>X>X:X>X-X:X:X:X:X>X-X>X6.( 6 8 =.;.&.-.$ L E T I L J H D D w 2 1 , : ; * % % + O o o X   K kXt t i.i.i.r.i.r.i.r.i.r.i.r.",
"tXqXHXMXnXDXaXVXMXnXZXnXnXCXnX5 +.- pXDXMXnX6X1 E Q 3X<X5X( E K D w 2 1 , : ; ; * % @ O O O X X . dXHXbXMXZXjXGXtXiXmXmXnXnXmXNX",
"yXkXaXnXMXmXjXZXZXZXMXnXMXMXpXG ( 5 aXMXaXmXF ! 3X4X3X<X<X6.! E L w w 1 1 : ; = * % @ O O X X X X ! aXBXpXmXmXmXuXuXMXnXNXnXMXnX",
"VXcXD.A.T.T.A.T.T.A.T.T.T.E.A.F +.- l j c t , 3X7X6X3X2X<X6.<XQ T H w 2 1 , : ; * * % @ O O X X     g i h.s.h.p.p.u.s.p.d.u.s.u.",
"AXVXD.A.W.T.T.T.T.L.T.L.T.T.A.< ( & l k u o 2 H ( 6X4X5X<X<X7.( E Y H 2 1 , : ; * % % @ O O X X . o l k y.d.u.y.f.p.p.u.u.u.h.p.",
"zXmXA.A.a.s.B.B.N.N.N.n.N.N.e.Z +.3 r d @ 2 . o # ! 5X5X1XG.6.6.E Y L w 2 , , ; ; % % @ O O o X X   $ f :.:.<.V :.>.*.,.>.w.t.u.",
"SXbXT.T.V.K.B.a.N.N.N.V.N.N.1.1.3 ( + 9 F Y * @ * : 2X6X2X1X<X( W T L D 2 1 , : ; * * % @ O O X X     =.1.l >.-.c >.*.V >.V p.a.",
"lXlXA.A.N.N.n.N.N.N.N.N.N.N.r.e.E ( ( & - O T O ; * T 3X2XG.G.~ ! T Y J 2 1 , : ; ; % % @ O O o X X   h V 9.V :.<.<.<.>.:.:.p.p.",
"AXDXA.A.B.V.n.f.N.N.N.N.N.N.4.4.hX3 ( P 3 & F O 2 , H 1X3X1XG.G.! W T L w 1 1 , ; ; * % @ @ O o X X   l ,.c ,.<.*.>.c :.:.:.p.u.",
"AXAXT.T.N.N.N.N.B.N.N.N.B.N.4.1.bXdX$ 6 ( 6 3 = w H = 1X3X2XG.G.~ W T L H 2 1 , ; ; * % % O O o X .   h :.>.*.:.>.>.*.*.:.:.u.p.",
"vXzXL.A.N.N.N.N.N.N.N.N.N.N.4.1.vXgXk $ % & < * J I * 2X3X2X1XG.~ ! E I K w 1 , , ; ; * % @ O O X X   h :.*.,.:.c :.,.>.,.:.p.p.",
"FXAXT.T.N.N.N.N.N.N.N.N.N.N.4.4.AXAXj 0 L O <X< ~ ' 4 2X2X3X1XG.6.! E Y K w 2 < , : ; % % % O O O X # f :.>.>.:.,.:.>.*.:.:.t.p.",
"AXzXT.A.N.i.N.N.N.N.N.N.N.N.4.1.vXAXh k > 7X8X< 1XE I 2X2X3X2XG.O.~ W T K w 2 < : : ; * % % @ O O X $ h :.>.:.:.>.>.,.V :.:.u.p.",
"vXxXT.T.N.N.N.N.N.N.N.N.N.N.r.1.SXAXk h 9 <XK H E 2 3X4X6X4X2X1X<X~ ( 7.E 5 2 2 : : ; * * % @ O O X 0 h :.:.,.>.:.*.*.*.*.>.p.d.",
"AXAXT.T.N.N.N.V.N.N.N.N.N.n.e.r.AXgXl h :.e o H W 7XqX8X7X6X3X1X<XG.7.( E F w 2 1 , ; ; * % % O O + k h :.*.=.:.:.:.:.*.>.>.u.p.",
"vXzXT.A.e.e.4.r.4.2.r.1.4.r.1.1.DXAXf.h.k.f.<.L nXuXiX8X7X6X3X1X<X( <X6.Y D w 2 1 , : ; * % % @ O W h h l k k h k h k h k d k k ",
"AXAXT.A.2.1.4.r.e.1.4.1.4.r.1.r.AXzXf.d.f.f.f.# 6XpXiX8X7X6X6X2X<X6.6.( K D w w 1 , : : ; % % @ % zXh h l h h h k k k k k h k h ",
"tXqXBXMXNXmXMXVXMXMXCXnXMXCXMXCXiXqXBXVXlXVXGX7X4 8XuXqX8X7X6X2X2X<X6.! L D w 2 2 , : : = * % X 3XuXJXnXMXnXMXMXtXiXMXVXnXnXZXVX",
"yXhXaXZXZXBXMXVXVXnXZXnXVXnXnXmXyXgXaXHXMXBXVXDX' J 7XtX8X6X6X3X2X<XO.W H D D w 2 1 , : = * O <X8XwXaXaXnXMXcXNXuXtXnXNXNXnXNXnX",
"CXcXQ.H.S.D.H.H.R.E.Q.H.E.!.R.!.AXfXE.Y.).W.{.W.).n D 6X8X8X6X4X5X<X~ J H D D w 2 1 , : : O $ a JXmXV &.%.%.;.%.&.&.&.&.&.&.-.&.",
"mXAXQ.~.!.W.J.Q.Q.Q.Q.Q.Q.~.R.Q.SXAXW.}._.W.).W._.W.C : ' 2X4X2X~ L L L H D D w w 2 1 : O s a p xXNXc c =.&.=.-.-.%.-.x %.x -.&.",
"SXzX~.H.#X%X@X%X$X$X$X$X$X#X+X+XvXmX).'.a.f.Z.h.a.V.f.1.$ D W W E Y I J H H D F w 1 X # C S y v AXzX&.c x.l.d.g.k.j.x.x.x.x.'.'.",
"xXkX!.S.%X%X@X$X%X%X%X$X%X$X^.^.SXvX#XY.a.f.f.p.a.f.f.a.a.C > : F Y Y L H H D O . e 1.C S C p a hXAX&.%.x.y.c.y.g.x.x.x.x.x.[.[.",
"zXAX!.H.$X#X@X%X@X@X@X@X@X@X+X!.lXlX_.).e.a.N.N.N.V.a.N.N.N.W.L.<XE # ; # # s A C Z C C Z Z p p ZXhX=.=.j.z.g.z.x.x.x.l.l.l.].].",
"vXDXD.!.$X%X@X#X$X#X$X$X$X#X~.!.zXSXW.).h.h.N.V.f.f.a.f.f.f.).).vXAXM.C.A S Z C Z S A A Z C v p zXbX-.&.z.g.x.k.g.x.g.y.x.g.'.'.",
"dXdXQ.^.$X$X&X$X$X$X$X$X$X$X!.!.dXdXW.(.V.f.f.a.f.V.i.f.f.a.).).dXdXC.B.Z S C S A Z A A A A p p dXdX&.&.x.d.l.l.x.x.y.l.x.l.[.].",
"dXdXR.!.@X$X$X$X$X$X$X$X$X$X+X!.dXdXY.(.V.f.V.f.f.V.f.V.V.a.).).dXdXC.C.Z S C 2.S S A S S A p p dXdX&.&.z.d.z.x.x.x.y.x.x.y.].`.",
"AXmXQ.E.@X$X$X$X$X$X$X$X$X$X!.!.AXzX).(.N.V.a.a.a.f.a.f.f.a.).).bXgXC.M.B S C S A A C A S A v p vXvX=.&.z.k.l.x.l.x.j.x.x.x.[.[.",
"AXAXQ.Q.$X$X#X$X$X$X$X$X$X$X~.E.AXxX).(.a.V.a.f.f.V.f.a.a.a.W.W.DXzXC.C.C 2.C S S S A S S S v p gXvX&.&.g.x.l.x.x.x.x.l.g.j.`.`.",
"vXAXR.Q.@X$X$X$X$X$X$X$X$X$X+X!.AXSX).{.V.V.f.V.V.f.V.f.f.V.).).zXzXD.C.Z C A S A S Z A Z C p p FXAX-.&.x.x.g.x.x.j.x.x.x.x.'.[.",
"AXFXQ.^.@X$X#X#X#X$X$X$X#X$X+X~.mXzXW.U.N.a.a.a.f.a.a.a.f.f.W.).AXSXM.M.Z A A S A A A A A A p a zXvX&.%.x.x.l.x.l.y.l.j.x.x.`.`.",
"mXAXR.!.+X~.!.^.~.!.^.^.!.+XD.E.AXAX{.).W.).W.).{.).).).W.W.{.).vXgXa a p p p p p v p p v n y p vXAX-.&.].'.].[.[.].[.'.`.`.[.[.",
"AXAXR.^.S.~.E.~.E.+X!.!.!.+XQ.+XAXzX).).W.).W.).).W.).).).W.).).AXAXp p p p p a p p p p p a y v AXvX&.&.].[.].`.`.`.'.].].`.[.`."
};
