/* XPM */
static char *result[] = {
/* columns rows colors chars-per-pixel */
"64 64 249 2 ",
"   c #0E1010",
".  c #131414",
"X  c #141718",
"o  c #161919",
"O  c #1A1C1D",
"+  c #2A231C",
"@  c #1D1F20",
"#  c #1E2121",
"$  c #182527",
"%  c #19353A",
"&  c #222525",
"*  c #262A2A",
"=  c #292D2E",
"-  c #333029",
";  c #2B2F30",
":  c #253537",
">  c #2D3233",
",  c #313536",
"<  c #343736",
"1  c #353B3B",
"2  c #383E3E",
"3  c #46321B",
"4  c #463D32",
"5  c #524635",
"6  c #6A5138",
"7  c #1A3E43",
"8  c #0E5057",
"9  c #19565C",
"0  c #264548",
"q  c #3C4343",
"w  c #3D4A48",
"e  c #295257",
"r  c #3B6559",
"t  c #155B65",
"y  c #155866",
"u  c #1E5A64",
"i  c #115A6A",
"p  c #235D65",
"a  c #275C66",
"s  c #146369",
"d  c #0C6D7A",
"f  c #1E6673",
"g  c #146A76",
"h  c #186A78",
"j  c #07717E",
"k  c #0C727E",
"l  c #15747D",
"z  c #266567",
"x  c #26636B",
"c  c #29646E",
"v  c #276674",
"b  c #2A6472",
"n  c #226975",
"m  c #246C79",
"M  c #346D77",
"N  c #26727C",
"B  c #377475",
"V  c #367179",
"C  c #39737C",
"Z  c #424646",
"A  c #434C4B",
"S  c #58524F",
"D  c #4B5454",
"F  c #4B5655",
"G  c #565656",
"H  c #535D5C",
"J  c #6B5945",
"K  c #4D6358",
"L  c #75684C",
"P  c #5A6563",
"I  c #5B6765",
"U  c #497B7A",
"Y  c #626D6B",
"T  c #66736C",
"R  c #6B6E71",
"E  c #697573",
"W  c #6C7A76",
"Q  c #717D7B",
"!  c #9B6D28",
"~  c #AB782F",
"^  c #CF7D20",
"/  c #8F7551",
"(  c #897657",
")  c #38807F",
"_  c #5F857F",
"`  c #78896E",
"'  c #75837C",
"]  c #B78236",
"[  c #D68E27",
"{  c #DD9B20",
"}  c #ECB524",
"|  c #F6D02F",
" . c #FEE73D",
".. c #928C62",
"X. c #B4926E",
"o. c #D19B5F",
"O. c #C89E70",
"+. c #FEEE4E",
"@. c #067481",
"#. c #0E7381",
"$. c #127483",
"%. c #1F7682",
"&. c #197187",
"*. c #177987",
"=. c #1B7E8D",
"-. c #227684",
";. c #227985",
":. c #2D758C",
">. c #257D8B",
",. c #2A798A",
"<. c #357B87",
"1. c #3D7C84",
"2. c #3A7E8A",
"3. c #247D91",
"4. c #467983",
"5. c #427D85",
"6. c #11848D",
"7. c #1B808E",
"8. c #158590",
"9. c #1C8291",
"0. c #1E8D9E",
"q. c #25818C",
"w. c #35838C",
"e. c #3A828C",
"r. c #278894",
"t. c #2D8E9D",
"y. c #338696",
"u. c #3D8591",
"i. c #348A95",
"p. c #3C8A96",
"a. c #348B9B",
"s. c #3D8D99",
"d. c #2C929E",
"f. c #35919A",
"g. c #1D90A2",
"h. c #378DA1",
"j. c #2291A2",
"k. c #2E92A1",
"l. c #2F96A8",
"z. c #2E9BAA",
"x. c #3292A2",
"c. c #3A99A6",
"v. c #3B9CAB",
"b. c #3DA7B5",
"n. c #4C858E",
"m. c #48888B",
"M. c #578C86",
"N. c #4D8591",
"B. c #448A94",
"V. c #4A8994",
"C. c #418C9A",
"Z. c #548C97",
"A. c #45949E",
"S. c #49989A",
"D. c #52949D",
"F. c #5A9798",
"G. c #5B949D",
"H. c #7A8785",
"J. c #6E9488",
"K. c #63989B",
"L. c #64A29D",
"P. c #4596A2",
"I. c #4A96A3",
"U. c #4299A6",
"Y. c #4999A7",
"T. c #449BAA",
"R. c #4C98AF",
"E. c #5296A3",
"W. c #5D94A1",
"Q. c #599AA4",
"!. c #529EAB",
"~. c #6196A2",
"^. c #639BA5",
"/. c #6A9DA7",
"(. c #659DA9",
"). c #709CA7",
"_. c #4EA2AC",
"`. c #5BA1A4",
"'. c #54A2AE",
"]. c #45A6B6",
"[. c #49A8B7",
"{. c #46A9B8",
"}. c #4AAABA",
"|. c #55A5B1",
" X c #5AA6B3",
".X c #55AAB6",
"XX c #5AA9B4",
"oX c #56AEBA",
"OX c #5AADBC",
"+X c #55B2B8",
"@X c #59B1BD",
"#X c #68A3A8",
"$X c #71ADAE",
"%X c #6DA8B3",
"&X c #72ABB4",
"*X c #74AAB8",
"=X c #74B1B9",
"-X c #5BB0C1",
";X c #63A6C1",
":X c #67BECB",
">X c #66C3CB",
",X c #6AC2CE",
"<X c #6DC5D1",
"1X c #70C3D3",
"2X c #818E8B",
"3X c #83908D",
"4X c #8A9794",
"5X c #919F9C",
"6X c #B89F90",
"7X c #94A19D",
"8X c #9AA8A5",
"9X c #A9B4B1",
"0X c #A9B8B4",
"qX c #CAB691",
"wX c #CDBDA8",
"eX c #B5C5BC",
"rX c #B9D2B9",
"tX c #FFF683",
"yX c #CBCAB8",
"uX c #B8C6C5",
"iX c #BBCAC5",
"pX c #BAC9C9",
"aX c #BBCDD0",
"sX c #BCD7D9",
"dX c #BEE0DF",
"fX c #C4C4C3",
"gX c #CBCDCC",
"hX c #D4CCCE",
"jX c #C4D4CE",
"kX c #C8D6CB",
"lX c #CDD2CD",
"zX c #D2D2CE",
"xX c #D1D9CE",
"cX c #CBCDD3",
"vX c #D3CED2",
"bX c #D8CED8",
"nX c #C6D5D4",
"mX c #CAD5D5",
"MX c #C5D9D4",
"NX c #CAD9D4",
"BX c #CAD6D9",
"VX c #C6D8DA",
"CX c #CBDADA",
"ZX c #D3D3D3",
"AX c #D9D4D6",
"SX c #D4D5D9",
"DX c #F0EAD6",
"FX c #C9D6E2",
"GX c #D8D2E4",
/* pixels */
"aXeXFXBXsXNXMXnXuXpXnXnXBXNXnXnXpXfXVXNXMXCXkXNXpXuXVXVXnXVXNXnXaX0XdXMXjXBXNXBXuXpXmXBXnXBXnXnXaXeXFXBXNXnXCXaXiXiXnXnXCXVXNXNX",
"eXyXsXnXMXmXmXNXiXiXnXcXVXnXnXnX0XhXsXFXVXVXVXCXpXuXnXnXNXNXnXnXfXhXsXFXBXVXnXFXuXpXnXBXnXBXnXCXeXrXsXMXnXnXnXNXpXiXNXnXnXnXnXnX",
"bXmXT.U.v.v.R.c.T.U.T.T.Y.T.Y.c.VXNX).K.#X/.L./.#X^.#X(.^.^.Z.N.CXnXm.U C 5.C m.1.1.1.5.1.1.u u GXnX&.g $.@.=.#.#.d $.#.k $.$.$.",
"bXZXc.Y.T.v.R.c.Y.c.T.U.c.U.R.T.NXZX/./.#X`.`.Q.(././.^.^.^.n.n.lXSXC 5.e.1.) <.m.5.1.5.5.5.u 9 hXxXl k d j &.#.#.k #.k k k k k ",
"mXxXc.P.;.N :.q.>.>.>.>.>.q.U.P.zXAX)./.Z.W.K./.G.G.G.G.W.Q.n.N.hXAXU 4.c b a b z c x c b b 9 u ZXvX@.$.=.9.>.6.=.=.3.9.3.=.*.$.",
"bXhXv.v.>.r.,.=.q.>.>.>.>.q.T.T.ZXlX^.#XG.W.F.Z.W.W.W.Z.W.W.n.N.AXmX<.e.x M x b b v v b b b y p hXAXd #.7.*.r.*.=.=.=.=.7.=.#.#.",
"lXzXT.T.,.q.*.>.>.,.>.3.-.>.U.U.ZXZX#X/.Z.W.F.W.F.F.G.F.F.F.n.n.hXZX5.1.p b z c c z z x x z 9 9 ZXvX*.#.=.9.6.9.9.9.7.9.9.=.#.$.",
"zXAXY.c.q.q.;.2.>.>.>.>.>.>.T.T.zXSXG.^.W.W.F.D.G.Z.^.Z.K.G.N.N.ZXZX1.1.v b z v v x b c x v u u lXAX#.#.8.=.7.3.=.9.7.7.=.=.k #.",
"ZXZXY.T.3.>.>.>.>.>.>.>.>.>.T.T.ZXgX(.(.G.~.G.W.G.G.G.G.F.F.n.N.yXZX4.1.z c n n c c c c c x u u ZXZX#.#.9.9.9.=.=.=.=.q.=.9.#.#.",
"vXZXc.c.,.>.>.>.q.>.>.q.>.>.Y.c.ZXZX#X(.F.~.G.W.G.G.G.W.G.K.W N.o.AXT 4.z n c c c c c z b x u u vXvXk #.=.3.9.=.=.9.=.9.=.=.#.#.",
"SXZXU.T.,.>.>.>.;.>.>.>.>.>.T.T.ZXZX(.(.F.G.G.G.G.G.G.G.G.G.M.5.wXxX~ U z K z z c c c c b x p u ZXZX$.$.9.=.9.=.9.9.=.9.=.=.#.#.",
"ZXzXc.T.,.>.>.,.>.>.>.>.>.>.U.c.ZXZX(.(.F.G.W.G.G.G.G.W.Z.J...V.AXqX{ 4.r ! n n c c c c b a u 9 ZXZX@.$.=.=.=.=.=.9.=.=.=.=.#.#.",
"ZXZXT.T.3.>.3.,.>.>.>.>.>.3.U.R.ZXlX/.(.F.G.Q.G.G.G.G.' ..D./ ~ yX[ { 1.z K z n v c v c b c u u vXzXk $.=.3.9.9.=.r.=.=.=.=.#.#.",
"ZXzXU.c.:.>.>.3.>.>.>.>.>.q.c.T.SXAX^.(.F.G.G.G.G.G.G.G.J.Z.M.{ { | | ^ [ L K ! x x x x c c u u ZXSX#.$.=.=.=.=.=.=.=.=.=.=.#.$.",
"ZXZXY.v.T.U.U.U.T.T.U.c.c.U.U.T.gXzXZ.N.n.N.M.V.N.N.N.N.m.` ~ { +.+. . .! e K 9 u u u u z u 9 u vXZX#.k #.$.#.$.#.#.#.#.#.#.#.#.",
"ZXzXU.c.T.T.U.U.T.T.T.Y.T.T.U.U.AXzXN.n.n.N.n.N.N.N.M./ [ { | +.+.DX+. .~ e e K u u u 9 u u y u ZXZX#.d #.#.#.$.#.#.#.#.#.#.#.#.",
"cXeXFXBXMXSXsXkXiXpXnXCXnXCXnXBXcX0XSXNXMXMXMXMXpXuXCXVXjXqX[ | +.tX+. .| { wXxXuXuXNXVXNXVXMXMXpXeXVXVXkXxXdXMXiXpXVXVXnXVXNXVX",
"0XrXsXNXVXNXNXMXuXiXjXVXNXjXNXkXiXrXsXsXnXjXmXnXpXiXyXo.wXCXO.| |  .| } o.O.O.yXiXiXkXkXkXNXkXkXuXgXsXVXaXNXaXCXiXiXjXMXkXMXNXkX",
"GXcXs.y.t.a.h.i.i.s.a.y.a.a.,X<XGXcXY.c.b.z.R.v.v.v.v.b...m.[ ~ ^ } ! { ..XXJ...|.|.OX|.XX.X.X|.BXcXp y 8 s s t s y y y y y i t ",
"bXAXf.i.h.r.a.t.i.f.i.i.i.i.,X<XmXxXc.v.T.v.R.z.z.v.v.v.M...3 5 ^ ! C _ ] K...+XXX|. X'. X'.XX XvXZXy y t i 8 u s t t t t y s t ",
"kXlXr.i.%X+XOX+X@X.XoX@XOXoX,X:XmXcXv.P.t.-.a 0 $ = * q $ 5 / L 6 X.w.T D.F.` _ P.A.Y.I.Y.I. X XzXgXy i s h v m n f n f n m e.e.",
"AXAXf.a.-X+X.X+X@XoX@X@X.X@X,X,XAXvXv.:.$ J ( / O.( O.( X.6 6 3 6XAXT U P.U.A.U.A.A.S.A.A.A.|.XXbXAXy i h h N h n n n n v n e.B.",
"mXgXa.a.oX+X+X+XoXOXOXOX.XoX:X1XlXvX1 J / / 4 4 - + < 4 - q y L kXyX/ ) S.S.D.S.I.I.Y.I.I.I. X XlXjXt t x N x n n m f m f f w.u.",
"ZXhXa.d..X+X-X;X+X@X+X+X@X@X,X>XzXS / / - 0 m I.x.d.d.d.d.k.$.$.zXAX) w.S.c.I.I.I.I.P.I.I.P.XXXXZXAXt y n f n h f n f m m n e.u.",
"SXzXi.i.OX@XoXoX@X@X@XoX@X@X>X,X9XJ / - y.a.k.k.x.x.x.t.x.x.$.#.zXzXw.>.A.A.Y.A.Y.I.I.P.I.I.XXXXZXxXt y f f n n f n n m f f u.e.",
"ZXzXf.i.OXoX-XoXoX.XoXoXoXoX:X1X4 ( 4 :.k.f.k.k.k.k.x.-.a 9 8 0 9XhXw.w.I.A.I.S.A.A.I.A.I.P.|.XXgXgXi t f f n n n n n m n f u.e.",
"SXxXy.i.OX@X@X.X@X@X@XoX@X@X>X,XJ L q v.k.x.x.h.-.0 * 1 D A A w < .   u I.Y.I.Y.I.I.Y.P.I.Y.|.XXSXzXi s n n m f n n n n n m u.u.",
"gXZXa.f.@X.X@XOXoXoXoXoXoXoX:X XJ 5 :.v.t.h.3.7 q I T I P H F D S Z w 1 . $ m.A.I.I.I.I.S.P.|.XXzXgXs 9 n h v n m n n n f f e.e.",
"ZXAXy.r.@X@XoX@XOXoXoXoX@X-X,X4.( 3 :.e 7 : , E H.H.T I P H D D A A q 2 1 , O 0 A.P.P.A.P.I. XXXZXzXi t n h v f f n n n n m e.u.",
"ZXzXs.f.@X@X@X@X@X@X@XoX@X@X:Xm.( J , A H X ; 7X0X8X7X4X4.H D D A q w 2 1 , > * $ B.I.P.Y.Y.|. XZXzXi y m f n n f f n n m m w.e.",
"cXAX>X>X1X:X,X,X,X,X,X:X,X:X<XOX4 J - @ Y X . , 8X8X4X4X2XQ G A A q 2 2 1 , ; = & $ ,.w.<.>.w.w.vXxXi u e.e.2.e.u.u.u.w.u.2.u.u.",
"SXzX,X,X1X,X1X:X,X,X,X,X<X:X<X:X- X.4 - Y o & @ 8X8X4XH.2XQ Y A A q q 1 , > ; * * & % ,.w.<.w.,.ZXxXi t u.p.2.e.u.e.u.u.u.e.e.e.",
"uXuXVXVXMXSXsXCXNXnXCXnXVXNXnXNX= - 5 - 1 = = > 7X7X4X2XH.W Y D Z q 1 1 , > ; * & & o 8XcXBXCXNXpXuXFXvXMXNXnXMXuXpXNXVXNXnXNXBX",
"uXlXsXnXVXcXjXCXVXMXVXnXMXVXnX4XH + + R & 2 , 2 4X4X3XH.Q W Y F q q 1 1 , ; = * & @ @ # pXCXnXVXuXrXsXCXaXNXBXmXiXiXnXkXnXnXnXnX",
"BXcXW.D.D.E.I.E.D.E.E.D.D.E.D.0 3X- 2X, w Z ; E 4X4X2XH.Q E Y H q 2 1 1 , ; * * & @ O . N b.j.g.cXnXf g f.a.s.i.y.y.a.i.a.y.i.y.",
"ZXBXF.D.!.E.E.Z.I.E.E.E.!.E.E.$ gX0XD H H D , 3X7X4X2X' W R I H q q 1 , ; ; * & & @ O o % {.j.g.bXZXh g a.a.y.r.i.i.i.i.i.y.p.i.",
"zXZXD.A.s.p.B.V.B.B.B.B.B.B.w.0 2 > E H.W & H.H.4X4XH.' E Y P H q 2 < , ; ; * & & @ o o   h.g.g.ZXgXg g m -.<.l ;.;.;.-.;.;.i.y.",
"AXvXE.Q.C.P.C.C.B.B.V.B.B.B.2.<.. 1 W E * H.4X4X4X3XH.Q E Y P F 2 1 < > ; * * & @ O o o   -.0.t.vXAX#.h :.h ;.7.l ;.%.-.l ;.i.i.",
"kXlXS.D.m.B.m.B.B.u.B.B.B.B.w.V q iXY I 5X5X4X5X4XH.H.W R I H A 2 1 , > = * & $ @ O o . . p 0.0.SXhXg g N q.N h ,.,.;.-.;.-.i.p.",
"SXSXG.D.V.A.m.s.B.B.B.B.B.B.2.e E kXiXeX8X5X8X4X4XH.' E Y I H Z 1 1 , > = * & & @ O o .   % j.0.ZXAXd h ;.l 3.:.l ;.N ;.;.l y.y.",
"vXZXQ.E.B.B.B.B.B.B.B.B.B.B.2.0 ' kXuXeX9X8X5X4X3X4.2XR R H F 2 1 1 > ; = * & @ O O X     % r.g.ZXZXh g -.;.%.-.;.-.;.-.-.;.y.y.",
"vXzXI.D.B.u.B.B.B.B.B.B.B.m.2.0 H.pXiX0X9X8X5X4X3XH.Q R Y H D 2 1 , > = * & & @ O O X .   u j.0.cXgXg g -.;.;.-.-.-.;.-.;.;.y.i.",
"SXzXE.E.B.B.B.B.B.B.B.B.B.B.2.c I pXeX0X8X8X4X4X2X( W Y P H 2 2 1 > ; = * & @ @ O o .     m j.0.SXzXh g -.,.>.%.;.-.;.-.%.%.i.y.",
"ZXzXE.D.B.B.B.u.B.B.B.B.B.B.2.M A eX0X0X8X8X5XH.2X4.E Y P S 2 2 1 > ; = * & @ O O o .     l.j.j.ZXzXg g -.%.%.%.;.;.;.-.%.%.i.i.",
"ZXzXE.E.B.B.B.C.B.B.B.B.B.B.2.2.> 8X0X0X8X7X4XH.4.( Q I H A 1 1 > > = * & & @ O o . .     l.j.0.ZXZXg g -.-.,.;.%.%.%.%.%.-.y.a.",
"ZXxXE.D.B.B.B.B.B.u.B.B.B.B.2.w.G _ 0X8X8X4X4XH.H.E R I D q 1 1 , ; = * & $ @ O o . .   7 v.j.j.ZXZXh h &.%.%.-.-.>.-.%.;.>.y.y.",
"vXzXE.D.e.w.e.e.e.1.e.2.e.e.<.<.9XZ H.9X8X5XH.H.Q R Y F q q 1 1 > ; = * & @ O O o . .   9.j.0.g.ZXlXg g &.h g h g g g g g s l g ",
"ZXZXD.D.e.<.2.e.2.2.2.<.2.2.2.2.vX4 E W 4X4XH.H.Q Y F w q 1 1 , > ; = & & @ @ X . .     g.j.g.j.ZXzXg g h h d g g g h h d g h g ",
"uXeXVXnXNXNXkXNXnXnXVXVXMXCXnXVXaX5X> Y I I Y Y H D Z q q 1 1 , ; = * & & O o o . .   3XnXnXVXnXpXuXFXnXnXMXMXMXuXuXVXNXVXnXBXnX",
"uXhXsXCXVXVXVXFXnXVXBXNXNXnXnXnXeXgXY D I P H F D A A q q 1 , , ; * * & @ O O o . . Z NXVXCXnXnXeXrXsXnXVXjXcXNXiXiXkXnXNXnXNXnX",
"VXcX~.K.K.G.K.K.^.W.^.G.^.^.W.^.SXgXQ.0 F P H F D A Z q 2 1 , > = * & & @ O o o . @ n.F.N.V.b p GXcX&.l $.#.=.@.$.#.$.*.$.$.*.$.",
"NXZX~./.Q.^.`.~.~.~.^.G.^.^.G.^.bXZX!..X% A F F D A q q 1 1 , ; = * & & O O o o O n.N.Z.N.Z.p p ZXNXl l &.$.&.*.*.#.*.#.$.k *.$.",
"AXhX).K.%X*X$X*X&X&X&X&X&X%X/.#XhXmX'.R.i.0 = F A w q q 1 1 > > = * & @ O O . # b M V M C C u x zXzX$.$.h.k.h.d.k.h.x.x.x.x.[.[.",
"xXlXQ.F.=X*X$X%X*X*X*X%X&X%X(.(.AXZX%X|.p.s.<.o O q q 2 1 , > = = & & @ o . 0 M 1.1.<.M V V p a gXAX$.#.x.d.c.d.t.x.x.k.x.x.}.}.",
"zXZX^.K.%X%X$X*X&X$X$X$X$X$X#X^.kXkX`.'.e.p.B.B.u.e   . > , > * * O . O 0 M V C B B M B B B z p ZXzX&.&.t.z.r.k.k.l.k.k.k.d.{.{.",
"vXSXG.^.&X*X$X&X&X&X&X&X&X&X(.^.zXAX'.'.f.f.C.C.s.s.s.p.b 0 % 0 R 2XU Z.B C B V M C M C V M p p SXhX*.$.l.t.z.s.a.x.f.d.x.x.[.{.",
"fXfX~.(.$X&X=X%X&X&X&X&X&X&X^.^.fXfX'.'.C.p.C.p.p.s.p.s.C.p.'.'.fXfXN.Z.V C V V V B V V V V z u fXfX$.$.x.a.k.k.k.x.t.k.x.k.[.{.",
"fXfXW.W.$X&X=X%X&X&X&X&X&X&X^.^.fXfXY._.B.s.s.s.C.A.p.C.s.p.'.'.fXfXZ.Z.V C V C C C V C C V p p fXfX$.$.k.x.k.x.x.l.k.k.x.t.{.].",
"ZXmX~.^.$X&X*X*X&X&X&X&X&X&X#X^.ZXZX|.'.C.C.s.p.p.p.p.s.s.p.'.'.vXgXZ.Z.M M V V V V M V V B z p vXvX*.$.k.x.k.x.h.k.k.h.k.k.[.}.",
"ZXZX~.W.&X&X$X%X&X&X&X&X%X$X#XW.ZXzX_._.u.C.p.s.s.C.p.p.p.p.!.'.AXZXG.N.M 1.V C V C V C C C x a vXgX$.$.x.x.k.x.k.x.x.k.k.h.].{.",
"ZXZX~.~.$X*X&X*X&X*X&X&X&X&X/.^.ZXAX'._.B.A.p.s.s.C.s.s.s.C.'.'.zXZXG.Z.B V M C C C V C V M p p SXZX*.$.x.x.k.x.h.k.k.x.h.x.{.}.",
"ZXSX^.^.$X&X%X$X$X$X&X%X&X&X^.#XcXzX!._.p.s.p.B.p.p.s.p.s.s.!.!.SXGX5.V.B V C C V V V V V V a z zXzX$.#.x.x.d.x.t.t.k.x.k.x.].].",
"vXZXW.~.#X^.^.(.(.(./.#X^.#XQ.^.ZXZX|.|.!.'.!.'.|.'.|.'.!.!.'.'.ZXgXa a p p a p p z p p x z 9 a vXZX*.$.{.}.{.{.}.{.[.{.].].}.{.",
"ZXmX~.(.F./.^.(.Q.^.^./.Q.#XW./.ZXzX!.'.!.'.!.'.!.!.'.'.'.!.|.'.ZXZXp p z u a p p p p p p x u x ZXvX$.&.{.[.{.{.].].[.{.{.{.}.{."
};
